<?xml version="1.0" encoding="utf-8"?>
<!-- Generator: Adobe Illustrator 16.0.0, SVG Export Plug-In . SVG Version: 6.00 Build 0)  -->
<!DOCTYPE svg PUBLIC "-//W3C//DTD SVG 1.1//EN" "http://www.w3.org/Graphics/SVG/1.1/DTD/svg11.dtd">
<svg version="1.1" id="Layer_1" xmlns="http://www.w3.org/2000/svg" xmlns:xlink="http://www.w3.org/1999/xlink" x="0px" y="0px"
	 width="144.616px" height="39.6px" viewBox="0 0 144.616 39.6" enable-background="new 0 0 144.616 39.6" xml:space="preserve">
<g>
	<path fill-rule="evenodd" clip-rule="evenodd" fill="#F04923" d="M16.767,30.481c0.017-0.021-0.004-0.039-0.042-0.039
		c-0.037,0-0.084,0.018-0.101,0.039c-0.011,0.021,0.006,0.043,0.044,0.043C16.709,30.524,16.752,30.502,16.767,30.481L16.767,30.481
		z M15.096,30.14c0.031-0.042-0.005-0.074-0.085-0.074c-0.074,0-0.164,0.032-0.196,0.074c-0.032,0.043,0.006,0.073,0.085,0.073
		C14.975,30.213,15.064,30.183,15.096,30.14L15.096,30.14z M13.567,29.7c0.048-0.064-0.005-0.117-0.121-0.117
		c-0.118,0-0.25,0.053-0.299,0.117c-0.047,0.064,0.01,0.111,0.128,0.111C13.392,29.811,13.524,29.764,13.567,29.7L13.567,29.7z
		 M12.24,29.141c0.063-0.083-0.011-0.151-0.165-0.151c-0.159,0-0.333,0.068-0.398,0.151c-0.063,0.088,0.012,0.156,0.169,0.156
		C12.002,29.297,12.178,29.229,12.24,29.141L12.24,29.141z M11.115,28.489c0.08-0.111-0.016-0.196-0.217-0.196
		c-0.202,0-0.435,0.085-0.515,0.196c-0.084,0.107,0.015,0.197,0.217,0.197C10.802,28.686,11.03,28.596,11.115,28.489L11.115,28.489z
		 M10.176,27.736c0.094-0.133-0.022-0.237-0.261-0.237S9.4,27.603,9.3,27.736c-0.095,0.129,0.02,0.233,0.26,0.233
		C9.805,27.969,10.075,27.865,10.176,27.736L10.176,27.736z M9.458,26.908c0.118-0.153-0.021-0.277-0.296-0.277
		c-0.281,0-0.6,0.124-0.718,0.277c-0.111,0.148,0.021,0.272,0.304,0.272C9.029,27.18,9.348,27.056,9.458,26.908L9.458,26.908z
		 M8.981,25.995c0.128-0.176-0.026-0.314-0.345-0.314c-0.318,0-0.685,0.139-0.812,0.314c-0.127,0.169,0.021,0.308,0.344,0.308
		C8.488,26.302,8.848,26.164,8.981,25.995L8.981,25.995z M8.763,25.002c0.149-0.193-0.026-0.352-0.382-0.352
		c-0.361,0-0.765,0.158-0.913,0.352c-0.143,0.194,0.027,0.351,0.387,0.351C8.212,25.353,8.62,25.197,8.763,25.002L8.763,25.002z
		 M8.864,23.952c0.159-0.212-0.026-0.388-0.424-0.388c-0.399,0-0.849,0.176-1.008,0.388c-0.165,0.216,0.026,0.392,0.424,0.392
		C8.253,24.343,8.706,24.167,8.864,23.952L8.864,23.952z M9.252,22.859c0.175-0.233-0.032-0.426-0.467-0.426
		s-0.933,0.192-1.108,0.426c-0.175,0.232,0.031,0.423,0.466,0.423C8.578,23.282,9.077,23.091,9.252,22.859L9.252,22.859z
		 M9.931,21.731c0.191-0.255-0.038-0.466-0.508-0.466c-0.479,0-1.015,0.211-1.21,0.466c-0.192,0.257,0.036,0.462,0.509,0.462
		C9.199,22.193,9.74,21.988,9.931,21.731L9.931,21.731z M10.908,20.597c0.212-0.28-0.037-0.511-0.558-0.511
		c-0.52,0-1.114,0.23-1.327,0.511c-0.211,0.28,0.038,0.509,0.558,0.509C10.106,21.106,10.695,20.877,10.908,20.597L10.908,20.597z
		 M12.134,19.483c0.224-0.304-0.043-0.552-0.605-0.552c-0.556,0-1.199,0.248-1.422,0.552c-0.229,0.302,0.037,0.545,0.599,0.545
		C11.264,20.028,11.906,19.785,12.134,19.483L12.134,19.483z M34.163,27.875c0.016-0.024,0-0.039-0.043-0.039
		c-0.037,0-0.08,0.015-0.095,0.039c-0.017,0.021,0,0.034,0.042,0.034C34.104,27.91,34.147,27.896,34.163,27.875L34.163,27.875z
		 M31.891,28.331c-0.07,0-0.149,0.028-0.176,0.068c-0.031,0.039,0,0.068,0.075,0.068c0.068,0,0.148-0.029,0.175-0.068
		C31.996,28.359,31.959,28.331,31.891,28.331L31.891,28.331z M29.661,28.708c-0.096,0-0.228,0.049-0.275,0.106
		c-0.049,0.063,0.005,0.111,0.116,0.111c0.112,0,0.233-0.049,0.277-0.111C29.81,28.756,29.763,28.708,29.661,28.708L29.661,28.708z
		 M27.59,29.123c0.06-0.075-0.01-0.14-0.148-0.14c-0.138,0-0.297,0.064-0.356,0.14c-0.058,0.072,0.011,0.137,0.149,0.137
		C27.377,29.259,27.538,29.195,27.59,29.123L27.59,29.123z M25.255,29.137c-0.18,0-0.376,0.075-0.451,0.176
		c-0.069,0.087,0.005,0.175,0.191,0.175c0.169,0,0.382-0.081,0.457-0.175C25.526,29.212,25.441,29.137,25.255,29.137L25.255,29.137z
		 M23.371,29.383c0.085-0.12-0.016-0.21-0.228-0.21c-0.208,0-0.446,0.09-0.531,0.21c-0.085,0.111,0.015,0.199,0.223,0.199
		C23.048,29.583,23.287,29.495,23.371,29.383L23.371,29.383z M21.386,29.324c0.101-0.133-0.021-0.24-0.271-0.24
		s-0.531,0.107-0.633,0.24c-0.1,0.139,0.016,0.241,0.266,0.241S21.28,29.462,21.386,29.324L21.386,29.324z M19.496,29.159
		c0.112-0.154-0.021-0.276-0.302-0.276c-0.281,0-0.6,0.122-0.711,0.276c-0.117,0.149,0.021,0.276,0.303,0.276
		C19.061,29.435,19.379,29.308,19.496,29.159L19.496,29.159z M17.788,28.846c0.126-0.169-0.022-0.314-0.345-0.314
		c-0.319,0-0.68,0.146-0.808,0.314c-0.133,0.174,0.021,0.313,0.34,0.313C17.293,29.159,17.661,29.02,17.788,28.846L17.788,28.846z
		 M16.264,28.399c0.144-0.19-0.021-0.344-0.372-0.344c-0.35,0-0.748,0.153-0.891,0.344c-0.144,0.187,0.026,0.341,0.376,0.341
		C15.728,28.74,16.125,28.585,16.264,28.399L16.264,28.399z M14.969,27.82c0.159-0.212-0.026-0.381-0.42-0.381
		c-0.387,0-0.827,0.169-0.987,0.381c-0.159,0.209,0.026,0.378,0.42,0.378C14.368,28.198,14.81,28.029,14.969,27.82L14.969,27.82z
		 M13.923,27.109c0.17-0.223-0.032-0.408-0.452-0.408s-0.897,0.186-1.066,0.408c-0.17,0.229,0.032,0.413,0.451,0.413
		C13.275,27.522,13.752,27.338,13.923,27.109L13.923,27.109z M13.158,26.298c0.187-0.25-0.037-0.453-0.493-0.453
		c-0.461,0-0.982,0.203-1.168,0.453c-0.186,0.246,0.032,0.451,0.494,0.451C12.447,26.75,12.973,26.544,13.158,26.298L13.158,26.298z
		 M12.654,25.389c0.202-0.259-0.037-0.477-0.524-0.477c-0.488,0-1.051,0.218-1.248,0.477c-0.202,0.266,0.037,0.483,0.525,0.483
		C11.895,25.873,12.458,25.655,12.654,25.389L12.654,25.389z M12.458,24.403c0.213-0.286-0.042-0.516-0.567-0.516
		c-0.531,0-1.136,0.229-1.348,0.516c-0.218,0.287,0.037,0.521,0.567,0.521C11.641,24.923,12.24,24.69,12.458,24.403L12.458,24.403z
		 M47.464,20.125c0.016-0.015,0-0.028-0.032-0.028c-0.031,0-0.063,0.014-0.079,0.028c-0.012,0.021,0.005,0.032,0.037,0.032
		C47.415,20.157,47.454,20.146,47.464,20.125L47.464,20.125z M46.089,21.207c0.027-0.031-0.005-0.058-0.063-0.058
		c-0.064,0-0.132,0.026-0.16,0.058c-0.025,0.032,0.005,0.059,0.063,0.059C45.994,21.265,46.063,21.239,46.089,21.207L46.089,21.207z
		 M44.433,22.157c-0.101,0-0.201,0.036-0.239,0.092c-0.042,0.052,0,0.092,0.101,0.092c0.096,0,0.197-0.04,0.239-0.092
		C44.571,22.193,44.529,22.157,44.433,22.157L44.433,22.157z M42.688,23.109c-0.128,0-0.266,0.051-0.314,0.12
		c-0.054,0.068,0.006,0.124,0.134,0.124c0.126,0,0.265-0.056,0.312-0.124C42.873,23.16,42.814,23.109,42.688,23.109L42.688,23.109z
		 M40.966,24.159c0.065-0.085-0.011-0.151-0.164-0.151c-0.154,0-0.334,0.066-0.398,0.151c-0.064,0.084,0.017,0.154,0.17,0.154
		C40.728,24.313,40.909,24.243,40.966,24.159L40.966,24.159z M39.009,25.002c0.078-0.101-0.011-0.183-0.197-0.183
		c-0.191,0-0.403,0.082-0.478,0.183c-0.076,0.101,0.016,0.186,0.202,0.186C38.722,25.188,38.934,25.103,39.009,25.002L39.009,25.002
		z M36.938,25.77c0.091-0.115-0.016-0.21-0.233-0.21c-0.218,0-0.467,0.095-0.552,0.21c-0.091,0.12,0.016,0.214,0.233,0.214
		C36.604,25.984,36.854,25.89,36.938,25.77L36.938,25.77z M34.805,26.442c0.101-0.133-0.021-0.244-0.271-0.244
		s-0.531,0.111-0.632,0.244c-0.102,0.137,0.016,0.244,0.265,0.244S34.703,26.579,34.805,26.442L34.805,26.442z M32.315,26.715
		c-0.281,0-0.601,0.124-0.713,0.271c-0.115,0.154,0.017,0.276,0.303,0.276c0.282,0,0.595-0.122,0.712-0.276
		C32.745,26.839,32.596,26.715,32.315,26.715L32.315,26.715z M30.085,27.094c-0.307,0-0.679,0.137-0.812,0.314
		c-0.133,0.171,0.021,0.313,0.344,0.313c0.309,0,0.68-0.142,0.812-0.313C30.563,27.231,30.399,27.094,30.085,27.094L30.085,27.094z
		 M28.253,27.682c0.139-0.19-0.025-0.344-0.376-0.344s-0.749,0.153-0.892,0.344c-0.143,0.187,0.027,0.341,0.377,0.341
		C27.713,28.023,28.111,27.869,28.253,27.682L28.253,27.682z M26.131,27.804c0.154-0.207-0.027-0.372-0.41-0.372
		c-0.381,0-0.817,0.165-0.971,0.372c-0.153,0.208,0.032,0.372,0.41,0.372C25.542,28.176,25.978,28.012,26.131,27.804L26.131,27.804z
		 M24.115,27.79c0.17-0.223-0.027-0.404-0.441-0.404c-0.415,0-0.881,0.182-1.051,0.404c-0.165,0.223,0.032,0.402,0.445,0.402
		C23.477,28.192,23.95,28.012,24.115,27.79L24.115,27.79z M22.214,27.619c0.18-0.233-0.026-0.431-0.478-0.431
		c-0.435,0-0.944,0.193-1.126,0.431c-0.18,0.239,0.027,0.437,0.473,0.437C21.54,28.05,22.039,27.858,22.214,27.619L22.214,27.619z
		 M20.505,27.31c0.196-0.259-0.032-0.464-0.511-0.464c-0.471,0-1.014,0.205-1.205,0.464c-0.196,0.257,0.033,0.462,0.51,0.462
		C19.773,27.772,20.314,27.567,20.505,27.31L20.505,27.31z M18.977,26.855c0.207-0.276-0.037-0.499-0.542-0.499
		s-1.083,0.223-1.291,0.499c-0.201,0.27,0.038,0.491,0.547,0.491C18.196,27.346,18.769,27.125,18.977,26.855L18.977,26.855z
		 M48.823,11.828c0.032,0,0.069-0.017,0.08-0.031c0.011-0.017-0.005-0.032-0.032-0.032s-0.069,0.016-0.08,0.032
		C48.78,11.811,48.796,11.828,48.823,11.828L48.823,11.828z M49.025,12.852c0.053,0,0.133-0.032,0.159-0.059
		c0.021-0.032-0.011-0.064-0.068-0.064c-0.059,0-0.138,0.032-0.16,0.064C48.929,12.83,48.966,12.852,49.025,12.852L49.025,12.852z
		 M48.978,13.939c0.101,0,0.202-0.037,0.237-0.089c0.044-0.054,0-0.091-0.1-0.091c-0.096,0-0.196,0.037-0.233,0.091
		C48.844,13.892,48.882,13.939,48.978,13.939L48.978,13.939z M48.701,15.059c0.127,0,0.265-0.052,0.318-0.122
		c0.047-0.068-0.011-0.122-0.133-0.122c-0.127,0-0.265,0.053-0.318,0.122C48.515,15.007,48.574,15.059,48.701,15.059L48.701,15.059z
		 M48.589,16.047c0.063-0.085-0.011-0.153-0.165-0.153c-0.159,0-0.335,0.068-0.397,0.153c-0.064,0.085,0.011,0.155,0.169,0.155
		C48.351,16.202,48.525,16.132,48.589,16.047L48.589,16.047z M47.926,17.172c0.074-0.101-0.011-0.181-0.202-0.181
		c-0.186,0-0.398,0.08-0.473,0.181c-0.073,0.101,0.011,0.186,0.203,0.186C47.639,17.358,47.852,17.273,47.926,17.172L47.926,17.172z
		 M46.811,18.096c-0.222,0-0.468,0.097-0.551,0.212c-0.096,0.122,0.021,0.212,0.234,0.212c0.222,0,0.466-0.101,0.552-0.212
		C47.135,18.186,47.023,18.096,46.811,18.096L46.811,18.096z M45.67,19.185c-0.255,0-0.536,0.111-0.632,0.244
		c-0.106,0.131,0.011,0.239,0.266,0.239s0.53-0.108,0.631-0.239C46.052,19.291,45.925,19.185,45.67,19.185L45.67,19.185z
		 M44.614,20.518c0.111-0.156-0.021-0.278-0.302-0.278c-0.282,0-0.601,0.122-0.712,0.278c-0.116,0.147,0.021,0.27,0.297,0.27
		C44.178,20.788,44.497,20.666,44.614,20.518L44.614,20.518z M43.075,21.551c0.126-0.176-0.027-0.313-0.345-0.313
		s-0.68,0.137-0.813,0.313c-0.128,0.169,0.027,0.309,0.346,0.309C42.58,21.86,42.941,21.72,43.075,21.551L43.075,21.551z
		 M41.313,22.523c0.143-0.188-0.027-0.345-0.378-0.345c-0.35,0-0.748,0.156-0.891,0.345c-0.139,0.192,0.026,0.346,0.376,0.346
		C40.771,22.869,41.168,22.715,41.313,22.523L41.313,22.523z M38.987,23.032c-0.382,0-0.817,0.171-0.971,0.372
		c-0.154,0.208,0.032,0.377,0.409,0.377c0.382,0,0.817-0.169,0.971-0.377C39.55,23.203,39.363,23.032,38.987,23.032L38.987,23.032z
		 M37.357,24.189c0.165-0.223-0.032-0.404-0.445-0.404c-0.409,0-0.881,0.182-1.051,0.404c-0.165,0.225,0.033,0.404,0.446,0.404
		C36.721,24.593,37.188,24.414,37.357,24.189L37.357,24.189z M35.229,24.865c0.182-0.239-0.037-0.432-0.476-0.432
		c-0.448,0-0.952,0.192-1.133,0.432c-0.18,0.244,0.033,0.435,0.479,0.435C34.538,25.299,35.048,25.109,35.229,24.865L35.229,24.865z
		 M33.042,25.417c0.191-0.262-0.037-0.469-0.51-0.469c-0.477,0-1.019,0.207-1.21,0.469c-0.19,0.254,0.038,0.462,0.509,0.462
		C32.31,25.879,32.846,25.671,33.042,25.417L33.042,25.417z M30.303,25.332c-0.508,0-1.082,0.223-1.289,0.494
		c-0.208,0.276,0.037,0.492,0.546,0.492c0.503,0,1.078-0.216,1.285-0.492C31.036,25.554,30.797,25.332,30.303,25.332L30.303,25.332z
		 M37.554,7.772c0.027,0,0.069-0.016,0.081-0.032c0.01-0.017-0.005-0.032-0.033-0.032c-0.031,0-0.068,0.016-0.08,0.032
		C37.506,7.762,37.512,7.772,37.554,7.772L37.554,7.772z M39.434,8.081c0.025-0.032-0.006-0.059-0.071-0.059
		c-0.063,0-0.132,0.026-0.158,0.059c-0.022,0.036,0.005,0.063,0.069,0.063S39.407,8.116,39.434,8.081L39.434,8.081z M40.83,8.622
		c0.094,0,0.196-0.038,0.238-0.09c0.037-0.054-0.005-0.091-0.102-0.091c-0.1,0-0.2,0.037-0.239,0.091
		C40.692,8.579,40.728,8.622,40.83,8.622L40.83,8.622z M42.224,9.199c0.128,0,0.268-0.053,0.313-0.122
		c0.054-0.069-0.004-0.121-0.132-0.121c-0.127,0-0.265,0.052-0.318,0.121C42.039,9.146,42.098,9.199,42.224,9.199L42.224,9.199z
		 M43.409,9.896c0.154,0,0.329-0.068,0.393-0.155c0.063-0.084-0.011-0.152-0.165-0.152c-0.16,0-0.334,0.068-0.397,0.152
		C43.176,9.827,43.25,9.896,43.409,9.896L43.409,9.896z M44.863,10.484c0.074-0.101-0.017-0.181-0.202-0.181
		c-0.185,0-0.397,0.08-0.478,0.181c-0.075,0.101,0.016,0.186,0.202,0.186S44.783,10.585,44.863,10.484L44.863,10.484z
		 M45.156,11.536c0.222,0,0.466-0.102,0.557-0.212c0.09-0.122-0.027-0.214-0.239-0.214c-0.224,0-0.467,0.097-0.552,0.214
		C44.821,11.434,44.932,11.536,45.156,11.536L45.156,11.536z M45.691,12.47c0.255,0,0.537-0.112,0.631-0.239
		c0.106-0.139-0.01-0.245-0.265-0.245c-0.255,0-0.531,0.106-0.637,0.245C45.32,12.363,45.437,12.47,45.691,12.47L45.691,12.47z
		 M46.652,13.218c0.111-0.154-0.021-0.276-0.304-0.276c-0.28,0-0.599,0.123-0.711,0.276c-0.117,0.148,0.021,0.276,0.297,0.276
		C46.217,13.494,46.535,13.367,46.652,13.218L46.652,13.218z M45.563,14.269c-0.126,0.165,0.021,0.308,0.345,0.308
		c0.309,0,0.681-0.132,0.812-0.308c0.122-0.17-0.021-0.313-0.344-0.313C46.046,13.961,45.691,14.099,45.563,14.269L45.563,14.269z
		 M45.176,15.363c-0.143,0.19,0.026,0.345,0.377,0.345c0.35,0,0.749-0.154,0.892-0.345c0.144-0.192-0.026-0.34-0.376-0.34
		C45.713,15.028,45.313,15.182,45.176,15.363L45.176,15.363z M44.513,16.488c-0.153,0.208,0.032,0.376,0.409,0.376
		c0.382,0,0.817-0.168,0.972-0.376c0.153-0.202-0.027-0.373-0.409-0.373C45.102,16.115,44.667,16.286,44.513,16.488L44.513,16.488z
		 M45.054,17.624c0.171-0.223-0.031-0.404-0.44-0.404c-0.414,0-0.886,0.182-1.051,0.404c-0.17,0.225,0.032,0.404,0.441,0.404
		C44.417,18.028,44.889,17.848,45.054,17.624L45.054,17.624z M43.959,18.745c0.182-0.246-0.03-0.437-0.476-0.437
		c-0.442,0-0.951,0.19-1.132,0.437c-0.18,0.237,0.037,0.428,0.478,0.428C43.276,19.172,43.78,18.982,43.959,18.745L43.959,18.745z
		 M42.619,19.832c0.195-0.259-0.034-0.467-0.509-0.467c-0.473,0-1.015,0.208-1.206,0.467c-0.191,0.255,0.036,0.462,0.509,0.462
		C41.885,20.293,42.427,20.086,42.619,19.832L42.619,19.832z M41.068,20.867c0.208-0.275-0.037-0.498-0.542-0.498
		c-0.509,0-1.083,0.223-1.289,0.498c-0.208,0.271,0.037,0.494,0.542,0.494C40.287,21.361,40.861,21.138,41.068,20.867L41.068,20.867
		z M20.24,10.352c0.011-0.021-0.006-0.032-0.037-0.032c-0.027,0-0.064,0.011-0.074,0.032c-0.018,0.016,0,0.027,0.031,0.027
		C20.191,10.379,20.223,10.368,20.24,10.352L20.24,10.352z M22.548,9.827c0.026-0.039-0.004-0.065-0.069-0.065
		c-0.058,0-0.133,0.026-0.159,0.065c-0.021,0.031,0.006,0.058,0.069,0.058C22.453,9.885,22.522,9.858,22.548,9.827L22.548,9.827z
		 M24.863,9.407c0.038-0.054-0.006-0.091-0.102-0.091c-0.095,0-0.201,0.037-0.238,0.091c-0.037,0.048,0.01,0.09,0.1,0.09
		C24.72,9.498,24.825,9.456,24.863,9.407L24.863,9.407z M27.162,9.1c0.053-0.064-0.011-0.123-0.133-0.123
		c-0.128,0-0.265,0.058-0.319,0.123c-0.047,0.068,0.011,0.121,0.133,0.121C26.97,9.22,27.108,9.167,27.162,9.1L27.162,9.1z
		 M29.417,8.914c0.063-0.085-0.011-0.155-0.171-0.155c-0.153,0-0.328,0.07-0.393,0.155c-0.063,0.079,0.011,0.148,0.166,0.148
		C29.178,9.062,29.353,8.992,29.417,8.914L29.417,8.914z M31.619,8.844c0.081-0.101-0.01-0.186-0.196-0.186
		c-0.191,0-0.403,0.085-0.478,0.186c-0.074,0.101,0.017,0.181,0.202,0.181S31.545,8.945,31.619,8.844L31.619,8.844z M33.721,8.897
		c0.091-0.117-0.017-0.212-0.233-0.212s-0.467,0.096-0.552,0.212c-0.09,0.117,0.017,0.213,0.234,0.213S33.632,9.014,33.721,8.897
		L33.721,8.897z M35.721,9.062c0.103-0.132-0.02-0.243-0.264-0.243c-0.249,0-0.536,0.111-0.637,0.243
		c-0.1,0.138,0.021,0.245,0.271,0.245C35.336,9.307,35.622,9.199,35.721,9.062L35.721,9.062z M37.564,9.37
		c0.113-0.153-0.021-0.276-0.302-0.276c-0.282,0-0.601,0.123-0.712,0.276c-0.117,0.149,0.021,0.271,0.297,0.271
		C37.129,9.64,37.447,9.519,37.564,9.37L37.564,9.37z M38.414,10.129c0.308,0,0.664-0.139,0.797-0.313
		c0.127-0.165-0.017-0.313-0.329-0.313c-0.309,0-0.681,0.138-0.813,0.313C37.941,9.991,38.09,10.129,38.414,10.129L38.414,10.129z
		 M39.374,10.405c-0.143,0.186,0.028,0.339,0.377,0.339c0.351,0,0.749-0.153,0.893-0.339c0.143-0.191-0.026-0.346-0.377-0.346
		C39.911,10.064,39.513,10.219,39.374,10.405L39.374,10.405z M40.823,11.477c0.378,0,0.813-0.169,0.966-0.377
		c0.159-0.201-0.026-0.373-0.408-0.373c-0.376,0-0.813,0.172-0.966,0.373C40.256,11.308,40.457,11.477,40.823,11.477L40.823,11.477z
		 M41.647,12.326c0.408,0,0.88-0.18,1.049-0.404c0.167-0.218-0.036-0.404-0.444-0.404c-0.409,0-0.881,0.186-1.051,0.404
		C41.036,12.146,41.222,12.326,41.647,12.326L41.647,12.326z M43.308,12.83c0.181-0.237-0.031-0.434-0.472-0.434
		c-0.447,0-0.95,0.196-1.132,0.434c-0.18,0.239,0.033,0.437,0.479,0.437C42.624,13.267,43.128,13.068,43.308,12.83L43.308,12.83z
		 M43.637,13.818c0.191-0.255-0.038-0.461-0.509-0.461c-0.478,0-1.019,0.207-1.211,0.461c-0.191,0.255,0.037,0.467,0.51,0.467
		C42.905,14.285,43.44,14.073,43.637,13.818L43.637,13.818z M41.827,14.874c-0.207,0.276,0.037,0.499,0.542,0.499
		c0.509,0,1.082-0.223,1.289-0.499c0.208-0.271-0.037-0.494-0.546-0.494C42.624,14.38,42.034,14.604,41.827,14.874L41.827,14.874z
		 M43.398,15.972c0.218-0.291-0.042-0.524-0.579-0.524c-0.535,0-1.146,0.233-1.369,0.524c-0.219,0.288,0.043,0.526,0.579,0.526
		C42.565,16.499,43.176,16.26,43.398,15.972L43.398,15.972z M6.98,18.096c0.021-0.038-0.005-0.063-0.07-0.063
		c-0.063,0-0.132,0.025-0.159,0.063c-0.026,0.032,0.005,0.058,0.069,0.058C6.879,18.154,6.953,18.128,6.98,18.096L6.98,18.096z
		 M8.509,17.013c0.048-0.063-0.011-0.11-0.127-0.11s-0.249,0.047-0.297,0.11c-0.047,0.064,0.011,0.118,0.128,0.118
		C8.329,17.13,8.461,17.077,8.509,17.013L8.509,17.013z M10.234,15.972c0.074-0.095-0.011-0.174-0.192-0.174
		c-0.18,0-0.382,0.08-0.456,0.174c-0.069,0.096,0.015,0.176,0.196,0.176C9.958,16.148,10.165,16.068,10.234,15.972L10.234,15.972z
		 M12.113,14.991c0.101-0.133-0.016-0.239-0.256-0.239c-0.243,0-0.519,0.106-0.615,0.239c-0.101,0.127,0.016,0.233,0.26,0.233
		C11.742,15.224,12.017,15.118,12.113,14.991L12.113,14.991z M14.124,14.062c0.118-0.159-0.025-0.286-0.318-0.286
		c-0.297,0-0.632,0.127-0.754,0.286c-0.122,0.16,0.022,0.287,0.318,0.287C13.663,14.349,14.002,14.222,14.124,14.062L14.124,14.062z
		 M16.248,13.218c0.148-0.196-0.027-0.35-0.382-0.35s-0.763,0.154-0.913,0.35c-0.143,0.191,0.027,0.351,0.388,0.351
		C15.695,13.569,16.104,13.409,16.248,13.218L16.248,13.218z M18.487,12.448c0.176-0.228-0.031-0.409-0.451-0.409
		c-0.419,0-0.897,0.181-1.067,0.409c-0.169,0.229,0.031,0.414,0.451,0.414C17.84,12.862,18.318,12.677,18.487,12.448L18.487,12.448z
		 M20.765,11.78c0.196-0.255-0.031-0.462-0.51-0.462c-0.472,0-1.014,0.207-1.205,0.462c-0.19,0.254,0.038,0.461,0.51,0.461
		C20.033,12.241,20.574,12.034,20.765,11.78L20.765,11.78z M23.116,11.222c0.217-0.287-0.042-0.525-0.578-0.525
		c-0.537,0-1.147,0.239-1.365,0.525c-0.223,0.292,0.037,0.526,0.574,0.526C22.283,11.748,22.899,11.514,23.116,11.222L23.116,11.222
		z M23.971,11.376c0.536,0,1.146-0.213,1.429-0.494c0.084,0.165,0.355,0.271,0.764,0.271c0.451,0,0.965-0.133,1.316-0.341
		c0.111,0.165,0.393,0.283,0.817,0.283c0.377,0,0.787-0.091,1.126-0.229c0.112,0.191,0.424,0.319,0.902,0.319
		c0.298,0,0.615-0.053,0.908-0.138c0.022,0.048,0.048,0.085,0.09,0.122c-0.372,0.026-0.759,0.106-1.088,0.228
		c-0.17-0.128-0.461-0.212-0.854-0.212c-0.494,0-1.041,0.133-1.459,0.333c-0.166-0.095-0.42-0.158-0.754-0.158
		c-0.563,0-1.194,0.185-1.614,0.441c-0.153-0.076-0.371-0.122-0.658-0.122c-0.632,0-1.344,0.238-1.709,0.557
		c-0.138-0.059-0.334-0.101-0.574-0.101c-0.69,0-1.486,0.308-1.763,0.679c-0.132-0.053-0.303-0.085-0.515-0.085
		c-0.647,0-1.38,0.281-1.645,0.632c-0.049,0.064-0.08,0.122-0.091,0.175c-0.127-0.054-0.287-0.084-0.499-0.084
		c-0.589,0-1.279,0.259-1.523,0.589c-0.245,0.318,0.036,0.583,0.642,0.583c0.605,0,1.278-0.26,1.524-0.583
		c0.042-0.054,0.063-0.102,0.069-0.149c0.132,0.069,0.33,0.111,0.551,0.111c0.631,0,1.348-0.276,1.625-0.611
		c0.148,0.07,0.345,0.107,0.584,0.107h0.069c-0.361,0.126-0.669,0.313-0.843,0.51c-0.08-0.006-0.16-0.017-0.244-0.017
		c-0.759,0-1.619,0.335-1.922,0.738c-0.021,0.032-0.047,0.064-0.047,0.085c-0.059,0-0.097-0.01-0.149-0.01
		c-0.722,0-1.535,0.313-1.822,0.701c-0.057,0.08-0.089,0.153-0.094,0.222h-0.075c-0.674,0-1.448,0.298-1.72,0.664
		c-0.1,0.129-0.116,0.244-0.074,0.34h-0.042c-0.637,0-1.369,0.281-1.625,0.626c-0.137,0.182-0.116,0.341,0.021,0.458h-0.042
		c-0.59,0-1.279,0.253-1.523,0.584c-0.25,0.327,0.036,0.582,0.643,0.582c0.589,0,1.278-0.255,1.523-0.582
		c0.123-0.16,0.111-0.314-0.005-0.421h0.069c0.339,0,0.689-0.075,0.993-0.197l-0.017,0.021c-0.123,0.16-0.133,0.309-0.053,0.433
		c-0.568,0.094-1.109,0.344-1.333,0.642c-0.159,0.216-0.127,0.397,0.058,0.524c-0.503,0.106-0.951,0.329-1.151,0.594
		c-0.191,0.249-0.09,0.474,0.212,0.58c-0.439,0.101-0.871,0.313-1.05,0.557c-0.224,0.297-0.026,0.537,0.435,0.599
		c-0.43,0.103-0.812,0.289-0.981,0.518c-0.239,0.323,0.037,0.586,0.641,0.586c0.07,0,0.133-0.011,0.202-0.011
		c-0.456,0.071-0.922,0.278-1.11,0.529c-0.228,0.308,0.038,0.545,0.6,0.545c0.563,0,1.2-0.237,1.429-0.545
		c0.228-0.304-0.038-0.55-0.605-0.55c-0.054,0-0.133,0.006-0.187,0.006c0.494-0.072,0.982-0.293,1.179-0.55
		c0.011-0.017,0.021-0.032,0.016-0.038c0.088,0.096,0.265,0.164,0.478,0.201c-0.271,0.117-0.478,0.261-0.6,0.419
		c-0.266,0.361,0.054,0.648,0.711,0.648h0.032c-0.218,0.101-0.388,0.227-0.483,0.354c-0.254,0.345,0.043,0.623,0.679,0.623
		c0.112,0,0.229-0.011,0.355-0.028c-0.185,0.09-0.339,0.208-0.429,0.33c-0.251,0.325,0.037,0.584,0.641,0.584
		c0.256,0,0.532-0.054,0.775-0.129c-0.233,0.097-0.419,0.217-0.525,0.357c-0.229,0.309,0.046,0.559,0.61,0.559
		c0.563,0,1.216-0.25,1.444-0.559c0.117-0.149,0.101-0.282,0.006-0.376c0.143,0,0.281-0.018,0.424-0.043l-0.005,0.011
		c-0.202,0.263-0.091,0.492,0.239,0.597c-0.054-0.004-0.123-0.004-0.182-0.004c-0.53,0-1.146,0.232-1.363,0.526
		c-0.217,0.286,0.042,0.52,0.578,0.52c0.531,0,1.146-0.233,1.364-0.52c0.149-0.204,0.069-0.379-0.164-0.456
		c0.089,0.009,0.181,0.02,0.281,0.02c0.24,0,0.493-0.037,0.738-0.105c-0.191,0.334,0.118,0.595,0.755,0.595
		c0.333,0,0.704-0.079,1.008-0.201c-0.139,0.298,0.168,0.521,0.737,0.521c0.436,0,0.913-0.133,1.242-0.33
		c-0.101,0.266,0.181,0.471,0.701,0.471c0.563,0,1.189-0.227,1.465-0.523c-0.174,0.29,0.091,0.52,0.626,0.52
		c0.563,0,1.215-0.257,1.444-0.559c0.234-0.302-0.037-0.546-0.578-0.556c0.138-0.054,0.253-0.109,0.37-0.174
		c0.128,0.133,0.394,0.205,0.744,0.205c0.127,0,0.276-0.004,0.404-0.031c-0.319,0.096-0.611,0.254-0.749,0.436
		c-0.218,0.285,0.043,0.524,0.578,0.524c0.537,0,1.147-0.239,1.364-0.524c0.219-0.286-0.042-0.525-0.573-0.525
		c-0.101,0-0.208,0.008-0.302,0.021c0.351-0.092,0.679-0.239,0.902-0.423c0.133,0.098,0.361,0.151,0.657,0.151
		c0.665,0,1.413-0.293,1.684-0.646l0.011-0.018c0.127,0.075,0.34,0.118,0.578,0.118c0.633,0,1.343-0.276,1.604-0.623
		c0.043-0.058,0.074-0.115,0.095-0.18c0.122,0.064,0.302,0.101,0.53,0.101c0.605,0,1.281-0.259,1.524-0.588
		c0.101-0.135,0.101-0.266,0.038-0.361c0.116,0.079,0.302,0.132,0.556,0.132c0.563,0,1.216-0.25,1.444-0.552
		c0.229-0.308-0.042-0.556-0.609-0.556c-0.282,0-0.563,0.063-0.819,0.153c0.06-0.079,0.08-0.149,0.091-0.214h0.015
		c0.494,0,1.03-0.153,1.39-0.376c-0.036,0.034-0.063,0.068-0.084,0.103c-0.217,0.284,0.038,0.524,0.574,0.524
		c0.537,0,1.152-0.24,1.37-0.524c0.217-0.289-0.042-0.526-0.578-0.526c-0.366,0-0.776,0.115-1.051,0.276
		c0.069-0.054,0.123-0.107,0.166-0.161c0.094-0.133,0.116-0.254,0.068-0.361c0.642-0.032,1.327-0.302,1.587-0.646
		c0.138-0.182,0.123-0.351-0.021-0.462c0.583-0.047,1.188-0.304,1.417-0.611c0.181-0.233,0.096-0.438-0.196-0.541
		c0.532-0.052,1.088-0.287,1.301-0.567c0.228-0.304-0.011-0.547-0.536-0.579c0.551-0.021,1.151-0.26,1.37-0.547
		c0.228-0.307-0.049-0.557-0.611-0.557c-0.563,0-1.216,0.25-1.444,0.557c-0.217,0.288,0.005,0.515,0.5,0.547
		c-0.58,0.021-1.216,0.275-1.45,0.579c-0.164,0.225-0.079,0.408,0.182,0.509c-0.574,0.054-1.174,0.302-1.402,0.612
		c-0.123,0.165-0.111,0.316,0.016,0.428c-0.626,0.049-1.279,0.314-1.524,0.644c-0.096,0.12-0.117,0.228-0.08,0.323
		c-0.68,0.028-1.417,0.313-1.694,0.679c-0.047,0.07-0.084,0.139-0.09,0.196h-0.058c-0.716,0-1.549,0.321-1.842,0.71l-0.038,0.056
		c-0.063-0.011-0.138-0.011-0.206-0.011c-0.69,0-1.46,0.276-1.826,0.632c-0.102-0.018-0.218-0.032-0.357-0.032
		c-0.578,0-1.21,0.186-1.629,0.447c-0.191-0.122-0.514-0.176-0.923-0.14c-0.457,0.043-0.893,0.19-1.209,0.388
		c-0.144-0.158-0.488-0.242-0.936-0.212c-0.434,0.027-0.875,0.165-1.194,0.351c-0.112-0.154-0.387-0.255-0.786-0.255
		c-0.359,0-0.748,0.084-1.088,0.217c-0.011-0.176-0.187-0.313-0.508-0.377c-0.335-0.058-0.755-0.02-1.159,0.103
		c0.064-0.196-0.042-0.372-0.324-0.468c-0.287-0.09-0.668-0.079-1.051-0.007c0.128-0.19,0.118-0.381-0.095-0.509
		c-0.207-0.122-0.521-0.172-0.881-0.138c0.222-0.192,0.309-0.394,0.212-0.563c-0.112-0.175-0.418-0.268-0.779-0.271
		c0.276-0.187,0.436-0.397,0.396-0.588c-0.036-0.176-0.233-0.287-0.524-0.334c0.308-0.146,0.541-0.332,0.637-0.526
		c0.101-0.214-0.011-0.383-0.261-0.477c0.409-0.135,0.739-0.33,0.903-0.548c0.147-0.201,0.121-0.381-0.059-0.505
		c0.376-0.084,0.749-0.244,0.998-0.441c0.244-0.196,0.308-0.397,0.217-0.556c0.356-0.037,0.732-0.149,1.046-0.319
		c0.335-0.181,0.499-0.387,0.524-0.568c0.363,0.006,0.787-0.069,1.175-0.228c0.387-0.165,0.63-0.361,0.726-0.557
		c0.304,0.047,0.691,0.015,1.088-0.102c0.415-0.121,0.732-0.302,0.908-0.492c0.255,0.089,0.637,0.105,1.051,0.021
		c0.397-0.074,0.743-0.217,0.986-0.394c0.165,0.122,0.462,0.192,0.839,0.176c0.43-0.022,0.854-0.144,1.178-0.313
		c0.092,0.159,0.347,0.276,0.713,0.292c0.371,0.011,0.764-0.063,1.114-0.19c-0.005,0.175,0.165,0.323,0.479,0.392
		c0.329,0.07,0.752,0.033,1.141-0.074c-0.068,0.191,0.004,0.372,0.283,0.472c0.216,0.085,0.529,0.096,0.854,0.059
		c0.011,0.026,0.031,0.052,0.053,0.081c-0.091,0.142-0.091,0.285,0.011,0.402l0.015,0.01c0.355,0.367,1.194,1.243,0.021,2.42
		c-0.292,0.297-0.089,0.44,0.462,0.214c3.402-1.376,4.304-3.064,4.399-3.266c0.081-0.127,0.118-0.249,0.118-0.361
		c0.08-0.069,0.155-0.148,0.207-0.222c0.271-0.356,0.196-0.669-0.148-0.866c0.076-0.064,0.138-0.132,0.191-0.201
		c0.334-0.441,0.106-0.812-0.479-0.972c0.356-0.493-0.015-0.897-0.837-0.966c0.18-0.44-0.281-0.786-1.141-0.786h-0.096
		c0.063-0.366-0.377-0.62-1.126-0.62c-0.138,0-0.287,0.005-0.446,0.026c-0.025-0.292-0.424-0.5-1.056-0.5
		c-0.254,0-0.504,0.032-0.753,0.085c-0.075-0.238-0.436-0.397-0.999-0.397c-0.35,0-0.726,0.069-1.061,0.176
		c-0.112-0.191-0.425-0.314-0.892-0.314c-0.435,0-0.913,0.117-1.294,0.282c-0.116-0.159-0.398-0.255-0.807-0.255
		c-0.521,0-1.094,0.165-1.477,0.409c-0.105-0.139-0.361-0.229-0.726-0.229c-0.611,0-1.307,0.25-1.598,0.567
		c-0.096-0.131-0.339-0.228-0.69-0.228c-0.589,0-1.263,0.26-1.508,0.579C23.095,11.116,23.381,11.376,23.971,11.376L23.971,11.376z
		 M5.515,26.424c0.016-0.021-0.004-0.042-0.052-0.042c-0.048,0-0.102,0.021-0.117,0.042c-0.022,0.028,0,0.048,0.046,0.048
		C5.441,26.472,5.494,26.453,5.515,26.424L5.515,26.424z M5.377,25.432c0.037-0.054-0.011-0.095-0.102-0.095
		c-0.094,0-0.2,0.041-0.238,0.095c-0.037,0.049,0.005,0.09,0.101,0.09C5.228,25.522,5.335,25.481,5.377,25.432L5.377,25.432z
		 M5.472,24.381c0.059-0.072-0.009-0.139-0.148-0.139c-0.137,0-0.297,0.066-0.355,0.139c-0.059,0.075,0.011,0.137,0.148,0.137
		C5.261,24.518,5.419,24.457,5.472,24.381L5.472,24.381z M5.807,23.282c0.073-0.101-0.016-0.18-0.202-0.18s-0.398,0.079-0.473,0.18
		c-0.078,0.103,0.011,0.187,0.197,0.187C5.515,23.468,5.732,23.384,5.807,23.282L5.807,23.282z M6.391,22.174
		c0.09-0.129-0.021-0.229-0.254-0.229c-0.234,0-0.5,0.101-0.594,0.229c-0.096,0.126,0.022,0.227,0.254,0.227
		C6.03,22.401,6.295,22.3,6.391,22.174L6.391,22.174z M7.171,21.036c0.112-0.144-0.022-0.263-0.292-0.263
		c-0.271,0-0.584,0.119-0.696,0.263c-0.11,0.149,0.021,0.271,0.292,0.271C6.752,21.307,7.061,21.185,7.171,21.036L7.171,21.036z
		 M8.201,19.913c0.128-0.171-0.026-0.311-0.346-0.311c-0.317,0-0.679,0.14-0.812,0.311c-0.128,0.174,0.028,0.313,0.345,0.313
		C7.708,20.225,8.074,20.086,8.201,19.913L8.201,19.913z M9.437,18.796c0.15-0.201-0.026-0.359-0.393-0.359
		c-0.366,0-0.785,0.158-0.933,0.359c-0.149,0.196,0.031,0.356,0.393,0.356C8.87,19.153,9.289,18.993,9.437,18.796L9.437,18.796z
		 M10.919,17.709c0.164-0.224-0.033-0.405-0.445-0.405c-0.415,0-0.881,0.181-1.051,0.405c-0.166,0.223,0.031,0.402,0.445,0.402
		C10.276,18.112,10.749,17.932,10.919,17.709L10.919,17.709z M12.611,16.674c0.187-0.25-0.037-0.452-0.493-0.452
		c-0.461,0-0.981,0.202-1.167,0.452c-0.192,0.243,0.031,0.445,0.494,0.445C11.9,17.119,12.426,16.917,12.611,16.674L12.611,16.674z
		 M14.512,15.697c0.208-0.271-0.037-0.494-0.546-0.494c-0.504,0-1.079,0.223-1.285,0.494c-0.207,0.275,0.038,0.493,0.541,0.493
		C13.731,16.19,14.305,15.972,14.512,15.697L14.512,15.697z M16.556,14.815c0.222-0.297-0.043-0.542-0.595-0.542
		c-0.552,0-1.183,0.245-1.406,0.542c-0.224,0.298,0.042,0.542,0.594,0.542C15.701,15.357,16.333,15.113,16.556,14.815L16.556,14.815
		z"/>
	<path fill="#F04923" d="M54.281,24.534v-0.557h4.274v0.557h-1.797v6.19h-0.679v-6.19H54.281z M64.157,23.977h0.689v6.747h-0.689
		v-3.116h-3.671v3.116H59.79v-6.747h0.696v3.085h3.671V23.977z M69.816,23.977v0.557h-2.784v2.528h2.487v0.546h-2.487v2.566h2.784
		v0.55h-3.479v-6.747H69.816z M74.14,30.724v-6.747h3.697v0.557h-2.998v2.528h2.395v0.546h-2.395v3.116H74.14z M83.902,29.424
		c0.529-0.531,0.787-1.22,0.787-2.073c0-0.852-0.258-1.54-0.777-2.063c-0.522-0.521-1.186-0.778-1.989-0.778
		c-0.797,0-1.458,0.257-1.989,0.778c-0.521,0.522-0.788,1.211-0.788,2.063c0,0.854,0.268,1.542,0.788,2.073
		c0.531,0.521,1.184,0.785,1.989,0.785C82.718,30.209,83.381,29.946,83.902,29.424L83.902,29.424z M79.446,29.82
		c-0.674-0.646-1.004-1.475-1.004-2.469c0-0.995,0.33-1.823,1.004-2.469c0.669-0.646,1.499-0.972,2.484-0.972
		c0.978,0,1.808,0.325,2.478,0.972c0.665,0.646,0.995,1.474,0.995,2.469c0,0.994-0.33,1.822-0.995,2.469
		c-0.67,0.648-1.5,0.971-2.478,0.971C80.945,30.791,80.115,30.468,79.446,29.82L79.446,29.82z M87.232,27.899v2.825h-0.694v-6.747
		h2.095c0.765,0,1.342,0.185,1.742,0.539c0.396,0.366,0.595,0.821,0.595,1.376c0,0.556-0.156,1.003-0.463,1.344
		c-0.315,0.349-0.771,0.554-1.393,0.64l1.947,2.849H90.16l-1.855-2.825H87.232z M87.232,24.534v2.809h1.4
		c1.086,0,1.634-0.471,1.634-1.407c0-0.929-0.548-1.401-1.634-1.401H87.232z M93.183,29.813c-0.671-0.647-1.01-1.468-1.01-2.462
		c0-0.995,0.339-1.823,1.01-2.469c0.672-0.646,1.491-0.972,2.469-0.972c0.706,0,1.326,0.15,1.872,0.467
		c0.548,0.314,0.962,0.771,1.235,1.367h-0.845c-0.205-0.4-0.513-0.704-0.912-0.911c-0.398-0.217-0.844-0.323-1.351-0.323
		c-0.796,0-1.458,0.257-1.979,0.778c-0.523,0.522-0.787,1.211-0.787,2.063c0,0.854,0.264,1.542,0.787,2.064
		c0.521,0.521,1.183,0.776,1.979,0.776c0.507,0,0.952-0.104,1.351-0.321c0.399-0.216,0.707-0.53,0.912-0.928h0.845
		c-0.273,0.605-0.688,1.061-1.235,1.375c-0.546,0.307-1.166,0.465-1.872,0.465C94.674,30.783,93.854,30.459,93.183,29.813
		L93.183,29.813z M103.74,23.977v0.557h-2.785v2.528h2.485v0.546h-2.485v2.566h2.785v0.55h-3.481v-6.747H103.74z M115.872,23.977
		h0.72l-2.122,6.747h-0.754l-1.641-5.77l-1.772,5.77l-0.754,0.009l-1.939-6.756h0.729l1.607,5.976l1.773-5.976h0.754l1.624,5.943
		L115.872,23.977z M117.627,30.724v-6.747h0.689v6.747H117.627z M119.55,24.534v-0.557h4.274v0.557h-1.797v6.19h-0.679v-6.19H119.55
		z M129.418,23.977h0.695v6.747h-0.695v-3.116h-3.67v3.116h-0.696v-6.747h0.696v3.085h3.67V23.977z M131.605,30.724v-6.747h0.697
		v6.747H131.605z M138.319,23.977h0.694v6.747h-0.694l-3.838-5.649v5.649h-0.696v-6.747h0.696l3.838,5.654V23.977z"/>
	<path fill="#262626" d="M58.571,10.497c-0.363,0-0.662,0.1-0.885,0.291c-0.233,0.19-0.348,0.472-0.348,0.828
		c0,0.365,0.106,0.655,0.322,0.87c0.208,0.224,0.49,0.39,0.829,0.514c0.349,0.116,0.73,0.231,1.152,0.332
		c0.422,0.107,0.845,0.241,1.26,0.391c0.414,0.157,0.794,0.347,1.143,0.57c0.34,0.225,0.621,0.549,0.838,0.954
		c0.206,0.415,0.314,0.903,0.314,1.484c0,1.002-0.407,1.864-1.227,2.577c-0.811,0.721-1.889,1.078-3.224,1.078
		c-1.333,0-2.41-0.323-3.222-0.961c-0.821-0.647-1.227-1.56-1.227-2.744h3.074c0.074,0.944,0.563,1.416,1.451,1.416
		c0.422,0,0.745-0.106,0.978-0.329c0.241-0.217,0.356-0.499,0.356-0.839c0-0.331-0.109-0.613-0.316-0.829
		c-0.215-0.215-0.496-0.381-0.836-0.505c-0.348-0.124-0.729-0.241-1.151-0.348c-0.423-0.108-0.845-0.241-1.259-0.398
		c-0.416-0.157-0.796-0.348-1.145-0.562c-0.338-0.225-0.622-0.539-0.828-0.954c-0.215-0.406-0.323-0.895-0.323-1.458
		c0-1.111,0.406-1.988,1.234-2.659c0.821-0.664,1.874-0.995,3.149-0.995c1.277,0,2.312,0.29,3.099,0.87
		c0.787,0.581,1.202,1.5,1.235,2.75h-3.14c-0.05-0.43-0.183-0.762-0.414-0.995C59.227,10.613,58.929,10.497,58.571,10.497
		L58.571,10.497z M73.016,20.268l-0.663-1.998h-4.25l-0.662,1.998h-3.075l4.118-11.917h3.52l4.103,11.917H73.016z M68.823,16.065
		h2.809l-1.41-4.226L68.823,16.065z M80.415,20.268h-2.894V8.384h2.894v5.212l3.919-5.212h3.785l-4.887,5.941l4.887,5.943h-3.72
		l-3.984-5.247V20.268z M93.706,10.497c-0.355,0-0.654,0.1-0.888,0.291c-0.223,0.19-0.338,0.472-0.338,0.828
		c0,0.365,0.107,0.655,0.313,0.87c0.217,0.224,0.498,0.39,0.837,0.514c0.348,0.116,0.729,0.231,1.151,0.332
		c0.423,0.107,0.846,0.241,1.26,0.391c0.415,0.157,0.795,0.347,1.135,0.57c0.347,0.225,0.63,0.549,0.836,0.954
		c0.217,0.415,0.323,0.903,0.323,1.484c0,1.002-0.405,1.864-1.225,2.577c-0.812,0.721-1.889,1.078-3.223,1.078
		s-2.414-0.323-3.232-0.961c-0.813-0.647-1.218-1.56-1.218-2.744h3.073c0.076,0.944,0.564,1.416,1.451,1.416
		c0.414,0,0.745-0.106,0.978-0.329c0.239-0.217,0.354-0.499,0.354-0.839c0-0.331-0.104-0.613-0.32-0.829
		c-0.208-0.215-0.489-0.381-0.838-0.505c-0.34-0.124-0.72-0.241-1.144-0.348c-0.421-0.108-0.845-0.241-1.26-0.398
		c-0.413-0.157-0.796-0.348-1.142-0.562c-0.34-0.225-0.623-0.539-0.838-0.954c-0.207-0.406-0.314-0.895-0.314-1.458
		c0-1.111,0.405-1.988,1.235-2.659c0.819-0.664,1.864-0.995,3.147-0.995c1.276,0,2.313,0.29,3.099,0.87
		c0.789,0.581,1.2,1.5,1.235,2.75h-3.148c-0.042-0.43-0.182-0.762-0.408-0.995C94.369,10.613,94.069,10.497,93.706,10.497
		L93.706,10.497z M108.09,8.384h2.883v11.884h-2.883v-4.933h-4.583v4.933h-2.891V8.384h2.891v4.756h4.583V8.384z M121.042,20.268
		l-0.656-1.998h-4.258l-0.655,1.998h-3.083l4.127-11.917h3.512l4.111,11.917H121.042z M116.857,16.065h2.8l-1.401-4.226
		L116.857,16.065z M138.988,8.384v11.884h-2.893v-6.705l-2.749,6.705h-2.146l-2.761-6.705v6.705h-2.885V8.384h3.308l3.414,8.186
		l3.396-8.186H138.988z"/>
</g>
</svg>
