<svg xmlns="http://www.w3.org/2000/svg" width="77.777" height="29.194" viewBox="0 0 77.777 29.194">
  <g id="Hiring-svg" transform="translate(-86.925 -77.787)">
    <g id="Group_31" data-name="Group 31">
      <g id="Group_30" data-name="Group 30">
        <circle id="Ellipse_54" data-name="Ellipse 54" cx="10.352" cy="10.352" r="10.352" transform="translate(110.825 86.781) rotate(-22.5)" fill="#ff69a6"/>
      </g>
      <path id="Path_181" data-name="Path 181" d="M125.612,91.238h-.381v-.949a2.118,2.118,0,1,0-1.76,0v.949h-.38a2.905,2.905,0,0,0-2.9,2.9v3.446h8.315V94.135A2.906,2.906,0,0,0,125.612,91.238Z" fill="#fff"/>
    </g>
    <g id="Group_32" data-name="Group 32">
      <circle id="Ellipse_55" data-name="Ellipse 55" cx="10.353" cy="10.353" r="10.353" transform="translate(86.925 99.942) rotate(-77.055)" fill="#b292ef"/>
      <path id="Path_182" data-name="Path 182" d="M100.971,86.525a3.734,3.734,0,0,0-3.734,3.734,3.7,3.7,0,0,0,.368,1.592L94.35,95.106a1,1,0,0,0,1.407,1.408L98.9,93.367a3.734,3.734,0,1,0,2.067-6.842Z" fill="#fff"/>
      <path id="Path_183" data-name="Path 183" d="M102.975,90.259a2,2,0,1,1-2-2A2,2,0,0,1,102.975,90.259Z" fill="#bb96e6"/>
    </g>
    <g id="Group_36" data-name="Group 36">
      <g id="Group_34" data-name="Group 34">
        <g id="Group_33" data-name="Group 33">
          <circle id="Ellipse_56" data-name="Ellipse 56" cx="10.353" cy="10.353" r="10.353" transform="translate(135.508 91.253) rotate(-40.573)" fill="#fab234"/>
        </g>
      </g>
      <g id="Group_35" data-name="Group 35">
        <path id="Path_184" data-name="Path 184" d="M151.149,89.4a.981.981,0,0,0-1.1-1.03,2.068,2.068,0,0,0-1.489.753l-1.325-1.211a4.123,4.123,0,0,1,3.124-1.489c1.75,0,3.092.868,3.092,2.8,0,2.029-2.454,2.634-2.258,4.58h-2.109C148.76,91.562,151.149,90.629,151.149,89.4ZM148.7,96.273a1.449,1.449,0,1,1,1.439,1.5A1.441,1.441,0,0,1,148.7,96.273Z" fill="#fff"/>
      </g>
    </g>
  </g>
</svg>
