<?xml version="1.0" encoding="utf-8"?>
<!-- Generator: Adobe Illustrator 16.0.0, SVG Export Plug-In . SVG Version: 6.00 Build 0)  -->
<!DOCTYPE svg PUBLIC "-//W3C//DTD SVG 1.1//EN" "http://www.w3.org/Graphics/SVG/1.1/DTD/svg11.dtd">
<svg version="1.1" id="Layer_1" xmlns="http://www.w3.org/2000/svg" xmlns:xlink="http://www.w3.org/1999/xlink" x="0px" y="0px"
	 width="32.68px" height="11.852px" viewBox="0 0 32.68 11.852" enable-background="new 0 0 32.68 11.852" xml:space="preserve">
<g>
	<g>
		<path d="M2.938,6.022v5.493H3.61v0.216H0.048v-0.216h0.66V6.238H0V6.022H2.938z M1.859,2.964c0.743,0,1.187,0.372,1.187,1.104
			c0,0.635-0.348,1.127-1.211,1.127c-0.971,0-1.199-0.611-1.199-1.115C0.636,3.492,0.959,2.964,1.859,2.964z"/>
		<path d="M10.196,3.528H8.985V3.336h2.363v0.192h-0.792L8.745,7.534v3.97h0.731v0.228H5.675v-0.228h0.731V7.762L4.368,3.528H3.804
			V3.336h3.838v0.192H6.862l1.631,3.754L10.196,3.528z"/>
		<path d="M21.198,3.336v0.228h-0.66v7.939h0.66v0.228h-3.658v-0.228h0.66V4.008h-0.048l-1.799,7.724h-1.499l-2.111-7.76h-0.048
			v7.532h0.66v0.228h-1.631v-0.228h0.66V3.564h-0.66V3.336h3.238l1.595,6.177l1.439-6.177H21.198z"/>
		<path d="M26.924,10.34c0-0.996-0.744-1.319-2.219-1.739c-1.451-0.408-2.555-0.983-2.555-2.794c0-1.343,0.996-2.603,2.843-2.603
			c1.103,0,1.727,0.372,2.135,0.372c0.204,0,0.264-0.084,0.348-0.24h0.132l0.084,2.423H27.5c-0.611-1.104-1.427-2.303-2.663-2.303
			c-0.863,0-1.463,0.504-1.463,1.211c0,0.887,0.815,1.187,2.027,1.511c1.331,0.359,2.806,0.815,2.806,2.806
			c0,1.727-1.175,2.867-2.938,2.867c-1.164,0-2.171-0.36-2.507-0.36c-0.192,0-0.264,0.132-0.36,0.36h-0.168l-0.12-2.854h0.204
			c0.6,1.199,1.763,2.603,3.083,2.603C26.121,11.6,26.924,11.216,26.924,10.34z"/>
	</g>
	<g>
		<path d="M30.401,4.438c-1.5,0-2.267-0.936-2.267-2.171c0-1.403,1.02-2.267,2.279-2.267c1.392,0,2.267,0.863,2.267,2.183
			C32.68,3.526,31.744,4.438,30.401,4.438z M30.413,0.251c-1.151,0-1.967,0.756-1.967,2.003c0,1.188,0.708,1.919,1.967,1.919
			c1.2,0,1.967-0.755,1.967-1.955C32.38,0.959,31.528,0.251,30.413,0.251z M30.329,2.159v1.043h0.096v0.096h-1.188V3.202h0.264
			V1.091h-0.264V0.995h1.248c0.552,0,0.912,0.072,0.912,0.54c0,0.396-0.3,0.527-0.768,0.563v0.012
			c0.624,0.036,0.792,0.18,0.792,0.563V2.95c0,0.132,0.012,0.192,0.108,0.192c0.12,0,0.192-0.192,0.216-0.408l0.096,0.012
			c-0.048,0.372-0.156,0.588-0.647,0.588c-0.408,0-0.588-0.132-0.588-0.444V2.542c0-0.288-0.036-0.384-0.24-0.384H30.329z
			 M30.329,2.039h0.036c0.276,0,0.312-0.168,0.312-0.479c0-0.312-0.024-0.468-0.288-0.468h-0.06V2.039z"/>
	</g>
</g>
</svg>
