<?xml version="1.0" encoding="utf-8"?>
<!-- Generator: Adobe Illustrator 16.0.0, SVG Export Plug-In . SVG Version: 6.00 Build 0)  -->
<!DOCTYPE svg PUBLIC "-//W3C//DTD SVG 1.1//EN" "http://www.w3.org/Graphics/SVG/1.1/DTD/svg11.dtd">
<svg version="1.1" id="Layer_1" xmlns="http://www.w3.org/2000/svg" xmlns:xlink="http://www.w3.org/1999/xlink" x="0px" y="0px"
	 width="199.96px" height="172.668px" viewBox="0 0 199.96 172.668" enable-background="new 0 0 199.96 172.668"
	 xml:space="preserve">
<g>
	<g>
		<g>
			
				<linearGradient id="SVGID_1_" gradientUnits="userSpaceOnUse" x1="2260.2861" y1="110.9326" x2="2412.3975" y2="110.9326" gradientTransform="matrix(1 0 0 1 -2235.4268 12)">
				<stop  offset="0" style="stop-color:#2A6AB4"/>
				<stop  offset="0.0856" style="stop-color:#2666AF"/>
				<stop  offset="0.4273" style="stop-color:#175AA3"/>
				<stop  offset="0.7414" style="stop-color:#0B529C"/>
				<stop  offset="1" style="stop-color:#084F9A"/>
			</linearGradient>
			<path fill="url(#SVGID_1_)" d="M29.152,106.519v29.385H40.66v3.49H24.859v-32.875H29.152z"/>
			
				<linearGradient id="SVGID_2_" gradientUnits="userSpaceOnUse" x1="2260.2861" y1="110.9326" x2="2412.3975" y2="110.9326" gradientTransform="matrix(1 0 0 1 -2235.4268 12)">
				<stop  offset="0" style="stop-color:#2A6AB4"/>
				<stop  offset="0.0856" style="stop-color:#2666AF"/>
				<stop  offset="0.4273" style="stop-color:#175AA3"/>
				<stop  offset="0.7414" style="stop-color:#0B529C"/>
				<stop  offset="1" style="stop-color:#084F9A"/>
			</linearGradient>
			<path fill="url(#SVGID_2_)" d="M62.498,139.724c-9.246,0-16.508-6.934-16.508-16.791s7.262-16.791,16.508-16.791
				c9.291,0,16.508,6.934,16.508,16.791S71.789,139.724,62.498,139.724z M62.498,135.997c6.932,0,12.121-5.047,12.121-13.064
				c0-8.064-5.189-13.064-12.121-13.064c-6.934,0-12.123,5-12.123,13.064C50.375,130.95,55.564,135.997,62.498,135.997z"/>
			
				<linearGradient id="SVGID_3_" gradientUnits="userSpaceOnUse" x1="2260.2861" y1="110.9326" x2="2412.3975" y2="110.9326" gradientTransform="matrix(1 0 0 1 -2235.4268 12)">
				<stop  offset="0" style="stop-color:#2A6AB4"/>
				<stop  offset="0.0856" style="stop-color:#2666AF"/>
				<stop  offset="0.4273" style="stop-color:#175AA3"/>
				<stop  offset="0.7414" style="stop-color:#0B529C"/>
				<stop  offset="1" style="stop-color:#084F9A"/>
			</linearGradient>
			<path fill="url(#SVGID_3_)" d="M117.068,116.046h-5.141c-1.793-3.82-5.377-6.037-9.998-6.037c-6.934,0-12.123,5-12.123,12.924
				c0,7.877,5.189,12.875,12.123,12.875c6.461,0,10.895-4.15,11.555-10.658h-13.111v-3.49h17.686v3.301
				c-0.754,8.16-7.215,14.717-16.129,14.717c-9.246,0-16.508-6.887-16.508-16.744s7.262-16.791,16.508-16.791
				C108.861,106.142,114.617,109.726,117.068,116.046z"/>
			
				<linearGradient id="SVGID_4_" gradientUnits="userSpaceOnUse" x1="2260.2861" y1="110.9326" x2="2412.3975" y2="110.9326" gradientTransform="matrix(1 0 0 1 -2235.4268 12)">
				<stop  offset="0" style="stop-color:#2A6AB4"/>
				<stop  offset="0.0856" style="stop-color:#2666AF"/>
				<stop  offset="0.4273" style="stop-color:#175AA3"/>
				<stop  offset="0.7414" style="stop-color:#0B529C"/>
				<stop  offset="1" style="stop-color:#084F9A"/>
			</linearGradient>
			<path fill="url(#SVGID_4_)" d="M145.652,109.915l-15.941,25.752h16.035v3.727h-21.129v-3.396l15.941-25.752h-15.754v-3.727
				h20.848V109.915z"/>
			
				<linearGradient id="SVGID_5_" gradientUnits="userSpaceOnUse" x1="2260.2861" y1="110.9326" x2="2412.3975" y2="110.9326" gradientTransform="matrix(1 0 0 1 -2235.4268 12)">
				<stop  offset="0" style="stop-color:#2A6AB4"/>
				<stop  offset="0.0856" style="stop-color:#2666AF"/>
				<stop  offset="0.4273" style="stop-color:#175AA3"/>
				<stop  offset="0.7414" style="stop-color:#0B529C"/>
				<stop  offset="1" style="stop-color:#084F9A"/>
			</linearGradient>
			<path fill="url(#SVGID_5_)" d="M151.219,106.519h4.764l8.111,16.65l8.113-16.65h4.764l-10.707,20.471v12.404h-4.293v-12.404
				L151.219,106.519z"/>
		</g>
		<g>
			<path fill="#FFFFFF" d="M29.152,106.519v29.385H40.66v3.49H24.859v-32.875H29.152z"/>
			<path fill="#FFFFFF" d="M62.498,139.724c-9.246,0-16.508-6.934-16.508-16.791s7.262-16.791,16.508-16.791
				c9.291,0,16.508,6.934,16.508,16.791S71.789,139.724,62.498,139.724z M62.498,135.997c6.932,0,12.121-5.047,12.121-13.064
				c0-8.064-5.189-13.064-12.121-13.064c-6.934,0-12.123,5-12.123,13.064C50.375,130.95,55.564,135.997,62.498,135.997z"/>
			<path fill="#FFFFFF" d="M117.068,116.046h-5.141c-1.793-3.82-5.377-6.037-9.998-6.037c-6.934,0-12.123,5-12.123,12.924
				c0,7.877,5.189,12.875,12.123,12.875c6.461,0,10.895-4.15,11.555-10.658h-13.111v-3.49h17.686v3.301
				c-0.754,8.16-7.215,14.717-16.129,14.717c-9.246,0-16.508-6.887-16.508-16.744s7.262-16.791,16.508-16.791
				C108.861,106.142,114.617,109.726,117.068,116.046z"/>
			<path fill="#FFFFFF" d="M145.652,109.915l-15.941,25.752h16.035v3.727h-21.129v-3.396l15.941-25.752h-15.754v-3.727h20.848
				V109.915z"/>
			<path fill="#FFFFFF" d="M151.219,106.519h4.764l8.111,16.65l8.113-16.65h4.764l-10.707,20.471v12.404h-4.293v-12.404
				L151.219,106.519z"/>
		</g>
	</g>
	<g>
		<g>
			
				<linearGradient id="SVGID_6_" gradientUnits="userSpaceOnUse" x1="2235.4268" y1="153.5498" x2="2435.3867" y2="153.5498" gradientTransform="matrix(1 0 0 1 -2235.4268 12)">
				<stop  offset="0" style="stop-color:#2A6AB4"/>
				<stop  offset="0.0856" style="stop-color:#2666AF"/>
				<stop  offset="0.4273" style="stop-color:#175AA3"/>
				<stop  offset="0.7414" style="stop-color:#0B529C"/>
				<stop  offset="1" style="stop-color:#084F9A"/>
			</linearGradient>
			<path fill="url(#SVGID_6_)" d="M0,158.721h1.257v10.219H0V158.721z"/>
			
				<linearGradient id="SVGID_7_" gradientUnits="userSpaceOnUse" x1="2235.4268" y1="153.5498" x2="2435.3867" y2="153.5498" gradientTransform="matrix(1 0 0 1 -2235.4268 12)">
				<stop  offset="0" style="stop-color:#2A6AB4"/>
				<stop  offset="0.0856" style="stop-color:#2666AF"/>
				<stop  offset="0.4273" style="stop-color:#175AA3"/>
				<stop  offset="0.7414" style="stop-color:#0B529C"/>
				<stop  offset="1" style="stop-color:#084F9A"/>
			</linearGradient>
			<path fill="url(#SVGID_7_)" d="M10.843,169.063c-2.14,0-3.77-1.519-3.77-3.922c0-2.389,1.685-3.894,3.825-3.894
				c2.154,0,3.825,1.505,3.825,3.894C14.724,167.545,12.997,169.063,10.843,169.063z M10.843,167.959
				c1.313,0,2.597-0.897,2.597-2.817c0-1.905-1.257-2.803-2.555-2.803c-1.326,0-2.527,0.897-2.527,2.803
				C8.357,167.062,9.531,167.959,10.843,167.959z"/>
			
				<linearGradient id="SVGID_8_" gradientUnits="userSpaceOnUse" x1="2235.4268" y1="153.5498" x2="2435.3867" y2="153.5498" gradientTransform="matrix(1 0 0 1 -2235.4268 12)">
				<stop  offset="0" style="stop-color:#2A6AB4"/>
				<stop  offset="0.0856" style="stop-color:#2666AF"/>
				<stop  offset="0.4273" style="stop-color:#175AA3"/>
				<stop  offset="0.7414" style="stop-color:#0B529C"/>
				<stop  offset="1" style="stop-color:#084F9A"/>
			</linearGradient>
			<path fill="url(#SVGID_8_)" d="M23.651,161.248c1.381,0,2.375,0.69,2.816,1.505v-1.381h1.271v7.733
				c0,2.085-1.395,3.563-3.618,3.563c-1.988,0-3.41-1.008-3.659-2.624h1.243c0.276,0.912,1.174,1.533,2.416,1.533
				c1.34,0,2.348-0.856,2.348-2.472v-1.588c-0.455,0.814-1.436,1.546-2.816,1.546c-2.03,0-3.591-1.588-3.591-3.936
				C20.061,162.767,21.621,161.248,23.651,161.248z M23.899,162.339c-1.381,0-2.555,1.008-2.555,2.789s1.174,2.831,2.555,2.831
				s2.568-1.036,2.568-2.817C26.468,163.388,25.28,162.339,23.899,162.339z"/>
			
				<linearGradient id="SVGID_9_" gradientUnits="userSpaceOnUse" x1="2235.4268" y1="153.5498" x2="2435.3867" y2="153.5498" gradientTransform="matrix(1 0 0 1 -2235.4268 12)">
				<stop  offset="0" style="stop-color:#2A6AB4"/>
				<stop  offset="0.0856" style="stop-color:#2666AF"/>
				<stop  offset="0.4273" style="stop-color:#175AA3"/>
				<stop  offset="0.7414" style="stop-color:#0B529C"/>
				<stop  offset="1" style="stop-color:#084F9A"/>
			</linearGradient>
			<path fill="url(#SVGID_9_)" d="M33.809,159.287c0-0.483,0.373-0.856,0.855-0.856c0.456,0,0.829,0.373,0.829,0.856
				s-0.373,0.855-0.829,0.855C34.182,160.143,33.809,159.771,33.809,159.287z M34.016,161.372h1.257v7.567h-1.257V161.372z"/>
			
				<linearGradient id="SVGID_10_" gradientUnits="userSpaceOnUse" x1="2235.4268" y1="153.5498" x2="2435.3867" y2="153.5498" gradientTransform="matrix(1 0 0 1 -2235.4268 12)">
				<stop  offset="0" style="stop-color:#2A6AB4"/>
				<stop  offset="0.0856" style="stop-color:#2666AF"/>
				<stop  offset="0.4273" style="stop-color:#175AA3"/>
				<stop  offset="0.7414" style="stop-color:#0B529C"/>
				<stop  offset="1" style="stop-color:#084F9A"/>
			</linearGradient>
			<path fill="url(#SVGID_10_)" d="M44.237,169.063c-1.768,0-3.011-0.967-3.093-2.348h1.298c0.069,0.732,0.718,1.284,1.781,1.284
				c0.994,0,1.547-0.497,1.547-1.118c0-1.685-4.475-0.704-4.475-3.521c0-1.16,1.091-2.112,2.775-2.112
				c1.671,0,2.776,0.897,2.859,2.375h-1.257c-0.056-0.76-0.636-1.313-1.644-1.313c-0.925,0-1.478,0.442-1.478,1.05
				c0,1.795,4.392,0.814,4.446,3.521C46.999,168.125,45.908,169.063,44.237,169.063z"/>
			
				<linearGradient id="SVGID_11_" gradientUnits="userSpaceOnUse" x1="2235.4268" y1="153.5498" x2="2435.3867" y2="153.5498" gradientTransform="matrix(1 0 0 1 -2235.4268 12)">
				<stop  offset="0" style="stop-color:#2A6AB4"/>
				<stop  offset="0.0856" style="stop-color:#2666AF"/>
				<stop  offset="0.4273" style="stop-color:#175AA3"/>
				<stop  offset="0.7414" style="stop-color:#0B529C"/>
				<stop  offset="1" style="stop-color:#084F9A"/>
			</linearGradient>
			<path fill="url(#SVGID_11_)" d="M53.192,162.407h-0.98v-1.035h0.98v-1.905h1.256v1.905h1.976v1.035h-1.976v4.461
				c0,0.745,0.276,1.008,1.05,1.008h0.926v1.063h-1.133c-1.34,0-2.099-0.553-2.099-2.071V162.407z"/>
			
				<linearGradient id="SVGID_12_" gradientUnits="userSpaceOnUse" x1="2235.4268" y1="153.5498" x2="2435.3867" y2="153.5498" gradientTransform="matrix(1 0 0 1 -2235.4268 12)">
				<stop  offset="0" style="stop-color:#2A6AB4"/>
				<stop  offset="0.0856" style="stop-color:#2666AF"/>
				<stop  offset="0.4273" style="stop-color:#175AA3"/>
				<stop  offset="0.7414" style="stop-color:#0B529C"/>
				<stop  offset="1" style="stop-color:#084F9A"/>
			</linearGradient>
			<path fill="url(#SVGID_12_)" d="M61.883,159.287c0-0.483,0.373-0.856,0.855-0.856c0.456,0,0.829,0.373,0.829,0.856
				s-0.373,0.855-0.829,0.855C62.256,160.143,61.883,159.771,61.883,159.287z M62.09,161.372h1.257v7.567H62.09V161.372z"/>
			
				<linearGradient id="SVGID_13_" gradientUnits="userSpaceOnUse" x1="2235.4268" y1="153.5498" x2="2435.3867" y2="153.5498" gradientTransform="matrix(1 0 0 1 -2235.4268 12)">
				<stop  offset="0" style="stop-color:#2A6AB4"/>
				<stop  offset="0.0856" style="stop-color:#2666AF"/>
				<stop  offset="0.4273" style="stop-color:#175AA3"/>
				<stop  offset="0.7414" style="stop-color:#0B529C"/>
				<stop  offset="1" style="stop-color:#084F9A"/>
			</linearGradient>
			<path fill="url(#SVGID_13_)" d="M72.852,161.248c1.878,0,3.106,0.967,3.493,2.555h-1.354c-0.262-0.912-1.021-1.492-2.14-1.492
				c-1.381,0-2.403,0.98-2.403,2.831c0,1.878,1.022,2.858,2.403,2.858c1.118,0,1.864-0.538,2.14-1.491h1.354
				c-0.387,1.506-1.615,2.555-3.493,2.555c-2.154,0-3.688-1.519-3.688-3.922C69.164,162.767,70.697,161.248,72.852,161.248z"/>
			
				<linearGradient id="SVGID_14_" gradientUnits="userSpaceOnUse" x1="2235.4268" y1="153.5498" x2="2435.3867" y2="153.5498" gradientTransform="matrix(1 0 0 1 -2235.4268 12)">
				<stop  offset="0" style="stop-color:#2A6AB4"/>
				<stop  offset="0.0856" style="stop-color:#2666AF"/>
				<stop  offset="0.4273" style="stop-color:#175AA3"/>
				<stop  offset="0.7414" style="stop-color:#0B529C"/>
				<stop  offset="1" style="stop-color:#084F9A"/>
			</linearGradient>
			<path fill="url(#SVGID_14_)" d="M100.922,164.658c0-1.546-0.828-2.333-2.071-2.333c-1.271,0-2.141,0.814-2.141,2.444v4.17h-1.242
				v-4.281c0-1.546-0.829-2.333-2.072-2.333c-1.271,0-2.14,0.814-2.14,2.444v4.17h-1.257v-7.567h1.257v1.091
				c0.497-0.801,1.395-1.229,2.389-1.229c1.243,0,2.278,0.552,2.775,1.685c0.442-1.091,1.52-1.685,2.679-1.685
				c1.727,0,3.066,1.076,3.066,3.245v4.46h-1.243V164.658z"/>
			
				<linearGradient id="SVGID_15_" gradientUnits="userSpaceOnUse" x1="2235.4268" y1="153.5498" x2="2435.3867" y2="153.5498" gradientTransform="matrix(1 0 0 1 -2235.4268 12)">
				<stop  offset="0" style="stop-color:#2A6AB4"/>
				<stop  offset="0.0856" style="stop-color:#2666AF"/>
				<stop  offset="0.4273" style="stop-color:#175AA3"/>
				<stop  offset="0.7414" style="stop-color:#0B529C"/>
				<stop  offset="1" style="stop-color:#084F9A"/>
			</linearGradient>
			<path fill="url(#SVGID_15_)" d="M111.496,161.248c1.408,0,2.375,0.718,2.816,1.505v-1.381h1.271v7.567h-1.271v-1.408
				c-0.455,0.814-1.436,1.532-2.831,1.532c-2.016,0-3.576-1.588-3.576-3.936C107.905,162.767,109.466,161.248,111.496,161.248z
				 M111.744,162.339c-1.381,0-2.555,1.008-2.555,2.789s1.174,2.831,2.555,2.831s2.568-1.036,2.568-2.817
				C114.313,163.388,113.125,162.339,111.744,162.339z"/>
			
				<linearGradient id="SVGID_16_" gradientUnits="userSpaceOnUse" x1="2235.4268" y1="153.5498" x2="2435.3867" y2="153.5498" gradientTransform="matrix(1 0 0 1 -2235.4268 12)">
				<stop  offset="0" style="stop-color:#2A6AB4"/>
				<stop  offset="0.0856" style="stop-color:#2666AF"/>
				<stop  offset="0.4273" style="stop-color:#175AA3"/>
				<stop  offset="0.7414" style="stop-color:#0B529C"/>
				<stop  offset="1" style="stop-color:#084F9A"/>
			</linearGradient>
			<path fill="url(#SVGID_16_)" d="M124.994,161.248c1.188,0,2.278,0.607,2.803,1.478v-4.005h1.271v10.219h-1.271v-1.422
				c-0.455,0.842-1.436,1.546-2.816,1.546c-2.03,0-3.591-1.588-3.591-3.936C121.39,162.767,122.95,161.248,124.994,161.248z
				 M125.229,162.339c-1.381,0-2.555,1.008-2.555,2.789s1.174,2.831,2.555,2.831s2.568-1.036,2.568-2.817
				C127.797,163.388,126.609,162.339,125.229,162.339z"/>
			
				<linearGradient id="SVGID_17_" gradientUnits="userSpaceOnUse" x1="2235.4268" y1="153.5498" x2="2435.3867" y2="153.5498" gradientTransform="matrix(1 0 0 1 -2235.4268 12)">
				<stop  offset="0" style="stop-color:#2A6AB4"/>
				<stop  offset="0.0856" style="stop-color:#2666AF"/>
				<stop  offset="0.4273" style="stop-color:#175AA3"/>
				<stop  offset="0.7414" style="stop-color:#0B529C"/>
				<stop  offset="1" style="stop-color:#084F9A"/>
			</linearGradient>
			<path fill="url(#SVGID_17_)" d="M138.617,169.063c-2.154,0-3.742-1.519-3.742-3.922c0-2.389,1.533-3.894,3.742-3.894
				c2.196,0,3.632,1.546,3.632,3.618c0,0.275-0.014,0.497-0.041,0.759h-6.049c0.097,1.533,1.174,2.375,2.458,2.375
				c1.133,0,1.851-0.579,2.127-1.395h1.354C141.711,167.986,140.495,169.063,138.617,169.063z M136.173,164.604h4.778
				c0.014-1.478-1.091-2.293-2.389-2.293C137.333,162.311,136.312,163.126,136.173,164.604z"/>
			
				<linearGradient id="SVGID_18_" gradientUnits="userSpaceOnUse" x1="2235.4268" y1="153.5498" x2="2435.3867" y2="153.5498" gradientTransform="matrix(1 0 0 1 -2235.4268 12)">
				<stop  offset="0" style="stop-color:#2A6AB4"/>
				<stop  offset="0.0856" style="stop-color:#2666AF"/>
				<stop  offset="0.4273" style="stop-color:#175AA3"/>
				<stop  offset="0.7414" style="stop-color:#0B529C"/>
				<stop  offset="1" style="stop-color:#084F9A"/>
			</linearGradient>
			<path fill="url(#SVGID_18_)" d="M159.162,169.063c-2.154,0-3.742-1.519-3.742-3.922c0-2.389,1.533-3.894,3.742-3.894
				c2.196,0,3.632,1.546,3.632,3.618c0,0.275-0.014,0.497-0.041,0.759h-6.049c0.097,1.533,1.174,2.375,2.458,2.375
				c1.133,0,1.851-0.579,2.127-1.395h1.354C162.256,167.986,161.04,169.063,159.162,169.063z M156.718,164.604h4.778
				c0.014-1.478-1.091-2.293-2.389-2.293C157.878,162.311,156.856,163.126,156.718,164.604z"/>
			
				<linearGradient id="SVGID_19_" gradientUnits="userSpaceOnUse" x1="2235.4268" y1="153.5498" x2="2435.3867" y2="153.5498" gradientTransform="matrix(1 0 0 1 -2235.4268 12)">
				<stop  offset="0" style="stop-color:#2A6AB4"/>
				<stop  offset="0.0856" style="stop-color:#2666AF"/>
				<stop  offset="0.4273" style="stop-color:#175AA3"/>
				<stop  offset="0.7414" style="stop-color:#0B529C"/>
				<stop  offset="1" style="stop-color:#084F9A"/>
			</linearGradient>
			<path fill="url(#SVGID_19_)" d="M171.722,161.248c1.408,0,2.375,0.718,2.816,1.505v-1.381h1.271v7.567h-1.271v-1.408
				c-0.455,0.814-1.436,1.532-2.831,1.532c-2.016,0-3.576-1.588-3.576-3.936C168.131,162.767,169.691,161.248,171.722,161.248z
				 M171.97,162.339c-1.381,0-2.555,1.008-2.555,2.789s1.174,2.831,2.555,2.831s2.568-1.036,2.568-2.817
				C174.538,163.388,173.351,162.339,171.97,162.339z"/>
			
				<linearGradient id="SVGID_20_" gradientUnits="userSpaceOnUse" x1="2235.4268" y1="153.5498" x2="2435.3867" y2="153.5498" gradientTransform="matrix(1 0 0 1 -2235.4268 12)">
				<stop  offset="0" style="stop-color:#2A6AB4"/>
				<stop  offset="0.0856" style="stop-color:#2666AF"/>
				<stop  offset="0.4273" style="stop-color:#175AA3"/>
				<stop  offset="0.7414" style="stop-color:#0B529C"/>
				<stop  offset="1" style="stop-color:#084F9A"/>
			</linearGradient>
			<path fill="url(#SVGID_20_)" d="M184.765,169.063c-1.768,0-3.011-0.967-3.093-2.348h1.298c0.069,0.732,0.718,1.284,1.781,1.284
				c0.994,0,1.547-0.497,1.547-1.118c0-1.685-4.475-0.704-4.475-3.521c0-1.16,1.091-2.112,2.775-2.112
				c1.671,0,2.776,0.897,2.859,2.375h-1.257c-0.056-0.76-0.636-1.313-1.644-1.313c-0.925,0-1.478,0.442-1.478,1.05
				c0,1.795,4.392,0.814,4.446,3.521C187.526,168.125,186.436,169.063,184.765,169.063z"/>
			
				<linearGradient id="SVGID_21_" gradientUnits="userSpaceOnUse" x1="2235.4268" y1="153.5498" x2="2435.3867" y2="153.5498" gradientTransform="matrix(1 0 0 1 -2235.4268 12)">
				<stop  offset="0" style="stop-color:#2A6AB4"/>
				<stop  offset="0.0856" style="stop-color:#2666AF"/>
				<stop  offset="0.4273" style="stop-color:#175AA3"/>
				<stop  offset="0.7414" style="stop-color:#0B529C"/>
				<stop  offset="1" style="stop-color:#084F9A"/>
			</linearGradient>
			<path fill="url(#SVGID_21_)" d="M198.662,161.372h1.298l-4.557,11.13h-1.298l1.491-3.646l-3.052-7.484h1.395l2.375,6.131
				L198.662,161.372z"/>
		</g>
		<g>
			<path fill="#FFFFFF" d="M0,158.721h1.257v10.219H0V158.721z"/>
			<path fill="#FFFFFF" d="M10.843,169.063c-2.14,0-3.77-1.519-3.77-3.922c0-2.389,1.685-3.894,3.825-3.894
				c2.154,0,3.825,1.505,3.825,3.894C14.724,167.545,12.997,169.063,10.843,169.063z M10.843,167.959
				c1.313,0,2.597-0.897,2.597-2.817c0-1.905-1.257-2.803-2.555-2.803c-1.326,0-2.527,0.897-2.527,2.803
				C8.357,167.062,9.531,167.959,10.843,167.959z"/>
			<path fill="#FFFFFF" d="M23.651,161.248c1.381,0,2.375,0.69,2.816,1.505v-1.381h1.271v7.733c0,2.085-1.395,3.563-3.618,3.563
				c-1.988,0-3.41-1.008-3.659-2.624h1.243c0.276,0.912,1.174,1.533,2.416,1.533c1.34,0,2.348-0.856,2.348-2.472v-1.588
				c-0.455,0.814-1.436,1.546-2.816,1.546c-2.03,0-3.591-1.588-3.591-3.936C20.061,162.767,21.621,161.248,23.651,161.248z
				 M23.899,162.339c-1.381,0-2.555,1.008-2.555,2.789s1.174,2.831,2.555,2.831s2.568-1.036,2.568-2.817
				C26.468,163.388,25.28,162.339,23.899,162.339z"/>
			<path fill="#FFFFFF" d="M33.809,159.287c0-0.483,0.373-0.856,0.855-0.856c0.456,0,0.829,0.373,0.829,0.856
				s-0.373,0.855-0.829,0.855C34.182,160.143,33.809,159.771,33.809,159.287z M34.016,161.372h1.257v7.567h-1.257V161.372z"/>
			<path fill="#FFFFFF" d="M44.237,169.063c-1.768,0-3.011-0.967-3.093-2.348h1.298c0.069,0.732,0.718,1.284,1.781,1.284
				c0.994,0,1.547-0.497,1.547-1.118c0-1.685-4.475-0.704-4.475-3.521c0-1.16,1.091-2.112,2.775-2.112
				c1.671,0,2.776,0.897,2.859,2.375h-1.257c-0.056-0.76-0.636-1.313-1.644-1.313c-0.925,0-1.478,0.442-1.478,1.05
				c0,1.795,4.392,0.814,4.446,3.521C46.999,168.125,45.908,169.063,44.237,169.063z"/>
			<path fill="#FFFFFF" d="M53.192,162.407h-0.98v-1.035h0.98v-1.905h1.256v1.905h1.976v1.035h-1.976v4.461
				c0,0.745,0.276,1.008,1.05,1.008h0.926v1.063h-1.133c-1.34,0-2.099-0.553-2.099-2.071V162.407z"/>
			<path fill="#FFFFFF" d="M61.883,159.287c0-0.483,0.373-0.856,0.855-0.856c0.456,0,0.829,0.373,0.829,0.856
				s-0.373,0.855-0.829,0.855C62.256,160.143,61.883,159.771,61.883,159.287z M62.09,161.372h1.257v7.567H62.09V161.372z"/>
			<path fill="#FFFFFF" d="M72.852,161.248c1.878,0,3.106,0.967,3.493,2.555h-1.354c-0.262-0.912-1.021-1.492-2.14-1.492
				c-1.381,0-2.403,0.98-2.403,2.831c0,1.878,1.022,2.858,2.403,2.858c1.118,0,1.864-0.538,2.14-1.491h1.354
				c-0.387,1.506-1.615,2.555-3.493,2.555c-2.154,0-3.688-1.519-3.688-3.922C69.164,162.767,70.697,161.248,72.852,161.248z"/>
			<path fill="#FFFFFF" d="M100.922,164.658c0-1.546-0.828-2.333-2.071-2.333c-1.271,0-2.141,0.814-2.141,2.444v4.17h-1.242v-4.281
				c0-1.546-0.829-2.333-2.072-2.333c-1.271,0-2.14,0.814-2.14,2.444v4.17h-1.257v-7.567h1.257v1.091
				c0.497-0.801,1.395-1.229,2.389-1.229c1.243,0,2.278,0.552,2.775,1.685c0.442-1.091,1.52-1.685,2.679-1.685
				c1.727,0,3.066,1.076,3.066,3.245v4.46h-1.243V164.658z"/>
			<path fill="#FFFFFF" d="M111.496,161.248c1.408,0,2.375,0.718,2.816,1.505v-1.381h1.271v7.567h-1.271v-1.408
				c-0.455,0.814-1.436,1.532-2.831,1.532c-2.016,0-3.576-1.588-3.576-3.936C107.905,162.767,109.466,161.248,111.496,161.248z
				 M111.744,162.339c-1.381,0-2.555,1.008-2.555,2.789s1.174,2.831,2.555,2.831s2.568-1.036,2.568-2.817
				C114.313,163.388,113.125,162.339,111.744,162.339z"/>
			<path fill="#FFFFFF" d="M124.994,161.248c1.188,0,2.278,0.607,2.803,1.478v-4.005h1.271v10.219h-1.271v-1.422
				c-0.455,0.842-1.436,1.546-2.816,1.546c-2.03,0-3.591-1.588-3.591-3.936C121.39,162.767,122.95,161.248,124.994,161.248z
				 M125.229,162.339c-1.381,0-2.555,1.008-2.555,2.789s1.174,2.831,2.555,2.831s2.568-1.036,2.568-2.817
				C127.797,163.388,126.609,162.339,125.229,162.339z"/>
			<path fill="#FFFFFF" d="M138.617,169.063c-2.154,0-3.742-1.519-3.742-3.922c0-2.389,1.533-3.894,3.742-3.894
				c2.196,0,3.632,1.546,3.632,3.618c0,0.275-0.014,0.497-0.041,0.759h-6.049c0.097,1.533,1.174,2.375,2.458,2.375
				c1.133,0,1.851-0.579,2.127-1.395h1.354C141.711,167.986,140.495,169.063,138.617,169.063z M136.173,164.604h4.778
				c0.014-1.478-1.091-2.293-2.389-2.293C137.333,162.311,136.312,163.126,136.173,164.604z"/>
			<path fill="#FFFFFF" d="M159.162,169.063c-2.154,0-3.742-1.519-3.742-3.922c0-2.389,1.533-3.894,3.742-3.894
				c2.196,0,3.632,1.546,3.632,3.618c0,0.275-0.014,0.497-0.041,0.759h-6.049c0.097,1.533,1.174,2.375,2.458,2.375
				c1.133,0,1.851-0.579,2.127-1.395h1.354C162.256,167.986,161.04,169.063,159.162,169.063z M156.718,164.604h4.778
				c0.014-1.478-1.091-2.293-2.389-2.293C157.878,162.311,156.856,163.126,156.718,164.604z"/>
			<path fill="#FFFFFF" d="M171.722,161.248c1.408,0,2.375,0.718,2.816,1.505v-1.381h1.271v7.567h-1.271v-1.408
				c-0.455,0.814-1.436,1.532-2.831,1.532c-2.016,0-3.576-1.588-3.576-3.936C168.131,162.767,169.691,161.248,171.722,161.248z
				 M171.97,162.339c-1.381,0-2.555,1.008-2.555,2.789s1.174,2.831,2.555,2.831s2.568-1.036,2.568-2.817
				C174.538,163.388,173.351,162.339,171.97,162.339z"/>
			<path fill="#FFFFFF" d="M184.765,169.063c-1.768,0-3.011-0.967-3.093-2.348h1.298c0.069,0.732,0.718,1.284,1.781,1.284
				c0.994,0,1.547-0.497,1.547-1.118c0-1.685-4.475-0.704-4.475-3.521c0-1.16,1.091-2.112,2.775-2.112
				c1.671,0,2.776,0.897,2.859,2.375h-1.257c-0.056-0.76-0.636-1.313-1.644-1.313c-0.925,0-1.478,0.442-1.478,1.05
				c0,1.795,4.392,0.814,4.446,3.521C187.526,168.125,186.436,169.063,184.765,169.063z"/>
			<path fill="#FFFFFF" d="M198.662,161.372h1.298l-4.557,11.13h-1.298l1.491-3.646l-3.052-7.484h1.395l2.375,6.131L198.662,161.372
				z"/>
		</g>
	</g>
	<g>
		<g>
			<path fill="#FFFFFF" d="M107.935,48.26c2.848,0,5.15-2.306,5.15-5.15c0-2.845-2.303-5.15-5.15-5.15
				c-2.844,0-5.151,2.305-5.151,5.15C102.783,45.954,105.091,48.26,107.935,48.26z"/>
			<path fill="#FFFFFF" d="M132.362,38.671c-2.462-1.422-5.613-0.581-7.037,1.883L103.489,78.33
				c-1.425,2.462-0.58,5.614,1.881,7.037c0.813,0.47,1.701,0.692,2.575,0.692c1.781,0,3.511-0.923,4.464-2.575l21.835-37.774
				C135.67,43.247,134.825,40.097,132.362,38.671z"/>
		</g>
		<g>
			<circle fill="#FFFFFF" cx="91.157" cy="42.951" r="5.152"/>
			<path fill="#FFFFFF" d="M66.729,47.389c2.463,1.422,5.615,0.58,7.039-1.882L95.603,7.732c1.425-2.463,0.581-5.616-1.881-7.04
				C92.91,0.226,92.024,0,91.148,0c-1.78,0-3.512,0.922-4.465,2.574L64.849,40.351C63.426,42.815,64.267,45.963,66.729,47.389z"/>
		</g>
	</g>
</g>
</svg>
