<?xml version="1.0" encoding="utf-8"?>
<!-- Generator: Adobe Illustrator 16.0.0, SVG Export Plug-In . SVG Version: 6.00 Build 0)  -->
<!DOCTYPE svg PUBLIC "-//W3C//DTD SVG 1.1//EN" "http://www.w3.org/Graphics/SVG/1.1/DTD/svg11.dtd">
<svg version="1.1" id="Layer_1" xmlns="http://www.w3.org/2000/svg" xmlns:xlink="http://www.w3.org/1999/xlink" x="0px" y="0px"
	 width="113.798px" height="227.043px" viewBox="0 0 113.798 227.043" enable-background="new 0 0 113.798 227.043"
	 xml:space="preserve">
<g>
	<g>
		<g>
			<g>
				<g>
					<path fill="#050507" d="M96.234,0H17.626C8.32,0,0.775,7.544,0.775,16.851v193.341c0,9.307,7.544,16.852,16.851,16.852h78.608
						c9.307,0,16.852-7.545,16.852-16.852V16.851C113.085,7.544,105.541,0,96.234,0z M106.206,210.293
						c0,5.436-4.405,9.841-9.84,9.841h-78.87c-5.435,0-9.841-4.405-9.841-9.841V16.518c0-5.435,4.406-9.841,9.841-9.841h10.669
						c0.731,0,1.324,0.593,1.324,1.324v1.195c0,1.534,1.396,5.29,5.722,5.29c2.183,0,39.931,0,43.784,0
						c3.854,0,5.527-3.56,5.527-5.402V8.001c0-0.731,0.593-1.324,1.325-1.324h10.519c5.435,0,9.84,4.406,9.84,9.841V210.293z"/>
					<linearGradient id="SVGID_1_" gradientUnits="userSpaceOnUse" x1="0.7754" y1="34.9097" x2="1.0723" y2="34.9097">
						<stop  offset="0" style="stop-color:#676767"/>
						<stop  offset="0.0038" style="stop-color:#666666"/>
						<stop  offset="0.1617" style="stop-color:#505050"/>
						<stop  offset="0.3229" style="stop-color:#3E3F3F"/>
						<stop  offset="0.4859" style="stop-color:#313232"/>
						<stop  offset="0.6514" style="stop-color:#282828"/>
						<stop  offset="0.8207" style="stop-color:#212222"/>
						<stop  offset="1" style="stop-color:#1F2020"/>
					</linearGradient>
					<path fill="url(#SVGID_1_)" d="M1.072,38.772c0-0.166,0-7.39,0-7.71c0-0.312-0.05-0.586-0.297-0.743v9.18
						C1.063,39.37,1.072,38.933,1.072,38.772z"/>
					<linearGradient id="SVGID_2_" gradientUnits="userSpaceOnUse" x1="0.7715" y1="54.9048" x2="1.2009" y2="54.9048">
						<stop  offset="0" style="stop-color:#FFFFFF"/>
						<stop  offset="0.0782" style="stop-color:#C4C2C2"/>
						<stop  offset="0.2069" style="stop-color:#868282"/>
						<stop  offset="0.3381" style="stop-color:#5A5756"/>
						<stop  offset="0.4694" style="stop-color:#3C3A39"/>
						<stop  offset="0.6009" style="stop-color:#262525"/>
						<stop  offset="0.7328" style="stop-color:#141414"/>
						<stop  offset="0.8655" style="stop-color:#060606"/>
						<stop  offset="1" style="stop-color:#010101"/>
					</linearGradient>
					<path fill="url(#SVGID_2_)" d="M1.199,62.728c0-0.166,0-15.102,0-15.421c0-0.315-0.039-0.896-0.424-1.223v17.643
						C1.248,63.417,1.199,62.891,1.199,62.728z"/>
					<linearGradient id="SVGID_3_" gradientUnits="userSpaceOnUse" x1="0.7715" y1="75.6558" x2="1.2009" y2="75.6558">
						<stop  offset="0" style="stop-color:#FFFFFF"/>
						<stop  offset="0.0782" style="stop-color:#C4C2C2"/>
						<stop  offset="0.2069" style="stop-color:#868282"/>
						<stop  offset="0.3381" style="stop-color:#5A5756"/>
						<stop  offset="0.4694" style="stop-color:#3C3A39"/>
						<stop  offset="0.6009" style="stop-color:#262525"/>
						<stop  offset="0.7328" style="stop-color:#141414"/>
						<stop  offset="0.8655" style="stop-color:#060606"/>
						<stop  offset="1" style="stop-color:#010101"/>
					</linearGradient>
					<path fill="url(#SVGID_3_)" d="M1.199,83.479c0-0.166,0-15.102,0-15.422c0-0.315-0.039-0.896-0.424-1.223v17.643
						C1.248,84.168,1.199,83.642,1.199,83.479z"/>
				</g>
				<g>
					<g>
						<linearGradient id="SVGID_4_" gradientUnits="userSpaceOnUse" x1="102.8149" y1="2.5845" x2="111.1816" y2="8.2004">
							<stop  offset="0" style="stop-color:#4E4E4E"/>
							<stop  offset="1" style="stop-color:#1A1A1A"/>
						</linearGradient>
						<path fill="url(#SVGID_4_)" d="M102.415,3.098c0.791,0.367,1.546,0.797,2.258,1.288c2.283,0.835,4.099,2.166,5.618,4.159
							c-1.062-1.782-2.447-3.348-4.073-4.62C105.018,3.185,103.94,2.96,102.415,3.098z"/>
						<linearGradient id="SVGID_5_" gradientUnits="userSpaceOnUse" x1="104.6626" y1="58.9595" x2="112.663" y2="58.9595">
							<stop  offset="0" style="stop-color:#7D7E7E"/>
							<stop  offset="0.1395" style="stop-color:#808081"/>
							<stop  offset="0.2623" style="stop-color:#888888"/>
							<stop  offset="0.3788" style="stop-color:#969697"/>
							<stop  offset="0.4914" style="stop-color:#ACACAD"/>
							<stop  offset="0.6002" style="stop-color:#CACACC"/>
							<stop  offset="0.7017" style="stop-color:#F5F8FD"/>
							<stop  offset="0.7814" style="stop-color:#F1F4F7"/>
							<stop  offset="0.8314" style="stop-color:#E6E7E9"/>
							<stop  offset="0.8731" style="stop-color:#D5D5D8"/>
							<stop  offset="0.9104" style="stop-color:#C0BFC1"/>
							<stop  offset="0.9446" style="stop-color:#A6A5A7"/>
							<stop  offset="0.9762" style="stop-color:#8B898C"/>
							<stop  offset="1" style="stop-color:#747476"/>
						</linearGradient>
						<path fill="url(#SVGID_5_)" d="M112.628,113.533V17.04c0-3.102-0.855-6.006-2.338-8.495c-1.52-1.993-3.335-3.324-5.618-4.159
							c4.022,2.772,6.666,7.409,6.666,12.654v96.494L112.628,113.533z"/>
					</g>
					<g>
						<linearGradient id="SVGID_6_" gradientUnits="userSpaceOnUse" x1="3.0132" y1="8.0537" x2="11.514" y2="2.4113">
							<stop  offset="0" style="stop-color:#4E4E4E"/>
							<stop  offset="1" style="stop-color:#1A1A1A"/>
						</linearGradient>
						<path fill="url(#SVGID_6_)" d="M11.592,3.098c-0.791,0.367-1.545,0.797-2.257,1.288C7.052,5.221,5.237,6.552,3.717,8.545
							c1.062-1.782,2.447-3.348,4.073-4.62C8.99,3.185,10.067,2.96,11.592,3.098z"/>
						<g>
							<linearGradient id="SVGID_7_" gradientUnits="userSpaceOnUse" x1="9.3647" y1="58.8052" x2="1.3507" y2="58.8052">
								<stop  offset="0" style="stop-color:#7D7E7E"/>
								<stop  offset="0.1395" style="stop-color:#808081"/>
								<stop  offset="0.2623" style="stop-color:#888888"/>
								<stop  offset="0.3788" style="stop-color:#969697"/>
								<stop  offset="0.4914" style="stop-color:#ACACAD"/>
								<stop  offset="0.6002" style="stop-color:#CACACC"/>
								<stop  offset="0.7017" style="stop-color:#F5F8FD"/>
								<stop  offset="0.7814" style="stop-color:#F1F4F7"/>
								<stop  offset="0.8314" style="stop-color:#E6E7E9"/>
								<stop  offset="0.8731" style="stop-color:#D5D5D8"/>
								<stop  offset="0.9104" style="stop-color:#C0BFC1"/>
								<stop  offset="0.9446" style="stop-color:#A6A5A7"/>
								<stop  offset="0.9762" style="stop-color:#8B898C"/>
								<stop  offset="1" style="stop-color:#747476"/>
							</linearGradient>
							<path fill="url(#SVGID_7_)" d="M1.379,113.224V17.04c0-3.102,0.855-6.006,2.338-8.495c1.52-1.993,3.335-3.324,5.618-4.159
								C5.313,7.158,2.669,11.795,2.669,17.04v96.185L1.379,113.224z"/>
							<linearGradient id="SVGID_8_" gradientUnits="userSpaceOnUse" x1="57.0039" y1="4.0127" x2="57.0039" y2="0.3613">
								<stop  offset="0" style="stop-color:#C0C2C7;stop-opacity:0.7"/>
								<stop  offset="0.3446" style="stop-color:#C2C4C9;stop-opacity:0.8034"/>
								<stop  offset="0.5647" style="stop-color:#CACBD0;stop-opacity:0.8694"/>
								<stop  offset="0.7499" style="stop-color:#D7D8DC;stop-opacity:0.925"/>
								<stop  offset="0.9148" style="stop-color:#EBEBED;stop-opacity:0.9744"/>
								<stop  offset="1" style="stop-color:#FBFCFE"/>
							</linearGradient>
							<path fill="url(#SVGID_8_)" d="M95.978,0.39H57.004H18.03c-3.859,0-7.413,1.323-10.24,3.535
								c1.2-0.74,2.277-0.965,3.802-0.827c1.959-0.908,4.14-1.419,6.438-1.419h38.974h38.974c2.298,0,4.478,0.511,6.437,1.419
								c1.525-0.138,2.604,0.087,3.803,0.827C103.391,1.712,99.837,0.39,95.978,0.39z"/>
						</g>
					</g>
				</g>
				<path fill="#010101" d="M112.512,77.917c0-0.166,0-24.793,0-25.113c0-0.315,0.053-0.896,0.572-1.223v27.334
					C112.446,78.606,112.512,78.079,112.512,77.917z"/>
				<g>
					<g>
						
							<linearGradient id="SVGID_9_" gradientUnits="userSpaceOnUse" x1="102.8149" y1="-63.5601" x2="111.1824" y2="-57.9435" gradientTransform="matrix(1 0 0 -1 0 160.8828)">
							<stop  offset="0" style="stop-color:#4E4E4E"/>
							<stop  offset="1" style="stop-color:#1A1A1A"/>
						</linearGradient>
						<path fill="url(#SVGID_9_)" d="M102.415,223.928c0.791-0.366,1.546-0.797,2.258-1.287c2.283-0.835,4.099-2.167,5.618-4.16
							c-1.062,1.782-2.447,3.349-4.073,4.621C105.018,223.841,103.94,224.067,102.415,223.928z"/>
						<linearGradient id="SVGID_10_" gradientUnits="userSpaceOnUse" x1="104.7183" y1="168.0669" x2="112.6186" y2="168.0669">
							<stop  offset="0" style="stop-color:#7D7E7E"/>
							<stop  offset="0.1395" style="stop-color:#808081"/>
							<stop  offset="0.2623" style="stop-color:#888888"/>
							<stop  offset="0.3788" style="stop-color:#969697"/>
							<stop  offset="0.4914" style="stop-color:#ACACAD"/>
							<stop  offset="0.6002" style="stop-color:#CACACC"/>
							<stop  offset="0.7017" style="stop-color:#F5F8FD"/>
							<stop  offset="0.7814" style="stop-color:#F1F4F7"/>
							<stop  offset="0.8314" style="stop-color:#E6E7E9"/>
							<stop  offset="0.8731" style="stop-color:#D5D5D8"/>
							<stop  offset="0.9104" style="stop-color:#C0BFC1"/>
							<stop  offset="0.9446" style="stop-color:#A6A5A7"/>
							<stop  offset="0.9762" style="stop-color:#8B898C"/>
							<stop  offset="1" style="stop-color:#747476"/>
						</linearGradient>
						<path fill="url(#SVGID_10_)" d="M112.628,113.493v96.494c0,3.102-0.855,6.006-2.338,8.494c-1.52,1.993-3.335,3.325-5.618,4.16
							c4.022-2.773,6.666-7.41,6.666-12.654v-96.495L112.628,113.493z"/>
					</g>
					<g>
						<linearGradient id="SVGID_11_" gradientUnits="userSpaceOnUse" x1="11.27" y1="224.4937" x2="3.3193" y2="219.1579">
							<stop  offset="0" style="stop-color:#4E4E4E"/>
							<stop  offset="1" style="stop-color:#1A1A1A"/>
						</linearGradient>
						<path fill="url(#SVGID_11_)" d="M11.592,223.928c-0.791-0.366-1.545-0.797-2.257-1.287c-2.283-0.835-4.099-2.167-5.618-4.16
							c1.062,1.782,2.447,3.349,4.073,4.621C8.99,223.841,10.067,224.067,11.592,223.928z"/>
						<g>
							<linearGradient id="SVGID_12_" gradientUnits="userSpaceOnUse" x1="9.2983" y1="168.2212" x2="1.3261" y2="168.2212">
								<stop  offset="0" style="stop-color:#7D7E7E"/>
								<stop  offset="0.1395" style="stop-color:#808081"/>
								<stop  offset="0.2623" style="stop-color:#888888"/>
								<stop  offset="0.3788" style="stop-color:#969697"/>
								<stop  offset="0.4914" style="stop-color:#ACACAD"/>
								<stop  offset="0.6002" style="stop-color:#CACACC"/>
								<stop  offset="0.7017" style="stop-color:#F5F8FD"/>
								<stop  offset="0.7814" style="stop-color:#F1F4F7"/>
								<stop  offset="0.8314" style="stop-color:#E6E7E9"/>
								<stop  offset="0.8731" style="stop-color:#D5D5D8"/>
								<stop  offset="0.9104" style="stop-color:#C0BFC1"/>
								<stop  offset="0.9446" style="stop-color:#A6A5A7"/>
								<stop  offset="0.9762" style="stop-color:#8B898C"/>
								<stop  offset="1" style="stop-color:#747476"/>
							</linearGradient>
							<path fill="url(#SVGID_12_)" d="M1.379,113.802v96.185c0,3.102,0.855,6.006,2.338,8.494c1.52,1.993,3.335,3.325,5.618,4.16
								c-4.023-2.773-6.666-7.41-6.666-12.654v-96.185L1.379,113.802z"/>
							
								<linearGradient id="SVGID_13_" gradientUnits="userSpaceOnUse" x1="57.0039" y1="-62.1318" x2="57.0039" y2="-65.7833" gradientTransform="matrix(1 0 0 -1 0 160.8828)">
								<stop  offset="0" style="stop-color:#C0C2C7;stop-opacity:0.7"/>
								<stop  offset="0.3446" style="stop-color:#C2C4C9;stop-opacity:0.8034"/>
								<stop  offset="0.5647" style="stop-color:#CACBD0;stop-opacity:0.8694"/>
								<stop  offset="0.7499" style="stop-color:#D7D8DC;stop-opacity:0.925"/>
								<stop  offset="0.9148" style="stop-color:#EBEBED;stop-opacity:0.9744"/>
								<stop  offset="1" style="stop-color:#FBFCFE"/>
							</linearGradient>
							<path fill="url(#SVGID_13_)" d="M95.978,226.637H57.004H18.03c-3.859,0-7.413-1.323-10.24-3.535
								c1.2,0.739,2.277,0.965,3.802,0.826c1.959,0.908,4.14,1.419,6.438,1.419h38.974h38.974c2.298,0,4.478-0.511,6.437-1.419
								c1.525,0.139,2.604-0.087,3.803-0.826C103.391,225.314,99.837,226.637,95.978,226.637z"/>
						</g>
					</g>
				</g>
				<linearGradient id="SVGID_14_" gradientUnits="userSpaceOnUse" x1="2.9609" y1="113.4331" x2="111.0552" y2="113.4331">
					<stop  offset="0" style="stop-color:#2E2E2E"/>
					<stop  offset="0.0653" style="stop-color:#010101"/>
					<stop  offset="0.1849" style="stop-color:#373636"/>
					<stop  offset="0.8005" style="stop-color:#373636"/>
					<stop  offset="0.9365" style="stop-color:#010101"/>
					<stop  offset="1" style="stop-color:#2E2E2E"/>
				</linearGradient>
				<path fill="url(#SVGID_14_)" d="M96.281,224.881H17.956c-8.282,0-14.995-6.714-14.995-14.996V16.865
					c0-8.218,6.662-14.88,14.88-14.88h78.201c8.292,0,15.014,6.722,15.014,15.014v193.108
					C111.055,218.266,104.44,224.881,96.281,224.881z M17.751,2.501c-7.884,0-14.275,6.391-14.275,14.275v193.109
					c0,7.997,6.482,14.479,14.479,14.479H96.28c7.876,0,14.259-6.384,14.259-14.258V16.998c0-8.006-6.49-14.497-14.497-14.497
					H17.751z"/>
				<linearGradient id="SVGID_15_" gradientUnits="userSpaceOnUse" x1="101.979" y1="113.3901" x2="110.3696" y2="113.3901">
					<stop  offset="0" style="stop-color:#6C6D71;stop-opacity:0.7"/>
					<stop  offset="0.4069" style="stop-color:#6E6E72;stop-opacity:0.8221"/>
					<stop  offset="0.5741" style="stop-color:#737377;stop-opacity:0.8722"/>
					<stop  offset="0.6972" style="stop-color:#7D7C80;stop-opacity:0.9092"/>
					<stop  offset="0.7988" style="stop-color:#8C8B8F;stop-opacity:0.9397"/>
					<stop  offset="0.8871" style="stop-color:#A1A0A3;stop-opacity:0.9661"/>
					<stop  offset="0.9648" style="stop-color:#BDBCBF;stop-opacity:0.9894"/>
					<stop  offset="1" style="stop-color:#CFD0D1"/>
				</linearGradient>
				<path fill="url(#SVGID_15_)" d="M110.248,18.235c0-8.247-3.916-12.341-8.269-14.195c1.165,2.388,6.246,4.455,6.246,14.131
					V208.61c0,9.677-5.081,11.744-6.246,14.131c4.353-1.854,8.269-5.948,8.269-14.195l0.122-95.155L110.248,18.235z"/>
				
					<linearGradient id="SVGID_16_" gradientUnits="userSpaceOnUse" x1="-51.1284" y1="113.3901" x2="-42.7373" y2="113.3901" gradientTransform="matrix(-1 0 0 1 -38.8047 0)">
					<stop  offset="0" style="stop-color:#6C6D71;stop-opacity:0.7"/>
					<stop  offset="0.4069" style="stop-color:#6E6E72;stop-opacity:0.8221"/>
					<stop  offset="0.5741" style="stop-color:#737377;stop-opacity:0.8722"/>
					<stop  offset="0.6972" style="stop-color:#7D7C80;stop-opacity:0.9092"/>
					<stop  offset="0.7988" style="stop-color:#8C8B8F;stop-opacity:0.9397"/>
					<stop  offset="0.8871" style="stop-color:#A1A0A3;stop-opacity:0.9661"/>
					<stop  offset="0.9648" style="stop-color:#BDBCBF;stop-opacity:0.9894"/>
					<stop  offset="1" style="stop-color:#CFD0D1"/>
				</linearGradient>
				<path fill="url(#SVGID_16_)" d="M4.055,18.235c0-8.247,3.916-12.341,8.269-14.195c-1.165,2.388-6.246,4.455-6.246,14.131V208.61
					c0,9.677,5.081,11.744,6.246,14.131c-4.353-1.854-8.269-5.948-8.269-14.195l-0.123-95.155L4.055,18.235z"/>
				<linearGradient id="SVGID_17_" gradientUnits="userSpaceOnUse" x1="11.4194" y1="4.2622" x2="102.2534" y2="4.2622">
					<stop  offset="0" style="stop-color:#010101;stop-opacity:0"/>
					<stop  offset="0.0023" style="stop-color:#080808;stop-opacity:0.0104"/>
					<stop  offset="0.026" style="stop-color:#373535;stop-opacity:0.1162"/>
					<stop  offset="0.0507" style="stop-color:#5D5A5A;stop-opacity:0.2267"/>
					<stop  offset="0.0759" style="stop-color:#848181;stop-opacity:0.3396"/>
					<stop  offset="0.1018" style="stop-color:#A9A7A6;stop-opacity:0.4557"/>
					<stop  offset="0.1287" style="stop-color:#C9C7C7;stop-opacity:0.5759"/>
					<stop  offset="0.1569" style="stop-color:#E3E1E1;stop-opacity:0.7019"/>
					<stop  offset="0.1872" style="stop-color:#F5F5F5;stop-opacity:0.8375"/>
					<stop  offset="0.2235" style="stop-color:#FFFFFF"/>
					<stop  offset="0.6845" style="stop-color:#FFFFFF"/>
					<stop  offset="0.7631" style="stop-color:#FFFFFF"/>
					<stop  offset="0.8438" style="stop-color:#F9F8F8;stop-opacity:0.6595"/>
					<stop  offset="0.8769" style="stop-color:#EAE9E9;stop-opacity:0.5196"/>
					<stop  offset="0.9013" style="stop-color:#D7D5D5;stop-opacity:0.4165"/>
					<stop  offset="0.9215" style="stop-color:#BFBCBC;stop-opacity:0.3314"/>
					<stop  offset="0.939" style="stop-color:#A29F9F;stop-opacity:0.2575"/>
					<stop  offset="0.9547" style="stop-color:#817E7E;stop-opacity:0.1913"/>
					<stop  offset="0.969" style="stop-color:#5F5C5C;stop-opacity:0.1309"/>
					<stop  offset="0.9822" style="stop-color:#3E3C3C;stop-opacity:0.075"/>
					<stop  offset="0.9942" style="stop-color:#1C1B1B;stop-opacity:0.0247"/>
					<stop  offset="1" style="stop-color:#010101;stop-opacity:0"/>
				</linearGradient>
				<path opacity="0.38" fill="url(#SVGID_17_)" d="M95.541,2.865H56.842H18.143c-2.417,0-4.7,0.579-6.724,1.6l0.499,1.028
					c1.738-0.678,4.044-1.145,6.225-1.145h38.699h38.699c2.182,0,4.291,0.476,6.106,1.312l0.606-1.281
					C100.241,3.444,97.958,2.865,95.541,2.865z"/>
				
					<linearGradient id="SVGID_18_" gradientUnits="userSpaceOnUse" x1="11.4194" y1="335.5698" x2="102.2534" y2="335.5698" gradientTransform="matrix(1 0 0 -1 0 557.9561)">
					<stop  offset="0" style="stop-color:#010101;stop-opacity:0"/>
					<stop  offset="0.0023" style="stop-color:#080808;stop-opacity:0.0104"/>
					<stop  offset="0.026" style="stop-color:#373535;stop-opacity:0.1162"/>
					<stop  offset="0.0507" style="stop-color:#5D5A5A;stop-opacity:0.2267"/>
					<stop  offset="0.0759" style="stop-color:#848181;stop-opacity:0.3396"/>
					<stop  offset="0.1018" style="stop-color:#A9A7A6;stop-opacity:0.4557"/>
					<stop  offset="0.1287" style="stop-color:#C9C7C7;stop-opacity:0.5759"/>
					<stop  offset="0.1569" style="stop-color:#E3E1E1;stop-opacity:0.7019"/>
					<stop  offset="0.1872" style="stop-color:#F5F5F5;stop-opacity:0.8375"/>
					<stop  offset="0.2235" style="stop-color:#FFFFFF"/>
					<stop  offset="0.6845" style="stop-color:#FFFFFF"/>
					<stop  offset="0.7631" style="stop-color:#FFFFFF"/>
					<stop  offset="0.8438" style="stop-color:#F9F8F8;stop-opacity:0.6595"/>
					<stop  offset="0.8769" style="stop-color:#EAE9E9;stop-opacity:0.5196"/>
					<stop  offset="0.9013" style="stop-color:#D7D5D5;stop-opacity:0.4165"/>
					<stop  offset="0.9215" style="stop-color:#BFBCBC;stop-opacity:0.3314"/>
					<stop  offset="0.939" style="stop-color:#A29F9F;stop-opacity:0.2575"/>
					<stop  offset="0.9547" style="stop-color:#817E7E;stop-opacity:0.1913"/>
					<stop  offset="0.969" style="stop-color:#5F5C5C;stop-opacity:0.1309"/>
					<stop  offset="0.9822" style="stop-color:#3E3C3C;stop-opacity:0.075"/>
					<stop  offset="0.9942" style="stop-color:#1C1B1B;stop-opacity:0.0247"/>
					<stop  offset="1" style="stop-color:#010101;stop-opacity:0"/>
				</linearGradient>
				<path opacity="0.38" fill="url(#SVGID_18_)" d="M95.541,223.784H56.842H18.143c-2.417,0-4.7-0.58-6.724-1.601l0.499-1.028
					c1.738,0.678,4.044,1.145,6.225,1.145h38.699h38.699c2.182,0,4.291-0.475,6.106-1.311l0.606,1.28
					C100.241,223.204,97.958,223.784,95.541,223.784z"/>
				<g>
					<path fill="#1A1A1A" d="M63.95,8.715c-0.025-0.079-0.064-0.147-0.113-0.212l-0.05,0.05L63.95,8.715z"/>
					<polygon fill="#1A1A1A" points="52.69,9.312 52.481,9.521 52.642,9.681 52.739,9.681 52.899,9.521 					"/>
					<polygon fill="#1A1A1A" points="52.321,9.681 52.414,9.681 52.367,9.635 					"/>
					
						<rect x="62.557" y="9.05" transform="matrix(-0.7054 -0.7088 0.7088 -0.7054 100.4195 60.1289)" fill="#1A1A1A" width="0.295" height="0.296"/>
					
						<rect x="61.91" y="9.05" transform="matrix(-0.7063 -0.7079 0.7079 -0.7063 99.3764 59.6265)" fill="#1A1A1A" width="0.296" height="0.295"/>
					
						<rect x="57.71" y="8.727" transform="matrix(-0.7079 0.7063 -0.7063 -0.7079 105.0864 -25.7064)" fill="#1A1A1A" width="0.296" height="0.296"/>
					<path fill="#1A1A1A" d="M63.729,8.381c-0.074-0.063-0.158-0.109-0.253-0.14l0.196,0.197L63.729,8.381z"/>
					<polygon fill="#1A1A1A" points="53.982,9.312 53.773,9.521 53.934,9.681 54.031,9.681 54.191,9.521 					"/>
					<polygon fill="#1A1A1A" points="52.044,9.312 51.835,9.521 51.996,9.681 52.093,9.681 52.253,9.521 					"/>
					<polygon fill="#1A1A1A" points="52.967,9.681 53.06,9.681 53.013,9.635 					"/>
					<path fill="#1A1A1A" d="M63.316,9.668c0.02-0.002,0.037-0.008,0.056-0.011L63.35,9.635L63.316,9.668z"/>
					<polygon fill="#1A1A1A" points="63.027,9.312 62.818,9.521 62.978,9.681 63.075,9.681 63.236,9.521 					"/>
					<polygon fill="#1A1A1A" points="53.613,9.681 53.706,9.681 53.66,9.635 					"/>
					<path fill="#1A1A1A" d="M63.888,9.299c0.051-0.09,0.084-0.188,0.094-0.296l-0.195,0.195L63.888,9.299z"/>
					<path fill="#1A1A1A" d="M63.463,9.521l0.093,0.092c0.092-0.042,0.172-0.104,0.239-0.177l-0.123-0.123L63.463,9.521z"/>
					<polygon fill="#1A1A1A" points="53.336,9.312 53.127,9.521 53.288,9.681 53.385,9.681 53.545,9.521 					"/>
					
						<rect x="58.358" y="8.728" transform="matrix(-0.7054 0.7088 -0.7088 -0.7054 106.0682 -26.3305)" fill="#1A1A1A" width="0.295" height="0.295"/>
					<polygon fill="#1A1A1A" points="61.088,8.438 61.297,8.229 61.264,8.196 60.914,8.196 60.879,8.229 					"/>
					
						<rect x="59.326" y="9.049" transform="matrix(-0.7063 -0.7079 0.7079 -0.7063 94.9674 57.7972)" fill="#1A1A1A" width="0.296" height="0.297"/>
					
						<rect x="56.418" y="8.727" transform="matrix(-0.7079 0.7063 -0.7063 -0.7079 102.8798 -24.7939)" fill="#1A1A1A" width="0.296" height="0.296"/>
					<path fill="#1A1A1A" d="M50.752,9.312l-0.209,0.209l0.149,0.149c0.019,0.001,0.034,0.011,0.053,0.011h0.056l0.16-0.16
						L50.752,9.312z"/>
					
						<rect x="59.972" y="9.05" transform="matrix(-0.7063 -0.7079 0.7079 -0.7063 96.0696 58.2545)" fill="#1A1A1A" width="0.296" height="0.296"/>
					
						<rect x="58.68" y="9.05" transform="matrix(-0.7063 -0.7079 0.7079 -0.7063 93.8651 57.3399)" fill="#1A1A1A" width="0.296" height="0.296"/>
					<polygon fill="#1A1A1A" points="63.027,8.438 63.236,8.229 63.203,8.196 62.85,8.196 62.818,8.229 					"/>
					
						<rect x="50.282" y="9.05" transform="matrix(0.7071 -0.7071 0.7071 0.7071 8.2665 38.353)" fill="#1A1A1A" width="0.296" height="0.296"/>
					<polygon fill="#1A1A1A" points="60.443,8.438 60.652,8.229 60.619,8.196 60.267,8.196 60.234,8.229 					"/>
					<polygon fill="#1A1A1A" points="51.398,9.312 51.189,9.521 51.35,9.681 51.447,9.681 51.607,9.521 					"/>
					
						<rect x="61.264" y="9.05" transform="matrix(-0.7063 -0.7079 0.7079 -0.7063 98.2741 59.1692)" fill="#1A1A1A" width="0.296" height="0.296"/>
					<polygon fill="#1A1A1A" points="62.38,8.438 62.589,8.229 62.557,8.196 62.205,8.196 62.171,8.229 					"/>
					
						<rect x="57.065" y="8.727" transform="matrix(-0.7071 0.7071 -0.7071 -0.7071 103.9433 -25.3047)" fill="#1A1A1A" width="0.296" height="0.296"/>
					<polygon fill="#1A1A1A" points="51.675,9.681 51.768,9.681 51.722,9.635 					"/>
					
						<rect x="60.618" y="9.05" transform="matrix(-0.7063 -0.7079 0.7079 -0.7063 97.1727 58.7122)" fill="#1A1A1A" width="0.296" height="0.296"/>
					<polygon fill="#1A1A1A" points="61.735,8.438 61.944,8.229 61.911,8.196 61.559,8.196 61.525,8.229 					"/>
					<polygon fill="#1A1A1A" points="51.029,9.681 51.122,9.681 51.075,9.635 					"/>
					<polygon fill="#1A1A1A" points="62.011,9.681 62.104,9.681 62.058,9.635 					"/>
					<polygon fill="#1A1A1A" points="59.151,9.312 58.942,9.521 59.102,9.681 59.2,9.681 59.36,9.521 					"/>
					
						<rect x="60.941" y="8.727" transform="matrix(-0.7071 0.7071 -0.7071 -0.7071 110.56 -28.0454)" fill="#1A1A1A" width="0.296" height="0.296"/>
					<polygon fill="#1A1A1A" points="56.197,9.681 56.29,9.681 56.244,9.635 					"/>
					<polygon fill="#1A1A1A" points="58.781,9.681 58.874,9.681 58.828,9.635 					"/>
					
						<rect x="59.649" y="8.727" transform="matrix(-0.7071 0.7071 -0.7071 -0.7071 108.3544 -27.1319)" fill="#1A1A1A" width="0.296" height="0.296"/>
					<polygon fill="#1A1A1A" points="59.796,9.312 59.587,9.521 59.749,9.681 59.845,9.681 60.005,9.521 					"/>
					<polygon fill="#1A1A1A" points="59.427,9.681 59.52,9.681 59.473,9.635 					"/>
					<polygon fill="#1A1A1A" points="62.658,9.681 62.75,9.681 62.704,9.635 					"/>
					<polygon fill="#1A1A1A" points="57.212,9.312 57.003,9.521 57.164,9.681 57.262,9.681 57.421,9.521 					"/>
					
						<rect x="61.587" y="8.727" transform="matrix(-0.7071 0.7071 -0.7071 -0.7071 111.6636 -28.5026)" fill="#1A1A1A" width="0.296" height="0.296"/>
					<polygon fill="#1A1A1A" points="57.489,9.681 57.582,9.681 57.536,9.635 					"/>
					<polygon fill="#1A1A1A" points="57.858,9.312 57.649,9.521 57.81,9.681 57.907,9.681 58.068,9.521 					"/>
					
						<rect x="60.295" y="8.728" transform="matrix(-0.7054 0.7088 -0.7088 -0.7054 109.3725 -27.7037)" fill="#1A1A1A" width="0.295" height="0.295"/>
					<polygon fill="#1A1A1A" points="56.566,9.312 56.357,9.521 56.518,9.681 56.615,9.681 56.776,9.521 					"/>
					<polygon fill="#1A1A1A" points="58.505,9.312 58.296,9.521 58.456,9.681 58.553,9.681 58.714,9.521 					"/>
					<polygon fill="#1A1A1A" points="58.135,9.681 58.228,9.681 58.181,9.635 					"/>
					<polygon fill="#1A1A1A" points="55.92,9.312 55.711,9.521 55.872,9.681 55.969,9.681 56.129,9.521 					"/>
					<polygon fill="#1A1A1A" points="54.628,9.312 54.419,9.521 54.58,9.681 54.677,9.681 54.837,9.521 					"/>
					<polygon fill="#1A1A1A" points="61.735,9.312 61.525,9.521 61.686,9.681 61.784,9.681 61.944,9.521 					"/>
					<polygon fill="#1A1A1A" points="59.796,8.438 60.005,8.229 59.972,8.196 59.621,8.196 59.587,8.229 					"/>
					
						<rect x="59.003" y="8.727" transform="matrix(-0.7071 0.7071 -0.7071 -0.7071 107.2524 -26.6754)" fill="#1A1A1A" width="0.296" height="0.296"/>
					<polygon fill="#1A1A1A" points="60.073,9.681 60.167,9.681 60.12,9.635 					"/>
					
						<rect x="62.879" y="8.727" transform="matrix(-0.7071 0.7071 -0.7071 -0.7071 113.8691 -29.4161)" fill="#1A1A1A" width="0.296" height="0.296"/>
					<polygon fill="#1A1A1A" points="62.38,9.312 62.171,9.521 62.333,9.681 62.43,9.681 62.589,9.521 					"/>
					<polygon fill="#1A1A1A" points="61.366,9.681 61.458,9.681 61.412,9.635 					"/>
					<polygon fill="#1A1A1A" points="54.259,9.681 54.352,9.681 54.305,9.635 					"/>
					<polygon fill="#1A1A1A" points="60.443,9.312 60.234,9.521 60.394,9.681 60.492,9.681 60.652,9.521 					"/>
					<polygon fill="#1A1A1A" points="55.274,9.312 55.065,9.521 55.226,9.681 55.323,9.681 55.484,9.521 					"/>
					<polygon fill="#1A1A1A" points="55.551,9.681 55.644,9.681 55.598,9.635 					"/>
					<polygon fill="#1A1A1A" points="54.905,9.681 54.998,9.681 54.952,9.635 					"/>
					<polygon fill="#1A1A1A" points="61.088,9.312 60.879,9.521 61.041,9.681 61.137,9.681 61.297,9.521 					"/>
					
						<rect x="62.233" y="8.727" transform="matrix(-0.7071 0.7071 -0.7071 -0.7071 112.7655 -28.959)" fill="#1A1A1A" width="0.296" height="0.296"/>
					<polygon fill="#1A1A1A" points="60.719,9.681 60.812,9.681 60.766,9.635 					"/>
					<polygon fill="#1A1A1A" points="56.843,9.681 56.936,9.681 56.89,9.635 					"/>
					
						<rect x="50.604" y="8.727" transform="matrix(0.7071 0.7071 -0.7071 0.7071 21.1405 -33.2878)" fill="#1A1A1A" width="0.296" height="0.296"/>
					
						<rect x="51.573" y="9.05" transform="matrix(-0.7071 -0.7071 0.7071 -0.7071 81.7898 52.274)" fill="#1A1A1A" width="0.296" height="0.296"/>
					
						<rect x="58.034" y="8.404" transform="matrix(-0.7079 0.7063 -0.7063 -0.7079 105.4096 -26.4859)" fill="#1A1A1A" width="0.295" height="0.296"/>
					<polygon fill="#1A1A1A" points="53.336,8.438 53.545,8.229 53.512,8.196 53.161,8.196 53.127,8.229 					"/>
					
						<rect x="57.388" y="8.404" transform="matrix(-0.7071 0.7071 -0.7071 -0.7071 104.2665 -26.0851)" fill="#1A1A1A" width="0.296" height="0.296"/>
					<polygon fill="#1A1A1A" points="52.044,8.438 52.253,8.229 52.22,8.196 51.869,8.196 51.835,8.229 					"/>
					
						<rect x="56.742" y="8.404" transform="matrix(-0.7071 0.7071 -0.7071 -0.7071 103.1639 -25.6279)" fill="#1A1A1A" width="0.295" height="0.295"/>
					
						<rect x="50.927" y="9.05" transform="matrix(-0.7063 -0.7079 0.7079 -0.7063 80.6373 51.8517)" fill="#1A1A1A" width="0.296" height="0.296"/>
					<polygon fill="#1A1A1A" points="52.69,8.438 52.899,8.229 52.866,8.196 52.514,8.196 52.481,8.229 					"/>
					
						<rect x="51.251" y="8.727" transform="matrix(-0.7071 0.7071 -0.7071 -0.7071 94.0182 -21.1936)" fill="#1A1A1A" width="0.296" height="0.296"/>
					<polygon fill="#1A1A1A" points="54.628,8.438 54.837,8.229 54.804,8.196 54.453,8.196 54.419,8.229 					"/>
					
						<rect x="55.449" y="8.404" transform="matrix(-0.7079 0.7063 -0.7063 -0.7079 100.9967 -24.6612)" fill="#1A1A1A" width="0.296" height="0.295"/>
					
						<rect x="52.865" y="9.05" transform="matrix(-0.7063 -0.7079 0.7079 -0.7063 83.9444 53.2238)" fill="#1A1A1A" width="0.296" height="0.296"/>
					<polygon fill="#1A1A1A" points="53.982,8.438 54.191,8.229 54.158,8.196 53.807,8.196 53.773,8.229 					"/>
					
						<rect x="56.096" y="8.404" transform="matrix(-0.7071 0.7071 -0.7071 -0.7071 102.0609 -25.1715)" fill="#1A1A1A" width="0.296" height="0.296"/>
					
						<rect x="52.219" y="9.05" transform="matrix(-0.7063 -0.7079 0.7079 -0.7063 82.8418 52.7663)" fill="#1A1A1A" width="0.296" height="0.296"/>
					
						<rect x="61.264" y="8.404" transform="matrix(-0.7071 0.7071 -0.7071 -0.7071 110.8832 -28.8258)" fill="#1A1A1A" width="0.296" height="0.296"/>
					
						<rect x="63.524" y="8.727" transform="matrix(-0.7088 0.7055 -0.7055 -0.7088 115.0613 -29.7529)" fill="#1A1A1A" width="0.296" height="0.296"/>
					<path fill="#1A1A1A" d="M50.315,8.875l-0.208-0.209l-0.061,0.06c-0.021,0.069-0.043,0.138-0.043,0.212
						c0,0.019,0.009,0.034,0.011,0.053l0.093,0.093L50.315,8.875z"/>
					
						<rect x="62.557" y="8.404" transform="matrix(-0.7063 0.7079 -0.7079 -0.7063 113.0449 -29.7984)" fill="#1A1A1A" width="0.295" height="0.296"/>
					
						<rect x="63.203" y="8.405" transform="matrix(-0.7054 0.7088 -0.7088 -0.7054 114.1017 -30.3151)" fill="#1A1A1A" width="0.295" height="0.295"/>
					
						<rect x="63.203" y="9.051" transform="matrix(-0.7054 0.7088 -0.7088 -0.7054 114.5595 -29.2134)" fill="#1A1A1A" width="0.295" height="0.295"/>
					<path fill="#1A1A1A" d="M50.146,9.351c0.046,0.067,0.101,0.125,0.167,0.173l0.003-0.003L50.146,9.351z"/>
					
						<rect x="58.68" y="8.404" transform="matrix(-0.7071 0.7071 -0.7071 -0.7071 106.4722 -26.9982)" fill="#1A1A1A" width="0.296" height="0.295"/>
					
						<rect x="61.911" y="8.405" transform="matrix(-0.7063 0.7079 -0.7079 -0.7063 111.9426 -29.341)" fill="#1A1A1A" width="0.295" height="0.295"/>
					<polygon fill="#1A1A1A" points="51.398,8.438 51.607,8.229 51.574,8.196 51.222,8.196 51.189,8.229 					"/>
					
						<rect x="59.972" y="8.404" transform="matrix(-0.7079 0.7063 -0.7063 -0.7079 108.7204 -27.855)" fill="#1A1A1A" width="0.295" height="0.296"/>
					
						<rect x="59.325" y="8.404" transform="matrix(-0.7088 0.7055 -0.7055 -0.7088 107.6578 -27.3429)" fill="#1A1A1A" width="0.296" height="0.296"/>
					
						<rect x="53.511" y="9.05" transform="matrix(-0.7063 -0.7079 0.7079 -0.7063 85.0467 53.6811)" fill="#1A1A1A" width="0.296" height="0.296"/>
					
						<rect x="60.618" y="8.404" transform="matrix(-0.7071 0.7071 -0.7071 -0.7071 109.7814 -28.3689)" fill="#1A1A1A" width="0.296" height="0.295"/>
					<path fill="#1A1A1A" d="M50.961,8.229l-0.033-0.033h-0.183c-0.069,0-0.132,0.022-0.195,0.04l0.202,0.202L50.961,8.229z"/>
					<polygon fill="#1A1A1A" points="57.212,8.438 57.421,8.229 57.388,8.196 57.037,8.196 57.003,8.229 					"/>
					
						<rect x="52.219" y="8.404" transform="matrix(-0.7071 0.7071 -0.7071 -0.7071 95.4434 -22.4304)" fill="#1A1A1A" width="0.296" height="0.296"/>
					
						<rect x="56.741" y="9.05" transform="matrix(-0.7063 -0.7079 0.7079 -0.7063 90.5579 55.9677)" fill="#1A1A1A" width="0.296" height="0.296"/>
					
						<rect x="55.127" y="8.727" transform="matrix(-0.7071 0.7071 -0.7071 -0.7071 100.6349 -23.9343)" fill="#1A1A1A" width="0.296" height="0.296"/>
					
						<rect x="52.865" y="8.404" transform="matrix(-0.7088 0.7055 -0.7055 -0.7088 96.6197 -22.785)" fill="#1A1A1A" width="0.296" height="0.296"/>
					
						<rect x="56.095" y="9.05" transform="matrix(-0.7071 -0.7071 0.7071 -0.7071 89.5097 55.4716)" fill="#1A1A1A" width="0.296" height="0.296"/>
					<polygon fill="#1A1A1A" points="58.505,8.438 58.714,8.229 58.68,8.196 58.329,8.196 58.296,8.229 					"/>
					<polygon fill="#1A1A1A" points="57.858,8.438 58.068,8.229 58.034,8.196 57.683,8.196 57.649,8.229 					"/>
					
						<rect x="54.481" y="8.727" transform="matrix(-0.7071 0.7071 -0.7071 -0.7071 99.5321 -23.4776)" fill="#1A1A1A" width="0.296" height="0.296"/>
					
						<rect x="51.574" y="8.404" transform="matrix(-0.7071 0.7071 -0.7071 -0.7071 94.3416 -21.9736)" fill="#1A1A1A" width="0.295" height="0.295"/>
					
						<rect x="50.927" y="8.404" transform="matrix(-0.7071 0.7071 -0.7071 -0.7071 93.2378 -21.5169)" fill="#1A1A1A" width="0.296" height="0.296"/>
					
						<rect x="50.282" y="8.404" transform="matrix(0.7071 0.7071 -0.7071 0.7071 20.8175 -33.154)" fill="#1A1A1A" width="0.295" height="0.296"/>
					
						<rect x="58.033" y="9.05" transform="matrix(-0.7063 -0.7079 0.7079 -0.7063 92.762 56.8822)" fill="#1A1A1A" width="0.296" height="0.296"/>
					
						<rect x="57.387" y="9.05" transform="matrix(-0.7071 -0.7071 0.7071 -0.7071 91.7153 56.3852)" fill="#1A1A1A" width="0.296" height="0.296"/>
					<polygon fill="#1A1A1A" points="59.151,8.438 59.36,8.229 59.327,8.196 58.975,8.196 58.942,8.229 					"/>
					
						<rect x="55.773" y="8.727" transform="matrix(-0.7071 0.7071 -0.7071 -0.7071 101.7377 -24.3911)" fill="#1A1A1A" width="0.296" height="0.296"/>
					
						<rect x="54.804" y="8.404" transform="matrix(-0.7079 0.7063 -0.7063 -0.7079 99.8939 -24.205)" fill="#1A1A1A" width="0.295" height="0.296"/>
					
						<rect x="53.189" y="8.727" transform="matrix(-0.7071 0.7071 -0.7071 -0.7071 97.3265 -22.564)" fill="#1A1A1A" width="0.296" height="0.296"/>
					<polygon fill="#1A1A1A" points="56.566,8.438 56.776,8.229 56.742,8.196 56.391,8.196 56.357,8.229 					"/>
					<polygon fill="#1A1A1A" points="55.92,8.438 56.129,8.229 56.096,8.196 55.745,8.196 55.711,8.229 					"/>
					
						<rect x="54.157" y="8.404" transform="matrix(-0.7079 0.7063 -0.7063 -0.7079 98.7895 -23.7489)" fill="#1A1A1A" width="0.296" height="0.296"/>
					
						<rect x="52.543" y="8.727" transform="matrix(-0.7071 0.7071 -0.7071 -0.7071 96.2238 -22.1072)" fill="#1A1A1A" width="0.296" height="0.296"/>
					
						<rect x="53.512" y="8.405" transform="matrix(-0.7071 0.7071 -0.7071 -0.7071 97.6495 -23.3438)" fill="#1A1A1A" width="0.296" height="0.295"/>
					
						<rect x="54.804" y="9.05" transform="matrix(-0.7063 -0.7079 0.7079 -0.7063 87.2516 54.596)" fill="#1A1A1A" width="0.296" height="0.296"/>
					
						<rect x="53.835" y="8.727" transform="matrix(-0.7071 0.7071 -0.7071 -0.7071 98.4293 -23.0208)" fill="#1A1A1A" width="0.296" height="0.296"/>
					
						<rect x="51.897" y="8.727" transform="matrix(-0.7071 0.7071 -0.7071 -0.7071 95.121 -21.6504)" fill="#1A1A1A" width="0.296" height="0.296"/>
					<polygon fill="#1A1A1A" points="55.274,8.438 55.484,8.229 55.45,8.196 55.099,8.196 55.065,8.229 					"/>
					
						<rect x="55.45" y="9.05" transform="matrix(-0.7063 -0.7079 0.7079 -0.7063 88.3539 55.0533)" fill="#1A1A1A" width="0.296" height="0.296"/>
					
						<rect x="54.157" y="9.05" transform="matrix(-0.7063 -0.7079 0.7079 -0.7063 86.1489 54.1385)" fill="#1A1A1A" width="0.296" height="0.296"/>
					<path fill="#272626" d="M50.43,9.407L50.22,9.198l-0.106,0.106c0.01,0.017,0.021,0.031,0.032,0.047l0.17,0.17L50.43,9.407z"/>
					<path fill="#272626" d="M50.014,8.991c0.004,0.054,0.017,0.104,0.031,0.154l0.062-0.062L50.014,8.991z"/>
					<path fill="#272626" d="M50.448,9.616c0.075,0.034,0.159,0.048,0.245,0.054l-0.149-0.149L50.448,9.616z"/>
					<polygon fill="#272626" points="51.075,9.635 51.122,9.681 51.35,9.681 51.189,9.521 					"/>
					
						<rect x="50.833" y="9.212" transform="matrix(0.7056 -0.7086 0.7086 0.7056 8.3573 38.834)" fill="#272626" width="0.161" height="0.296"/>
					
						<rect x="50.187" y="8.566" transform="matrix(0.7071 -0.7071 0.7071 0.7071 8.5616 38.0967)" fill="#272626" width="0.161" height="0.295"/>
					
						<rect x="50.51" y="8.889" transform="matrix(0.7071 -0.7071 0.7071 0.7071 8.428 38.4196)" fill="#272626" width="0.161" height="0.296"/>
					
						<rect x="50.766" y="8.633" transform="matrix(0.7071 0.7071 -0.7071 0.7071 21.0736 -33.4494)" fill="#272626" width="0.296" height="0.161"/>
					
						<rect x="51.479" y="9.212" transform="matrix(0.7056 -0.7086 0.7086 0.7056 8.5474 39.2918)" fill="#272626" width="0.161" height="0.296"/>
					<polygon fill="#272626" points="51.722,9.635 51.768,9.681 51.996,9.681 51.835,9.521 					"/>
					
						<rect x="51.089" y="8.956" transform="matrix(-0.7071 -0.7071 0.7071 -0.7071 81.077 51.656)" fill="#272626" width="0.296" height="0.161"/>
					<path fill="#272626" d="M50.638,8.552l0.114-0.114L50.55,8.236c-0.005,0.001-0.012,0.001-0.017,0.003L50.43,8.343L50.638,8.552
						z"/>
					<polygon fill="#272626" points="52.367,9.635 52.414,9.681 52.642,9.681 52.481,9.521 					"/>
					
						<rect x="51.412" y="8.633" transform="matrix(0.7088 0.7055 -0.7055 0.7088 21.1634 -33.8355)" fill="#272626" width="0.296" height="0.161"/>
					
						<rect x="52.125" y="9.212" transform="matrix(0.7056 -0.7086 0.7086 0.7056 8.7376 39.7495)" fill="#272626" width="0.161" height="0.296"/>
					
						<rect x="51.735" y="8.956" transform="matrix(-0.7063 -0.7079 0.7079 -0.7063 82.1298 52.1483)" fill="#272626" width="0.295" height="0.161"/>
					
						<rect x="51.089" y="8.31" transform="matrix(0.7063 0.7079 -0.7079 0.7063 20.989 -33.8077)" fill="#272626" width="0.296" height="0.162"/>
					<polygon fill="#272626" points="50.995,8.196 50.928,8.196 50.961,8.229 					"/>
					<polygon fill="#272626" points="53.013,9.635 53.06,9.681 53.288,9.681 53.127,9.521 					"/>
					
						<rect x="51.735" y="8.31" transform="matrix(0.7071 0.7071 -0.7071 0.7071 21.1293 -34.2293)" fill="#272626" width="0.296" height="0.161"/>
					
						<rect x="52.771" y="9.212" transform="matrix(0.7056 -0.7086 0.7086 0.7056 8.9278 40.2073)" fill="#272626" width="0.161" height="0.296"/>
					
						<rect x="52.058" y="8.633" transform="matrix(0.7071 0.7071 -0.7071 0.7071 21.452 -34.363)" fill="#272626" width="0.296" height="0.161"/>
					
						<rect x="52.381" y="8.956" transform="matrix(-0.7071 -0.7071 0.7071 -0.7071 83.2826 52.5695)" fill="#272626" width="0.296" height="0.161"/>
					<polygon fill="#272626" points="51.641,8.196 51.574,8.196 51.607,8.229 					"/>
					
						<rect x="52.381" y="8.31" transform="matrix(0.7063 0.7079 -0.7079 0.7063 21.3685 -34.7224)" fill="#272626" width="0.296" height="0.162"/>
					
						<rect x="53.417" y="9.212" transform="matrix(0.7071 -0.7071 0.7071 0.7071 9.0511 40.5701)" fill="#272626" width="0.162" height="0.296"/>
					
						<rect x="53.027" y="8.956" transform="matrix(-0.7079 -0.7063 0.7063 -0.7079 84.4367 52.9899)" fill="#272626" width="0.296" height="0.161"/>
					<polygon fill="#272626" points="53.66,9.635 53.706,9.681 53.934,9.681 53.773,9.521 					"/>
					<polygon fill="#272626" points="52.286,8.196 52.22,8.196 52.253,8.229 					"/>
					
						<rect x="52.704" y="8.633" transform="matrix(0.7071 0.7071 -0.7071 0.7071 21.6412 -34.8198)" fill="#272626" width="0.296" height="0.161"/>
					
						<rect x="53.027" y="8.31" transform="matrix(0.7071 0.7071 -0.7071 0.7071 21.5076 -35.1427)" fill="#272626" width="0.296" height="0.162"/>
					
						<rect x="54.063" y="9.212" transform="matrix(0.7056 -0.7086 0.7086 0.7056 9.3082 41.1228)" fill="#272626" width="0.161" height="0.296"/>
					<polygon fill="#272626" points="52.933,8.196 52.866,8.196 52.899,8.229 					"/>
					
						<rect x="53.673" y="8.956" transform="matrix(-0.7071 -0.7071 0.7071 -0.7071 85.4882 53.4831)" fill="#272626" width="0.296" height="0.161"/>
					
						<rect x="53.35" y="8.633" transform="matrix(0.7071 0.7071 -0.7071 0.7071 21.8304 -35.2766)" fill="#272626" width="0.295" height="0.161"/>
					<polygon fill="#272626" points="54.305,9.635 54.352,9.681 54.58,9.681 54.419,9.521 					"/>
					
						<rect x="54.319" y="8.956" transform="matrix(-0.7079 -0.7063 0.7063 -0.7079 86.6433 53.9024)" fill="#272626" width="0.296" height="0.161"/>
					
						<rect x="53.673" y="8.31" transform="matrix(0.7071 0.7071 -0.7071 0.7071 21.6969 -35.5997)" fill="#272626" width="0.296" height="0.161"/>
					
						<rect x="54.709" y="9.212" transform="matrix(0.7071 -0.7071 0.7071 0.7071 9.4296 41.4837)" fill="#272626" width="0.162" height="0.296"/>
					<polygon fill="#272626" points="54.952,9.635 54.998,9.681 55.226,9.681 55.065,9.521 					"/>
					<polygon fill="#272626" points="53.579,8.196 53.512,8.196 53.545,8.229 					"/>
					
						<rect x="53.996" y="8.633" transform="matrix(0.7071 0.7071 -0.7071 0.7071 22.0196 -35.7334)" fill="#272626" width="0.296" height="0.161"/>
					
						<rect x="55.355" y="9.211" transform="matrix(0.7071 -0.7071 0.7071 0.7071 9.6188 41.9407)" fill="#272626" width="0.162" height="0.296"/>
					
						<rect x="54.965" y="8.956" transform="matrix(-0.7071 -0.7071 0.7071 -0.7071 87.6942 54.3969)" fill="#272626" width="0.296" height="0.161"/>
					<polygon fill="#272626" points="55.598,9.635 55.644,9.681 55.872,9.681 55.711,9.521 					"/>
					<polygon fill="#272626" points="54.225,8.196 54.158,8.196 54.191,8.229 					"/>
					
						<rect x="54.319" y="8.31" transform="matrix(0.7063 0.7079 -0.7079 0.7063 21.9377 -36.0943)" fill="#272626" width="0.296" height="0.162"/>
					
						<rect x="54.642" y="8.633" transform="matrix(0.7071 0.7071 -0.7071 0.7071 22.2089 -36.1903)" fill="#272626" width="0.296" height="0.162"/>
					
						<rect x="55.288" y="8.633" transform="matrix(0.7071 0.7071 -0.7071 0.7071 22.3981 -36.6469)" fill="#272626" width="0.295" height="0.161"/>
					
						<rect x="55.611" y="8.956" transform="matrix(-0.7079 -0.7063 0.7063 -0.7079 88.85 54.8149)" fill="#272626" width="0.296" height="0.161"/>
					<polygon fill="#272626" points="54.871,8.196 54.804,8.196 54.837,8.229 					"/>
					
						<rect x="54.965" y="8.31" transform="matrix(0.7071 0.7071 -0.7071 0.7071 22.0753 -36.5132)" fill="#272626" width="0.296" height="0.161"/>
					<polygon fill="#272626" points="56.244,9.635 56.29,9.681 56.518,9.681 56.357,9.521 					"/>
					
						<rect x="56.001" y="9.212" transform="matrix(0.7056 -0.7086 0.7086 0.7056 9.8787 42.4961)" fill="#272626" width="0.161" height="0.296"/>
					<polygon fill="#272626" points="55.517,8.196 55.45,8.196 55.484,8.229 					"/>
					
						<rect x="55.934" y="8.633" transform="matrix(0.7079 0.7063 -0.7063 0.7079 22.5339 -37.0648)" fill="#272626" width="0.296" height="0.161"/>
					
						<rect x="56.257" y="8.956" transform="matrix(-0.7071 -0.7071 0.7071 -0.7071 89.8997 55.3104)" fill="#272626" width="0.296" height="0.161"/>
					<polygon fill="#272626" points="56.89,9.635 56.936,9.681 57.164,9.681 57.003,9.521 					"/>
					
						<rect x="55.611" y="8.31" transform="matrix(0.7071 0.7071 -0.7071 0.7071 22.2645 -36.97)" fill="#272626" width="0.296" height="0.161"/>
					
						<rect x="56.647" y="9.211" transform="matrix(0.7071 -0.7071 0.7071 0.7071 9.9972 42.8542)" fill="#272626" width="0.162" height="0.296"/>
					<polygon fill="#272626" points="57.536,9.635 57.582,9.681 57.81,9.681 57.649,9.521 					"/>
					
						<rect x="56.903" y="8.956" transform="matrix(-0.7063 -0.7079 0.7079 -0.7063 90.9478 55.8069)" fill="#272626" width="0.295" height="0.161"/>
					<polygon fill="#272626" points="56.163,8.196 56.096,8.196 56.129,8.229 					"/>
					
						<rect x="56.58" y="8.633" transform="matrix(0.7079 0.7063 -0.7063 0.7079 22.7224 -37.5209)" fill="#272626" width="0.295" height="0.161"/>
					
						<rect x="56.257" y="8.31" transform="matrix(0.7063 0.7079 -0.7079 0.7063 22.507 -37.4665)" fill="#272626" width="0.296" height="0.161"/>
					
						<rect x="57.293" y="9.212" transform="matrix(0.7056 -0.7086 0.7086 0.7056 10.2591 43.4117)" fill="#272626" width="0.161" height="0.296"/>
					<polygon fill="#272626" points="58.181,9.635 58.228,9.681 58.456,9.681 58.296,9.521 					"/>
					<polygon fill="#272626" points="56.809,8.196 56.742,8.196 56.776,8.229 					"/>
					
						<rect x="57.226" y="8.633" transform="matrix(0.7079 0.7063 -0.7063 0.7079 22.9112 -37.9773)" fill="#272626" width="0.296" height="0.161"/>
					
						<rect x="57.549" y="8.956" transform="matrix(-0.7071 -0.7071 0.7071 -0.7071 92.1053 56.224)" fill="#272626" width="0.296" height="0.161"/>
					
						<rect x="57.939" y="9.211" transform="matrix(0.7056 -0.7086 0.7086 0.7056 10.4494 43.8696)" fill="#272626" width="0.161" height="0.296"/>
					
						<rect x="56.903" y="8.31" transform="matrix(0.7071 0.7071 -0.7071 0.7071 22.6429 -37.8836)" fill="#272626" width="0.296" height="0.161"/>
					<polygon fill="#272626" points="58.828,9.635 58.874,9.681 59.102,9.681 58.942,9.521 					"/>
					<polygon fill="#272626" points="57.455,8.196 57.388,8.196 57.421,8.229 					"/>
					
						<rect x="57.549" y="8.31" transform="matrix(0.7063 0.7079 -0.7079 0.7063 22.8865 -38.3811)" fill="#272626" width="0.296" height="0.161"/>
					
						<rect x="58.195" y="8.955" transform="matrix(-0.7071 -0.7071 0.7071 -0.7071 93.2085 56.681)" fill="#272626" width="0.296" height="0.162"/>
					
						<rect x="58.586" y="9.212" transform="matrix(0.7041 -0.7101 0.7101 0.7041 10.715 44.4309)" fill="#272626" width="0.161" height="0.296"/>
					
						<rect x="57.872" y="8.633" transform="matrix(0.7071 0.7071 -0.7071 0.7071 23.1549 -38.4741)" fill="#272626" width="0.296" height="0.161"/>
					
						<rect x="58.195" y="8.31" transform="matrix(0.7079 0.7063 -0.7063 0.7079 22.9664 -38.7561)" fill="#272626" width="0.296" height="0.162"/>
					
						<rect x="59.232" y="9.212" transform="matrix(0.7041 -0.7101 0.7101 0.7041 10.9061 44.8893)" fill="#272626" width="0.161" height="0.296"/>
					<polygon fill="#272626" points="59.473,9.635 59.52,9.681 59.749,9.681 59.587,9.521 					"/>
					<polygon fill="#272626" points="58.101,8.196 58.034,8.196 58.068,8.229 					"/>
					
						<rect x="58.841" y="8.956" transform="matrix(-0.7071 -0.7071 0.7071 -0.7071 94.3113 57.1378)" fill="#272626" width="0.296" height="0.161"/>
					
						<rect x="58.519" y="8.633" transform="matrix(0.7079 0.7063 -0.7063 0.7079 23.2886 -38.89)" fill="#272626" width="0.295" height="0.161"/>
					
						<rect x="58.841" y="8.31" transform="matrix(0.7071 0.7071 -0.7071 0.7071 23.2106 -39.2541)" fill="#272626" width="0.296" height="0.162"/>
					<polygon fill="#272626" points="58.747,8.196 58.68,8.196 58.714,8.229 					"/>
					
						<rect x="59.877" y="9.212" transform="matrix(0.7071 -0.7071 0.7071 0.7071 10.9432 45.138)" fill="#272626" width="0.162" height="0.296"/>
					
						<rect x="59.164" y="8.633" transform="matrix(0.7071 0.7071 -0.7071 0.7071 23.5334 -39.3878)" fill="#272626" width="0.296" height="0.161"/>
					
						<rect x="59.487" y="8.956" transform="matrix(-0.7088 -0.7055 0.7055 -0.7088 95.5263 57.5107)" fill="#272626" width="0.296" height="0.161"/>
					<polygon fill="#272626" points="60.12,9.635 60.167,9.681 60.394,9.681 60.234,9.521 					"/>
					
						<rect x="60.524" y="9.212" transform="matrix(0.7071 -0.7071 0.7071 0.7071 11.1326 45.5951)" fill="#272626" width="0.162" height="0.296"/>
					
						<rect x="59.81" y="8.633" transform="matrix(0.7071 0.7071 -0.7071 0.7071 23.7226 -39.8446)" fill="#272626" width="0.296" height="0.162"/>
					<polygon fill="#272626" points="60.766,9.635 60.812,9.681 61.041,9.681 60.879,9.521 					"/>
					
						<rect x="59.487" y="8.31" transform="matrix(0.7063 0.7079 -0.7079 0.7063 23.4557 -39.7529)" fill="#272626" width="0.296" height="0.162"/>
					
						<rect x="60.133" y="8.956" transform="matrix(-0.7071 -0.7071 0.7071 -0.7071 96.5168 58.0513)" fill="#272626" width="0.296" height="0.161"/>
					<polygon fill="#272626" points="59.393,8.196 59.327,8.196 59.36,8.229 					"/>
					
						<rect x="60.133" y="8.31" transform="matrix(0.7071 0.7071 -0.7071 0.7071 23.589 -40.1677)" fill="#272626" width="0.296" height="0.162"/>
					<polygon fill="#272626" points="61.412,9.635 61.458,9.681 61.686,9.681 61.525,9.521 					"/>
					<polygon fill="#272626" points="60.04,8.196 59.972,8.196 60.005,8.229 					"/>
					
						<rect x="60.457" y="8.633" transform="matrix(0.7079 0.7063 -0.7063 0.7079 23.8546 -40.2588)" fill="#272626" width="0.295" height="0.161"/>
					
						<rect x="61.169" y="9.212" transform="matrix(0.7071 -0.7071 0.7071 0.7071 11.3216 46.0516)" fill="#272626" width="0.162" height="0.296"/>
					
						<rect x="60.779" y="8.956" transform="matrix(-0.7071 -0.7071 0.7071 -0.7071 97.6196 58.5081)" fill="#272626" width="0.296" height="0.161"/>
					
						<rect x="61.102" y="8.633" transform="matrix(0.7071 0.7071 -0.7071 0.7071 24.101 -40.7582)" fill="#272626" width="0.296" height="0.162"/>
					
						<rect x="61.816" y="9.212" transform="matrix(0.7071 -0.7071 0.7071 0.7071 11.511 46.5087)" fill="#272626" width="0.162" height="0.296"/>
					
						<rect x="60.779" y="8.31" transform="matrix(0.7071 0.7071 -0.7071 0.7071 23.7782 -40.6245)" fill="#272626" width="0.296" height="0.161"/>
					<polygon fill="#272626" points="62.058,9.635 62.104,9.681 62.333,9.681 62.171,9.521 					"/>
					<polygon fill="#272626" points="60.685,8.196 60.619,8.196 60.652,8.229 					"/>
					
						<rect x="61.425" y="8.956" transform="matrix(-0.7071 -0.7071 0.7071 -0.7071 98.7224 58.9649)" fill="#272626" width="0.296" height="0.161"/>
					
						<rect x="61.425" y="8.31" transform="matrix(0.7079 0.7063 -0.7063 0.7079 23.9097 -41.0376)" fill="#272626" width="0.297" height="0.161"/>
					
						<rect x="62.462" y="9.212" transform="matrix(0.7116 -0.7026 0.7026 0.7116 11.4605 46.6396)" fill="#272626" width="0.162" height="0.296"/>
					
						<rect x="62.072" y="8.956" transform="matrix(-0.7054 -0.7088 0.7088 -0.7054 99.7071 59.5096)" fill="#272626" width="0.295" height="0.161"/>
					<polygon fill="#272626" points="61.331,8.196 61.264,8.196 61.297,8.229 					"/>
					<polygon fill="#272626" points="62.704,9.635 62.75,9.681 62.978,9.681 62.818,9.521 					"/>
					
						<rect x="61.749" y="8.633" transform="matrix(0.7079 0.7063 -0.7063 0.7079 24.232 -41.1713)" fill="#272626" width="0.295" height="0.161"/>
					<polygon fill="#272626" points="61.977,8.196 61.911,8.196 61.944,8.229 					"/>
					
						<rect x="62.071" y="8.31" transform="matrix(0.7071 0.7071 -0.7071 0.7071 24.1567 -41.5381)" fill="#272626" width="0.296" height="0.161"/>
					
						<rect x="62.395" y="8.632" transform="matrix(0.7071 0.7071 -0.7071 0.7071 24.4796 -41.6721)" fill="#272626" width="0.296" height="0.162"/>
					
						<rect x="63.108" y="9.212" transform="matrix(0.7071 -0.7071 0.7071 0.7071 11.8894 47.4223)" fill="#272626" width="0.162" height="0.296"/>
					<path fill="#272626" d="M63.35,9.635l0.021,0.022c0.063-0.011,0.127-0.019,0.185-0.044l-0.093-0.092L63.35,9.635z"/>
					
						<rect x="62.718" y="8.956" transform="matrix(-0.7063 -0.7079 0.7079 -0.7063 100.869 59.9238)" fill="#272626" width="0.295" height="0.161"/>
					<polygon fill="#272626" points="62.623,8.196 62.557,8.196 62.589,8.229 					"/>
					<path fill="#272626" d="M63.672,9.313l0.123,0.123c0.037-0.041,0.065-0.089,0.093-0.137l-0.102-0.101L63.672,9.313z"/>
					
						<rect x="62.717" y="8.31" transform="matrix(0.7063 0.7079 -0.7079 0.7063 24.4047 -42.0398)" fill="#272626" width="0.296" height="0.162"/>
					
						<rect x="63.041" y="8.633" transform="matrix(0.7079 0.7063 -0.7063 0.7079 24.6093 -42.0838)" fill="#272626" width="0.295" height="0.161"/>
					
						<rect x="63.364" y="8.956" transform="matrix(-0.7063 -0.7079 0.7079 -0.7063 101.9704 60.3808)" fill="#272626" width="0.295" height="0.161"/>
					<path fill="#272626" d="M63.672,8.666l0.21,0.209l0.083-0.083c-0.005-0.025-0.008-0.052-0.016-0.077l-0.163-0.163L63.672,8.666
						z"/>
					<path fill="#272626" d="M63.558,8.552l0.114-0.114l-0.196-0.197c-0.007-0.002-0.014-0.002-0.02-0.004L63.35,8.343L63.558,8.552
						z"/>
					<polygon fill="#272626" points="63.266,8.199 63.252,8.196 63.203,8.196 63.236,8.229 					"/>
					<path fill="#333333" d="M50.43,8.343l-0.042-0.042c-0.088,0.05-0.161,0.115-0.223,0.196l0.055,0.055L50.43,8.343z"/>
					<path fill="#333333" d="M50.073,8.633c-0.013,0.029-0.018,0.062-0.027,0.093l0.061-0.06L50.073,8.633z"/>
					<path fill="#333333" d="M50.22,8.552l-0.055-0.055c-0.033,0.043-0.069,0.085-0.092,0.136l0.033,0.033L50.22,8.552z"/>
					<path fill="#333333" d="M50.533,8.239c-0.052,0.016-0.099,0.036-0.146,0.062l0.042,0.042L50.533,8.239z"/>
					<polygon fill="#333333" points="51.222,8.196 51.156,8.196 51.189,8.229 					"/>
					
						<rect x="50.443" y="8.633" transform="matrix(-0.7079 0.7063 -0.7063 -0.7079 92.5593 -20.8493)" fill="#333333" width="0.296" height="0.162"/>
					
						<rect x="50.833" y="8.242" transform="matrix(0.7056 0.7086 -0.7086 0.7056 20.9351 -33.6083)" fill="#333333" width="0.161" height="0.296"/>
					
						<rect x="50.12" y="8.956" transform="matrix(0.7063 -0.7079 0.7079 0.7063 8.3675 38.2403)" fill="#333333" width="0.295" height="0.161"/>
					<path fill="#333333" d="M50.106,9.084l-0.062,0.062c0.017,0.057,0.04,0.108,0.069,0.159l0.106-0.106L50.106,9.084z"/>
					
						<rect x="50.348" y="8.794" transform="matrix(0.7056 0.7086 -0.7086 0.7056 21.1357 -33.1221)" fill="#333333" width="0.161" height="0.162"/>
					
						<rect x="50.672" y="8.471" transform="matrix(0.7071 0.7071 -0.7071 0.7071 20.912 -33.3825)" fill="#333333" width="0.161" height="0.161"/>
					<polygon fill="#333333" points="51.075,8.343 51.189,8.229 51.156,8.196 50.995,8.196 50.961,8.229 					"/>
					
						<rect x="51.156" y="8.566" transform="matrix(0.7071 0.7071 -0.7071 0.7071 21.1682 -33.6778)" fill="#333333" width="0.162" height="0.296"/>
					
						<rect x="50.766" y="8.956" transform="matrix(0.7071 -0.7071 0.7071 0.7071 8.5226 38.6482)" fill="#333333" width="0.296" height="0.161"/>
					<polygon fill="#333333" points="51.869,8.196 51.802,8.196 51.835,8.229 					"/>
					
						<rect x="51.479" y="8.243" transform="matrix(0.7071 0.7071 -0.7071 0.7071 21.0347 -34.0009)" fill="#333333" width="0.162" height="0.296"/>
					
						<rect x="50.51" y="9.212" transform="matrix(0.7071 0.7071 -0.7071 0.7071 21.436 -33.0319)" fill="#333333" width="0.162" height="0.296"/>
					<path fill="#333333" d="M50.315,9.521l-0.003,0.003c0.007,0.005,0.014,0.01,0.021,0.015L50.315,9.521z"/>
					<path fill="#333333" d="M50.43,9.407l-0.114,0.114l0.018,0.018c0.039,0.026,0.072,0.059,0.115,0.077l0.095-0.095L50.43,9.407z"
						/>
					
						<rect x="50.672" y="9.117" transform="matrix(0.7086 -0.7056 0.7056 0.7086 8.2983 38.4906)" fill="#333333" width="0.161" height="0.162"/>
					
						<rect x="50.995" y="8.794" transform="matrix(-0.7086 0.7056 -0.7056 -0.7086 93.53 -20.8746)" fill="#333333" width="0.161" height="0.162"/>
					
						<rect x="51.318" y="8.471" transform="matrix(-0.7071 0.7071 -0.7071 -0.7071 93.7898 -21.745)" fill="#333333" width="0.161" height="0.161"/>
					<polygon fill="#333333" points="51.722,8.343 51.835,8.229 51.802,8.196 51.641,8.196 51.607,8.229 					"/>
					
						<rect x="51.802" y="8.566" transform="matrix(0.7086 0.7056 -0.7056 0.7086 21.2658 -34.0693)" fill="#333333" width="0.161" height="0.295"/>
					
						<rect x="52.125" y="8.242" transform="matrix(0.7056 0.7086 -0.7086 0.7056 21.3154 -34.5238)" fill="#333333" width="0.161" height="0.296"/>
					
						<rect x="51.156" y="9.212" transform="matrix(-0.7086 -0.7056 0.7056 -0.7086 80.9401 52.1443)" fill="#333333" width="0.161" height="0.296"/>
					<polygon fill="#333333" points="50.961,9.521 50.801,9.681 51.029,9.681 51.075,9.635 					"/>
					<polygon fill="#333333" points="52.514,8.196 52.448,8.196 52.481,8.229 					"/>
					
						<rect x="51.412" y="8.956" transform="matrix(0.7071 -0.7071 0.7071 0.7071 8.7118 39.105)" fill="#333333" width="0.296" height="0.161"/>
					
						<rect x="50.995" y="9.44" transform="matrix(-0.7056 -0.7086 0.7086 -0.7056 80.3671 52.432)" fill="#333333" width="0.161" height="0.162"/>
					
						<rect x="51.318" y="9.117" transform="matrix(0.7086 -0.7056 0.7056 0.7086 8.4865 38.9464)" fill="#333333" width="0.161" height="0.162"/>
					
						<rect x="51.641" y="8.794" transform="matrix(-0.7071 0.7071 -0.7071 -0.7071 94.5698 -21.4226)" fill="#333333" width="0.161" height="0.161"/>
					
						<rect x="51.964" y="8.472" transform="matrix(-0.7056 0.7086 -0.7086 -0.7056 94.8266 -22.2935)" fill="#333333" width="0.161" height="0.161"/>
					<polygon fill="#333333" points="52.367,8.343 52.481,8.229 52.448,8.196 52.286,8.196 52.253,8.229 					"/>
					<polygon fill="#333333" points="53.161,8.196 53.094,8.196 53.127,8.229 					"/>
					
						<rect x="51.803" y="9.212" transform="matrix(-0.7071 -0.7071 0.7071 -0.7071 81.9517 52.6647)" fill="#333333" width="0.161" height="0.296"/>
					
						<rect x="52.058" y="8.956" transform="matrix(0.7071 -0.7071 0.7071 0.7071 8.901 39.5618)" fill="#333333" width="0.296" height="0.161"/>
					<polygon fill="#333333" points="51.607,9.521 51.447,9.681 51.675,9.681 51.722,9.635 					"/>
					
						<rect x="52.771" y="8.243" transform="matrix(0.7056 0.7086 -0.7086 0.7056 21.5058 -34.9815)" fill="#333333" width="0.161" height="0.296"/>
					
						<rect x="52.448" y="8.566" transform="matrix(0.7071 0.7071 -0.7071 0.7071 21.5466 -34.5914)" fill="#333333" width="0.162" height="0.296"/>
					
						<rect x="51.641" y="9.44" transform="matrix(-0.7071 -0.7071 0.7071 -0.7071 81.5617 52.8259)" fill="#333333" width="0.162" height="0.161"/>
					
						<rect x="51.964" y="9.117" transform="matrix(0.7086 -0.7056 0.7056 0.7086 8.6747 39.4022)" fill="#333333" width="0.161" height="0.162"/>
					
						<rect x="52.287" y="8.794" transform="matrix(-0.7086 0.7056 -0.7056 -0.7086 95.7375 -21.7862)" fill="#333333" width="0.161" height="0.162"/>
					
						<rect x="52.61" y="8.472" transform="matrix(-0.7056 0.7086 -0.7086 -0.7056 95.9284 -22.7512)" fill="#333333" width="0.161" height="0.161"/>
					<polygon fill="#333333" points="53.013,8.343 53.127,8.229 53.094,8.196 52.933,8.196 52.899,8.229 					"/>
					<polygon fill="#333333" points="53.807,8.196 53.74,8.196 53.773,8.229 					"/>
					
						<rect x="52.704" y="8.956" transform="matrix(0.7071 -0.7071 0.7071 0.7071 9.0903 40.0186)" fill="#333333" width="0.296" height="0.161"/>
					
						<rect x="52.448" y="9.212" transform="matrix(-0.7086 -0.7056 0.7056 -0.7086 83.1477 53.0559)" fill="#333333" width="0.161" height="0.296"/>
					<polygon fill="#333333" points="52.253,9.521 52.093,9.681 52.321,9.681 52.367,9.635 					"/>
					
						<rect x="53.094" y="8.566" transform="matrix(0.7071 0.7071 -0.7071 0.7071 21.7358 -35.0482)" fill="#333333" width="0.161" height="0.296"/>
					
						<rect x="53.417" y="8.243" transform="matrix(0.7071 0.7071 -0.7071 0.7071 21.6023 -35.3713)" fill="#333333" width="0.162" height="0.296"/>
					
						<rect x="52.287" y="9.44" transform="matrix(-0.7056 -0.7086 0.7086 -0.7056 82.5707 53.3475)" fill="#333333" width="0.161" height="0.162"/>
					
						<rect x="52.61" y="9.117" transform="matrix(0.7086 -0.7056 0.7056 0.7086 8.8629 39.858)" fill="#333333" width="0.161" height="0.162"/>
					
						<rect x="52.933" y="8.794" transform="matrix(-0.7086 0.7056 -0.7056 -0.7086 96.8413 -22.2421)" fill="#333333" width="0.161" height="0.162"/>
					
						<rect x="53.256" y="8.471" transform="matrix(-0.7086 0.7056 -0.7056 -0.7086 97.1659 -23.0216)" fill="#333333" width="0.161" height="0.162"/>
					<polygon fill="#333333" points="53.66,8.343 53.773,8.229 53.74,8.196 53.579,8.196 53.545,8.229 					"/>
					<polygon fill="#333333" points="52.899,9.521 52.739,9.681 52.967,9.681 53.013,9.635 					"/>
					
						<rect x="53.094" y="9.212" transform="matrix(-0.7086 -0.7056 0.7056 -0.7086 84.2514 53.5117)" fill="#333333" width="0.161" height="0.296"/>
					<polygon fill="#333333" points="54.453,8.196 54.386,8.196 54.419,8.229 					"/>
					
						<rect x="53.74" y="8.566" transform="matrix(0.7071 0.7071 -0.7071 0.7071 21.925 -35.505)" fill="#333333" width="0.162" height="0.296"/>
					
						<rect x="53.35" y="8.956" transform="matrix(0.7071 -0.7071 0.7071 0.7071 9.2795 40.4755)" fill="#333333" width="0.296" height="0.161"/>
					
						<rect x="54.063" y="8.242" transform="matrix(0.7056 0.7086 -0.7086 0.7056 21.886 -35.8971)" fill="#333333" width="0.161" height="0.296"/>
					
						<rect x="52.933" y="9.44" transform="matrix(-0.7056 -0.7086 0.7086 -0.7056 83.6725 53.8053)" fill="#333333" width="0.161" height="0.162"/>
					
						<rect x="53.256" y="9.117" transform="matrix(0.7071 -0.7071 0.7071 0.7071 9.1179 40.4086)" fill="#333333" width="0.161" height="0.161"/>
					
						<rect x="53.579" y="8.794" transform="matrix(-0.7086 0.7056 -0.7056 -0.7086 97.9451 -22.6979)" fill="#333333" width="0.161" height="0.162"/>
					
						<rect x="53.902" y="8.472" transform="matrix(-0.7056 0.7086 -0.7086 -0.7056 98.132 -23.6668)" fill="#333333" width="0.161" height="0.161"/>
					<polygon fill="#333333" points="54.305,8.343 54.419,8.229 54.386,8.196 54.225,8.196 54.191,8.229 					"/>
					<polygon fill="#333333" points="55.099,8.196 55.032,8.196 55.065,8.229 					"/>
					
						<rect x="54.386" y="8.565" transform="matrix(0.7056 0.7086 -0.7086 0.7056 22.21 -36.0309)" fill="#333333" width="0.161" height="0.296"/>
					
						<rect x="53.741" y="9.212" transform="matrix(-0.7071 -0.7071 0.7071 -0.7071 85.26 54.0351)" fill="#333333" width="0.161" height="0.296"/>
					
						<rect x="54.709" y="8.243" transform="matrix(0.7071 0.7071 -0.7071 0.7071 21.9807 -36.2849)" fill="#333333" width="0.162" height="0.296"/>
					<polygon fill="#333333" points="53.545,9.521 53.385,9.681 53.613,9.681 53.66,9.635 					"/>
					
						<rect x="53.996" y="8.956" transform="matrix(0.7071 -0.7071 0.7071 0.7071 9.4687 40.9321)" fill="#333333" width="0.296" height="0.161"/>
					
						<rect x="53.579" y="9.44" transform="matrix(-0.7071 -0.7071 0.7071 -0.7071 84.87 54.1963)" fill="#333333" width="0.162" height="0.161"/>
					
						<rect x="53.902" y="9.117" transform="matrix(0.7086 -0.7056 0.7056 0.7086 9.2394 40.7696)" fill="#333333" width="0.161" height="0.162"/>
					
						<rect x="54.225" y="8.794" transform="matrix(-0.7086 0.7056 -0.7056 -0.7086 99.0488 -23.1537)" fill="#333333" width="0.161" height="0.162"/>
					
						<rect x="54.548" y="8.471" transform="matrix(-0.7071 0.7071 -0.7071 -0.7071 99.3037 -24.0289)" fill="#333333" width="0.162" height="0.161"/>
					<polygon fill="#333333" points="54.952,8.343 55.065,8.229 55.032,8.196 54.871,8.196 54.837,8.229 					"/>
					<polygon fill="#333333" points="55.745,8.196 55.678,8.196 55.711,8.229 					"/>
					
						<rect x="54.642" y="8.956" transform="matrix(0.7071 -0.7071 0.7071 0.7071 9.6579 41.3891)" fill="#333333" width="0.296" height="0.161"/>
					
						<rect x="55.355" y="8.243" transform="matrix(0.7056 0.7086 -0.7086 0.7056 22.2666 -36.8128)" fill="#333333" width="0.161" height="0.296"/>
					
						<rect x="55.033" y="8.566" transform="matrix(0.7071 0.7071 -0.7071 0.7071 22.3035 -36.4187)" fill="#333333" width="0.161" height="0.295"/>
					
						<rect x="54.386" y="9.212" transform="matrix(-0.7086 -0.7056 0.7056 -0.7086 86.459 54.4233)" fill="#333333" width="0.161" height="0.296"/>
					<polygon fill="#333333" points="54.191,9.521 54.031,9.681 54.259,9.681 54.305,9.635 					"/>
					
						<rect x="54.225" y="9.44" transform="matrix(-0.7056 -0.7086 0.7086 -0.7056 85.8761 54.7208)" fill="#333333" width="0.161" height="0.162"/>
					
						<rect x="54.548" y="9.117" transform="matrix(0.7071 -0.7071 0.7071 0.7071 9.4963 41.3222)" fill="#333333" width="0.161" height="0.161"/>
					
						<rect x="54.871" y="8.794" transform="matrix(-0.7071 0.7071 -0.7071 -0.7071 100.0837 -23.7065)" fill="#333333" width="0.161" height="0.161"/>
					
						<rect x="55.194" y="8.471" transform="matrix(-0.7086 0.7056 -0.7056 -0.7086 100.4771 -24.389)" fill="#333333" width="0.161" height="0.162"/>
					<polygon fill="#333333" points="55.598,8.343 55.711,8.229 55.678,8.196 55.517,8.196 55.484,8.229 					"/>
					<polygon fill="#333333" points="54.837,9.521 54.677,9.681 54.905,9.681 54.952,9.635 					"/>
					
						<rect x="55.033" y="9.212" transform="matrix(-0.7071 -0.7071 0.7071 -0.7071 87.4656 54.9487)" fill="#333333" width="0.161" height="0.296"/>
					
						<rect x="55.678" y="8.565" transform="matrix(0.7056 0.7086 -0.7086 0.7056 22.5904 -36.9465)" fill="#333333" width="0.161" height="0.296"/>
					
						<rect x="56.001" y="8.242" transform="matrix(0.7071 0.7071 -0.7071 0.7071 22.3589 -37.1985)" fill="#333333" width="0.162" height="0.296"/>
					
						<rect x="55.288" y="8.956" transform="matrix(0.7071 -0.7071 0.7071 0.7071 9.8472 41.8459)" fill="#333333" width="0.296" height="0.161"/>
					<polygon fill="#333333" points="56.391,8.196 56.324,8.196 56.357,8.229 					"/>
					
						<rect x="54.871" y="9.44" transform="matrix(-0.7071 -0.7071 0.7071 -0.7071 87.0756 55.1099)" fill="#333333" width="0.162" height="0.161"/>
					
						<rect x="55.194" y="9.117" transform="matrix(0.7071 -0.7071 0.7071 0.7071 9.6855 41.7789)" fill="#333333" width="0.161" height="0.161"/>
					
						<rect x="55.517" y="8.794" transform="matrix(-0.7086 0.7056 -0.7056 -0.7086 101.2563 -24.0653)" fill="#333333" width="0.161" height="0.162"/>
					
						<rect x="55.84" y="8.472" transform="matrix(-0.7056 0.7086 -0.7086 -0.7056 101.4375 -25.0401)" fill="#333333" width="0.161" height="0.161"/>
					<polygon fill="#333333" points="56.244,8.343 56.357,8.229 56.324,8.196 56.163,8.196 56.129,8.229 					"/>
					<polygon fill="#333333" points="55.484,9.521 55.323,9.681 55.551,9.681 55.598,9.635 					"/>
					
						<rect x="55.679" y="9.212" transform="matrix(-0.7071 -0.7071 0.7071 -0.7071 88.5684 55.4055)" fill="#333333" width="0.161" height="0.296"/>
					
						<rect x="55.934" y="8.956" transform="matrix(0.7071 -0.7071 0.7071 0.7071 10.0363 42.3025)" fill="#333333" width="0.296" height="0.161"/>
					
						<rect x="56.324" y="8.566" transform="matrix(0.7056 0.7086 -0.7086 0.7056 22.7806 -37.4044)" fill="#333333" width="0.161" height="0.296"/>
					
						<rect x="56.647" y="8.243" transform="matrix(0.7056 0.7086 -0.7086 0.7056 22.647 -37.7283)" fill="#333333" width="0.161" height="0.296"/>
					<polygon fill="#333333" points="57.037,8.196 56.97,8.196 57.003,8.229 					"/>
					
						<rect x="55.517" y="9.44" transform="matrix(-0.7056 -0.7086 0.7086 -0.7056 88.0801 55.6365)" fill="#333333" width="0.161" height="0.161"/>
					
						<rect x="55.84" y="9.117" transform="matrix(0.7071 -0.7071 0.7071 0.7071 9.8747 42.2357)" fill="#333333" width="0.161" height="0.161"/>
					
						<rect x="56.163" y="8.794" transform="matrix(-0.7071 0.7071 -0.7071 -0.7071 102.2893 -24.6201)" fill="#333333" width="0.161" height="0.161"/>
					
						<rect x="56.486" y="8.471" transform="matrix(-0.7086 0.7056 -0.7056 -0.7086 102.6847 -25.3006)" fill="#333333" width="0.161" height="0.162"/>
					<polygon fill="#333333" points="56.89,8.343 57.003,8.229 56.97,8.196 56.809,8.196 56.776,8.229 					"/>
					<polygon fill="#333333" points="56.129,9.521 55.969,9.681 56.197,9.681 56.244,9.635 					"/>
					<polygon fill="#333333" points="57.683,8.196 57.616,8.196 57.649,8.229 					"/>
					
						<rect x="56.58" y="8.956" transform="matrix(0.7079 -0.7063 0.7063 0.7079 10.1863 42.7054)" fill="#333333" width="0.296" height="0.161"/>
					
						<rect x="56.97" y="8.566" transform="matrix(0.7086 0.7056 -0.7056 0.7086 22.7717 -37.7158)" fill="#333333" width="0.161" height="0.295"/>
					
						<rect x="56.325" y="9.212" transform="matrix(-0.7071 -0.7071 0.7071 -0.7071 89.6712 55.8622)" fill="#333333" width="0.161" height="0.296"/>
					
						<rect x="57.293" y="8.242" transform="matrix(0.7071 0.7071 -0.7071 0.7071 22.7374 -38.1121)" fill="#333333" width="0.162" height="0.296"/>
					
						<rect x="56.163" y="9.44" transform="matrix(-0.7071 -0.7071 0.7071 -0.7071 89.2811 56.0235)" fill="#333333" width="0.162" height="0.161"/>
					
						<rect x="56.486" y="9.117" transform="matrix(0.7071 -0.7071 0.7071 0.7071 10.0639 42.6925)" fill="#333333" width="0.161" height="0.161"/>
					
						<rect x="56.809" y="8.794" transform="matrix(-0.7071 0.7071 -0.7071 -0.7071 103.3921 -25.0769)" fill="#333333" width="0.161" height="0.161"/>
					
						<rect x="57.132" y="8.472" transform="matrix(-0.7056 0.7086 -0.7086 -0.7056 103.6411 -25.9556)" fill="#333333" width="0.161" height="0.161"/>
					<polygon fill="#333333" points="57.536,8.343 57.649,8.229 57.616,8.196 57.455,8.196 57.421,8.229 					"/>
					
						<rect x="56.971" y="9.212" transform="matrix(-0.7071 -0.7071 0.7071 -0.7071 90.7739 56.319)" fill="#333333" width="0.161" height="0.296"/>
					
						<rect x="57.226" y="8.956" transform="matrix(0.7071 -0.7071 0.7071 0.7071 10.4147 43.2161)" fill="#333333" width="0.296" height="0.161"/>
					
						<rect x="57.616" y="8.566" transform="matrix(0.7056 0.7086 -0.7086 0.7056 23.161 -38.3199)" fill="#333333" width="0.161" height="0.296"/>
					<polygon fill="#333333" points="56.776,9.521 56.615,9.681 56.843,9.681 56.89,9.635 					"/>
					<polygon fill="#333333" points="58.329,8.196 58.262,8.196 58.296,8.229 					"/>
					
						<rect x="57.939" y="8.243" transform="matrix(0.7041 0.7101 -0.7101 0.7041 23.1285 -38.7188)" fill="#333333" width="0.161" height="0.296"/>
					
						<rect x="56.809" y="9.44" transform="matrix(-0.7056 -0.7086 0.7086 -0.7056 90.2837 56.552)" fill="#333333" width="0.161" height="0.161"/>
					
						<rect x="57.132" y="9.117" transform="matrix(0.7086 -0.7056 0.7056 0.7086 10.1806 43.0487)" fill="#333333" width="0.161" height="0.162"/>
					
						<rect x="57.455" y="8.794" transform="matrix(-0.7071 0.7071 -0.7071 -0.7071 104.4949 -25.5337)" fill="#333333" width="0.161" height="0.161"/>
					
						<rect x="57.778" y="8.472" transform="matrix(-0.7056 0.7086 -0.7086 -0.7056 104.7429 -26.4134)" fill="#333333" width="0.161" height="0.161"/>
					<polygon fill="#333333" points="58.181,8.343 58.296,8.229 58.262,8.196 58.101,8.196 58.068,8.229 					"/>
					
						<rect x="57.872" y="8.956" transform="matrix(0.7079 -0.7063 0.7063 0.7079 10.5636 43.6177)" fill="#333333" width="0.296" height="0.161"/>
					<polygon fill="#333333" points="57.421,9.521 57.262,9.681 57.489,9.681 57.536,9.635 					"/>
					
						<rect x="57.617" y="9.212" transform="matrix(-0.7071 -0.7071 0.7071 -0.7071 91.8767 56.7758)" fill="#333333" width="0.161" height="0.296"/>
					
						<rect x="58.586" y="8.243" transform="matrix(0.7041 0.7101 -0.7101 0.7041 23.3199 -39.1781)" fill="#333333" width="0.161" height="0.296"/>
					
						<rect x="58.262" y="8.566" transform="matrix(0.7116 0.7026 -0.7026 0.7116 22.9471 -38.4774)" fill="#333333" width="0.162" height="0.295"/>
					<polygon fill="#333333" points="58.975,8.196 58.908,8.196 58.942,8.229 					"/>
					
						<rect x="57.455" y="9.44" transform="matrix(-0.7071 -0.7071 0.7071 -0.7071 91.4867 56.937)" fill="#333333" width="0.162" height="0.161"/>
					
						<rect x="57.778" y="9.117" transform="matrix(0.7071 -0.7071 0.7071 0.7071 10.4424 43.6061)" fill="#333333" width="0.161" height="0.161"/>
					
						<rect x="58.1" y="8.794" transform="matrix(-0.7101 0.7041 -0.7041 -0.7101 105.7454 -25.7872)" fill="#333333" width="0.162" height="0.162"/>
					
						<rect x="58.425" y="8.472" transform="matrix(-0.7056 0.7086 -0.7086 -0.7056 105.846 -26.8723)" fill="#333333" width="0.161" height="0.161"/>
					<polygon fill="#333333" points="58.828,8.343 58.942,8.229 58.908,8.196 58.747,8.196 58.714,8.229 					"/>
					
						<rect x="58.908" y="8.566" transform="matrix(0.7071 0.7071 -0.7071 0.7071 23.4388 -39.1596)" fill="#333333" width="0.162" height="0.296"/>
					<polygon fill="#333333" points="59.621,8.196 59.554,8.196 59.587,8.229 					"/>
					<polygon fill="#333333" points="58.068,9.521 57.907,9.681 58.135,9.681 58.181,9.635 					"/>
					
						<rect x="59.232" y="8.242" transform="matrix(0.7041 0.7101 -0.7101 0.7041 23.5108 -39.6365)" fill="#333333" width="0.161" height="0.296"/>
					
						<rect x="58.262" y="9.212" transform="matrix(-0.7101 -0.7041 0.7041 -0.7101 93.1842 57.0843)" fill="#333333" width="0.162" height="0.296"/>
					
						<rect x="58.519" y="8.956" transform="matrix(0.7054 -0.7088 0.7088 0.7054 10.8755 44.2418)" fill="#333333" width="0.295" height="0.161"/>
					
						<rect x="58.101" y="9.44" transform="matrix(-0.7041 -0.7101 0.7101 -0.7041 92.3846 57.5414)" fill="#333333" width="0.161" height="0.162"/>
					
						<rect x="58.424" y="9.117" transform="matrix(0.7116 -0.7026 0.7026 0.7116 10.4098 43.7566)" fill="#333333" width="0.162" height="0.162"/>
					
						<rect x="58.747" y="8.794" transform="matrix(-0.7086 0.7056 -0.7056 -0.7086 106.776 -26.3447)" fill="#333333" width="0.161" height="0.162"/>
					
						<rect x="59.07" y="8.472" transform="matrix(-0.7041 0.7101 -0.7101 -0.7041 106.87 -27.4319)" fill="#333333" width="0.161" height="0.161"/>
					<polygon fill="#333333" points="59.473,8.343 59.587,8.229 59.554,8.196 59.393,8.196 59.36,8.229 					"/>
					<polygon fill="#333333" points="58.714,9.521 58.553,9.681 58.781,9.681 58.828,9.635 					"/>
					
						<rect x="59.554" y="8.565" transform="matrix(0.7041 0.7101 -0.7101 0.7041 23.8357 -39.7701)" fill="#333333" width="0.161" height="0.296"/>
					
						<rect x="59.164" y="8.956" transform="matrix(0.7071 -0.7071 0.7071 0.7071 10.9824 44.5866)" fill="#333333" width="0.296" height="0.161"/>
					<polygon fill="#333333" points="60.267,8.196 60.201,8.196 60.234,8.229 					"/>
					
						<rect x="59.877" y="8.243" transform="matrix(0.7071 0.7071 -0.7071 0.7071 23.4944 -39.9392)" fill="#333333" width="0.162" height="0.296"/>
					
						<rect x="58.909" y="9.212" transform="matrix(-0.7086 -0.7056 0.7056 -0.7086 94.1861 57.6143)" fill="#333333" width="0.161" height="0.296"/>
					
						<rect x="58.748" y="9.44" transform="matrix(-0.7041 -0.7101 0.7101 -0.7041 93.4858 58.0003)" fill="#333333" width="0.161" height="0.162"/>
					
						<rect x="59.07" y="9.117" transform="matrix(0.7086 -0.7056 0.7056 0.7086 10.7454 44.4164)" fill="#333333" width="0.161" height="0.162"/>
					
						<rect x="59.393" y="8.794" transform="matrix(-0.7086 0.7056 -0.7056 -0.7086 107.8789 -26.8001)" fill="#333333" width="0.161" height="0.162"/>
					
						<rect x="59.716" y="8.471" transform="matrix(-0.7071 0.7071 -0.7071 -0.7071 108.126 -27.6833)" fill="#333333" width="0.162" height="0.161"/>
					<polygon fill="#333333" points="60.12,8.343 60.234,8.229 60.201,8.196 60.04,8.196 60.005,8.229 					"/>
					
						<rect x="59.554" y="9.212" transform="matrix(-0.7086 -0.7056 0.7056 -0.7086 95.289 58.0698)" fill="#333333" width="0.161" height="0.296"/>
					<polygon fill="#333333" points="60.914,8.196 60.846,8.196 60.879,8.229 					"/>
					
						<rect x="60.201" y="8.566" transform="matrix(0.7086 0.7056 -0.7056 0.7086 23.7129 -39.995)" fill="#333333" width="0.161" height="0.295"/>
					<polygon fill="#333333" points="59.36,9.521 59.2,9.681 59.427,9.681 59.473,9.635 					"/>
					
						<rect x="60.524" y="8.243" transform="matrix(0.7071 0.7071 -0.7071 0.7071 23.6837 -40.3963)" fill="#333333" width="0.162" height="0.296"/>
					
						<rect x="59.81" y="8.956" transform="matrix(0.7071 -0.7071 0.7071 0.7071 11.1716 45.0434)" fill="#333333" width="0.296" height="0.161"/>
					
						<rect x="59.393" y="9.44" transform="matrix(-0.7041 -0.7101 0.7101 -0.7041 94.5858 58.4587)" fill="#333333" width="0.161" height="0.162"/>
					
						<rect x="59.716" y="9.118" transform="matrix(0.7056 -0.7086 0.7086 0.7056 11.087 45.0813)" fill="#333333" width="0.161" height="0.161"/>
					
						<rect x="60.039" y="8.794" transform="matrix(-0.7086 0.7056 -0.7056 -0.7086 108.9835 -27.2563)" fill="#333333" width="0.161" height="0.162"/>
					
						<rect x="60.362" y="8.471" transform="matrix(-0.7086 0.7056 -0.7056 -0.7086 109.3081 -28.0358)" fill="#333333" width="0.161" height="0.162"/>
					<polygon fill="#333333" points="60.766,8.343 60.879,8.229 60.846,8.196 60.685,8.196 60.652,8.229 					"/>
					<polygon fill="#333333" points="60.005,9.521 59.845,9.681 60.073,9.681 60.12,9.635 					"/>
					<polygon fill="#333333" points="61.559,8.196 61.493,8.196 61.525,8.229 					"/>
					
						<rect x="60.201" y="9.212" transform="matrix(-0.7086 -0.7056 0.7056 -0.7086 96.3936 58.5259)" fill="#333333" width="0.161" height="0.296"/>
					
						<rect x="60.457" y="8.956" transform="matrix(0.7054 -0.7088 0.7088 0.7054 11.4464 45.6154)" fill="#333333" width="0.295" height="0.161"/>
					
						<rect x="60.847" y="8.566" transform="matrix(0.7041 0.7101 -0.7101 0.7041 24.2182 -40.688)" fill="#333333" width="0.161" height="0.296"/>
					
						<rect x="61.169" y="8.242" transform="matrix(0.7071 0.7071 -0.7071 0.7071 23.8726 -40.8528)" fill="#333333" width="0.162" height="0.296"/>
					
						<rect x="60.039" y="9.44" transform="matrix(-0.7071 -0.7071 0.7071 -0.7071 95.8983 58.7644)" fill="#333333" width="0.162" height="0.162"/>
					
						<rect x="60.362" y="9.117" transform="matrix(0.7086 -0.7056 0.7056 0.7086 11.1219 45.3281)" fill="#333333" width="0.161" height="0.162"/>
					
						<rect x="60.686" y="8.794" transform="matrix(-0.7056 0.7086 -0.7086 -0.7056 109.9306 -27.9238)" fill="#333333" width="0.161" height="0.161"/>
					
						<rect x="61.008" y="8.471" transform="matrix(-0.7071 0.7071 -0.7071 -0.7071 110.3316 -28.5968)" fill="#333333" width="0.162" height="0.161"/>
					<polygon fill="#333333" points="61.412,8.343 61.525,8.229 61.493,8.196 61.331,8.196 61.297,8.229 					"/>
					
						<rect x="61.816" y="8.243" transform="matrix(0.7071 0.7071 -0.7071 0.7071 24.0621 -41.3099)" fill="#333333" width="0.162" height="0.296"/>
					<polygon fill="#333333" points="60.652,9.521 60.492,9.681 60.719,9.681 60.766,9.635 					"/>
					<polygon fill="#333333" points="62.205,8.196 62.139,8.196 62.171,8.229 					"/>
					
						<rect x="61.492" y="8.566" transform="matrix(0.7071 0.7071 -0.7071 0.7071 24.1957 -40.9868)" fill="#333333" width="0.162" height="0.296"/>
					
						<rect x="61.102" y="8.956" transform="matrix(0.7071 -0.7071 0.7071 0.7071 11.55 45.957)" fill="#333333" width="0.296" height="0.161"/>
					
						<rect x="60.847" y="9.212" transform="matrix(-0.7056 -0.7086 0.7086 -0.7056 97.2841 59.1382)" fill="#333333" width="0.161" height="0.296"/>
					
						<rect x="60.685" y="9.441" transform="matrix(-0.7071 -0.7071 0.7071 -0.7071 97.0011 59.2211)" fill="#333333" width="0.162" height="0.161"/>
					
						<rect x="61.008" y="9.118" transform="matrix(0.7056 -0.7086 0.7086 0.7056 11.4674 45.9968)" fill="#333333" width="0.161" height="0.161"/>
					
						<rect x="61.331" y="8.794" transform="matrix(-0.7056 0.7086 -0.7086 -0.7056 111.0316 -28.3812)" fill="#333333" width="0.161" height="0.161"/>
					
						<rect x="61.654" y="8.471" transform="matrix(-0.7086 0.7056 -0.7056 -0.7086 111.5156 -28.9475)" fill="#333333" width="0.161" height="0.162"/>
					<polygon fill="#333333" points="62.058,8.343 62.171,8.229 62.139,8.196 61.977,8.196 61.944,8.229 					"/>
					
						<rect x="62.461" y="8.243" transform="matrix(0.7071 0.7071 -0.7071 0.7071 24.2512 -41.7663)" fill="#333333" width="0.162" height="0.296"/>
					
						<rect x="62.139" y="8.566" transform="matrix(0.7086 0.7056 -0.7056 0.7086 24.2776 -41.3624)" fill="#333333" width="0.161" height="0.295"/>
					
						<rect x="61.493" y="9.211" transform="matrix(-0.7056 -0.7086 0.7086 -0.7056 98.3859 59.596)" fill="#333333" width="0.161" height="0.296"/>
					<polygon fill="#333333" points="61.297,9.521 61.137,9.681 61.366,9.681 61.412,9.635 					"/>
					<polygon fill="#333333" points="62.85,8.196 62.785,8.196 62.818,8.229 					"/>
					
						<rect x="61.749" y="8.956" transform="matrix(0.7071 -0.7071 0.7071 0.7071 11.7394 46.4141)" fill="#333333" width="0.296" height="0.161"/>
					
						<rect x="61.33" y="9.441" transform="matrix(-0.7071 -0.7071 0.7071 -0.7071 98.103 59.6776)" fill="#333333" width="0.162" height="0.161"/>
					
						<rect x="61.654" y="9.117" transform="matrix(0.7086 -0.7056 0.7056 0.7086 11.4983 46.2397)" fill="#333333" width="0.161" height="0.162"/>
					
						<rect x="61.978" y="8.794" transform="matrix(-0.7056 0.7086 -0.7086 -0.7056 112.1342 -28.8393)" fill="#333333" width="0.161" height="0.161"/>
					
						<rect x="62.299" y="8.471" transform="matrix(-0.7101 0.7041 -0.7041 -0.7101 112.6986 -29.2966)" fill="#333333" width="0.162" height="0.162"/>
					<polygon fill="#333333" points="62.704,8.343 62.818,8.229 62.785,8.196 62.623,8.196 62.589,8.229 					"/>
					<polygon fill="#333333" points="61.944,9.521 61.784,9.681 62.011,9.681 62.058,9.635 					"/>
					
						<rect x="62.139" y="9.212" transform="matrix(-0.7056 -0.7086 0.7086 -0.7056 99.4877 60.0538)" fill="#333333" width="0.161" height="0.296"/>
					
						<rect x="63.108" y="8.243" transform="matrix(0.7071 0.7071 -0.7071 0.7071 24.4405 -42.2234)" fill="#333333" width="0.162" height="0.296"/>
					
						<rect x="62.395" y="8.955" transform="matrix(0.7071 -0.7071 0.7071 0.7071 11.9284 46.871)" fill="#333333" width="0.296" height="0.162"/>
					
						<rect x="62.785" y="8.566" transform="matrix(0.7086 0.7056 -0.7056 0.7086 24.4659 -41.8186)" fill="#333333" width="0.161" height="0.295"/>
					
						<rect x="61.977" y="9.441" transform="matrix(-0.7071 -0.7071 0.7071 -0.7071 99.2066 60.1347)" fill="#333333" width="0.162" height="0.161"/>
					
						<rect x="62.3" y="9.117" transform="matrix(0.7086 -0.7056 0.7056 0.7086 11.6864 46.6951)" fill="#333333" width="0.161" height="0.162"/>
					
						<rect x="62.624" y="8.795" transform="matrix(-0.7041 0.7101 -0.7101 -0.7041 113.1552 -29.4051)" fill="#333333" width="0.161" height="0.161"/>
					
						<rect x="62.946" y="8.471" transform="matrix(-0.7086 0.7056 -0.7056 -0.7086 113.7231 -29.8591)" fill="#333333" width="0.161" height="0.162"/>
					<path fill="#333333" d="M63.35,8.343l0.106-0.106c-0.063-0.019-0.124-0.038-0.19-0.039l-0.03,0.03L63.35,8.343z"/>
					<path fill="#333333" d="M63.787,8.552l0.05-0.05c-0.032-0.044-0.066-0.085-0.107-0.121l-0.057,0.057L63.787,8.552z"/>
					
						<rect x="63.363" y="8.633" transform="matrix(-0.7071 0.7071 -0.7071 -0.7071 114.5809 -30.0342)" fill="#333333" width="0.296" height="0.162"/>
					
						<rect x="63.108" y="8.889" transform="matrix(-0.7086 -0.7056 0.7056 -0.7086 101.5889 60.0254)" fill="#333333" width="0.161" height="0.295"/>
					
						<rect x="62.785" y="9.212" transform="matrix(-0.7086 -0.7056 0.7056 -0.7086 100.8087 60.3492)" fill="#333333" width="0.161" height="0.296"/>
					<polygon fill="#333333" points="62.589,9.521 62.43,9.681 62.658,9.681 62.704,9.635 					"/>
					
						<rect x="62.623" y="9.44" transform="matrix(-0.7071 -0.7071 0.7071 -0.7071 100.3094 60.5915)" fill="#333333" width="0.162" height="0.162"/>
					
						<rect x="62.946" y="9.117" transform="matrix(0.7086 -0.7056 0.7056 0.7086 11.8748 47.1513)" fill="#333333" width="0.161" height="0.162"/>
					
						<rect x="63.27" y="8.795" transform="matrix(-0.7041 0.7101 -0.7101 -0.7041 114.2552 -29.8635)" fill="#333333" width="0.161" height="0.161"/>
					
						<rect x="63.592" y="8.471" transform="matrix(0.7071 0.7071 -0.7071 0.7071 24.6964 -42.5183)" fill="#333333" width="0.162" height="0.161"/>
					<path fill="#333333" d="M63.672,9.084l0.114,0.114l0.195-0.195c0.001-0.008,0.005-0.015,0.005-0.023l-0.104-0.105L63.672,9.084
						z"/>
					
						<rect x="63.431" y="9.212" transform="matrix(-0.7056 -0.7086 0.7086 -0.7056 101.6913 60.9693)" fill="#333333" width="0.161" height="0.295"/>
					<path fill="#333333" d="M63.236,9.521l-0.161,0.16h0.178c0.022,0,0.042-0.011,0.063-0.013l0.034-0.033L63.236,9.521z"/>
					
						<rect x="63.269" y="9.44" transform="matrix(-0.7071 -0.7071 0.7071 -0.7071 101.4124 61.0479)" fill="#333333" width="0.162" height="0.161"/>
					
						<rect x="63.591" y="9.118" transform="matrix(-0.7056 0.7086 -0.7086 -0.7056 115.1174 -29.4306)" fill="#333333" width="0.162" height="0.161"/>
					<path fill="#333333" d="M63.987,8.98c0.001-0.014,0.009-0.027,0.009-0.042c0-0.052-0.021-0.098-0.03-0.147l-0.083,0.083
						L63.987,8.98z"/>
				</g>
				<g>
					<g>
						<path fill="#1A1A1A" d="M70.311,8.124c0.093,0.21,0.146,0.442,0.146,0.688c0,0.938-0.761,1.7-1.699,1.7
							c-0.046,0-0.09-0.01-0.136-0.014c0.128,0.034,0.258,0.057,0.396,0.057c0.86,0,1.559-0.698,1.559-1.559
							C70.577,8.673,70.478,8.373,70.311,8.124z"/>
					</g>
					<radialGradient id="SVGID_19_" cx="68.9487" cy="8.8833" r="1.0029" gradientUnits="userSpaceOnUse">
						<stop  offset="0.6004" style="stop-color:#010101"/>
						<stop  offset="0.6436" style="stop-color:#050607;stop-opacity:0.9028"/>
						<stop  offset="0.6962" style="stop-color:#101116;stop-opacity:0.7842"/>
						<stop  offset="0.7538" style="stop-color:#1B1E28;stop-opacity:0.6546"/>
						<stop  offset="0.8149" style="stop-color:#262B3D;stop-opacity:0.517"/>
						<stop  offset="0.8787" style="stop-color:#313858;stop-opacity:0.3731"/>
						<stop  offset="0.9439" style="stop-color:#39477C;stop-opacity:0.2263"/>
						<stop  offset="1" style="stop-color:#3A53A4;stop-opacity:0.1"/>
					</radialGradient>
					<circle fill="url(#SVGID_19_)" cx="68.949" cy="8.883" r="1.003"/>
					<g>
						<linearGradient id="SVGID_20_" gradientUnits="userSpaceOnUse" x1="68.8706" y1="8.3813" x2="69.7655" y2="9.4595">
							<stop  offset="0" style="stop-color:#5F7ABC"/>
							<stop  offset="0.0498" style="stop-color:#576A9B;stop-opacity:0.9491"/>
							<stop  offset="0.1395" style="stop-color:#475270;stop-opacity:0.8574"/>
							<stop  offset="0.2308" style="stop-color:#363D4E;stop-opacity:0.7641"/>
							<stop  offset="0.3219" style="stop-color:#282C36;stop-opacity:0.6709"/>
							<stop  offset="0.4129" style="stop-color:#1B1E23;stop-opacity:0.5779"/>
							<stop  offset="0.5037" style="stop-color:#0F1113;stop-opacity:0.4851"/>
							<stop  offset="0.5944" style="stop-color:#050506;stop-opacity:0.3925"/>
							<stop  offset="0.6848" style="stop-color:#010101;stop-opacity:0.3"/>
						</linearGradient>
						<path fill="url(#SVGID_20_)" d="M69.369,8.172c-0.528,0.043-0.787,0.528-0.27,1.294C69.649,9.412,69.886,8.905,69.369,8.172z"
							/>
						<linearGradient id="SVGID_21_" gradientUnits="userSpaceOnUse" x1="68.2339" y1="8.4136" x2="69.1143" y2="9.4743">
							<stop  offset="0" style="stop-color:#5F7ABC"/>
							<stop  offset="0.0407" style="stop-color:#576A9B;stop-opacity:0.9491"/>
							<stop  offset="0.1139" style="stop-color:#475270;stop-opacity:0.8574"/>
							<stop  offset="0.1884" style="stop-color:#363D4E;stop-opacity:0.7641"/>
							<stop  offset="0.2628" style="stop-color:#282C36;stop-opacity:0.6709"/>
							<stop  offset="0.3371" style="stop-color:#1B1E23;stop-opacity:0.5779"/>
							<stop  offset="0.4112" style="stop-color:#0F1113;stop-opacity:0.4851"/>
							<stop  offset="0.4852" style="stop-color:#050506;stop-opacity:0.3925"/>
							<stop  offset="0.559" style="stop-color:#010101;stop-opacity:0.3"/>
						</linearGradient>
						<path fill="url(#SVGID_21_)" d="M68.679,8.139c-0.55,0.173-0.733,1.046-0.108,1.413C68.462,9.056,68.938,8.539,68.679,8.139z"
							/>
					</g>
				</g>
				<linearGradient id="SVGID_22_" gradientUnits="userSpaceOnUse" x1="111.2759" y1="113.4185" x2="113.0903" y2="113.4185">
					<stop  offset="0" style="stop-color:#818181"/>
					<stop  offset="0.1197" style="stop-color:#8F8F8F;stop-opacity:0.9761"/>
					<stop  offset="0.3392" style="stop-color:#A8A7A7;stop-opacity:0.9322"/>
					<stop  offset="0.5599" style="stop-color:#BBBABA;stop-opacity:0.888"/>
					<stop  offset="0.7801" style="stop-color:#C8C8C7;stop-opacity:0.844"/>
					<stop  offset="1" style="stop-color:#CDCCCC;stop-opacity:0.8"/>
				</linearGradient>
				<path fill="url(#SVGID_22_)" d="M111.276,205.03h1.814v-1.363h-1.814V205.03z M111.276,21.808v1.364h1.814v-1.364H111.276z"/>
				
					<linearGradient id="SVGID_23_" gradientUnits="userSpaceOnUse" x1="-74.7886" y1="113.4185" x2="-72.9741" y2="113.4185" gradientTransform="matrix(-1 0 0 1 -72.2119 0)">
					<stop  offset="0" style="stop-color:#818181"/>
					<stop  offset="0.1197" style="stop-color:#8F8F8F;stop-opacity:0.988"/>
					<stop  offset="0.3392" style="stop-color:#A8A7A7;stop-opacity:0.9661"/>
					<stop  offset="0.5599" style="stop-color:#BBBABA;stop-opacity:0.944"/>
					<stop  offset="0.7801" style="stop-color:#C8C8C7;stop-opacity:0.922"/>
					<stop  offset="1" style="stop-color:#CDCCCC;stop-opacity:0.9"/>
				</linearGradient>
				<path fill="url(#SVGID_23_)" d="M2.577,203.667H0.762v1.363h1.814V203.667z M0.762,21.808v1.364h1.814v-1.364H0.762z"/>
				<g>
					<linearGradient id="SVGID_24_" gradientUnits="userSpaceOnUse" x1="113.4907" y1="65.3643" x2="113.8055" y2="65.3643">
						<stop  offset="0" style="stop-color:#4B4B4B"/>
						<stop  offset="0.1733" style="stop-color:#4E4D4E"/>
						<stop  offset="0.3388" style="stop-color:#575656"/>
						<stop  offset="0.5013" style="stop-color:#686565"/>
						<stop  offset="0.6619" style="stop-color:#807D7D"/>
						<stop  offset="0.8211" style="stop-color:#A5A2A3"/>
						<stop  offset="0.9773" style="stop-color:#DAD9D9"/>
						<stop  offset="1" style="stop-color:#E6E6E5"/>
					</linearGradient>
					<path fill="url(#SVGID_24_)" d="M113.72,52.506c-0.231,0.226-0.231,0.932-0.231,2.245c0,1.313,0,22.053,0,22.486
						c0,0.434-0.012,0.922,0.205,0.985c0.097-0.077,0.104-0.321,0.104-0.598c0-0.277,0-23.871,0-24.207
						C113.798,53.081,113.807,52.585,113.72,52.506z"/>
					<linearGradient id="SVGID_25_" gradientUnits="userSpaceOnUse" x1="113.2329" y1="52.0317" x2="113.2329" y2="78.5373">
						<stop  offset="0.016" style="stop-color:#010101"/>
						<stop  offset="0.0221" style="stop-color:#151515"/>
						<stop  offset="0.0463" style="stop-color:#484646"/>
						<stop  offset="0.0695" style="stop-color:#787575"/>
						<stop  offset="0.0909" style="stop-color:#A5A3A3"/>
						<stop  offset="0.1103" style="stop-color:#CAC9C9"/>
						<stop  offset="0.127" style="stop-color:#E4E3E3"/>
						<stop  offset="0.1389" style="stop-color:#F1F0F0"/>
						<stop  offset="0.8655" style="stop-color:#F1F0F0"/>
						<stop  offset="0.8782" style="stop-color:#E7E6E6"/>
						<stop  offset="0.8933" style="stop-color:#D1D0D0"/>
						<stop  offset="0.9095" style="stop-color:#B2B0B0"/>
						<stop  offset="0.9266" style="stop-color:#8B8989"/>
						<stop  offset="0.9444" style="stop-color:#605E5D"/>
						<stop  offset="0.9624" style="stop-color:#363534"/>
						<stop  offset="0.98" style="stop-color:#010101"/>
					</linearGradient>
					<path fill="url(#SVGID_25_)" d="M113.489,77.237c0-0.434,0-21.173,0-22.486c0-1.313,0-2.019,0.231-2.245l-0.664-0.412
						c-0.332,0.503-0.312,1.571-0.312,1.978c0,0.408,0,21.547,0,22.578s0.063,1.699,0.263,1.843l0.687-0.271
						C113.477,78.159,113.489,77.671,113.489,77.237z"/>
				</g>
				<g>
					
						<linearGradient id="SVGID_26_" gradientUnits="userSpaceOnUse" x1="-85.8887" y1="55.019" x2="-85.5729" y2="55.019" gradientTransform="matrix(-1 0 0 1 -85.5273 0)">
						<stop  offset="0" style="stop-color:#4B4B4B"/>
						<stop  offset="0.1733" style="stop-color:#4E4D4E"/>
						<stop  offset="0.3388" style="stop-color:#575656"/>
						<stop  offset="0.5013" style="stop-color:#686565"/>
						<stop  offset="0.6619" style="stop-color:#807D7D"/>
						<stop  offset="0.8211" style="stop-color:#A5A2A3"/>
						<stop  offset="0.9773" style="stop-color:#DAD9D9"/>
						<stop  offset="1" style="stop-color:#E6E6E5"/>
					</linearGradient>
					<path fill="url(#SVGID_26_)" d="M0.131,46.965c0.232,0.226,0.232,0.932,0.232,2.245c0,1.313,0,12.444,0,12.877
						c0,0.434,0.012,0.922-0.205,0.985c-0.097-0.077-0.105-0.321-0.105-0.599c0-0.277,0-14.262,0-14.598
						C0.053,47.54,0.044,47.044,0.131,46.965z"/>
					
						<linearGradient id="SVGID_27_" gradientUnits="userSpaceOnUse" x1="-86.1465" y1="46.5137" x2="-86.1465" y2="63.3725" gradientTransform="matrix(-1 0 0 1 -85.5273 0)">
						<stop  offset="0" style="stop-color:#141414"/>
						<stop  offset="0.0221" style="stop-color:#454342"/>
						<stop  offset="0.0441" style="stop-color:#747171"/>
						<stop  offset="0.0646" style="stop-color:#A3A0A0"/>
						<stop  offset="0.0832" style="stop-color:#C9C7C8"/>
						<stop  offset="0.0991" style="stop-color:#E4E3E3"/>
						<stop  offset="0.1106" style="stop-color:#F1F0F0"/>
						<stop  offset="0.9109" style="stop-color:#F1F0F0"/>
						<stop  offset="0.9222" style="stop-color:#E6E5E5"/>
						<stop  offset="0.9357" style="stop-color:#CFCDCD"/>
						<stop  offset="0.9502" style="stop-color:#ADAAAA"/>
						<stop  offset="0.9654" style="stop-color:#848080"/>
						<stop  offset="0.9813" style="stop-color:#575453"/>
						<stop  offset="0.9974" style="stop-color:#2C2B2B"/>
						<stop  offset="1" style="stop-color:#242424"/>
					</linearGradient>
					<path fill="url(#SVGID_27_)" d="M0.363,62.087c0-0.434,0-11.564,0-12.877c0-1.313,0-2.019-0.232-2.245l0.664-0.413
						c0.333,0.503,0.312,1.571,0.312,1.978c0,0.408,0,11.939,0,12.97s-0.063,1.699-0.262,1.843l-0.687-0.271
						C0.375,63.01,0.363,62.521,0.363,62.087z"/>
				</g>
				<g>
					
						<linearGradient id="SVGID_28_" gradientUnits="userSpaceOnUse" x1="-85.8887" y1="75.7554" x2="-85.5729" y2="75.7554" gradientTransform="matrix(-1 0 0 1 -85.5273 0)">
						<stop  offset="0" style="stop-color:#4B4B4B"/>
						<stop  offset="0.1733" style="stop-color:#4E4D4E"/>
						<stop  offset="0.3388" style="stop-color:#575656"/>
						<stop  offset="0.5013" style="stop-color:#686565"/>
						<stop  offset="0.6619" style="stop-color:#807D7D"/>
						<stop  offset="0.8211" style="stop-color:#A5A2A3"/>
						<stop  offset="0.9773" style="stop-color:#DAD9D9"/>
						<stop  offset="1" style="stop-color:#E6E6E5"/>
					</linearGradient>
					<path fill="url(#SVGID_28_)" d="M0.131,67.702c0.232,0.225,0.232,0.932,0.232,2.244c0,1.313,0,12.444,0,12.878
						c0,0.434,0.012,0.922-0.205,0.985c-0.097-0.076-0.105-0.321-0.105-0.598s0-14.262,0-14.598
						C0.053,68.276,0.044,67.781,0.131,67.702z"/>
					
						<linearGradient id="SVGID_29_" gradientUnits="userSpaceOnUse" x1="-86.1465" y1="67.2505" x2="-86.1465" y2="84.1093" gradientTransform="matrix(-1 0 0 1 -85.5273 0)">
						<stop  offset="0" style="stop-color:#141414"/>
						<stop  offset="0.0221" style="stop-color:#454342"/>
						<stop  offset="0.0441" style="stop-color:#747171"/>
						<stop  offset="0.0646" style="stop-color:#A3A0A0"/>
						<stop  offset="0.0832" style="stop-color:#C9C7C8"/>
						<stop  offset="0.0991" style="stop-color:#E4E3E3"/>
						<stop  offset="0.1106" style="stop-color:#F1F0F0"/>
						<stop  offset="0.9109" style="stop-color:#F1F0F0"/>
						<stop  offset="0.9222" style="stop-color:#E6E5E5"/>
						<stop  offset="0.9357" style="stop-color:#CFCDCD"/>
						<stop  offset="0.9502" style="stop-color:#ADAAAA"/>
						<stop  offset="0.9654" style="stop-color:#848080"/>
						<stop  offset="0.9813" style="stop-color:#575453"/>
						<stop  offset="0.9974" style="stop-color:#2C2B2B"/>
						<stop  offset="1" style="stop-color:#242424"/>
					</linearGradient>
					<path fill="url(#SVGID_29_)" d="M0.363,82.824c0-0.434,0-11.564,0-12.878c0-1.313,0-2.019-0.232-2.244l0.664-0.413
						c0.333,0.503,0.312,1.571,0.312,1.978c0,0.408,0,11.939,0,12.969s-0.063,1.699-0.262,1.844l-0.687-0.271
						C0.375,83.746,0.363,83.258,0.363,82.824z"/>
				</g>
				<g>
					<polygon fill="#565759" points="0,30.795 0,38.928 0.202,39.13 0.202,30.593 					"/>
					<linearGradient id="SVGID_30_" gradientUnits="userSpaceOnUse" x1="0.5674" y1="30.5933" x2="0.5674" y2="39.145">
						<stop  offset="0" style="stop-color:#141414"/>
						<stop  offset="0.0221" style="stop-color:#454342"/>
						<stop  offset="0.0441" style="stop-color:#747171"/>
						<stop  offset="0.0646" style="stop-color:#A3A0A0"/>
						<stop  offset="0.0832" style="stop-color:#C9C7C8"/>
						<stop  offset="0.0991" style="stop-color:#E4E3E3"/>
						<stop  offset="0.1106" style="stop-color:#F1F0F0"/>
						<stop  offset="0.9109" style="stop-color:#F1F0F0"/>
						<stop  offset="0.9222" style="stop-color:#E6E5E5"/>
						<stop  offset="0.9357" style="stop-color:#CFCDCD"/>
						<stop  offset="0.9502" style="stop-color:#ADAAAA"/>
						<stop  offset="0.9654" style="stop-color:#848080"/>
						<stop  offset="0.9813" style="stop-color:#575453"/>
						<stop  offset="0.9974" style="stop-color:#2C2B2B"/>
						<stop  offset="1" style="stop-color:#242424"/>
					</linearGradient>
					<path fill="url(#SVGID_30_)" d="M0.776,30.593H0.202v8.537l0.015,0.015h0.609c0.101-0.101,0.107-0.248,0.107-0.467
						c0-0.218,0-7.365,0-7.617C0.933,30.808,0.906,30.651,0.776,30.593z"/>
				</g>
			</g>
		</g>
		<path fill="#010101" d="M60.468,226.381h-3.942c0,0-0.234,0-0.593,0h-3.942c-0.59,0-1.323,0.037-2.457,0.662h13.389
			C61.792,226.418,61.059,226.381,60.468,226.381z"/>
		<linearGradient id="SVGID_31_" gradientUnits="userSpaceOnUse" x1="56.23" y1="226.5142" x2="56.23" y2="227.0535">
			<stop  offset="0" style="stop-color:#62646A"/>
			<stop  offset="0.0191" style="stop-color:#5F6167"/>
			<stop  offset="0.1834" style="stop-color:#494B4F"/>
			<stop  offset="0.3492" style="stop-color:#38393C"/>
			<stop  offset="0.5141" style="stop-color:#2A2C2D"/>
			<stop  offset="0.6781" style="stop-color:#202122"/>
			<stop  offset="0.8406" style="stop-color:#191A1B"/>
			<stop  offset="1" style="stop-color:#161718"/>
		</linearGradient>
		<path fill="url(#SVGID_31_)" d="M60.208,226.513h-3.699c0,0-0.22,0-0.557,0h-3.699c-0.554,0-1.241,0.028-2.305,0.53h12.564
			C61.449,226.542,60.761,226.513,60.208,226.513z"/>
	</g>
</g>
</svg>
