<?xml version="1.0" encoding="utf-8"?>
<!-- Generator: Adobe Illustrator 16.0.0, SVG Export Plug-In . SVG Version: 6.00 Build 0)  -->
<!DOCTYPE svg PUBLIC "-//W3C//DTD SVG 1.1//EN" "http://www.w3.org/Graphics/SVG/1.1/DTD/svg11.dtd">
<svg version="1.1" id="Layer_1" xmlns="http://www.w3.org/2000/svg" xmlns:xlink="http://www.w3.org/1999/xlink" x="0px" y="0px"
	 width="283.459px" height="283.46px" viewBox="0 0 283.459 283.46" enable-background="new 0 0 283.459 283.46"
	 xml:space="preserve">
<g>
	<g>
		<path fill="none" d="M127.434,177.972l-12.297-4.152c-0.121-0.041-0.24-0.089-0.313-0.125c-1.701-0.99-3.021-2.46-3.831-4.276
			c-0.654-1.336-0.569-2.947,0.227-4.208c0.781-1.267,2.138-2.021,3.633-2.021l13.046-0.003c2.832,0.261,5.7-0.091,8.388-1.034
			l0.076-0.03c0.441-0.211,0.763-0.604,0.872-1.045c0.146-0.505,0.065-1.051-0.237-1.507c-5.231-7.603-13.124-24.445-13.415-39.717
			c-0.048-0.899-1.399-22.038-21.706-22.207c-11.67,0.097-16.088,6.492-19.13,13.406c-1.449,3.529-2.259,7.251-2.404,11.014
			c-1.418,13.373-5.491,26.092-12.077,37.77c-0.475,0.742-0.313,1.713,0.377,2.259l0.12,0.078c1.366,0.72,2.905,1.101,4.45,1.101
			c0.284,0,0.57-0.014,0.882-0.042c0.108-0.014,0.216-0.021,0.325-0.021h14.789c1.724,0.013,3.262,1.113,3.829,2.739
			c0.566,1.626,0.046,3.444-1.314,4.539c-0.818,0.699-1.696,1.34-2.609,1.901l-17.511,8.155c-3.62,2.123-5.945,5.889-6.221,10.075
			l-0.053,0.822h55.603C121.306,186.252,123.663,181.445,127.434,177.972z"/>
		<path fill="#010101" d="M132.444,179.664l-5.011-1.692c-3.771,3.474-6.128,8.28-6.503,13.471h4.455
			C125.826,186.661,128.416,182.315,132.444,179.664z"/>
		<path fill="#010101" d="M212.434,175.185l-19.819-10.985c-1.91-1.076-3.059-3.099-3.019-5.284v-5.163l0.544-0.714
			c4.323-5.169,7.429-11.085,9.237-17.58c0.034-0.155,0.048-0.31,0.048-0.458l-0.008-31.235v-0.033
			c0.223-5.506-1.68-10.797-5.358-14.905c-4.765-5.177-12.241-7.812-22.212-7.812h-0.073c-6.481-0.303-12.901,1.345-18.441,4.706
			l-5.352,5.257c-2.387,3.483-3.671,7.557-3.724,11.779l0.02,7.778v24.465c0,0.148,0.014,0.303,0.047,0.451
			c1.802,6.494,4.908,12.404,9.23,17.581l0.369,0.444l0.182,5.417c0.04,2.239-1.135,4.27-3.072,5.333l-18.366,10.178l4.607,1.554
			c0.118,0.039,0.233,0.086,0.341,0.141c0.197,0.104,0.386,0.216,0.579,0.324l14.95-8.291c3.368-1.835,5.433-5.345,5.398-9.163
			v-5.205c-0.008-0.961-0.315-1.889-0.886-2.682l-0.539-0.698c-3.791-4.532-6.596-9.695-8.33-15.349l-0.073-0.235l-0.014-31.611
			c-0.068-4.188,1.438-8.243,4.248-11.396c3.94-4.215,10.293-6.333,18.898-6.333c8.612,0,14.965,2.118,18.878,6.306
			c2.905,3.268,4.411,7.443,4.262,11.779V134.8l-0.073,0.242c-1.742,5.654-4.545,10.817-8.336,15.348l-0.626,0.813
			c-0.503,0.721-0.793,1.627-0.793,2.569v5.175c-0.041,3.826,2.01,7.329,5.345,9.157l19.778,10.966
			c5.036,2.823,8.136,8.148,8.108,13.902v5.068h-93.079v-1.552h-4.431c0.069,3.309,2.787,5.99,6.111,5.99h89.719
			c3.368,0,6.117-2.75,6.117-6.125v-3.388C222.854,185.592,218.867,178.78,212.434,175.185z"/>
		<path fill="#FFFFFF" d="M142.121,190.595c-0.414-4.193-2.876-7.889-6.585-9.887l-3.092-1.044
			c-4.028,2.651-6.618,6.997-7.059,11.778h16.819L142.121,190.595z"/>
		<path fill="#FFFFFF" d="M147.242,191.982v1.982c0,0.674-0.263,1.308-0.739,1.785c-0.477,0.477-1.11,0.739-1.787,0.739h-19.405
			v1.552h93.079v-5.068c0.027-5.754-3.072-11.079-8.108-13.902l-19.778-10.966c-3.335-1.828-5.386-5.331-5.345-9.157v-5.175
			c0-0.942,0.29-1.849,0.793-2.569l0.626-0.813c3.791-4.531,6.594-9.694,8.336-15.348l0.073-0.242v-31.255
			c0.149-4.336-1.356-8.511-4.262-11.779c-3.913-4.188-10.266-6.306-18.878-6.306c-8.605,0-14.958,2.118-18.898,6.333
			c-2.81,3.153-4.316,7.208-4.248,11.396l0.014,31.611l0.073,0.235c1.734,5.654,4.539,10.817,8.33,15.349l0.539,0.698
			c0.57,0.793,0.878,1.721,0.886,2.682v5.205c0.034,3.818-2.03,7.328-5.398,9.163l-14.95,8.291
			C143.83,179.581,147.287,185.475,147.242,191.982z"/>
		<path fill="#010101" d="M141.766,162.362c0.538-1.873,0.215-3.863-0.887-5.465c-3.389-4.921-12.257-21.183-12.586-37.118
			c-0.026-0.117-0.045-0.221-0.06-0.329c-1.663-12.549-7.22-18.985-11.589-22.173l-0.151-0.07
			c-4.245-2.804-9.137-4.275-14.183-4.275l-0.415,0.003c-14.685,0.124-20.42,9.304-23.455,16.199
			c-1.671,4.014-2.615,8.266-2.801,12.631c-1.4,12.631-5.243,24.621-11.426,35.662c-1.799,2.988-0.872,6.909,2.061,8.75
			c2.457,1.387,5.377,2.018,8.218,1.749l8.074-0.005h5.002l-18.103,8.429c-5.463,3.076-8.856,8.928-8.834,15.257v2.358
			c-0.001,0.585,0.227,1.134,0.64,1.546c0.415,0.415,0.963,0.642,1.548,0.642h57.717v-3.193c0-0.378,0.012-0.768,0.035-1.182H64.969
			l0.076-1.179c0.283-4.298,2.671-8.165,6.386-10.344l17.54-8.17c0.864-0.535,1.729-1.165,2.532-1.853
			c1.251-1.007,1.734-2.68,1.216-4.173c-0.521-1.491-1.933-2.502-3.515-2.513H74.418c-0.096,0-0.188,0.004-0.283,0.018
			c-0.332,0.03-0.629,0.044-0.924,0.044c-1.599,0-3.19-0.394-4.605-1.139l-0.146-0.092c-0.854-0.674-1.046-1.837-0.478-2.725
			c6.563-11.637,10.612-24.3,12.026-37.624c0.145-3.793,0.962-7.538,2.425-11.105c3.089-7.018,7.577-13.517,19.439-13.616
			c20.617,0.172,21.995,21.613,22.045,22.525c0.29,15.203,8.146,31.977,13.357,39.545c0.355,0.539,0.457,1.189,0.282,1.791
			c-0.131,0.53-0.526,1.004-1.051,1.253l-0.095,0.04c-2.748,0.965-5.663,1.324-8.544,1.057l-13.016,0.005
			c-1.376,0-2.627,0.695-3.347,1.861c-0.734,1.164-0.814,2.651-0.211,3.885c0.781,1.754,2.059,3.18,3.698,4.134
			c0.041,0.019,0.145,0.061,0.251,0.097l12.109,4.089c1.164-1.052,2.422-1.959,3.744-2.698l0.74-0.411l-19.515-6.58l15.321-0.016
			c0.809,0.067,1.526,0.101,2.223,0.101c2.89,0,5.722-0.526,8.415-1.563C139.979,165.673,141.254,164.19,141.766,162.362z"/>
		<path fill="#010101" d="M125.311,192.967c-0.003-0.514,0.029-1.021,0.075-1.524h-4.455c-0.038,0.503-0.06,1.009-0.058,1.517v3.402
			c0,0.043,0.007,0.085,0.007,0.128h4.431V192.967z"/>
		<path fill="#010101" d="M127.434,177.972l5.011,1.692c0.312-0.206,0.631-0.402,0.96-0.587l4.789-2.654
			c-0.193-0.108-0.382-0.221-0.579-0.324c-0.107-0.055-0.223-0.102-0.341-0.141l-4.607-1.554l-1.406,0.78
			C129.861,175.968,128.585,176.911,127.434,177.972z"/>
	</g>
</g>
</svg>
