<?xml version="1.0" encoding="utf-8"?>
<!-- Generator: Adobe Illustrator 16.0.0, SVG Export Plug-In . SVG Version: 6.00 Build 0)  -->
<!DOCTYPE svg PUBLIC "-//W3C//DTD SVG 1.1//EN" "http://www.w3.org/Graphics/SVG/1.1/DTD/svg11.dtd">
<svg version="1.1" id="Layer_1" xmlns="http://www.w3.org/2000/svg" xmlns:xlink="http://www.w3.org/1999/xlink" x="0px" y="0px"
	 width="283.459px" height="283.46px" viewBox="0 0 283.459 283.46" enable-background="new 0 0 283.459 283.46"
	 xml:space="preserve">
<g>
	<g>
		<g>
			<path fill="#010101" d="M179.433,179.12l-17.971-10.002c-1.866-0.939-3.038-2.854-3.026-4.942l-0.011-5.008
				c3.858-5.057,6.682-10.822,8.309-16.97c0.035-0.154,0.053-0.31,0.053-0.468v-4.175h6.265c3.458-0.004,6.261-2.807,6.265-6.265
				v-12.528c-0.009-2.646-1.681-5-4.176-5.88v-0.384c0-18.451-14.958-33.409-33.409-33.409c-18.452,0-33.41,14.958-33.41,33.409
				v0.384c-2.495,0.879-4.168,3.234-4.176,5.88v12.528c0.008,2.646,1.681,5,4.176,5.879v4.561c0.006,4.61,3.741,8.348,8.353,8.352
				h2.872c1.521,3.198,3.357,6.238,5.479,9.073v4.813c0.009,2.024-1.099,3.886-2.879,4.849l-18.621,10.167
				c-6.06,3.292-9.829,9.639-9.82,16.534v6.767c0,0.553,0.219,1.085,0.612,1.477c0.391,0.392,0.922,0.611,1.476,0.611h91.874
				c1.154,0,2.089-0.935,2.089-2.088v-6.347C189.787,188.825,185.787,182.31,179.433,179.12z M175.14,118.761v12.528
				c-0.002,1.153-0.937,2.087-2.089,2.088h-6.265v-16.705h6.265C174.203,116.674,175.138,117.608,175.14,118.761z M110.409,133.378
				c-1.152-0.002-2.087-0.936-2.089-2.088v-12.528c0.002-1.153,0.937-2.087,2.089-2.089h6.264v16.705H110.409L110.409,133.378z
				 M116.673,145.906c-2.306-0.003-4.174-1.871-4.176-4.177v-4.175h4.176v4.175c0,0.158,0.018,0.314,0.053,0.468
				c0.3,1.255,0.667,2.494,1.104,3.708L116.673,145.906L116.673,145.906z M116.662,112.497h-4.165
				c0.018-16.138,13.096-29.215,29.233-29.233c16.138,0.018,29.215,13.096,29.232,29.233h-4.166
				c0.376-4.903-1.195-9.757-4.375-13.508c-4.289-4.892-11.25-7.373-20.691-7.373c-9.442,0-16.404,2.48-20.692,7.372
				C117.858,102.74,116.286,107.594,116.662,112.497z M97.881,200.195v-4.678c-0.008-5.365,2.924-10.305,7.64-12.866l18.615-10.163
				c3.13-1.69,5.075-4.965,5.065-8.521v-4.813c0.004-0.911-0.293-1.797-0.847-2.52c-1.55-2.073-2.936-4.264-4.145-6.554h9.552
				c0.88,2.497,3.233,4.168,5.88,4.177h6.265c3.458,0,6.264-2.805,6.264-6.264c0-3.46-2.806-6.265-6.264-6.265h-6.265
				c-2.646,0.008-5,1.682-5.88,4.177H122.28c-0.581-1.438-1.06-2.913-1.432-4.418v-28.992c0-0.091-0.006-0.183-0.019-0.273
				c-0.306-3.798,0.897-7.564,3.349-10.482c3.459-3.948,9.365-5.949,17.552-5.949c8.154,0,14.048,1.987,17.514,5.906
				c2.456,2.934,3.671,6.709,3.385,10.525c-0.013,0.09-0.019,0.182-0.019,0.273v28.991c-1.503,5.485-4.053,10.628-7.505,15.147
				c-0.554,0.722-0.852,1.608-0.847,2.519v5.022c-0.025,3.639,2.007,6.979,5.248,8.631l17.972,10.002
				c4.979,2.479,8.119,7.567,8.101,13.128v4.258H97.881L97.881,200.195z M137.554,147.994c0.002-1.152,0.935-2.087,2.088-2.088
				h6.264c1.153,0,2.089,0.936,2.089,2.088s-0.936,2.087-2.089,2.087h-6.264C138.488,150.081,137.556,149.146,137.554,147.994z"/>
		</g>
	</g>
</g>
</svg>
