<?xml version="1.0" encoding="utf-8"?>
<!-- Generator: Adobe Illustrator 16.0.0, SVG Export Plug-In . SVG Version: 6.00 Build 0)  -->
<!DOCTYPE svg PUBLIC "-//W3C//DTD SVG 1.1//EN" "http://www.w3.org/Graphics/SVG/1.1/DTD/svg11.dtd">
<svg version="1.1" id="Layer_1" xmlns="http://www.w3.org/2000/svg" xmlns:xlink="http://www.w3.org/1999/xlink" x="0px" y="0px"
	 width="206.36px" height="57.692px" viewBox="0 0 206.36 57.692" enable-background="new 0 0 206.36 57.692" xml:space="preserve">
<g>
	<g>
		<path fill="#231F20" d="M10.787,27.58c-5.154,0-9.182-2.56-9.353-7.407h6.212c0.171,1.843,1.331,2.73,2.97,2.73
			c1.707,0,2.799-0.853,2.799-2.253c0-4.437-11.981-2.048-11.913-10.547c0-4.54,3.721-7.065,8.738-7.065
			c5.223,0,8.738,2.594,8.977,7.168h-6.314c-0.103-1.536-1.195-2.458-2.765-2.492C8.739,7.68,7.681,8.397,7.681,9.899
			c0,4.164,11.844,2.287,11.844,10.309C19.525,24.235,16.385,27.58,10.787,27.58z"/>
		<path fill="#231F20" d="M23.113,2.082h5.837v8.772c1.161-1.638,3.243-2.765,5.871-2.765c4.335,0,7.236,3.004,7.236,8.124v11.127
			h-5.803V16.999c0-2.594-1.434-4.028-3.652-4.028s-3.652,1.434-3.652,4.028v10.343h-5.837V2.082z"/>
		<path fill="#231F20" d="M53.36,8.021c2.833,0,4.847,1.297,5.871,2.97V8.294h5.837v19.047h-5.837v-2.697
			c-1.058,1.673-3.072,2.97-5.905,2.97c-4.642,0-8.363-3.823-8.363-9.831C44.963,11.776,48.684,8.021,53.36,8.021z M55.067,13.107
			c-2.185,0-4.165,1.639-4.165,4.676c0,3.038,1.98,4.745,4.165,4.745c2.219,0,4.164-1.672,4.164-4.71S57.286,13.107,55.067,13.107z"
			/>
		<path fill="#231F20" d="M75.142,27.341h-5.837V8.294h5.837v3.175c1.331-2.014,3.413-3.379,5.974-3.379v6.178h-1.604
			c-2.765,0-4.369,0.956-4.369,4.232V27.341z"/>
		<path fill="#231F20" d="M95.625,8.021c4.677,0,8.397,3.755,8.397,9.762c0,6.008-3.72,9.831-8.397,9.831
			c-2.799,0-4.813-1.331-5.871-2.936v11.743h-5.837V8.294h5.837v2.697C90.813,9.319,92.827,8.021,95.625,8.021z M93.884,13.107
			c-2.185,0-4.164,1.672-4.164,4.71s1.979,4.71,4.164,4.71c2.219,0,4.199-1.707,4.199-4.745
			C98.083,14.746,96.103,13.107,93.884,13.107z"/>
		<path fill="#231F20" d="M113.79,3.174c0-1.775,1.4-3.174,3.482-3.174c2.047,0,3.447,1.399,3.447,3.174
			c0,1.741-1.4,3.141-3.447,3.141C115.19,6.315,113.79,4.916,113.79,3.174z M114.337,8.294h5.836v19.047h-5.836V8.294z"/>
		<path fill="#231F20" d="M123.11,3.379h18.535v4.676h-6.35v19.286h-5.836V8.056h-6.35V3.379z"/>
		<path fill="#231F20" d="M153.05,27.614c-5.598,0-9.625-3.754-9.625-9.796c0-6.042,3.959-9.796,9.625-9.796
			c5.564,0,9.49,3.687,9.49,9.489c0,0.546-0.035,1.126-0.102,1.707h-13.211c0.205,2.492,1.74,3.652,3.619,3.652
			c1.639,0,2.559-0.819,3.037-1.843h6.213C161.175,24.747,157.796,27.614,153.05,27.614z M149.263,15.975h7.305
			c0-2.082-1.639-3.277-3.584-3.277C151.071,12.698,149.603,13.858,149.263,15.975z"/>
		<path fill="#231F20" d="M174.013,8.021c4.779,0,8.158,2.628,9.148,7.168h-6.213c-0.479-1.331-1.434-2.185-3.037-2.185
			c-2.082,0-3.516,1.639-3.516,4.813s1.434,4.813,3.516,4.813c1.604,0,2.525-0.785,3.037-2.185h6.213
			c-0.99,4.403-4.369,7.168-9.148,7.168c-5.598,0-9.557-3.754-9.557-9.796C164.456,11.811,168.415,8.021,174.013,8.021z"/>
		<path fill="#231F20" d="M186.271,2.082h5.838v8.772c1.16-1.638,3.242-2.765,5.871-2.765c4.334,0,7.236,3.004,7.236,8.124v11.127
			h-5.803V16.999c0-2.594-1.434-4.028-3.652-4.028s-3.652,1.434-3.652,4.028v10.343h-5.838V2.082z"/>
	</g>
	<g>
		<path fill="#231F20" d="M55.188,53.646c-2.17,0-3.597-1.24-3.659-2.899h1.147c0.093,0.899,0.759,1.984,2.511,1.984
			c1.504,0,2.387-0.883,2.387-1.999c0-3.194-5.953-1.179-5.953-5.256c0-1.675,1.38-2.899,3.473-2.899
			c2.062,0,3.302,1.147,3.488,2.636h-1.178c-0.124-0.76-0.853-1.689-2.356-1.705c-1.271-0.016-2.325,0.682-2.325,1.938
			c0,3.132,5.953,1.21,5.953,5.24C58.677,52.158,57.483,53.646,55.188,53.646z"/>
		<path fill="#231F20" d="M60.521,42.67c0-0.466,0.356-0.791,0.791-0.791s0.791,0.325,0.791,0.791c0,0.465-0.356,0.806-0.791,0.806
			S60.521,43.135,60.521,42.67z M60.769,45.073h1.085v8.465h-1.085V45.073z"/>
		<path fill="#231F20" d="M76.69,48.701c0-1.876-0.977-2.837-2.48-2.837c-1.534,0-2.62,1.023-2.62,3.085v4.589H70.52v-4.837
			c0-1.876-0.992-2.837-2.496-2.837c-1.55,0-2.62,1.023-2.62,3.085v4.589h-1.085v-8.465h1.085v1.457
			c0.543-1.069,1.612-1.611,2.807-1.611c1.41,0,2.62,0.666,3.131,2.077c0.466-1.38,1.706-2.077,3.055-2.077
			c1.876,0,3.364,1.178,3.364,3.658v4.961h-1.07V48.701z"/>
		<path fill="#231F20" d="M84.595,44.949c2.311,0,4.031,1.69,4.031,4.341c0,2.651-1.721,4.372-4.031,4.372
			c-1.689,0-2.868-0.931-3.364-1.984v5.86h-1.069V45.073h1.069v1.86C81.727,45.864,82.906,44.949,84.595,44.949z M84.378,45.895
			c-1.721,0-3.147,1.302-3.147,3.41s1.427,3.411,3.147,3.411c1.783,0,3.147-1.287,3.147-3.427
			C87.526,47.135,86.162,45.895,84.378,45.895z"/>
		<path fill="#231F20" d="M90.625,42.065h1.085v11.473h-1.085V42.065z"/>
		<path fill="#231F20" d="M93.926,42.67c0-0.466,0.356-0.791,0.791-0.791c0.434,0,0.79,0.325,0.79,0.791
			c0,0.465-0.356,0.806-0.79,0.806C94.283,43.476,93.926,43.135,93.926,42.67z M94.174,45.073h1.085v8.465h-1.085V45.073z"/>
		<path fill="#231F20" d="M98.003,45.988h-1.179v-0.915h1.179v-0.589c0-1.813,0.853-2.682,2.992-2.682v0.93
			c-1.442,0-1.907,0.527-1.907,1.752v0.589h1.969v0.915h-1.969v7.55h-1.085V45.988z"/>
		<path fill="#231F20" d="M108.622,45.073h1.117l-5.023,12.449h-1.133l1.645-4.031l-3.473-8.418h1.194l2.883,7.225L108.622,45.073z"
			/>
		<path fill="#231F20" d="M110.962,42.67c0-0.466,0.357-0.791,0.791-0.791s0.791,0.325,0.791,0.791c0,0.465-0.357,0.806-0.791,0.806
			S110.962,43.135,110.962,42.67z M111.21,45.073h1.086v8.465h-1.086V45.073z"/>
		<path fill="#231F20" d="M121.101,48.701c0-1.876-1.023-2.837-2.572-2.837c-1.582,0-2.684,0.992-2.684,3.054v4.62h-1.084v-8.465
			h1.084v1.442c0.543-1.055,1.629-1.597,2.885-1.597c1.922,0,3.441,1.178,3.441,3.658v4.961h-1.07V48.701z"/>
		<path fill="#231F20" d="M128.122,44.949c1.676,0,2.869,0.899,3.35,1.969v-1.845h1.086v8.682c0,2.372-1.629,3.938-3.953,3.938
			c-2.188,0-3.707-1.115-4.047-2.883h1.07c0.355,1.146,1.426,1.938,2.977,1.938c1.611,0,2.867-1.069,2.867-2.992v-2.093
			c-0.496,1.085-1.674,2-3.35,2c-2.324,0-4.045-1.721-4.045-4.372C124.077,46.639,125.798,44.949,128.122,44.949z M128.325,45.895
			c-1.783,0-3.148,1.24-3.148,3.395c0,2.14,1.365,3.427,3.148,3.427c1.736,0,3.146-1.303,3.146-3.411S130.062,45.895,128.325,45.895
			z"/>
		<path fill="#231F20" d="M144.616,42.701v9.953h3.891v0.884h-4.977V42.701H144.616z"/>
		<path fill="#231F20" d="M153.763,53.662c-2.389,0-4.201-1.675-4.201-4.356c0-2.697,1.859-4.356,4.232-4.356
			c2.387,0,4.232,1.659,4.232,4.356C158.026,51.987,156.149,53.662,153.763,53.662z M153.763,52.716
			c1.596,0,3.146-1.086,3.146-3.411s-1.52-3.41-3.131-3.41c-1.613,0-3.117,1.085-3.117,3.41S152.149,52.716,153.763,52.716z"/>
		<path fill="#231F20" d="M163.56,44.949c1.674,0,2.867,0.899,3.348,1.969v-1.845h1.086v8.682c0,2.372-1.627,3.938-3.953,3.938
			c-2.186,0-3.705-1.115-4.047-2.883h1.07c0.357,1.146,1.426,1.938,2.977,1.938c1.613,0,2.867-1.069,2.867-2.992v-2.093
			c-0.496,1.085-1.674,2-3.348,2c-2.326,0-4.047-1.721-4.047-4.372C159.513,46.639,161.233,44.949,163.56,44.949z M163.761,45.895
			c-1.783,0-3.146,1.24-3.146,3.395c0,2.14,1.363,3.427,3.146,3.427c1.736,0,3.146-1.303,3.146-3.411S165.497,45.895,163.761,45.895
			z"/>
		<path fill="#231F20" d="M170.226,42.67c0-0.466,0.355-0.791,0.791-0.791c0.434,0,0.789,0.325,0.789,0.791
			c0,0.465-0.355,0.806-0.789,0.806C170.581,43.476,170.226,43.135,170.226,42.67z M170.474,45.073h1.084v8.465h-1.084V45.073z"/>
		<path fill="#231F20" d="M176.938,53.662c-1.924,0-3.271-0.961-3.412-2.512h1.117c0.092,0.931,0.898,1.597,2.279,1.597
			c1.209,0,1.891-0.65,1.891-1.457c0-2.093-5.086-0.868-5.086-4.046c0-1.256,1.195-2.295,2.977-2.295
			c1.814,0,3.008,0.962,3.102,2.589h-1.086c-0.061-0.945-0.76-1.658-2.045-1.658c-1.133,0-1.846,0.604-1.846,1.349
			c0,2.294,5.008,1.069,5.055,4.062C179.884,52.654,178.688,53.662,176.938,53.662z"/>
		<path fill="#231F20" d="M182.239,45.988h-1.18v-0.915h1.18v-2.124h1.1v2.124h2.326v0.915h-2.326v5.255
			c0,1.039,0.357,1.365,1.334,1.365h0.992v0.93h-1.164c-1.473,0-2.262-0.604-2.262-2.295V45.988z"/>
		<path fill="#231F20" d="M187.198,42.67c0-0.466,0.357-0.791,0.791-0.791s0.791,0.325,0.791,0.791c0,0.465-0.357,0.806-0.791,0.806
			S187.198,43.135,187.198,42.67z M187.446,45.073h1.086v8.465h-1.086V45.073z"/>
		<path fill="#231F20" d="M194.608,44.949c2.125,0,3.504,1.132,3.893,2.884h-1.164c-0.279-1.209-1.303-1.953-2.729-1.953
			c-1.658,0-3.008,1.132-3.008,3.426c0,2.295,1.35,3.441,3.008,3.441c1.426,0,2.434-0.729,2.729-1.969h1.164
			c-0.389,1.69-1.768,2.884-3.893,2.884c-2.387,0-4.107-1.675-4.107-4.356S192.222,44.949,194.608,44.949z"/>
		<path fill="#231F20" d="M203.415,53.662c-1.924,0-3.271-0.961-3.412-2.512h1.117c0.092,0.931,0.898,1.597,2.279,1.597
			c1.209,0,1.891-0.65,1.891-1.457c0-2.093-5.086-0.868-5.086-4.046c0-1.256,1.195-2.295,2.977-2.295
			c1.814,0,3.008,0.962,3.102,2.589h-1.086c-0.061-0.945-0.76-1.658-2.045-1.658c-1.133,0-1.846,0.604-1.846,1.349
			c0,2.294,5.008,1.069,5.055,4.062C206.36,52.654,205.165,53.662,203.415,53.662z"/>
	</g>
	<line fill="none" stroke="#414142" stroke-miterlimit="10" x1="0" y1="48.19" x2="45.047" y2="48.19"/>
</g>
</svg>
