<?xml version="1.0" encoding="utf-8"?>
<!-- Generator: Adobe Illustrator 16.0.0, SVG Export Plug-In . SVG Version: 6.00 Build 0)  -->
<!DOCTYPE svg PUBLIC "-//W3C//DTD SVG 1.1//EN" "http://www.w3.org/Graphics/SVG/1.1/DTD/svg11.dtd">
<svg version="1.1" id="Layer_1" xmlns="http://www.w3.org/2000/svg" xmlns:xlink="http://www.w3.org/1999/xlink" x="0px" y="0px"
	 width="283.46px" height="283.46px" viewBox="0 0 283.46 283.46" enable-background="new 0 0 283.46 283.46" xml:space="preserve">
<g>
	<g>
		<path fill="#010101" d="M89.872,83.651c-5.627-0.089-10.265,4.392-10.371,10.019v79.528c0.106,5.626,4.744,10.107,10.371,10.019
			h33.189v4.147h-8.297c-4.581,0.005-8.292,3.717-8.297,8.298v2.073c0,0.551,0.218,1.079,0.608,1.468
			c0.389,0.389,0.916,0.607,1.468,0.607h66.377c0.551,0,1.077-0.219,1.467-0.607s0.607-0.916,0.607-1.468v-2.073
			c-0.005-4.581-3.717-8.293-8.296-8.298h-8.299v-4.147h33.188c5.627,0.089,10.264-4.393,10.371-10.019V93.67
			c-0.105-5.627-4.744-10.108-10.371-10.019 M168.697,191.514c2.289,0.003,4.146,1.858,4.149,4.148h-62.23
			c0.002-2.29,1.858-4.146,4.148-4.148H168.697z M127.211,187.364v-4.147h29.041v4.147H127.211z M199.81,173.198
			c-0.104,3.335-2.886,5.961-6.222,5.87H89.872c-3.336,0.091-6.118-2.535-6.222-5.87v-2.427H199.81V173.198z M164.313,87.799h29.275
			c3.336-0.091,6.118,2.535,6.222,5.871v72.953l0,0H83.65V93.67c0.104-3.336,2.886-5.962,6.222-5.871"/>
	</g>
</g>
</svg>
