<?xml version="1.0" encoding="utf-8"?>
<!-- Generator: Adobe Illustrator 16.0.0, SVG Export Plug-In . SVG Version: 6.00 Build 0)  -->
<!DOCTYPE svg PUBLIC "-//W3C//DTD SVG 1.1//EN" "http://www.w3.org/Graphics/SVG/1.1/DTD/svg11.dtd">
<svg version="1.1" id="Layer_1" xmlns="http://www.w3.org/2000/svg" xmlns:xlink="http://www.w3.org/1999/xlink" x="0px" y="0px"
	 width="617.841px" height="130.869px" viewBox="0 0 617.841 130.869" enable-background="new 0 0 617.841 130.869"
	 xml:space="preserve">
<g>
	<g id="_x30_1_2_">
		<g id="D1_2_">
			<radialGradient id="SVGID_1_" cx="62.8594" cy="64.7793" r="45.8416" gradientUnits="userSpaceOnUse">
				<stop  offset="0" style="stop-color:#FFFFFF"/>
				<stop  offset="0.0286" style="stop-color:#F7FCFE"/>
				<stop  offset="0.0742" style="stop-color:#E0F2FB"/>
				<stop  offset="0.1306" style="stop-color:#BAE3F7"/>
				<stop  offset="0.1823" style="stop-color:#92D2F2"/>
				<stop  offset="0.2199" style="stop-color:#84C9ED"/>
				<stop  offset="0.291" style="stop-color:#5FB2DE"/>
				<stop  offset="0.3873" style="stop-color:#248DC8"/>
				<stop  offset="0.4174" style="stop-color:#1081C0"/>
				<stop  offset="0.4673" style="stop-color:#1279B8"/>
				<stop  offset="0.5452" style="stop-color:#1663A2"/>
				<stop  offset="0.6203" style="stop-color:#1B4786"/>
				<stop  offset="0.6501" style="stop-color:#193C70"/>
				<stop  offset="0.7061" style="stop-color:#172B4E"/>
				<stop  offset="0.759" style="stop-color:#151E34"/>
				<stop  offset="0.8071" style="stop-color:#131725"/>
				<stop  offset="0.846" style="stop-color:#131420"/>
				<stop  offset="0.9244" style="stop-color:#101118"/>
				<stop  offset="1" style="stop-color:#0B0B0C"/>
			</radialGradient>
			<path fill-rule="evenodd" clip-rule="evenodd" fill="url(#SVGID_1_)" d="M64.784,111.088c24.727,0,44.934-20.138,44.934-44.869
				c0-24.732-20.207-44.869-44.934-44.869c-24.806,0-45.003,20.137-45.003,44.869C19.781,90.95,39.979,111.088,64.784,111.088
				L64.784,111.088z"/>
			<g id="SHADOW_CIRCLE_3_">
				<linearGradient id="SVGID_2_" gradientUnits="userSpaceOnUse" x1="15.0332" y1="25.5684" x2="64.4872" y2="66.8369">
					<stop  offset="0" style="stop-color:#FFFFFF"/>
					<stop  offset="0.1498" style="stop-color:#CDCDCD"/>
					<stop  offset="0.3842" style="stop-color:#858585"/>
					<stop  offset="0.595" style="stop-color:#4C4C4C"/>
					<stop  offset="0.7743" style="stop-color:#232323"/>
					<stop  offset="0.9151" style="stop-color:#090909"/>
					<stop  offset="1" style="stop-color:#000000"/>
				</linearGradient>
				<path fill-rule="evenodd" clip-rule="evenodd" fill="url(#SVGID_2_)" d="M24.058,51.487
					c8.021-20.633,30.726-32.109,50.745-25.61c19.979,6.553,29.685,28.608,21.671,49.242c-8.063,20.671-30.769,32.138-50.737,25.62
					C25.772,94.234,16.06,72.186,24.058,51.487L24.058,51.487z"/>
				
					<linearGradient id="SVGID_3_" gradientUnits="userSpaceOnUse" x1="1106.8164" y1="-253.5713" x2="1182.4982" y2="-190.4162" gradientTransform="matrix(-1.3429 0 0 -1.2588 1653.5344 -171.6912)">
					<stop  offset="0" style="stop-color:#FFFFFF"/>
					<stop  offset="0.1498" style="stop-color:#CDCDCD"/>
					<stop  offset="0.3842" style="stop-color:#858585"/>
					<stop  offset="0.595" style="stop-color:#4C4C4C"/>
					<stop  offset="0.7743" style="stop-color:#232323"/>
					<stop  offset="0.9151" style="stop-color:#090909"/>
					<stop  offset="1" style="stop-color:#000000"/>
				</linearGradient>
				<path fill-rule="evenodd" clip-rule="evenodd" fill="url(#SVGID_3_)" d="M104.888,83.172
					c-7.609,19.703-29.164,30.656-48.157,24.456c-18.969-6.266-28.173-27.304-20.569-47.002
					C43.805,40.9,65.366,29.947,84.313,36.171C103.271,42.381,112.476,63.423,104.888,83.172L104.888,83.172z"/>
				<path fill-rule="evenodd" clip-rule="evenodd" fill="#808083" d="M104.177,44.596c-7.562-6.536-61.305-17.184-46.099,4.51
					c-6.782-4.429-11.232-8.626-11.232-12.518c0.16-8.713,14.661-13.14,30.886-13.295C89.047,26.634,98.567,34.409,104.177,44.596
					L104.177,44.596z"/>
				<path fill-rule="evenodd" clip-rule="evenodd" fill="#424343" d="M100.116,38.609c-8.241-10.488-21.01-17.26-35.332-17.26
					c-11.838,0-22.597,4.615-30.639,12.1l-1.348,4.169c0,0,18.32,10.688,22.771,7.281C51.162,34.256,63.185,26.748,100.116,38.609z"
					/>
				<path fill-rule="evenodd" clip-rule="evenodd" fill="#808083" d="M25.396,87.844c7.568,6.525,61.311,17.182,46.104-4.521
					c6.778,4.432,11.229,8.636,11.229,12.527c-0.156,8.712-14.662,13.14-30.889,13.296C40.53,105.801,31.011,98.026,25.396,87.844
					L25.396,87.844z"/>
				<path fill-rule="evenodd" clip-rule="evenodd" fill="#424343" d="M29.461,93.818c8.241,10.491,21.01,17.27,35.331,17.27
					c11.836,0,22.591-4.62,30.637-12.1l1.352-4.181c0,0-18.319-10.687-22.771-7.277C78.416,98.182,66.393,105.685,29.461,93.818z"/>
				<path fill-rule="evenodd" clip-rule="evenodd" fill="#8F9193" d="M104.658,80.555L70.535,59.127L40.388,43.963
					C38.939,58.052,99.731,71.576,98.493,96c0.038,0.028,1.26-1.694,1.26-1.694c2.278-2.814,4.198-5.933,5.744-9.245L104.658,80.555
					z"/>
			</g>
			<g id="OBJECT_2_3_">
				<radialGradient id="SVGID_4_" cx="15.2373" cy="65.7852" r="86.0388" gradientUnits="userSpaceOnUse">
					<stop  offset="0" style="stop-color:#FFFFFF"/>
					<stop  offset="0.2834" style="stop-color:#28A6DE"/>
					<stop  offset="0.3468" style="stop-color:#27A2DA"/>
					<stop  offset="0.4124" style="stop-color:#2695CF"/>
					<stop  offset="0.4792" style="stop-color:#2381BB"/>
					<stop  offset="0.5462" style="stop-color:#1F64A1"/>
					<stop  offset="0.6" style="stop-color:#1B4786"/>
					<stop  offset="0.6792" style="stop-color:#193A6D"/>
					<stop  offset="0.8196" style="stop-color:#162545"/>
					<stop  offset="0.9314" style="stop-color:#14192D"/>
					<stop  offset="1" style="stop-color:#131424"/>
				</radialGradient>
				<path fill-rule="evenodd" clip-rule="evenodd" fill="url(#SVGID_4_)" d="M74.99,11.027C61.672,8.112,29.979,15.354,25.227,32.66
					c-1.811,6.939,1.071,16.215,12.682,24.063c-10.396-5.831-18.53-14.805-17.42-25.879c0.71-6.737,4.339-12.071,9.39-16.299
					C42.391,4.285,58.945,2.477,74.99,2.576V11.027z"/>
				<radialGradient id="SVGID_5_" cx="151.7383" cy="74.2109" r="93.3226" gradientUnits="userSpaceOnUse">
					<stop  offset="0" style="stop-color:#FFFFFF"/>
					<stop  offset="0.2834" style="stop-color:#28A6DE"/>
					<stop  offset="0.3468" style="stop-color:#27A2DA"/>
					<stop  offset="0.4124" style="stop-color:#2695CF"/>
					<stop  offset="0.4792" style="stop-color:#2381BB"/>
					<stop  offset="0.5462" style="stop-color:#1F64A1"/>
					<stop  offset="0.6" style="stop-color:#1B4786"/>
					<stop  offset="0.6792" style="stop-color:#193A6D"/>
					<stop  offset="0.8196" style="stop-color:#162545"/>
					<stop  offset="0.9314" style="stop-color:#14192D"/>
					<stop  offset="1" style="stop-color:#131424"/>
				</radialGradient>
				<path fill-rule="evenodd" clip-rule="evenodd" fill="url(#SVGID_5_)" d="M54.503,121.41
					c13.226,2.914,45.019-4.332,49.655-21.635c1.926-6.947-2.392-15.883-14.003-23.729c10.401,5.837,19.961,14.473,18.853,25.537
					c-0.706,6.747-4.336,12.081-9.388,16.302c-12.52,10.268-29.07,12.078-45.117,11.978V121.41z"/>
				<radialGradient id="SVGID_6_" cx="72.8584" cy="-57.3457" r="165.9606" gradientUnits="userSpaceOnUse">
					<stop  offset="0" style="stop-color:#FFFFFF"/>
					<stop  offset="0.2834" style="stop-color:#28A6DE"/>
					<stop  offset="0.3468" style="stop-color:#27A2DA"/>
					<stop  offset="0.4124" style="stop-color:#2695CF"/>
					<stop  offset="0.4792" style="stop-color:#2381BB"/>
					<stop  offset="0.5462" style="stop-color:#1F64A1"/>
					<stop  offset="0.6" style="stop-color:#1B4786"/>
					<stop  offset="0.6792" style="stop-color:#193A6D"/>
					<stop  offset="0.8196" style="stop-color:#162545"/>
					<stop  offset="0.9314" style="stop-color:#14192D"/>
					<stop  offset="1" style="stop-color:#131424"/>
				</radialGradient>
				<path fill-rule="evenodd" clip-rule="evenodd" fill="url(#SVGID_6_)" d="M127.07,83.679c-2.62,9.352-7.366,17.904-13.621,25.054
					c0.403-0.402,1.514-1.815,1.714-1.911c4.541-8.455,4.335-15.701,1.214-22.041c1.915-5.829,2.722-12.073,1.815-18.507
					c-5.855-46.189-64.395-43.774-64.797-26.574c-2.426-2.41-3.736-5.027-3.736-7.739C50.057,10.623,133.23,6.701,127.07,83.679
					L127.07,83.679z"/>
				<radialGradient id="SVGID_7_" cx="69.3447" cy="151.9492" r="167.2998" gradientUnits="userSpaceOnUse">
					<stop  offset="0" style="stop-color:#FFFFFF"/>
					<stop  offset="0.2834" style="stop-color:#28A6DE"/>
					<stop  offset="0.3468" style="stop-color:#27A2DA"/>
					<stop  offset="0.4124" style="stop-color:#2695CF"/>
					<stop  offset="0.4792" style="stop-color:#2381BB"/>
					<stop  offset="0.5462" style="stop-color:#1F64A1"/>
					<stop  offset="0.6" style="stop-color:#1B4786"/>
					<stop  offset="0.6792" style="stop-color:#193A6D"/>
					<stop  offset="0.8196" style="stop-color:#162545"/>
					<stop  offset="0.9314" style="stop-color:#14192D"/>
					<stop  offset="1" style="stop-color:#131424"/>
				</radialGradient>
				<path fill-rule="evenodd" clip-rule="evenodd" fill="url(#SVGID_7_)" d="M2.419,48.757c2.633-9.354,7.372-17.912,13.627-25.052
					c-0.398,0.402-1.507,1.811-1.713,1.91c-4.542,8.448-4.337,15.699-1.211,22.037c-2.016,5.834-2.727,12.076-1.818,18.621
					c5.851,46.075,64.393,43.665,64.795,26.455c2.325,2.419,3.741,5.031,3.741,7.75C79.433,121.808-3.74,125.73,2.419,48.757
					L2.419,48.757z"/>
			</g>
			<radialGradient id="OBJECT_1_1_" cx="65.126" cy="65.0801" r="75.5002" gradientUnits="userSpaceOnUse">
				<stop  offset="0" style="stop-color:#FFFFFF"/>
				<stop  offset="0.2051" style="stop-color:#FCFCFD"/>
				<stop  offset="0.3305" style="stop-color:#F4F4F4"/>
				<stop  offset="0.4345" style="stop-color:#E6E6E6"/>
				<stop  offset="0.5267" style="stop-color:#D1D2D3"/>
				<stop  offset="0.6105" style="stop-color:#B7B8B9"/>
				<stop  offset="0.6493" style="stop-color:#A8A9AB"/>
				<stop  offset="0.7014" style="stop-color:#9E9FA1"/>
				<stop  offset="0.791" style="stop-color:#838386"/>
				<stop  offset="0.8621" style="stop-color:#69686D"/>
				<stop  offset="1" style="stop-color:#FFFFFF"/>
			</radialGradient>
			<path id="OBJECT_1_3_" fill-rule="evenodd" clip-rule="evenodd" fill="url(#OBJECT_1_1_)" d="M129.494,66.273
				c0-32.168-23.559-58.839-54.504-63.809V2.374c-0.884-0.138-1.776-0.211-2.661-0.316c-0.469-0.061-0.931-0.122-1.408-0.164
				c-1.989-0.192-3.982-0.327-6.023-0.327c-0.021,0-0.039,0-0.064,0c-0.017,0-0.027,0-0.036,0l0,0
				C46.162,1.595,28.54,9.541,16.15,23.503c0,0-1.611,1.907-1.817,2.112C-7.669,66.273,80.138,79.148,79.84,100.479
				C79.433,121.808-3.74,125.73,2.419,48.757C0.808,54.297,0,60.133,0,66.273c0,32.066,23.559,58.73,54.503,63.689v0.1
				c0.881,0.13,1.771,0.21,2.655,0.316c0.471,0.052,0.943,0.124,1.415,0.161c1.989,0.191,3.983,0.329,6.018,0.329
				c0.023,0,0.047-0.009,0.068-0.009c0.015,0,0.025,0.009,0.038,0.009v-0.009c18.639-0.027,36.259-7.966,48.651-21.925
				c0,0,1.614-1.917,1.814-2.114C137.067,66.173,49.353,53.29,49.659,31.96c0.397-21.337,83.571-25.259,77.411,51.719
				C128.688,78.145,129.494,72.305,129.494,66.273z M28.864,26.417c-6.873,32.267,83.09,42.332,80.144,75.166
				c-1.673,16.325-20.088,24.538-35.913,27.112c13.391-4.305,25.826-11.428,27.537-22.68c0.612-34.115-80.237-38.738-80.144-75.171
				c1.668-16.279,19.99-24.492,35.785-27.081C42.967,8.072,30.575,15.188,28.864,26.417z"/>
			<g id="WHITE_SHADOW_2_">
				<radialGradient id="SVGID_8_" cx="81.4307" cy="18.8818" r="65.1562" gradientUnits="userSpaceOnUse">
					<stop  offset="0" style="stop-color:#FFFFFF"/>
					<stop  offset="0.1498" style="stop-color:#CDCDCD"/>
					<stop  offset="0.3842" style="stop-color:#858585"/>
					<stop  offset="0.595" style="stop-color:#4C4C4C"/>
					<stop  offset="0.7743" style="stop-color:#232323"/>
					<stop  offset="0.9151" style="stop-color:#090909"/>
					<stop  offset="1" style="stop-color:#000000"/>
				</radialGradient>
				<path fill-rule="evenodd" clip-rule="evenodd" fill="url(#SVGID_8_)" d="M127.07,83.269C136.456,2.374,44.311,8.31,49.76,32.862
					c-0.101-0.303-0.101-0.604-0.101-0.902C50.057,10.724,132.927,6.701,127.07,83.269L127.07,83.269z"/>
				<g>
					<linearGradient id="SVGID_9_" gradientUnits="userSpaceOnUse" x1="104.4277" y1="2.4033" x2="96.2502" y2="17.5111">
						<stop  offset="0.5005" style="stop-color:#FFFFFF"/>
						<stop  offset="0.5753" style="stop-color:#CDCDCD"/>
						<stop  offset="0.6924" style="stop-color:#858585"/>
						<stop  offset="0.7977" style="stop-color:#4C4C4C"/>
						<stop  offset="0.8873" style="stop-color:#232323"/>
						<stop  offset="0.9576" style="stop-color:#090909"/>
						<stop  offset="1" style="stop-color:#000000"/>
					</linearGradient>
					<path fill-rule="evenodd" clip-rule="evenodd" fill="url(#SVGID_9_)" d="M65.287,3.364c-5.412,0-10.637,0.744-15.646,2.044
						h2.982c8.315,0,15.449,4.999,18.613,12.146c20.217-1.784,48.514,8.048,56.484,40.021C123.348,26.995,97,3.364,65.287,3.364z"/>
					
						<linearGradient id="SVGID_10_" gradientUnits="userSpaceOnUse" x1="1262.9902" y1="20.668" x2="1254.8153" y2="35.7708" gradientTransform="matrix(-1 0 0 -1 1288.1094 149.7031)">
						<stop  offset="0.5005" style="stop-color:#FFFFFF"/>
						<stop  offset="0.5753" style="stop-color:#CDCDCD"/>
						<stop  offset="0.6924" style="stop-color:#858585"/>
						<stop  offset="0.7977" style="stop-color:#4C4C4C"/>
						<stop  offset="0.8873" style="stop-color:#232323"/>
						<stop  offset="0.9576" style="stop-color:#090909"/>
						<stop  offset="1" style="stop-color:#000000"/>
					</linearGradient>
					<path fill-rule="evenodd" clip-rule="evenodd" fill="url(#SVGID_10_)" d="M64.254,128.074c5.41,0,10.64-0.733,15.646-2.035
						h-2.984c-8.313,0-15.454-5.005-18.612-12.156c-20.222,1.787-48.512-8.048-56.483-40.009
						C6.191,104.447,32.542,128.074,64.254,128.074z"/>
				</g>
				<radialGradient id="SVGID_11_" cx="45.0283" cy="113.9346" r="61.6956" gradientUnits="userSpaceOnUse">
					<stop  offset="0" style="stop-color:#FFFFFF"/>
					<stop  offset="0.1498" style="stop-color:#CDCDCD"/>
					<stop  offset="0.3842" style="stop-color:#858585"/>
					<stop  offset="0.595" style="stop-color:#4C4C4C"/>
					<stop  offset="0.7743" style="stop-color:#232323"/>
					<stop  offset="0.9151" style="stop-color:#090909"/>
					<stop  offset="1" style="stop-color:#000000"/>
				</radialGradient>
				<path fill-rule="evenodd" clip-rule="evenodd" fill="url(#SVGID_11_)" d="M2.419,49.17
					c-9.381,80.893,82.765,74.957,77.315,50.405c0.105,0.293,0.105,0.606,0.105,0.903C79.433,121.711-3.434,125.73,2.419,49.17
					L2.419,49.17z"/>
			</g>
		</g>
	</g>
	<linearGradient id="SVGID_12_" gradientUnits="userSpaceOnUse" x1="165.8164" y1="35.4229" x2="616.6113" y2="35.4229">
		<stop  offset="0" style="stop-color:#0D1324"/>
		<stop  offset="0.3062" style="stop-color:#0C3454"/>
		<stop  offset="0.651" style="stop-color:#0C3454"/>
		<stop  offset="1" style="stop-color:#0D1324"/>
	</linearGradient>
	<path fill="url(#SVGID_12_)" d="M170.17,4.502C172.873,1.5,176.865,0,182.143,0s9.268,1.5,11.973,4.502
		c2.703,3.002,4.057,7.307,4.057,12.912v2.178h-10.291v-2.869c0-2.375-0.461-4.107-1.385-5.195s-2.275-1.633-4.057-1.633
		s-3.135,0.545-4.057,1.633c-0.924,1.088-1.385,2.82-1.385,5.195c0,2.902,0.773,5.441,2.324,7.617
		c1.549,2.178,3.875,4.65,6.977,7.422c2.572,2.375,4.65,4.469,6.232,6.283c1.584,1.814,2.936,4.008,4.057,6.58
		s1.684,5.508,1.684,8.807c0,5.607-1.387,9.912-4.156,12.912c-2.771,3.002-6.795,4.502-12.072,4.502s-9.301-1.5-12.07-4.502
		c-2.771-3-4.156-7.305-4.156-12.912v-4.256h10.291v4.947c0,4.488,1.879,6.729,5.639,6.729s5.641-2.24,5.641-6.729
		c0-2.9-0.775-5.441-2.326-7.619c-1.549-2.176-3.875-4.65-6.975-7.42c-2.572-2.375-4.65-4.469-6.234-6.283
		c-1.582-1.814-2.936-4.008-4.057-6.58c-1.123-2.572-1.682-5.508-1.682-8.807C166.113,11.809,167.465,7.504,170.17,4.502z
		 M214.398,70.055V0.791h10.885v29.684h12.367V0.791h11.084v69.264H237.65V40.369h-12.367v29.686H214.398z M290.785,70.055
		l-1.881-12.566h-13.357l-1.881,12.566h-9.992l11.082-69.264h15.93l11.082,69.264H290.785z M287.42,48.088l-5.244-35.027
		l-5.244,35.027H287.42z M338.674,66.889c-0.133-0.99-0.197-2.771-0.197-5.344V50.66c0-3.166-0.561-5.424-1.682-6.777
		c-1.123-1.352-2.936-2.029-5.443-2.029h-3.76v28.201h-10.883V0.791h16.424c5.607,0,9.697,1.303,12.27,3.908
		c2.574,2.607,3.859,6.615,3.859,12.023v5.441c0,7.123-2.375,11.809-7.123,14.051c2.572,1.055,4.418,2.82,5.541,5.293
		c1.119,2.475,1.682,5.625,1.682,9.449v10.688c0,1.979,0.064,3.578,0.197,4.799c0.131,1.221,0.461,2.424,0.99,3.611h-11.082
		C339.07,68.934,338.807,67.877,338.674,66.889z M327.592,31.959h4.256c2.176,0,3.809-0.559,4.898-1.682
		c1.088-1.121,1.631-3,1.631-5.641v-6.826c0-2.506-0.445-4.32-1.336-5.443c-0.889-1.119-2.291-1.682-4.205-1.682h-5.244V31.959z
		 M394.578,5.145c2.703,2.904,4.057,7.158,4.057,12.764v9.006c0,5.607-1.354,9.861-4.057,12.764
		c-2.705,2.902-6.762,4.354-12.17,4.354h-5.146v26.023h-10.883V0.791h16.029C387.816,0.791,391.873,2.242,394.578,5.145z
		 M377.262,34.137h5.146c1.781,0,3.117-0.494,4.008-1.484c0.889-0.99,1.334-2.672,1.334-5.047V17.217
		c0-2.375-0.445-4.057-1.334-5.047c-0.891-0.988-2.227-1.484-4.008-1.484h-5.146V34.137z M424.953,0.791v69.264H414.07V0.791
		H424.953z M473.238,0.791v9.895h-11.379v59.369h-10.883V10.686h-11.379V0.791H473.238z M513.707,29.98v9.895h-14.941V60.16h18.801
		v9.895h-29.684V0.791h29.684v9.895h-18.801V29.98H513.707z M565.752,53.432c0,5.607-1.385,9.912-4.154,12.912
		c-2.771,3.002-6.795,4.502-12.072,4.502s-9.301-1.5-12.072-4.502c-2.77-3-4.154-7.305-4.154-12.912V17.414
		c0-5.605,1.385-9.91,4.154-12.912C540.225,1.5,544.248,0,549.525,0s9.301,1.5,12.072,4.502c2.77,3.002,4.154,7.307,4.154,12.912
		v6.729h-10.289v-7.42c0-4.553-1.881-6.828-5.641-6.828s-5.641,2.275-5.641,6.828v37.4c0,4.488,1.881,6.729,5.641,6.729
		s5.641-2.24,5.641-6.729v-9.895h10.289V53.432z M582.275,70.055V0.791h10.885v29.684h12.367V0.791h11.084v69.264h-11.084V40.369
		H593.16v29.686H582.275z"/>
	<g>
		<path fill="#414141" d="M283.625,114.691c0,1.885-0.684,3.354-2.051,4.408s-3.223,1.582-5.566,1.582
			c-2.539,0-4.492-0.326-5.859-0.98v-2.402c0.879,0.371,1.836,0.664,2.871,0.879s2.061,0.322,3.076,0.322
			c1.66,0,2.91-0.316,3.75-0.945c0.84-0.631,1.26-1.506,1.26-2.629c0-0.742-0.149-1.35-0.447-1.824
			c-0.298-0.473-0.796-0.91-1.494-1.311s-1.76-0.855-3.186-1.363c-1.992-0.713-3.416-1.557-4.27-2.533
			c-0.855-0.977-1.282-2.252-1.282-3.824c0-1.65,0.62-2.963,1.86-3.939s2.881-1.465,4.922-1.465c2.129,0,4.087,0.391,5.874,1.172
			l-0.776,2.168c-1.768-0.742-3.486-1.113-5.156-1.113c-1.318,0-2.349,0.283-3.091,0.85s-1.113,1.352-1.113,2.357
			c0,0.742,0.137,1.352,0.41,1.824c0.273,0.475,0.734,0.908,1.384,1.303c0.649,0.396,1.644,0.834,2.981,1.313
			c2.246,0.801,3.791,1.66,4.636,2.578S283.625,113.227,283.625,114.691z"/>
		<path fill="#414141" d="M290.434,99.984c0-0.557,0.137-0.965,0.41-1.225c0.273-0.258,0.615-0.387,1.025-0.387
			c0.391,0,0.728,0.131,1.011,0.395s0.425,0.67,0.425,1.217s-0.142,0.955-0.425,1.223c-0.283,0.27-0.62,0.402-1.011,0.402
			c-0.41,0-0.752-0.133-1.025-0.402C290.57,100.939,290.434,100.531,290.434,99.984z M293.07,120.389h-2.432v-16.055h2.432V120.389z
			"/>
		<path fill="#414141" d="M321.69,120.389v-10.443c0-1.279-0.273-2.238-0.82-2.879c-0.547-0.639-1.396-0.959-2.549-0.959
			c-1.514,0-2.632,0.434-3.354,1.303s-1.084,2.207-1.084,4.014v8.965h-2.432v-10.443c0-1.279-0.273-2.238-0.82-2.879
			c-0.547-0.639-1.401-0.959-2.563-0.959c-1.523,0-2.64,0.457-3.347,1.369c-0.709,0.914-1.063,2.41-1.063,4.49v8.422h-2.432v-16.055
			h1.978l0.396,2.197h0.117c0.459-0.781,1.105-1.391,1.941-1.83c0.834-0.439,1.77-0.66,2.805-0.66c2.51,0,4.15,0.908,4.922,2.725
			h0.117c0.479-0.84,1.172-1.504,2.08-1.992s1.943-0.732,3.105-0.732c1.816,0,3.176,0.467,4.08,1.398
			c0.902,0.934,1.354,2.426,1.354,4.477v10.473H321.69z"/>
		<path fill="#414141" d="M339.603,120.682c-1.045,0-2-0.193-2.863-0.578c-0.865-0.385-1.59-0.979-2.176-1.779h-0.176
			c0.117,0.938,0.176,1.826,0.176,2.666v6.605h-2.432v-23.262h1.978l0.337,2.197h0.117c0.625-0.879,1.353-1.514,2.183-1.904
			s1.782-0.586,2.856-0.586c2.129,0,3.771,0.729,4.93,2.184c1.156,1.455,1.735,3.496,1.735,6.123c0,2.637-0.589,4.686-1.765,6.145
			C343.325,119.953,341.692,120.682,339.603,120.682z M339.251,106.107c-1.641,0-2.827,0.453-3.56,1.361s-1.108,2.354-1.128,4.336
			v0.543c0,2.256,0.376,3.869,1.128,4.84c0.752,0.973,1.958,1.459,3.618,1.459c1.387,0,2.473-0.563,3.26-1.686
			c0.785-1.123,1.179-2.67,1.179-4.643c0-2.002-0.394-3.539-1.179-4.607C341.782,106.641,340.677,106.107,339.251,106.107z"/>
		<path fill="#414141" d="M355.947,120.389h-2.432V97.596h2.432V120.389z"/>
		<path fill="#414141" d="M363.898,99.984c0-0.557,0.137-0.965,0.41-1.225c0.273-0.258,0.615-0.387,1.025-0.387
			c0.391,0,0.728,0.131,1.011,0.395s0.425,0.67,0.425,1.217s-0.142,0.955-0.425,1.223c-0.283,0.27-0.62,0.402-1.011,0.402
			c-0.41,0-0.752-0.133-1.025-0.402C364.035,100.939,363.898,100.531,363.898,99.984z M366.535,120.389h-2.432v-16.055h2.432
			V120.389z"/>
		<path fill="#414141" d="M381.928,106.225h-4.087v14.164h-2.432v-14.164h-2.871v-1.1l2.871-0.879v-0.893
			c0-3.945,1.724-5.918,5.171-5.918c0.85,0,1.846,0.17,2.988,0.512l-0.63,1.949c-0.938-0.303-1.738-0.455-2.402-0.455
			c-0.918,0-1.597,0.307-2.036,0.916c-0.439,0.611-0.659,1.59-0.659,2.938v1.039h4.087V106.225z"/>
		<path fill="#414141" d="M385.309,104.334h2.607l3.516,9.156c0.771,2.09,1.25,3.598,1.436,4.525h0.117
			c0.127-0.498,0.393-1.35,0.799-2.557c0.404-1.205,1.73-4.914,3.977-11.125h2.607l-6.899,18.281
			c-0.684,1.807-1.482,3.088-2.396,3.846c-0.913,0.756-2.033,1.135-3.361,1.135c-0.742,0-1.475-0.082-2.197-0.248v-1.949
			c0.537,0.117,1.138,0.176,1.802,0.176c1.67,0,2.861-0.938,3.574-2.813l0.894-2.285L385.309,104.334z"/>
		<path fill="#414141" d="M405.77,99.984c0-0.557,0.137-0.965,0.41-1.225c0.273-0.258,0.615-0.387,1.025-0.387
			c0.391,0,0.728,0.131,1.011,0.395s0.425,0.67,0.425,1.217s-0.142,0.955-0.425,1.223c-0.283,0.27-0.62,0.402-1.011,0.402
			c-0.41,0-0.752-0.133-1.025-0.402C405.906,100.939,405.77,100.531,405.77,99.984z M408.406,120.389h-2.432v-16.055h2.432V120.389z
			"/>
		<path fill="#414141" d="M427.549,120.389v-10.385c0-1.309-0.298-2.285-0.894-2.93s-1.528-0.967-2.798-0.967
			c-1.68,0-2.91,0.453-3.691,1.361s-1.172,2.408-1.172,4.498v8.422h-2.432v-16.055h1.978l0.396,2.197h0.117
			c0.498-0.791,1.196-1.402,2.095-1.838c0.898-0.434,1.899-0.652,3.003-0.652c1.934,0,3.389,0.467,4.365,1.398
			c0.977,0.934,1.465,2.426,1.465,4.477v10.473H427.549z"/>
		<path fill="#414141" d="M451.115,104.334v1.539l-2.974,0.352c0.273,0.342,0.518,0.789,0.732,1.34
			c0.215,0.553,0.322,1.174,0.322,1.867c0,1.572-0.537,2.828-1.611,3.766s-2.549,1.406-4.424,1.406
			c-0.479,0-0.928-0.039-1.348-0.117c-1.035,0.547-1.553,1.234-1.553,2.064c0,0.439,0.181,0.766,0.542,0.975
			c0.361,0.211,0.981,0.314,1.86,0.314h2.842c1.738,0,3.073,0.367,4.006,1.1s1.399,1.797,1.399,3.193
			c0,1.777-0.713,3.131-2.139,4.064c-1.426,0.932-3.506,1.398-6.24,1.398c-2.1,0-3.719-0.391-4.856-1.172s-1.706-1.885-1.706-3.311
			c0-0.977,0.313-1.82,0.938-2.533s1.504-1.197,2.637-1.451c-0.41-0.186-0.755-0.473-1.032-0.863
			c-0.279-0.391-0.418-0.846-0.418-1.363c0-0.586,0.156-1.098,0.469-1.537s0.806-0.865,1.479-1.275
			c-0.83-0.342-1.507-0.922-2.028-1.742c-0.523-0.82-0.784-1.758-0.784-2.813c0-1.758,0.527-3.113,1.582-4.066
			c1.055-0.951,2.549-1.428,4.482-1.428c0.84,0,1.597,0.098,2.271,0.293H451.115z M438.313,123.084c0,0.869,0.366,1.529,1.099,1.979
			s1.782,0.674,3.149,0.674c2.041,0,3.552-0.307,4.534-0.916c0.98-0.611,1.472-1.438,1.472-2.482c0-0.869-0.269-1.473-0.806-1.811
			c-0.537-0.336-1.548-0.504-3.032-0.504h-2.915c-1.104,0-1.963,0.264-2.578,0.791S438.313,122.098,438.313,123.084z
			 M439.631,109.477c0,1.123,0.317,1.973,0.952,2.549s1.519,0.863,2.651,0.863c2.373,0,3.56-1.152,3.56-3.457
			c0-2.412-1.201-3.617-3.604-3.617c-1.143,0-2.021,0.307-2.637,0.922S439.631,108.266,439.631,109.477z"/>
		<path fill="#414141" d="M479.363,120.389V98.973h2.49v19.16h9.448v2.256H479.363z"/>
		<path fill="#414141" d="M511.426,112.348c0,2.617-0.659,4.66-1.978,6.129c-1.318,1.471-3.14,2.205-5.464,2.205
			c-1.436,0-2.71-0.336-3.823-1.01s-1.973-1.641-2.578-2.9s-0.908-2.734-0.908-4.424c0-2.617,0.654-4.656,1.963-6.117
			c1.309-1.459,3.125-2.189,5.449-2.189c2.246,0,4.03,0.748,5.354,2.242C510.764,107.777,511.426,109.799,511.426,112.348z
			 M499.194,112.348c0,2.051,0.41,3.613,1.23,4.688s2.026,1.611,3.618,1.611s2.8-0.535,3.625-1.605
			c0.825-1.068,1.238-2.633,1.238-4.693c0-2.041-0.413-3.592-1.238-4.652c-0.825-1.059-2.043-1.588-3.654-1.588
			c-1.592,0-2.793,0.521-3.604,1.566S499.194,110.277,499.194,112.348z"/>
		<path fill="#414141" d="M531.828,104.334v1.539l-2.974,0.352c0.273,0.342,0.518,0.789,0.732,1.34
			c0.215,0.553,0.322,1.174,0.322,1.867c0,1.572-0.537,2.828-1.611,3.766s-2.549,1.406-4.424,1.406
			c-0.479,0-0.928-0.039-1.348-0.117c-1.035,0.547-1.553,1.234-1.553,2.064c0,0.439,0.181,0.766,0.542,0.975
			c0.361,0.211,0.981,0.314,1.86,0.314h2.842c1.738,0,3.073,0.367,4.006,1.1s1.399,1.797,1.399,3.193
			c0,1.777-0.713,3.131-2.139,4.064c-1.426,0.932-3.506,1.398-6.24,1.398c-2.1,0-3.719-0.391-4.856-1.172s-1.706-1.885-1.706-3.311
			c0-0.977,0.313-1.82,0.938-2.533s1.504-1.197,2.637-1.451c-0.41-0.186-0.755-0.473-1.032-0.863
			c-0.279-0.391-0.418-0.846-0.418-1.363c0-0.586,0.156-1.098,0.469-1.537s0.806-0.865,1.479-1.275
			c-0.83-0.342-1.507-0.922-2.028-1.742c-0.523-0.82-0.784-1.758-0.784-2.813c0-1.758,0.527-3.113,1.582-4.066
			c1.055-0.951,2.549-1.428,4.482-1.428c0.84,0,1.597,0.098,2.271,0.293H531.828z M519.025,123.084c0,0.869,0.366,1.529,1.099,1.979
			s1.782,0.674,3.149,0.674c2.041,0,3.552-0.307,4.534-0.916c0.98-0.611,1.472-1.438,1.472-2.482c0-0.869-0.269-1.473-0.806-1.811
			c-0.537-0.336-1.548-0.504-3.032-0.504h-2.915c-1.104,0-1.963,0.264-2.578,0.791S519.025,122.098,519.025,123.084z
			 M520.344,109.477c0,1.123,0.317,1.973,0.952,2.549s1.519,0.863,2.651,0.863c2.373,0,3.56-1.152,3.56-3.457
			c0-2.412-1.201-3.617-3.604-3.617c-1.143,0-2.021,0.307-2.637,0.922S520.344,108.266,520.344,109.477z"/>
		<path fill="#414141" d="M537.919,99.984c0-0.557,0.137-0.965,0.41-1.225c0.273-0.258,0.615-0.387,1.025-0.387
			c0.391,0,0.728,0.131,1.011,0.395s0.425,0.67,0.425,1.217s-0.142,0.955-0.425,1.223c-0.283,0.27-0.62,0.402-1.011,0.402
			c-0.41,0-0.752-0.133-1.025-0.402C538.056,100.939,537.919,100.531,537.919,99.984z M540.556,120.389h-2.432v-16.055h2.432
			V120.389z"/>
		<path fill="#414141" d="M559.068,116.01c0,1.494-0.557,2.646-1.67,3.457s-2.676,1.215-4.688,1.215c-2.129,0-3.789-0.336-4.98-1.01
			v-2.256c0.771,0.391,1.599,0.697,2.483,0.922c0.883,0.225,1.735,0.338,2.556,0.338c1.27,0,2.246-0.203,2.93-0.609
			c0.684-0.404,1.025-1.021,1.025-1.852c0-0.625-0.271-1.16-0.813-1.605c-0.541-0.443-1.599-0.969-3.171-1.574
			c-1.494-0.557-2.556-1.041-3.187-1.457c-0.629-0.414-1.098-0.887-1.406-1.414c-0.307-0.527-0.461-1.156-0.461-1.889
			c0-1.309,0.532-2.342,1.597-3.1c1.064-0.756,2.524-1.135,4.38-1.135c1.729,0,3.418,0.352,5.068,1.055l-0.864,1.979
			c-1.611-0.664-3.071-0.996-4.38-0.996c-1.152,0-2.021,0.18-2.607,0.541s-0.879,0.859-0.879,1.494c0,0.43,0.109,0.797,0.33,1.1
			c0.219,0.303,0.573,0.59,1.062,0.863s1.426,0.67,2.813,1.188c1.904,0.693,3.19,1.391,3.86,2.094
			C558.733,114.061,559.068,114.945,559.068,116.01z"/>
		<path fill="#414141" d="M571.209,118.676c0.43,0,0.845-0.031,1.245-0.096c0.4-0.063,0.718-0.129,0.952-0.197v1.859
			c-0.264,0.127-0.652,0.232-1.164,0.314c-0.514,0.084-0.975,0.125-1.385,0.125c-3.105,0-4.658-1.635-4.658-4.906v-9.551h-2.3
			v-1.172l2.3-1.012l1.025-3.428h1.406v3.721h4.658v1.891h-4.658v9.447c0,0.967,0.229,1.709,0.688,2.227
			S570.408,118.676,571.209,118.676z"/>
		<path fill="#414141" d="M579.409,99.984c0-0.557,0.137-0.965,0.41-1.225c0.273-0.258,0.615-0.387,1.025-0.387
			c0.391,0,0.728,0.131,1.011,0.395s0.425,0.67,0.425,1.217s-0.142,0.955-0.425,1.223c-0.283,0.27-0.62,0.402-1.011,0.402
			c-0.41,0-0.752-0.133-1.025-0.402C579.546,100.939,579.409,100.531,579.409,99.984z M582.046,120.389h-2.432v-16.055h2.432
			V120.389z"/>
		<path fill="#414141" d="M596.618,120.682c-2.324,0-4.123-0.715-5.398-2.146c-1.273-1.43-1.911-3.453-1.911-6.07
			c0-2.686,0.646-4.762,1.94-6.227s3.138-2.197,5.53-2.197c0.771,0,1.543,0.084,2.314,0.25s1.377,0.361,1.816,0.586l-0.747,2.064
			c-0.537-0.215-1.123-0.393-1.758-0.535c-0.635-0.141-1.196-0.211-1.685-0.211c-3.262,0-4.893,2.08-4.893,6.24
			c0,1.973,0.397,3.486,1.194,4.541c0.795,1.055,1.975,1.582,3.537,1.582c1.338,0,2.71-0.289,4.116-0.865v2.154
			C599.602,120.404,598.249,120.682,596.618,120.682z"/>
		<path fill="#414141" d="M617.841,116.01c0,1.494-0.557,2.646-1.67,3.457s-2.676,1.215-4.688,1.215c-2.129,0-3.789-0.336-4.98-1.01
			v-2.256c0.771,0.391,1.599,0.697,2.483,0.922c0.883,0.225,1.735,0.338,2.556,0.338c1.27,0,2.246-0.203,2.93-0.609
			c0.684-0.404,1.025-1.021,1.025-1.852c0-0.625-0.271-1.16-0.813-1.605c-0.541-0.443-1.599-0.969-3.171-1.574
			c-1.494-0.557-2.556-1.041-3.187-1.457c-0.629-0.414-1.098-0.887-1.406-1.414c-0.307-0.527-0.461-1.156-0.461-1.889
			c0-1.309,0.532-2.342,1.597-3.1c1.064-0.756,2.524-1.135,4.38-1.135c1.729,0,3.418,0.352,5.068,1.055l-0.864,1.979
			c-1.611-0.664-3.071-0.996-4.38-0.996c-1.152,0-2.021,0.18-2.607,0.541s-0.879,0.859-0.879,1.494c0,0.43,0.109,0.797,0.33,1.1
			c0.219,0.303,0.573,0.59,1.062,0.863s1.426,0.67,2.813,1.188c1.904,0.693,3.19,1.391,3.86,2.094
			C617.506,114.061,617.841,114.945,617.841,116.01z"/>
	</g>
</g>
</svg>
