<?xml version="1.0" encoding="utf-8"?>
<!-- Generator: Adobe Illustrator 16.0.0, SVG Export Plug-In . SVG Version: 6.00 Build 0)  -->
<!DOCTYPE svg PUBLIC "-//W3C//DTD SVG 1.1//EN" "http://www.w3.org/Graphics/SVG/1.1/DTD/svg11.dtd">
<svg version="1.1" id="Layer_1" xmlns="http://www.w3.org/2000/svg" xmlns:xlink="http://www.w3.org/1999/xlink" x="0px" y="0px"
	 width="614.496px" height="568.58px" viewBox="0 0 614.496 568.58" enable-background="new 0 0 614.496 568.58"
	 xml:space="preserve">
<g>
	<polygon fill="#F04B23" fill-opacity="0.3" stroke="#F06623" stroke-width="0.25" stroke-miterlimit="10" points="183.76,263.205 
		163.171,230.021 125.79,259.277 	"/>
	<polygon fill="#F04B23" fill-opacity="0.3" stroke="#F06623" stroke-width="0.25" stroke-miterlimit="10" points="134.999,324.967 
		184.167,263.746 125.924,258.734 109.535,324.291 	"/>
	<polygon fill="#F04B23" fill-opacity="0.35" stroke="#F06623" stroke-width="0.25" stroke-miterlimit="10" points="183.76,337.295 
		228.729,259.548 184.167,263.746 134.999,324.967 	"/>
	<polygon fill="#F04B23" fill-opacity="0.5" stroke="#F06623" stroke-width="0.25" stroke-miterlimit="10" points="184.167,263.746 
		163.354,230.382 208.773,201.847 	"/>
	<polygon fill="#F04B23" fill-opacity="0.35" stroke="#F06623" stroke-width="0.25" stroke-miterlimit="10" points="
		228.729,259.548 209.089,202.931 184.709,263.476 	"/>
	<polygon fill="#F04B23" fill-opacity="0.5" stroke="#F06623" stroke-width="0.25" stroke-miterlimit="10" points="273.698,227.176 
		228.729,259.548 208.863,202.208 	"/>
	<polygon fill="#F04B23" fill-opacity="0.3" stroke="#F06623" stroke-width="0.25" stroke-miterlimit="10" points="248.595,177.648 
		273.698,227.176 209.36,201.915 	"/>
	<polygon fill="#F04B23" fill-opacity="0.3" stroke="#F06623" stroke-width="0.25" stroke-miterlimit="10" points="354.695,210.516 
		273.698,227.176 248.595,177.648 326.251,161.394 	"/>
	<polygon fill="#F04B23" fill-opacity="0.35" stroke="#F06623" stroke-width="0.25" stroke-miterlimit="10" points="
		399.755,161.936 354.695,210.516 326.251,161.394 399.665,161.483 	"/>
	<polygon fill="#F04B23" fill-opacity="0.3" stroke="#F06623" stroke-width="0.25" stroke-miterlimit="10" points="416.73,198.236 
		354.695,210.516 399.935,161.031 	"/>
	<polygon fill="#F04B23" fill-opacity="0.3" stroke="#F06623" stroke-width="0.25" stroke-miterlimit="10" points="399.935,161.031 
		457.364,174.397 416.73,198.236 	"/>
	<polygon fill="#F04B23" fill-opacity="0.3" stroke="#F06623" stroke-width="0.25" stroke-miterlimit="10" points="481.384,234.851 
		416.73,198.236 457.364,174.397 	"/>
	<polygon fill="#F04B23" fill-opacity="0.35" stroke="#F06623" stroke-width="0.25" stroke-miterlimit="10" points="
		509.917,198.732 482.693,235.438 458.447,175.48 	"/>
	<polygon fill="#F04B23" fill-opacity="0.5" stroke="#F06623" stroke-width="0.25" stroke-miterlimit="10" points="535.021,231.104 
		483.101,236.161 510.462,198.686 	"/>
	<polygon fill="#F04B23" fill-opacity="0.3" stroke="#F06623" stroke-width="0.25" stroke-miterlimit="10" points="334.919,263.792 
		354.695,210.516 273.698,227.176 	"/>
	<polygon fill="#F04B23" fill-opacity="0.5" stroke="#F06623" stroke-width="0.25" stroke-miterlimit="10" points="400.476,259.637 
		334.919,263.792 354.695,210.516 	"/>
	<polygon fill="#F04B23" fill-opacity="0.3" stroke="#F06623" stroke-width="0.25" stroke-miterlimit="10" points="433.163,263.792 
		416.188,199.139 400.476,259.637 	"/>
	<polygon fill="#F04B23" fill-opacity="0.35" stroke="#F06623" stroke-width="0.25" stroke-miterlimit="10" points="
		354.695,210.516 415.284,198.416 400.409,259.345 	"/>
	<polygon fill="#F04B23" fill-opacity="0.35" stroke="#F06623" stroke-width="0.25" stroke-miterlimit="10" points="
		482.693,235.438 434.065,263.476 416.73,199.002 	"/>
	<polygon fill="#F04B23" fill-opacity="0.3" stroke="#F06623" stroke-width="0.25" stroke-miterlimit="10" points="228.729,259.548 
		333.835,263.476 273.698,227.176 	"/>
	<polygon fill="#F04B23" fill-opacity="0.35" stroke="#F06623" stroke-width="0.25" stroke-miterlimit="10" points="
		269.362,349.484 334.919,263.792 228.729,259.548 	"/>
	<polygon fill="#F04B23" fill-opacity="0.5" stroke="#F06623" stroke-width="0.25" stroke-miterlimit="10" points="183.76,337.295 
		269.362,349.484 228.729,259.548 	"/>
	<polygon fill="#F04B23" fill-opacity="0.3" stroke="#F06623" stroke-width="0.25" stroke-miterlimit="10" points="339.254,321.041 
		334.919,263.792 269.362,349.484 	"/>
	<polygon fill="#F04B23" fill-opacity="0.3" stroke="#F06623" stroke-width="0.25" stroke-miterlimit="10" points="399.392,260.089 
		339.254,321.041 334.831,263.25 	"/>
	<polygon fill="#F04B23" fill-opacity="0.3" stroke="#F06623" stroke-width="0.25" stroke-miterlimit="10" points="404.813,300.633 
		399.213,259.458 339.254,321.041 	"/>
	<polygon fill="#F04B23" fill-opacity="0.35" stroke="#F06623" stroke-width="0.25" stroke-miterlimit="10" points="
		404.813,300.633 399.392,260.089 433.163,263.792 505.403,316.348 	"/>
	<polygon fill="#F04B23" fill-opacity="0.3" stroke="#F06623" stroke-width="0.25" stroke-miterlimit="10" points="434.065,263.476 
		506.666,267.81 506.396,316.775 433.163,263.792 	"/>
	<polygon fill="#F04B23" fill-opacity="0.35" stroke="#F06623" stroke-width="0.25" stroke-miterlimit="10" points="
		506.216,267.583 481.924,235.258 434.065,263.476 	"/>
	<polygon fill="#F04B23" fill-opacity="0.5" stroke="#F06623" stroke-width="0.25" stroke-miterlimit="10" points="534.478,231.646 
		506.666,267.81 482.558,235.89 	"/>
	<polygon fill="#F04B23" fill-opacity="0.3" stroke="#F06623" stroke-width="0.25" stroke-miterlimit="10" points="546.94,259.277 
		506.759,268.217 535.021,230.743 	"/>
	<polygon fill="#F04B23" fill-opacity="0.5" stroke="#F06623" stroke-width="0.25" stroke-miterlimit="10" points="507.208,315.807 
		546.488,259.548 506.666,267.81 	"/>
	<polygon fill="#F04B23" fill-opacity="0.3" stroke="#F06623" stroke-width="0.25" stroke-miterlimit="10" points="526.714,287.721 
		582.519,323.75 546.488,259.548 	"/>
	<polygon fill="#F04B23" fill-opacity="0.5" stroke="#F06623" stroke-width="0.25" stroke-miterlimit="10" points="579.268,385.514 
		526.714,287.721 583.421,324.652 	"/>
	<polygon fill="#F04B23" fill-opacity="0.35" stroke="#F06623" stroke-width="0.25" stroke-miterlimit="10" points="
		506.396,316.775 579.087,386.773 526.983,288.804 	"/>
	<polygon fill="#F04B23" fill-opacity="0.3" stroke="#F06623" stroke-width="0.25" stroke-miterlimit="10" points="531.228,398.697 
		481.924,394.092 506.396,316.775 	"/>
	<polygon fill="#F04B23" fill-opacity="0.3" stroke="#F06623" stroke-width="0.25" stroke-miterlimit="10" points="404.813,300.633 
		481.924,394.092 506.396,316.775 	"/>
	<polygon fill="#F04B23" fill-opacity="0.5" stroke="#F06623" stroke-width="0.25" stroke-miterlimit="10" points="420.793,389.848 
		481.744,393.641 404.813,300.633 	"/>
	<polygon fill="#F04B23" fill-opacity="0.5" stroke="#F06623" stroke-width="0.25" stroke-miterlimit="10" points="339.254,321.041 
		419.801,389.307 404.089,300.273 	"/>
	<polygon fill="#F04B23" fill-opacity="0.3" stroke="#F06623" stroke-width="0.25" stroke-miterlimit="10" points="326.792,381.9 
		419.801,389.307 339.254,321.041 	"/>
	<polygon fill="#F04B23" fill-opacity="0.35" stroke="#F06623" stroke-width="0.25" stroke-miterlimit="10" points="
		240.648,398.518 326.792,381.9 339.254,321.041 269.183,348.311 	"/>
	<polygon fill="#F04B23" fill-opacity="0.3" stroke="#F06623" stroke-width="0.25" stroke-miterlimit="10" points="183.76,337.295 
		240.648,398.518 267.739,349.938 	"/>
	<polygon fill="#F04B23" fill-opacity="0.5" stroke="#F06623" stroke-width="0.25" stroke-miterlimit="10" points="176.175,394.184 
		182.496,337.295 240.648,398.518 	"/>
	<polygon fill="#F04B23" fill-opacity="0.35" stroke="#F06623" stroke-width="0.25" stroke-miterlimit="10" points="
		136.627,326.098 176.175,394.184 182.496,337.295 	"/>
	<polygon fill="#F04B23" fill-opacity="0.75" stroke="#F06623" stroke-width="0.25" stroke-miterlimit="10" points="
		130.665,374.678 174.55,393.822 146.376,399.602 	"/>
	<polygon fill="#F04B23" fill-opacity="0.35" stroke="#F06623" stroke-width="0.25" stroke-miterlimit="10" points="
		134.999,324.967 130.665,374.678 175.272,393.459 	"/>
	<polygon fill="#F04B23" fill-opacity="0.35" stroke="#F06623" stroke-width="0.25" stroke-miterlimit="10" points="
		109.535,324.291 134.277,325.195 130.304,373.775 	"/>
	<polygon fill="#F04B23" fill-opacity="0.5" stroke="#F06623" stroke-width="0.25" stroke-miterlimit="10" points="346.297,442.943 
		326.792,381.9 240.648,398.518 	"/>
	<polygon fill="#F04B23" fill-opacity="0.75" stroke="#F06623" stroke-width="0.25" stroke-miterlimit="10" points="
		273.698,448.361 344.4,442.943 240.648,398.518 	"/>
	<polygon fill="#F04B23" fill-opacity="0.75" stroke="#F06623" stroke-width="0.25" stroke-miterlimit="10" points="
		383.998,426.869 346.297,442.943 327.605,382.262 	"/>
	<polygon fill="#F04B23" fill-opacity="0.35" stroke="#F06623" stroke-width="0.25" stroke-miterlimit="10" points="
		420.793,389.848 384.493,426.826 327.605,381.721 	"/>
	<polygon fill="#F04B23" fill-opacity="0.5" stroke="#F06623" stroke-width="0.25" stroke-miterlimit="10" points="428.919,422.492 
		383.998,426.869 420.116,389.982 	"/>
	<polygon fill="#F04B23" fill-opacity="0.35" stroke="#F06623" stroke-width="0.25" stroke-miterlimit="10" points="
		481.924,394.092 429.462,422.221 420.116,389.982 	"/>
	<polygon fill="#F04B23" fill-opacity="0.35" stroke="#F06623" stroke-width="0.25" stroke-miterlimit="10" points="
		489.874,455.225 481.204,394.363 429.462,422.221 	"/>
	<polygon fill="#F04B23" fill-opacity="0.35" stroke="#F06623" stroke-width="0.25" stroke-miterlimit="10" points="
		511.181,397.252 490.074,453.035 481.924,394.092 	"/>
	<polygon fill="#F04B23" fill-opacity="0.5" stroke="#F06623" stroke-width="0.25" stroke-miterlimit="10" points="522.784,462.99 
		510.551,400.504 489.601,455.811 	"/>
	<polygon fill="#F04B23" fill-opacity="0.35" stroke="#F06623" stroke-width="0.25" stroke-miterlimit="10" points="
		530.776,399.328 522.74,458.385 510.595,397.434 	"/>
	<polygon fill="#F04B23" fill-opacity="0.3" stroke="#F06623" stroke-width="0.25" stroke-miterlimit="10" points="531.228,398.697 
		522.784,462.99 554.751,431.158 	"/>
	<polygon fill="#F04B23" fill-opacity="0.75" stroke="#F06623" stroke-width="0.25" stroke-miterlimit="10" points="
		579.087,386.773 531.228,398.697 505.403,316.348 	"/>
	<polygon fill="#F04B23" fill-opacity="0.75" stroke="#F06623" stroke-width="0.25" stroke-miterlimit="10" points="
		437.499,471.299 488.065,455.404 428.514,421.951 	"/>
	<polygon fill="#F04B23" fill-opacity="0.35" stroke="#F06623" stroke-width="0.25" stroke-miterlimit="10" points="
		383.998,426.869 436.506,471.656 428.514,421.951 	"/>
	<polygon fill="#F04B23" fill-opacity="0.35" stroke="#F06623" stroke-width="0.25" stroke-miterlimit="10" points="
		388.014,467.594 435.151,471.656 383.998,426.869 	"/>
	<polygon fill="#F04B23" fill-opacity="0.3" stroke="#F06623" stroke-width="0.25" stroke-miterlimit="10" points="346.297,442.943 
		388.014,467.594 383.998,426.869 	"/>
	<polygon fill="#F04B23" fill-opacity="0.35" stroke="#F06623" stroke-width="0.25" stroke-miterlimit="10" points="
		441.652,503.984 489.69,453.6 486.621,495.678 	"/>
	<polygon fill="#F04B23" fill-opacity="0.3" stroke="#F06623" stroke-width="0.25" stroke-miterlimit="10" points="436.506,471.656 
		441.652,503.984 488.065,455.404 	"/>
	<polygon fill="#F04B23" fill-opacity="0.75" stroke="#F06623" stroke-width="0.25" stroke-miterlimit="10" points="
		489.874,455.225 522.784,462.99 486.621,495.678 	"/>
	<polygon fill="#F04B23" fill-opacity="0.3" stroke="#F06623" stroke-width="0.25" stroke-miterlimit="10" points="388.014,467.594 
		441.652,503.984 436.506,471.656 	"/>
	<polygon fill="#F04B23" fill-opacity="0.75" stroke="#F06623" stroke-width="0.25" stroke-miterlimit="10" points="440.84,548.322 
		440.84,503.082 388.014,467.594 	"/>
	<polygon fill="#F04B23" fill-opacity="0.3" stroke="#F06623" stroke-width="0.25" stroke-miterlimit="10" points="396.548,504.844 
		440.84,549 388.286,468.271 	"/>
	<polygon fill="#F04B23" fill-opacity="0.75" stroke="#F06623" stroke-width="0.25" stroke-miterlimit="10" points="416.55,545.342 
		440.84,548.322 396.548,504.844 	"/>
</g>
</svg>
