<?xml version="1.0" encoding="utf-8"?>
<!-- Generator: Adobe Illustrator 16.0.0, SVG Export Plug-In . SVG Version: 6.00 Build 0)  -->
<!DOCTYPE svg PUBLIC "-//W3C//DTD SVG 1.1//EN" "http://www.w3.org/Graphics/SVG/1.1/DTD/svg11.dtd">
<svg version="1.1" id="Layer_1" xmlns="http://www.w3.org/2000/svg" xmlns:xlink="http://www.w3.org/1999/xlink" x="0px" y="0px"
	 width="614.496px" height="568.58px" viewBox="0 0 614.496 568.58" enable-background="new 0 0 614.496 568.58"
	 xml:space="preserve">
<g>
	<polygon fill="#F04B23" fill-opacity="0.1" stroke="#F06623" stroke-width="0.25" stroke-miterlimit="10" points="244.639,446.043 
		233.768,427.401 244.639,408.758 266.372,408.758 277.24,427.401 266.372,446.043 	"/>
	<polygon fill="#F04B23" fill-opacity="0.1" stroke="#F06623" stroke-width="0.25" stroke-miterlimit="10" points="295.926,270.98 
		152.82,473.461 260.151,343.614 	"/>
	<polygon fill="#F04B23" fill-opacity="0.3" stroke="#F06623" stroke-width="0.25" stroke-miterlimit="10" points="302.172,326.265 
		260.151,343.614 295.926,270.98 	"/>
	<polyline fill="#F04B23" fill-opacity="0.3" stroke="#F06623" stroke-width="0.25" stroke-miterlimit="10" points="
		274.955,393.275 260.151,343.614 302.172,326.265 275.418,393.275 	"/>
	<polygon fill="#F04B23" fill-opacity="0.1" stroke="#F06623" stroke-width="0.25" stroke-miterlimit="10" points="237.519,393.462 
		274.761,393.695 259.956,344.54 	"/>
	<polygon fill="#F04B23" fill-opacity="0.1" stroke="#F06623" stroke-width="0.25" stroke-miterlimit="10" points="236.709,394.273 
		152.82,473.461 260.151,343.614 	"/>
	<polygon fill="#F04B23" fill-opacity="0.3" stroke="#F06623" stroke-width="0.25" stroke-miterlimit="10" points="153.203,474.307 
		217.973,426.424 236.709,394.273 	"/>
	<polygon fill="#F04B23" fill-opacity="0.3" stroke="#F06623" stroke-width="0.25" stroke-miterlimit="10" points="153.898,474.655 
		236.246,459.502 217.973,426.424 	"/>
	<polygon fill="#F04B23" fill-opacity="0.75" stroke="#F06623" stroke-width="0.25" stroke-miterlimit="10" points="
		155.598,475.001 319.368,474.076 236.246,459.502 	"/>
	<polygon fill="#F04B23" fill-opacity="0.75" stroke="#F06623" stroke-width="0.25" stroke-miterlimit="10" points="
		276.651,459.894 319.368,474.076 236.865,459.735 	"/>
	<polygon fill="#F04B23" fill-opacity="0.75" stroke="#F06623" stroke-width="0.25" stroke-miterlimit="10" points="
		293.302,426.773 319.831,473.613 275.032,459.352 	"/>
	<polygon fill="#F04B23" fill-opacity="0.3" stroke="#F06623" stroke-width="0.25" stroke-miterlimit="10" points="293.996,427.564 
		301.611,327.039 320.136,473.076 	"/>
	<polygon fill="#F04B23" fill-opacity="0.3" stroke="#F06623" stroke-width="0.25" stroke-miterlimit="10" points="302.092,327.582 
		301.832,328.21 274.761,393.695 294.48,428.102 	"/>
	<polygon fill="#F04B23" fill-opacity="0.3" stroke="#F06623" stroke-width="0.25" stroke-miterlimit="10" points="263.542,505.535 
		319.831,473.925 153.898,475.464 	"/>
	<polygon fill="#F04B23" fill-opacity="0.75" stroke="#F06623" stroke-width="0.25" stroke-miterlimit="10" points="
		263.542,526.816 263.542,505.535 319.368,474.076 	"/>
	<polygon fill="#F04B23" fill-opacity="0.5" stroke="#F06623" stroke-width="0.25" stroke-miterlimit="10" points="263.542,505.535 
		263.542,526.816 154.975,476.544 	"/>
	<polygon fill="#F04B23" fill-opacity="0.3" stroke="#F06623" stroke-width="0.25" stroke-miterlimit="10" points="266.549,408.845 
		276.806,426.617 293.208,426.617 274.479,394.171 274.421,394.171 265.949,408.845 	"/>
	<polygon fill="#F04B23" fill-opacity="0.1" stroke="#F06623" stroke-width="0.25" stroke-miterlimit="10" points="244.769,408.845 
		245.311,408.845 236.865,394.171 236.84,394.171 218.109,426.617 234.512,426.617 	"/>
	<polygon fill="#F04B23" fill-opacity="0.1" stroke="#F06623" stroke-width="0.25" stroke-miterlimit="10" points="265.949,408.845 
		274.421,394.171 236.865,394.171 245.311,408.845 	"/>
	<polygon fill="#F04B23" fill-opacity="0.3" stroke="#F06623" stroke-width="0.25" stroke-miterlimit="10" points="233.883,427.705 
		234.512,426.617 218.109,426.617 218.016,426.773 236.811,459.323 244.469,446.05 	"/>
	<polygon fill="#F04B23" fill-opacity="0.5" stroke="#F06623" stroke-width="0.25" stroke-miterlimit="10" points="266.549,446.571 
		244.769,446.571 244.469,446.05 236.811,459.323 236.84,459.374 274.398,459.374 266.791,446.152 	"/>
	<polygon fill="#F04B23" fill-opacity="0.5" stroke="#F06623" stroke-width="0.25" stroke-miterlimit="10" points="293.302,426.773 
		293.208,426.617 276.806,426.617 277.435,427.705 266.791,446.152 274.398,459.374 274.479,459.374 	"/>
	<polygon fill="#FFFFFF" stroke="#F26522" stroke-width="0.25" stroke-miterlimit="10" points="248.362,439.784 241.299,427.552 
		248.362,415.322 262.486,415.322 269.553,427.552 262.486,439.784 	"/>
	<polygon fill="#F04B23" fill-opacity="0.75" stroke="#F06623" stroke-width="0.25" stroke-miterlimit="10" points="
		248.362,439.784 241.299,427.552 248.362,415.322 262.486,415.322 269.553,427.552 262.486,439.784 	"/>
	<polygon fill="#F04B23" fill-opacity="0.75" stroke="#F06623" stroke-width="0.25" stroke-miterlimit="10" points="
		302.172,326.265 317.207,380.625 319.368,474.076 	"/>
	<polygon fill="#F04B23" fill-opacity="0.1" stroke="#F06623" stroke-width="0.25" stroke-miterlimit="10" points="368.711,258.49 
		368.096,303.828 303.64,326.652 	"/>
	<polygon fill="#F04B23" fill-opacity="0.1" stroke="#F06623" stroke-width="0.25" stroke-miterlimit="10" points="502.875,305.064 
		368.096,303.828 368.711,258.49 	"/>
	<polygon fill="#F04B23" fill-opacity="0.1" stroke="#F06623" stroke-width="0.25" stroke-miterlimit="10" points="503.496,383.711 
		560.862,376.309 502.875,305.064 	"/>
	<polygon fill="#F04B23" fill-opacity="0.3" stroke="#F06623" stroke-width="0.25" stroke-miterlimit="10" points="368.096,303.828 
		503.496,383.711 502.875,305.064 	"/>
	<polygon fill="#F04B23" fill-opacity="0.3" stroke="#F06623" stroke-width="0.25" stroke-miterlimit="10" points="317.207,380.625 
		302.172,326.265 367.092,304.601 	"/>
	<polygon fill="#F04B23" fill-opacity="0.5" stroke="#F06623" stroke-width="0.25" stroke-miterlimit="10" points="368.715,435.215 
		368.096,303.828 457.847,457.421 	"/>
	<polygon fill="#F04B23" fill-opacity="0.35" stroke="#F06623" stroke-width="0.25" stroke-miterlimit="10" points="
		503.496,383.711 457.847,457.421 368.096,303.828 	"/>
	<polygon fill="#F04B23" fill-opacity="0.35" stroke="#F06623" stroke-width="0.25" stroke-miterlimit="10" points="
		368.715,435.215 317.207,380.625 367.555,304.833 	"/>
	<polygon fill="#F04B23" fill-opacity="0.5" stroke="#F06623" stroke-width="0.25" stroke-miterlimit="10" points="369.021,435.678 
		457.615,458.231 368.639,474.695 	"/>
	<polygon fill="#F04B23" fill-opacity="0.35" stroke="#F06623" stroke-width="0.25" stroke-miterlimit="10" points="317.901,381.55 
		368.096,473.383 368.328,435.678 	"/>
	<polygon fill="#F04B23" fill-opacity="0.35" stroke="#F06623" stroke-width="0.25" stroke-miterlimit="10" points="
		368.248,474.695 317.67,382.475 344.271,534.219 	"/>
	<polygon fill="#F04B23" fill-opacity="0.75" stroke="#F06623" stroke-width="0.25" stroke-miterlimit="10" points="
		368.096,536.763 345.428,571.46 344.271,534.219 	"/>
	<polygon fill="#F04B23" fill-opacity="0.5" stroke="#F06623" stroke-width="0.25" stroke-miterlimit="10" points="297.776,558.044 
		345.428,571.46 344.271,534.219 	"/>
	<polygon fill="#F04B23" fill-opacity="0.75" stroke="#F06623" stroke-width="0.25" stroke-miterlimit="10" points="
		286.211,571.923 345.428,571.46 297.776,558.044 	"/>
	<polygon fill="#F04B23" fill-opacity="0.35" stroke="#F06623" stroke-width="0.25" stroke-miterlimit="10" points="
		503.804,499.984 560.862,376.309 503.496,383.711 	"/>
	<polygon fill="#F04B23" fill-opacity="0.5" stroke="#F06623" stroke-width="0.25" stroke-miterlimit="10" points="467.1,494.201 
		503.07,499.984 457.847,457.421 466.637,494.201 	"/>
	<polygon fill="#F04B23" fill-opacity="0.5" stroke="#F06623" stroke-width="0.25" stroke-miterlimit="10" points="457.847,457.421 
		503.804,499.984 503.496,383.711 	"/>
	<polygon fill="#F04B23" fill-opacity="0.3" stroke="#F06623" stroke-width="0.25" stroke-miterlimit="10" points="584.92,475.312 
		503.804,499.984 561.166,377.542 	"/>
	<polygon fill="#F04B23" fill-opacity="0.5" stroke="#F06623" stroke-width="0.25" stroke-miterlimit="10" points="441.503,505.691 
		483.292,516.024 466.637,494.201 	"/>
	<polygon fill="#F04B23" fill-opacity="0.75" stroke="#F06623" stroke-width="0.25" stroke-miterlimit="10" points="
		503.533,500.793 483.292,516.024 466.637,494.201 	"/>
	<polygon fill="#F04B23" fill-opacity="0.5" stroke="#F06623" stroke-width="0.25" stroke-miterlimit="10" points="516.756,579.867 
		584.92,475.312 503.804,499.984 	"/>
	<polygon fill="#F04B23" fill-opacity="0.75" stroke="#F06623" stroke-width="0.25" stroke-miterlimit="10" points="
		519.533,629.217 516.756,579.867 584.92,475.312 	"/>
	<polyline fill="#F04B23" fill-opacity="0.5" stroke="#F06623" stroke-width="0.25" stroke-miterlimit="10" points="
		368.559,536.228 368.407,475.624 344.271,534.219 368.096,536.763 	"/>
	<polygon fill="#F04B23" fill-opacity="0.5" stroke="#F06623" stroke-width="0.25" stroke-miterlimit="10" points="411.121,500.447 
		393.541,593.284 375.651,594.823 	"/>
	<polygon fill="#F04B23" fill-opacity="0.3" stroke="#F06623" stroke-width="0.25" stroke-miterlimit="10" points="443.658,539.929 
		393.852,592.669 411.433,501.372 	"/>
	<polygon fill="#F04B23" fill-opacity="0.1" stroke="#F06623" stroke-width="0.25" stroke-miterlimit="10" points="483.292,527.048 
		444.373,539.885 411.121,500.447 	"/>
	<polygon fill="#F04B23" fill-opacity="0.3" stroke="#F06623" stroke-width="0.25" stroke-miterlimit="10" points="483.14,569.071 
		483.755,527.742 444.373,539.885 	"/>
	<polygon fill="#F04B23" fill-opacity="0.1" stroke="#F06623" stroke-width="0.25" stroke-miterlimit="10" points="506.539,575.624 
		483.177,569.494 483.755,527.742 	"/>
	<polygon fill="#F04B23" fill-opacity="0.1" stroke="#F06623" stroke-width="0.25" stroke-miterlimit="10" points="437.839,554.805 
		444.084,572.501 468.95,572.732 	"/>
	<polygon fill="#F04B23" fill-opacity="0.3" stroke="#F06623" stroke-width="0.25" stroke-miterlimit="10" points="409.502,583.258 
		437.26,554.69 444.084,572.501 	"/>
	<path fill="#FFFFFF" d="M254.217,420.874c0,1.41-1.143,2.545-2.544,2.545c-1.409,0-2.544-1.135-2.544-2.545
		c0-1.402,1.135-2.544,2.544-2.544C253.074,418.33,254.217,419.471,254.217,420.874z"/>
</g>
</svg>
