<?xml version="1.0" encoding="utf-8"?>
<!-- Generator: Adobe Illustrator 16.0.0, SVG Export Plug-In . SVG Version: 6.00 Build 0)  -->
<!DOCTYPE svg PUBLIC "-//W3C//DTD SVG 1.1//EN" "http://www.w3.org/Graphics/SVG/1.1/DTD/svg11.dtd">
<svg version="1.1" id="Layer_1" xmlns="http://www.w3.org/2000/svg" xmlns:xlink="http://www.w3.org/1999/xlink" x="0px" y="0px"
	 width="660.5px" height="479.977px" viewBox="0 0 660.5 479.977" enable-background="new 0 0 660.5 479.977" xml:space="preserve">
<g>
	<g>
		
			<circle fill="#F04B23" fill-opacity="0.1" stroke="#F06623" stroke-width="0.25" stroke-miterlimit="10" cx="365.613" cy="242.689" r="230.31"/>
		<path fill="#F04B23" fill-opacity="0.3" stroke="#F06623" stroke-width="0.25" stroke-miterlimit="10" d="M483.297,271.121
			c-0.733,0-1.463,0.027-2.191,0.055l2.477-37.695c30.871-11.73,52.818-41.575,52.818-76.56c0-45.228-36.666-81.892-81.893-81.892
			s-81.891,36.665-81.891,81.892c0,12.157,2.67,23.685,7.422,34.059l-10.329,5.332c-17.623-40.499-57.99-68.819-104.978-68.819
			c-63.201,0-114.44,51.236-114.44,114.44c0,63.204,51.239,114.439,114.44,114.439c38.418,0,72.413-18.931,93.168-47.974
			l69.218,22.556c1.823,29.448,26.271,52.771,56.179,52.771c31.095,0,56.301-25.206,56.301-56.303
			C539.598,296.329,514.392,271.121,483.297,271.121z M427.035,325.882l-66.32-21.613c11.672-17.935,18.459-39.343,18.459-62.336
			c0-14.512-2.708-28.389-7.634-41.163l10.618-5.484c13.756,25.89,40.988,43.526,72.35,43.526c8.408,0,16.518-1.271,24.153-3.625
			l-2.39,36.386C448.998,274.973,427.791,297.867,427.035,325.882z"/>
		<path fill="#F04B23" fill-opacity="0.5" stroke="#F06623" stroke-width="0.25" stroke-miterlimit="10" d="M355.582,226.098
			c-7.686,0-13.915,6.228-13.915,13.915c0,4.881,2.516,9.166,6.317,11.651l-6.707,18.951c-0.349-0.026-0.696-0.054-1.05-0.054
			c-2.239,0-4.346,0.543-6.22,1.481l-6.893-8.123c1.699-2.307,2.715-5.148,2.715-8.232c0-7.686-6.229-13.916-13.914-13.916
			S302,248.001,302,255.687c0,1.647,0.301,3.222,0.828,4.688l-47.158,31.93c-2.551-3.118-6.427-5.108-10.77-5.108
			c-7.686,0-13.915,6.229-13.915,13.915c0,7.685,6.229,13.915,13.915,13.915c4.382,0,8.287-2.029,10.836-5.197l9.534,5.06
			c-0.238,1.022-0.378,2.081-0.378,3.176c0,7.685,6.23,13.916,13.916,13.916s13.915-6.231,13.915-13.916
			c0-7.688-6.229-13.914-13.915-13.914c-4,0-7.594,1.694-10.133,4.397l-10.036-5.329c0.104-0.688,0.176-1.389,0.176-2.107
			c0-0.724-0.071-1.427-0.179-2.119l48.286-32.697c2.427,2.059,5.563,3.305,8.993,3.305c1.986,0,3.873-0.423,5.583-1.173
			l7.118,8.386c-1.453,2.199-2.305,4.829-2.305,7.663c0,7.685,6.23,13.915,13.915,13.915c7.687,0,13.915-6.23,13.915-13.915
			c0-4.773-2.405-8.984-6.068-11.491l6.758-19.096c0.252,0.014,0.497,0.038,0.75,0.038c7.687,0,13.915-6.23,13.915-13.917
			C369.497,232.326,363.269,226.098,355.582,226.098z"/>
		<path fill="#F04B23" fill-opacity="0.5" stroke="#F06623" stroke-width="0.25" stroke-miterlimit="10" d="M335.51,171.316
			c-2.399,0-4.658,0.607-6.629,1.677l-7.762-7.767c1.068-1.971,1.676-4.228,1.676-6.627c0-7.686-6.229-13.915-13.915-13.915
			c-4.693,0-8.835,2.331-11.355,5.889l-12.409-3.026c-0.138-7.567-6.303-13.66-13.902-13.66c-7.687,0-13.915,6.23-13.915,13.914
			c0,7.686,6.229,13.916,13.915,13.916c5.242,0,9.803-2.901,12.175-7.182l11.638,2.836c-0.035,0.405-0.062,0.813-0.062,1.226
			c0,6.579,4.572,12.08,10.708,13.529l0.764,27.93c-4.087,2.424-6.834,6.866-6.834,11.964c0,0.874,0.09,1.729,0.245,2.559
			l-49.615,23.604c-2.468-2.238-5.734-3.613-9.329-3.613c-1.859,0-3.631,0.373-5.253,1.033l-31.186-38.094
			c1.294-2.111,2.052-4.585,2.052-7.243c0-7.684-6.23-13.914-13.916-13.914s-13.915,6.23-13.915,13.914
			c0,3.56,1.348,6.796,3.547,9.258l-4.618,7.137c-1.236-0.357-2.537-0.559-3.889-0.559c-7.686,0-13.914,6.23-13.914,13.915
			c0,6.416,4.349,11.803,10.252,13.412l-0.623,14.097c-5.418,1.902-9.311,7.048-9.311,13.119c0,7.685,6.231,13.914,13.917,13.914
			s13.915-6.229,13.915-13.914c0-6.79-4.861-12.433-11.292-13.662l0.598-13.523c5.967-1.567,10.374-6.983,10.374-13.442
			c0-3.734-1.479-7.118-3.873-9.616l4.478-6.923c1.371,0.451,2.832,0.704,4.354,0.704c2.406,0,4.67-0.611,6.645-1.686l30.672,37.47
			c-1.829,2.356-2.929,5.309-2.929,8.522c0,3.132,1.049,6.014,2.794,8.339l-27.59,35.468c-1.67-0.709-3.506-1.102-5.434-1.102
			c-7.686,0-13.916,6.229-13.916,13.915c0,7.685,6.23,13.915,13.916,13.915s13.914-6.23,13.914-13.915
			c0-3.146-1.055-6.04-2.816-8.371l27.58-35.453c1.68,0.718,3.525,1.118,5.467,1.118c7.684,0,13.915-6.228,13.915-13.915
			c0-1.466-0.229-2.877-0.649-4.205l48.792-23.212c2.552,2.975,6.331,4.865,10.558,4.865c7.686,0,13.915-6.23,13.915-13.915
			c0-7.665-6.194-13.878-13.851-13.912l-0.715-26.181c1.171-0.352,2.271-0.857,3.29-1.485l7.508,7.51
			c-1.303,2.12-2.069,4.605-2.069,7.276c0,7.685,6.229,13.915,13.914,13.915c7.686,0,13.917-6.23,13.917-13.915
			C349.427,177.544,343.195,171.316,335.51,171.316z"/>
		<path fill="#F04B23" fill-opacity="0.5" stroke="#F06623" stroke-width="0.25" stroke-miterlimit="10" d="M530.083,162.439
			c0-7.686-6.229-13.917-13.915-13.917c-0.953,0-1.883,0.099-2.783,0.281l-6.34-12.811c2.938-2.552,4.806-6.306,4.806-10.501
			c0-7.686-6.231-13.917-13.917-13.917s-13.914,6.231-13.914,13.917c0,3.271,1.135,6.272,3.025,8.648l-8.889,12.159
			c-0.517-0.166-1.049-0.295-1.589-0.399l-3.382-33.825c5.211-2.01,8.914-7.053,8.914-12.974c0-7.684-6.229-13.915-13.916-13.915
			c-7.685,0-13.916,6.231-13.916,13.915c0,2.697,0.781,5.207,2.109,7.339l-18.885,20.085c-1.227-0.354-2.518-0.554-3.855-0.554
			c-3.803,0-7.246,1.529-9.758,4l-8.484-2.227c-0.078-7.616-6.271-13.77-13.906-13.77c-7.687,0-13.917,6.231-13.917,13.916
			c0,6.928,5.069,12.655,11.696,13.721l0.922,9.044c-4.368,2.347-7.339,6.957-7.339,12.262c0,7.686,6.229,13.917,13.914,13.917
			c7.686,0,13.917-6.23,13.917-13.917c0-7.518-5.968-13.628-13.424-13.889l-0.83-8.143c3.053-1.161,5.591-3.356,7.178-6.171
			l6.564,1.724c-0.283,1.105-0.449,2.256-0.449,3.448c0,7.686,6.229,13.915,13.916,13.915c7.686,0,13.915-6.229,13.915-13.915
			c0-3.69-1.447-7.036-3.79-9.527l17.86-18.989c1.348,0.722,2.834,1.215,4.403,1.461l3.361,33.59
			c-5.443,1.888-9.359,7.049-9.359,13.137c0,7.686,6.229,13.916,13.915,13.916s13.915-6.23,13.915-13.916
			c0-3.609-1.387-6.887-3.641-9.358l8.609-11.775c1.583,0.625,3.303,0.981,5.107,0.981c0.904,0,1.787-0.094,2.643-0.258
			l6.378,12.881c-2.878,2.549-4.701,6.263-4.701,10.409c0,5.331,3.001,9.958,7.402,12.293l-1.067,4.257
			c-0.812-0.147-1.643-0.236-2.496-0.236c-7.687,0-13.916,6.23-13.916,13.915c0,7.686,6.229,13.917,13.916,13.917
			c7.686,0,13.915-6.231,13.915-13.917c0-4.194-1.864-7.945-4.802-10.498l1.47-5.84C524.122,176.06,530.083,169.953,530.083,162.439
			z"/>
	</g>
	<g opacity="0.8">
		<path fill="#EF4A23" d="M535.454,72V53.909h3.837V72H535.454z"/>
		<path fill="#EF4A23" d="M556.267,72h-3.774v-8.081c0-0.998-0.177-1.747-0.532-2.246c-0.354-0.499-0.92-0.749-1.694-0.749
			c-1.057,0-1.819,0.353-2.29,1.058c-0.47,0.706-0.705,1.875-0.705,3.508V72h-3.774V58.166h2.884l0.507,1.77h0.211
			c0.421-0.668,1-1.173,1.738-1.516s1.578-0.514,2.519-0.514c1.608,0,2.829,0.435,3.662,1.306c0.833,0.87,1.25,2.126,1.25,3.768V72z
			"/>
		<path fill="#EF4A23" d="M564.482,72.248c-1.625,0-2.901-0.631-3.83-1.894c-0.928-1.262-1.392-3.011-1.392-5.247
			c0-2.269,0.472-4.036,1.417-5.302c0.944-1.266,2.245-1.899,3.903-1.899c1.741,0,3.069,0.677,3.984,2.029h0.124
			c-0.189-1.031-0.284-1.951-0.284-2.759v-4.43h3.786V72h-2.896l-0.73-1.794h-0.16C567.547,71.567,566.239,72.248,564.482,72.248z
			 M565.807,69.241c0.965,0,1.672-0.281,2.122-0.842c0.449-0.561,0.694-1.514,0.736-2.858v-0.408c0-1.485-0.229-2.549-0.687-3.192
			c-0.458-0.644-1.203-0.965-2.234-0.965c-0.841,0-1.495,0.357-1.961,1.07c-0.466,0.714-0.699,1.751-0.699,3.112
			c0,1.361,0.235,2.382,0.705,3.063C564.26,68.9,564.932,69.241,565.807,69.241z"/>
		<path fill="#EF4A23" d="M575.928,54.589c0-1.229,0.685-1.844,2.054-1.844s2.055,0.615,2.055,1.844
			c0,0.586-0.172,1.042-0.514,1.368c-0.343,0.326-0.856,0.489-1.541,0.489C576.612,56.446,575.928,55.827,575.928,54.589z
			 M579.862,72h-3.774V58.166h3.774V72z"/>
		<path fill="#EF4A23" d="M587.063,72l-5.271-13.834h3.947l2.673,7.882c0.297,0.999,0.482,1.943,0.557,2.834h0.074
			c0.041-0.792,0.228-1.737,0.558-2.834l2.66-7.882h3.947L590.936,72H587.063z"/>
		<path fill="#EF4A23" d="M597.976,54.589c0-1.229,0.685-1.844,2.054-1.844s2.055,0.615,2.055,1.844
			c0,0.586-0.172,1.042-0.514,1.368c-0.343,0.326-0.856,0.489-1.541,0.489C598.66,56.446,597.976,55.827,597.976,54.589z M601.91,72
			h-3.774V58.166h3.774V72z"/>
		<path fill="#EF4A23" d="M610.2,72.248c-1.625,0-2.901-0.631-3.83-1.894c-0.928-1.262-1.392-3.011-1.392-5.247
			c0-2.269,0.472-4.036,1.417-5.302c0.944-1.266,2.245-1.899,3.903-1.899c1.741,0,3.069,0.677,3.984,2.029h0.124
			c-0.189-1.031-0.284-1.951-0.284-2.759v-4.43h3.786V72h-2.896l-0.73-1.794h-0.16C613.265,71.567,611.957,72.248,610.2,72.248z
			 M611.524,69.241c0.965,0,1.672-0.281,2.122-0.842c0.449-0.561,0.694-1.514,0.736-2.858v-0.408c0-1.485-0.229-2.549-0.687-3.192
			c-0.458-0.644-1.203-0.965-2.234-0.965c-0.841,0-1.495,0.357-1.961,1.07c-0.466,0.714-0.699,1.751-0.699,3.112
			c0,1.361,0.235,2.382,0.705,3.063C609.978,68.9,610.649,69.241,611.524,69.241z"/>
		<path fill="#EF4A23" d="M631.606,72l-0.508-1.77h-0.197c-0.404,0.644-0.978,1.141-1.721,1.491
			c-0.742,0.351-1.588,0.526-2.536,0.526c-1.625,0-2.851-0.435-3.676-1.306c-0.824-0.87-1.237-2.122-1.237-3.755v-9.021h3.774v8.081
			c0,0.998,0.178,1.747,0.532,2.246c0.354,0.5,0.92,0.749,1.695,0.749c1.056,0,1.819-0.353,2.289-1.058
			c0.471-0.706,0.705-1.875,0.705-3.508v-6.509h3.774V72H631.606z"/>
		<path fill="#EF4A23" d="M647.196,72l-0.73-1.881h-0.099c-0.636,0.8-1.289,1.355-1.961,1.665c-0.673,0.309-1.549,0.464-2.63,0.464
			c-1.328,0-2.374-0.379-3.137-1.139c-0.764-0.759-1.145-1.839-1.145-3.242c0-1.468,0.514-2.551,1.54-3.249
			c1.027-0.697,2.576-1.083,4.646-1.157l2.401-0.074v-0.606c0-1.402-0.718-2.104-2.153-2.104c-1.105,0-2.405,0.334-3.898,1.002
			l-1.249-2.549c1.592-0.833,3.357-1.25,5.296-1.25c1.855,0,3.279,0.404,4.269,1.213c0.99,0.809,1.485,2.038,1.485,3.688V72H647.196
			z M646.083,65.59l-1.461,0.049c-1.097,0.033-1.914,0.231-2.45,0.594c-0.536,0.363-0.804,0.916-0.804,1.658
			c0,1.064,0.61,1.596,1.831,1.596c0.874,0,1.573-0.251,2.098-0.754c0.523-0.503,0.786-1.171,0.786-2.005V65.59z"/>
		<path fill="#EF4A23" d="M657.441,72h-3.774V52.746h3.774V72z"/>
	</g>
	<polyline opacity="0.8" fill="none" stroke="#EF4A23" stroke-miterlimit="10" points="651.115,76.149 535.955,76.149 
		507.226,116.395 	"/>
	<g opacity="0.8">
		<g>
			<path fill="#EF4A23" d="M569.826,423.003h-3.836v-14.898h-4.912v-3.192h13.661v3.192h-4.913V423.003z"/>
			<path fill="#EF4A23" d="M583.437,423.25c-2.228,0-3.968-0.614-5.222-1.844c-1.254-1.229-1.881-2.97-1.881-5.222
				c0-2.317,0.579-4.11,1.738-5.376c1.159-1.267,2.762-1.899,4.808-1.899c1.955,0,3.477,0.557,4.565,1.67
				c1.09,1.114,1.634,2.652,1.634,4.615v1.832h-8.922c0.041,1.072,0.359,1.91,0.953,2.512c0.594,0.603,1.427,0.903,2.499,0.903
				c0.834,0,1.621-0.087,2.364-0.26c0.742-0.173,1.518-0.449,2.326-0.829v2.92c-0.66,0.33-1.365,0.576-2.116,0.736
				C585.433,423.17,584.518,423.25,583.437,423.25z M582.904,411.594c-0.8,0-1.427,0.254-1.881,0.761
				c-0.454,0.508-0.714,1.228-0.779,2.16h5.296c-0.017-0.933-0.26-1.652-0.729-2.16C584.34,411.848,583.704,411.594,582.904,411.594
				z"/>
			<path fill="#EF4A23" d="M600.883,423.003l-0.73-1.881h-0.099c-0.636,0.8-1.289,1.354-1.961,1.664
				c-0.673,0.31-1.549,0.464-2.63,0.464c-1.328,0-2.374-0.379-3.137-1.138c-0.764-0.759-1.145-1.84-1.145-3.242
				c0-1.469,0.514-2.551,1.54-3.248c1.027-0.697,2.576-1.083,4.646-1.157l2.401-0.074v-0.606c0-1.402-0.718-2.104-2.153-2.104
				c-1.105,0-2.405,0.334-3.898,1.002l-1.249-2.549c1.592-0.833,3.357-1.25,5.296-1.25c1.855,0,3.279,0.404,4.269,1.213
				c0.99,0.809,1.485,2.038,1.485,3.688v9.219H600.883z M599.77,416.593l-1.461,0.05c-1.097,0.033-1.914,0.231-2.45,0.594
				c-0.536,0.363-0.804,0.916-0.804,1.658c0,1.064,0.61,1.597,1.831,1.597c0.874,0,1.573-0.252,2.098-0.755
				c0.523-0.503,0.786-1.172,0.786-2.005V416.593z"/>
			<path fill="#EF4A23" d="M619.74,423.003h-3.773v-8.08c0-0.998-0.168-1.747-0.502-2.246s-0.859-0.749-1.577-0.749
				c-0.966,0-1.667,0.355-2.104,1.064c-0.438,0.71-0.656,1.877-0.656,3.502v6.509h-3.774v-13.834h2.884l0.507,1.77h0.211
				c0.371-0.636,0.907-1.133,1.608-1.491c0.701-0.359,1.505-0.538,2.413-0.538c2.07,0,3.473,0.676,4.207,2.029h0.334
				c0.371-0.644,0.918-1.143,1.64-1.498c0.722-0.354,1.536-0.531,2.444-0.531c1.567,0,2.753,0.401,3.558,1.206
				c0.804,0.805,1.206,2.094,1.206,3.867v9.021h-3.786v-8.08c0-0.998-0.167-1.747-0.501-2.246c-0.335-0.499-0.86-0.749-1.578-0.749
				c-0.924,0-1.615,0.33-2.072,0.99c-0.458,0.66-0.688,1.708-0.688,3.143V423.003z"/>
		</g>
	</g>
	<polyline opacity="0.8" fill="none" stroke="#EF4A23" stroke-miterlimit="10" points="622.967,425.791 560.588,425.791 
		517.241,373.168 	"/>
	<g opacity="0.8">
		<g>
			<path fill="#EF4A23" d="M23.987,414.084c0,2.994-0.742,5.296-2.228,6.905c-1.484,1.608-3.613,2.412-6.385,2.412
				s-4.9-0.804-6.385-2.412c-1.485-1.609-2.228-3.919-2.228-6.93c0-3.012,0.744-5.311,2.233-6.899
				c1.489-1.588,3.624-2.382,6.403-2.382c2.78,0,4.906,0.801,6.379,2.4C23.251,408.779,23.987,411.081,23.987,414.084z
				 M10.784,414.084c0,2.021,0.384,3.543,1.15,4.566c0.768,1.022,1.914,1.534,3.44,1.534c3.061,0,4.591-2.033,4.591-6.101
				c0-4.075-1.522-6.113-4.566-6.113c-1.526,0-2.677,0.514-3.452,1.541S10.784,412.063,10.784,414.084z"/>
			<path fill="#EF4A23" d="M35.11,409.061c0.512,0,0.937,0.037,1.274,0.111l-0.284,3.539c-0.306-0.083-0.677-0.124-1.113-0.124
				c-1.205,0-2.144,0.31-2.815,0.928c-0.673,0.619-1.009,1.485-1.009,2.599v7.041h-3.774V409.32h2.858l0.558,2.326h0.186
				c0.429-0.775,1.008-1.4,1.738-1.875S34.253,409.061,35.11,409.061z"/>
			<path fill="#EF4A23" d="M50.887,409.32v1.918l-2.165,0.557c0.396,0.618,0.594,1.312,0.594,2.079c0,1.484-0.518,2.642-1.553,3.471
				s-2.473,1.243-4.313,1.243l-0.681-0.037l-0.557-0.062c-0.388,0.297-0.582,0.627-0.582,0.99c0,0.544,0.693,0.816,2.079,0.816
				h2.352c1.518,0,2.675,0.326,3.471,0.978s1.194,1.608,1.194,2.871c0,1.616-0.675,2.87-2.023,3.762
				c-1.349,0.891-3.285,1.336-5.81,1.336c-1.931,0-3.405-0.336-4.424-1.008c-1.019-0.673-1.528-1.615-1.528-2.828
				c0-0.833,0.26-1.53,0.779-2.091c0.521-0.562,1.283-0.961,2.289-1.2c-0.388-0.165-0.726-0.436-1.015-0.811
				c-0.288-0.376-0.433-0.773-0.433-1.194c0-0.528,0.152-0.967,0.458-1.318c0.305-0.351,0.746-0.694,1.324-1.033
				c-0.727-0.313-1.302-0.816-1.727-1.51c-0.425-0.692-0.638-1.509-0.638-2.449c0-1.51,0.491-2.678,1.473-3.502
				c0.981-0.825,2.384-1.237,4.207-1.237c0.388,0,0.848,0.035,1.38,0.104c0.532,0.07,0.873,0.122,1.021,0.155H50.887z
				 M40.208,425.109c0,0.52,0.25,0.928,0.749,1.225c0.499,0.298,1.198,0.446,2.098,0.446c1.353,0,2.412-0.186,3.18-0.558
				c0.768-0.371,1.151-0.878,1.151-1.521c0-0.52-0.228-0.879-0.681-1.076c-0.454-0.198-1.155-0.298-2.104-0.298h-1.955
				c-0.692,0-1.272,0.163-1.738,0.489S40.208,424.573,40.208,425.109z M41.582,413.849c0,0.751,0.171,1.345,0.514,1.782
				c0.342,0.438,0.863,0.655,1.564,0.655c0.71,0,1.229-0.218,1.56-0.655s0.495-1.031,0.495-1.782c0-1.666-0.685-2.499-2.055-2.499
				C42.274,411.35,41.582,412.183,41.582,413.849z"/>
			<path fill="#EF4A23" d="M61.898,423.154l-0.73-1.881h-0.099c-0.636,0.8-1.289,1.354-1.961,1.664
				c-0.673,0.31-1.549,0.464-2.63,0.464c-1.328,0-2.374-0.379-3.137-1.138c-0.764-0.759-1.145-1.84-1.145-3.242
				c0-1.469,0.514-2.551,1.54-3.248c1.027-0.697,2.576-1.083,4.646-1.157l2.401-0.074v-0.606c0-1.402-0.718-2.104-2.153-2.104
				c-1.105,0-2.405,0.334-3.898,1.002l-1.249-2.549c1.592-0.833,3.357-1.25,5.296-1.25c1.855,0,3.279,0.404,4.269,1.213
				c0.99,0.809,1.485,2.038,1.485,3.688v9.219H61.898z M60.785,416.744l-1.461,0.05c-1.097,0.033-1.914,0.231-2.45,0.594
				c-0.536,0.363-0.804,0.916-0.804,1.658c0,1.064,0.61,1.597,1.831,1.597c0.874,0,1.573-0.252,2.098-0.755
				c0.523-0.503,0.786-1.172,0.786-2.005V416.744z"/>
			<path fill="#EF4A23" d="M81.14,423.154h-3.774v-8.08c0-0.998-0.177-1.747-0.532-2.246c-0.354-0.499-0.92-0.749-1.694-0.749
				c-1.057,0-1.819,0.353-2.29,1.059c-0.47,0.705-0.705,1.874-0.705,3.508v6.509h-3.774V409.32h2.884l0.507,1.77h0.211
				c0.421-0.669,1-1.174,1.738-1.517c0.738-0.342,1.578-0.513,2.519-0.513c1.608,0,2.829,0.435,3.662,1.305
				c0.833,0.871,1.25,2.127,1.25,3.769V423.154z"/>
			<path fill="#EF4A23" d="M84.813,405.744c0-1.229,0.685-1.844,2.054-1.844s2.055,0.614,2.055,1.844
				c0,0.586-0.172,1.041-0.514,1.367c-0.343,0.326-0.856,0.488-1.541,0.488C85.498,407.6,84.813,406.981,84.813,405.744z
				 M88.748,423.154h-3.774V409.32h3.774V423.154z"/>
			<path fill="#EF4A23" d="M102.31,419.046c0,1.419-0.493,2.5-1.479,3.242c-0.986,0.742-2.461,1.113-4.424,1.113
				c-1.007,0-1.864-0.067-2.574-0.204c-0.709-0.136-1.373-0.336-1.992-0.6v-3.118c0.701,0.33,1.491,0.606,2.37,0.829
				c0.878,0.223,1.651,0.334,2.319,0.334c1.37,0,2.055-0.396,2.055-1.188c0-0.297-0.091-0.538-0.272-0.724s-0.495-0.396-0.94-0.631
				s-1.039-0.51-1.782-0.823c-1.063-0.445-1.846-0.857-2.345-1.237c-0.499-0.379-0.862-0.814-1.089-1.306
				c-0.227-0.49-0.34-1.095-0.34-1.813c0-1.229,0.477-2.18,1.429-2.853c0.953-0.672,2.304-1.008,4.053-1.008
				c1.666,0,3.287,0.362,4.863,1.089l-1.139,2.722c-0.692-0.297-1.341-0.54-1.942-0.729c-0.603-0.19-1.217-0.285-1.844-0.285
				c-1.114,0-1.671,0.302-1.671,0.903c0,0.339,0.18,0.631,0.538,0.879c0.359,0.247,1.145,0.614,2.357,1.102
				c1.081,0.437,1.873,0.846,2.376,1.225c0.503,0.38,0.874,0.816,1.113,1.312S102.31,418.361,102.31,419.046z"/>
			<path fill="#EF4A23" d="M113.989,423.154l-0.73-1.881h-0.099c-0.636,0.8-1.289,1.354-1.961,1.664
				c-0.673,0.31-1.549,0.464-2.63,0.464c-1.328,0-2.374-0.379-3.137-1.138c-0.764-0.759-1.145-1.84-1.145-3.242
				c0-1.469,0.514-2.551,1.54-3.248c1.027-0.697,2.576-1.083,4.646-1.157l2.401-0.074v-0.606c0-1.402-0.718-2.104-2.153-2.104
				c-1.105,0-2.405,0.334-3.898,1.002l-1.249-2.549c1.592-0.833,3.357-1.25,5.296-1.25c1.855,0,3.279,0.404,4.269,1.213
				c0.99,0.809,1.485,2.038,1.485,3.688v9.219H113.989z M112.876,416.744l-1.461,0.05c-1.097,0.033-1.914,0.231-2.45,0.594
				c-0.536,0.363-0.804,0.916-0.804,1.658c0,1.064,0.61,1.597,1.831,1.597c0.874,0,1.573-0.252,2.098-0.755
				c0.523-0.503,0.786-1.172,0.786-2.005V416.744z"/>
			<path fill="#EF4A23" d="M126.288,420.395c0.659,0,1.451-0.144,2.375-0.433v2.809c-0.94,0.421-2.095,0.631-3.465,0.631
				c-1.509,0-2.608-0.381-3.297-1.145c-0.689-0.763-1.033-1.907-1.033-3.434v-6.67h-1.807v-1.596l2.078-1.263l1.089-2.92h2.413
				v2.945h3.873v2.833h-3.873v6.67c0,0.536,0.15,0.933,0.452,1.188C125.395,420.267,125.793,420.395,126.288,420.395z"/>
			<path fill="#EF4A23" d="M131.249,405.744c0-1.229,0.685-1.844,2.054-1.844s2.055,0.614,2.055,1.844
				c0,0.586-0.172,1.041-0.514,1.367c-0.343,0.326-0.856,0.488-1.541,0.488C131.934,407.6,131.249,406.981,131.249,405.744z
				 M135.184,423.154h-3.774V409.32h3.774V423.154z"/>
			<path fill="#EF4A23" d="M151.665,416.212c0,2.253-0.594,4.014-1.781,5.284c-1.188,1.271-2.843,1.905-4.962,1.905
				c-1.329,0-2.5-0.29-3.515-0.872c-1.015-0.581-1.794-1.417-2.339-2.506c-0.544-1.089-0.816-2.359-0.816-3.812
				c0-2.26,0.59-4.017,1.77-5.271s2.838-1.881,4.975-1.881c1.328,0,2.499,0.288,3.514,0.865c1.015,0.578,1.794,1.407,2.339,2.487
				C151.394,413.494,151.665,414.761,151.665,416.212z M142.1,416.212c0,1.37,0.226,2.405,0.675,3.106s1.182,1.052,2.196,1.052
				c1.007,0,1.73-0.349,2.172-1.046c0.441-0.696,0.662-1.734,0.662-3.112c0-1.369-0.223-2.396-0.668-3.081
				c-0.445-0.685-1.176-1.026-2.19-1.026c-1.007,0-1.732,0.34-2.178,1.021S142.1,414.835,142.1,416.212z"/>
			<path fill="#EF4A23" d="M167.503,423.154h-3.774v-8.08c0-0.998-0.177-1.747-0.532-2.246c-0.354-0.499-0.92-0.749-1.694-0.749
				c-1.057,0-1.819,0.353-2.29,1.059c-0.47,0.705-0.705,1.874-0.705,3.508v6.509h-3.774V409.32h2.884l0.507,1.77h0.211
				c0.421-0.669,1-1.174,1.738-1.517c0.738-0.342,1.578-0.513,2.519-0.513c1.608,0,2.829,0.435,3.662,1.305
				c0.833,0.871,1.25,2.127,1.25,3.769V423.154z"/>
		</g>
	</g>
	<polyline opacity="0.8" fill="none" stroke="#EF4A23" stroke-miterlimit="10" points="17.254,427.709 170.801,427.709 195.512,398 
			"/>
	<path opacity="0.5" fill="#F04B23" d="M195.436,198.8c-5.666,0-10.257-4.995-10.257-11.156c0-2.961,1.066-5.643,2.796-7.641
		c-3.557,1.75-6.035,5.636-6.035,10.16c0,6.162,4.591,11.157,10.256,11.157c2.944,0,5.59-1.355,7.461-3.516
		C198.367,198.438,196.941,198.8,195.436,198.8z"/>
	<path opacity="0.5" fill="#F04B23" d="M404.348,136.359c-5.665,0-10.256-4.995-10.256-11.156c0-2.961,1.066-5.644,2.796-7.641
		c-3.558,1.75-6.035,5.636-6.035,10.16c0,6.162,4.592,11.156,10.257,11.156c2.943,0,5.59-1.355,7.46-3.516
		C407.281,135.997,405.855,136.359,404.348,136.359z"/>
	<path opacity="0.5" fill="#F04B23" d="M409.836,171.088c-5.665,0-10.256-4.994-10.256-11.156c0-2.961,1.066-5.644,2.797-7.641
		c-3.558,1.75-6.037,5.636-6.037,10.16c0,6.162,4.592,11.156,10.257,11.156c2.944,0,5.591-1.355,7.462-3.516
		C412.769,170.726,411.343,171.088,409.836,171.088z"/>
	<path opacity="0.5" fill="#F04B23" d="M436.647,148.596c-5.665,0-10.257-4.994-10.257-11.156c0-2.961,1.067-5.643,2.796-7.641
		c-3.556,1.75-6.034,5.636-6.034,10.16c0,6.162,4.592,11.157,10.257,11.157c2.943,0,5.589-1.355,7.46-3.516
		C439.581,148.233,438.155,148.596,436.647,148.596z"/>
	<path opacity="0.5" fill="#F04B23" d="M471.017,107.389c-5.665,0-10.257-4.994-10.257-11.156c0-2.961,1.068-5.644,2.797-7.641
		c-3.558,1.75-6.035,5.636-6.035,10.16c0,6.162,4.591,11.156,10.257,11.156c2.943,0,5.589-1.354,7.461-3.515
		C473.95,107.026,472.523,107.389,471.017,107.389z"/>
	<path opacity="0.5" fill="#F04B23" d="M476.955,167.49c-5.665,0-10.257-4.995-10.257-11.157c0-2.96,1.067-5.643,2.796-7.641
		c-3.557,1.751-6.035,5.637-6.035,10.16c0,6.162,4.592,11.156,10.257,11.156c2.944,0,5.59-1.354,7.461-3.516
		C479.888,167.127,478.462,167.49,476.955,167.49z"/>
	<path opacity="0.5" fill="#F04B23" d="M500.708,134.201c-5.665,0-10.257-4.995-10.257-11.157c0-2.96,1.066-5.643,2.796-7.641
		c-3.556,1.75-6.035,5.636-6.035,10.16c0,6.162,4.591,11.157,10.257,11.157c2.943,0,5.589-1.355,7.46-3.516
		C503.641,133.838,502.215,134.201,500.708,134.201z"/>
	<path opacity="0.5" fill="#F04B23" d="M519.602,171.088c-5.665,0-10.256-4.994-10.256-11.156c0-2.961,1.066-5.644,2.795-7.641
		c-3.557,1.75-6.035,5.636-6.035,10.16c0,6.162,4.592,11.156,10.257,11.156c2.944,0,5.591-1.355,7.461-3.516
		C522.534,170.726,521.108,171.088,519.602,171.088z"/>
	<path opacity="0.5" fill="#F04B23" d="M509.346,201.139c-5.666,0-10.258-4.995-10.258-11.157c0-2.96,1.067-5.643,2.796-7.641
		c-3.556,1.751-6.035,5.636-6.035,10.16c0,6.162,4.592,11.156,10.257,11.156c2.944,0,5.59-1.355,7.461-3.516
		C512.277,200.776,510.852,201.139,509.346,201.139z"/>
	<path opacity="0.5" fill="#F04B23" d="M176.242,228.791c-5.666,0-10.257-4.996-10.257-11.156c0-2.961,1.066-5.645,2.796-7.643
		c-3.557,1.752-6.035,5.638-6.035,10.162c0,6.16,4.591,11.156,10.256,11.156c2.944,0,5.59-1.356,7.461-3.517
		C179.174,228.428,177.748,228.791,176.242,228.791z"/>
	<path opacity="0.5" fill="#F04B23" d="M176.48,269.337c-5.666,0-10.257-4.995-10.257-11.157c0-2.96,1.066-5.643,2.796-7.641
		c-3.557,1.751-6.034,5.636-6.034,10.16c0,6.162,4.591,11.156,10.257,11.156c2.942,0,5.589-1.355,7.459-3.516
		C179.412,268.975,177.988,269.337,176.48,269.337z"/>
	<path opacity="0.5" fill="#F04B23" d="M243.419,257.583c-5.665,0-10.257-4.997-10.257-11.157c0-2.961,1.066-5.645,2.796-7.642
		c-3.557,1.751-6.034,5.637-6.034,10.161c0,6.16,4.591,11.157,10.257,11.157c2.942,0,5.589-1.357,7.46-3.518
		C246.352,257.22,244.926,257.583,243.419,257.583z"/>
	<path opacity="0.5" fill="#F04B23" d="M199.513,313.484c-5.665,0-10.257-4.995-10.257-11.157c0-2.96,1.066-5.645,2.797-7.641
		c-3.558,1.751-6.035,5.637-6.035,10.159c0,6.163,4.592,11.157,10.257,11.157c2.942,0,5.589-1.356,7.46-3.516
		C202.446,313.123,201.021,313.484,199.513,313.484z"/>
	<path opacity="0.5" fill="#F04B23" d="M247.979,309.645c-5.666,0-10.257-4.994-10.257-11.156c0-2.96,1.066-5.643,2.796-7.641
		c-3.557,1.75-6.035,5.636-6.035,10.159c0,6.162,4.591,11.157,10.256,11.157c2.944,0,5.591-1.357,7.462-3.516
		C250.91,309.284,249.484,309.645,247.979,309.645z"/>
	<path opacity="0.5" fill="#F04B23" d="M282.047,326.681c-5.664,0-10.256-4.995-10.256-11.157c0-2.96,1.066-5.643,2.797-7.641
		c-3.557,1.751-6.035,5.636-6.035,10.16c0,6.162,4.591,11.156,10.256,11.156c2.944,0,5.59-1.356,7.46-3.516
		C284.98,326.319,283.555,326.681,282.047,326.681z"/>
	<path opacity="0.5" fill="#F04B23" d="M318.517,264.42c-5.665,0-10.257-4.997-10.257-11.157c0-2.96,1.067-5.643,2.797-7.642
		c-3.557,1.752-6.035,5.637-6.035,10.161c0,6.16,4.592,11.156,10.257,11.156c2.942,0,5.589-1.358,7.46-3.517
		C321.45,264.057,320.024,264.42,318.517,264.42z"/>
	<path opacity="0.5" fill="#F04B23" d="M455.514,328.479c-5.665,0-10.257-4.996-10.257-11.156c0-2.961,1.067-5.644,2.797-7.643
		c-3.558,1.753-6.036,5.639-6.036,10.162c0,6.16,4.592,11.155,10.257,11.155c2.944,0,5.59-1.357,7.461-3.517
		C458.446,328.117,457.021,328.479,455.514,328.479z"/>
	<path opacity="0.5" fill="#F04B23" d="M342.988,293.33c-5.666,0-10.257-4.995-10.257-11.156c0-2.961,1.066-5.643,2.796-7.641
		c-3.557,1.75-6.035,5.636-6.035,10.159c0,6.163,4.592,11.156,10.258,11.156c2.942,0,5.589-1.355,7.459-3.515
		C345.92,292.969,344.495,293.33,342.988,293.33z"/>
	<path opacity="0.5" fill="#F04B23" d="M521.311,346.593c-5.666,0-10.257-4.994-10.257-11.155c0-2.961,1.067-5.644,2.797-7.642
		c-3.558,1.75-6.035,5.636-6.035,10.16c0,6.161,4.591,11.156,10.257,11.156c2.943,0,5.589-1.357,7.461-3.516
		C524.243,346.232,522.818,346.593,521.311,346.593z"/>
	<path opacity="0.5" fill="#F04B23" d="M497.198,321.042c-5.665,0-10.257-4.995-10.257-11.156c0-2.961,1.067-5.644,2.796-7.642
		c-3.556,1.75-6.034,5.636-6.034,10.16c0,6.161,4.592,11.156,10.257,11.156c2.943,0,5.589-1.356,7.46-3.516
		C500.131,320.681,498.706,321.042,497.198,321.042z"/>
	<path opacity="0.5" fill="#F04B23" d="M481.185,353.251c-5.666,0-10.257-4.994-10.257-11.156c0-2.96,1.066-5.643,2.795-7.641
		c-3.556,1.75-6.035,5.636-6.035,10.16c0,6.161,4.592,11.156,10.258,11.156c2.943,0,5.589-1.357,7.461-3.516
		C484.116,352.89,482.69,353.251,481.185,353.251z"/>
	<path opacity="0.5" fill="#F04B23" d="M359.063,248.464c-5.665,0-10.257-4.995-10.257-11.156c0-2.961,1.067-5.643,2.796-7.641
		c-3.556,1.75-6.035,5.636-6.035,10.16c0,6.161,4.591,11.156,10.257,11.156c2.943,0,5.589-1.356,7.461-3.516
		C361.996,248.103,360.57,248.464,359.063,248.464z"/>
	<path opacity="0.5" fill="#F04B23" d="M316.357,219.912c-5.665,0-10.256-4.993-10.256-11.156c0-2.961,1.066-5.643,2.795-7.639
		c-3.557,1.749-6.034,5.634-6.034,10.159c0,6.163,4.592,11.156,10.257,11.156c2.943,0,5.59-1.355,7.46-3.514
		C319.29,219.552,317.865,219.912,316.357,219.912z"/>
	<path opacity="0.5" fill="#F04B23" d="M338.189,193.522c-5.665,0-10.256-4.996-10.256-11.157c0-2.96,1.066-5.643,2.795-7.642
		c-3.556,1.751-6.035,5.637-6.035,10.161c0,6.161,4.592,11.157,10.257,11.157c2.944,0,5.59-1.358,7.462-3.517
		C341.122,193.16,339.696,193.522,338.189,193.522z"/>
	<path opacity="0.5" fill="#F04B23" d="M311.799,166.891c-5.665,0-10.258-4.996-10.258-11.156c0-2.961,1.067-5.644,2.797-7.643
		c-3.556,1.752-6.035,5.638-6.035,10.162c0,6.16,4.592,11.157,10.257,11.157c2.944,0,5.589-1.358,7.46-3.518
		C314.731,166.528,313.306,166.891,311.799,166.891z"/>
	<path opacity="0.5" fill="#F04B23" d="M274.85,155.853c-5.665,0-10.256-4.994-10.256-11.156c0-2.96,1.066-5.643,2.795-7.639
		c-3.556,1.749-6.033,5.634-6.033,10.158c0,6.163,4.591,11.157,10.256,11.157c2.943,0,5.59-1.355,7.46-3.515
		C277.782,155.493,276.357,155.853,274.85,155.853z"/>
	<g>
		<g>
			<g>
				<circle opacity="0.5" fill="#F04B23" cx="452.83" cy="319.825" r="13.915"/>
				<circle fill="none" stroke="#F06623" stroke-width="0.25" stroke-miterlimit="10" cx="452.83" cy="319.825" r="13.915"/>
			</g>
			<g>
				<path opacity="0.5" fill="#F04B23" d="M518.886,323.901c-2.821,0-5.444,0.847-7.637,2.291l-5.941-5.51
					c1.692-2.305,2.702-5.138,2.702-8.216c0-7.684-6.229-13.914-13.915-13.914c-7.686,0-13.915,6.23-13.915,13.914
					c0,4.763,2.396,8.964,6.047,11.472l-4.087,7.12c-1.186-0.327-2.429-0.517-3.718-0.517c-7.686,0-13.916,6.229-13.916,13.914
					c0,7.687,6.23,13.916,13.916,13.916s13.914-6.229,13.914-13.916c0-3.796-1.525-7.237-3.992-9.748l4.806-8.374
					c0.313,0.021,0.626,0.048,0.945,0.048c1.968,0,3.838-0.413,5.533-1.149l6.838,6.338c-0.948,1.881-1.495,3.998-1.495,6.248
					c0,7.684,6.229,13.915,13.915,13.915c7.688,0,13.917-6.231,13.917-13.915C532.803,330.133,526.573,323.901,518.886,323.901z"/>
				<path fill="none" stroke="#F06623" stroke-width="0.25" stroke-miterlimit="10" d="M518.886,323.901
					c-2.821,0-5.444,0.847-7.637,2.291l-5.941-5.51c1.692-2.305,2.702-5.138,2.702-8.216c0-7.684-6.229-13.914-13.915-13.914
					c-7.686,0-13.915,6.23-13.915,13.914c0,4.763,2.396,8.964,6.047,11.472l-4.087,7.12c-1.186-0.327-2.429-0.517-3.718-0.517
					c-7.686,0-13.916,6.229-13.916,13.914c0,7.687,6.23,13.916,13.916,13.916s13.914-6.229,13.914-13.916
					c0-3.796-1.525-7.237-3.992-9.748l4.806-8.374c0.313,0.021,0.626,0.048,0.945,0.048c1.968,0,3.838-0.413,5.533-1.149
					l6.838,6.338c-0.948,1.881-1.495,3.998-1.495,6.248c0,7.684,6.229,13.915,13.915,13.915c7.688,0,13.917-6.231,13.917-13.915
					C532.803,330.133,526.573,323.901,518.886,323.901z"/>
			</g>
		</g>
	</g>
</g>
</svg>
