<?xml version="1.0" encoding="utf-8"?>
<!-- Generator: Adobe Illustrator 16.0.0, SVG Export Plug-In . SVG Version: 6.00 Build 0)  -->
<!DOCTYPE svg PUBLIC "-//W3C//DTD SVG 1.1//EN" "http://www.w3.org/Graphics/SVG/1.1/DTD/svg11.dtd">
<svg version="1.1" id="Layer_1" xmlns="http://www.w3.org/2000/svg" xmlns:xlink="http://www.w3.org/1999/xlink" x="0px" y="0px"
	 width="614.496px" height="568.58px" viewBox="0 0 614.496 568.58" enable-background="new 0 0 614.496 568.58"
	 xml:space="preserve">
<g>
	<polygon fill="#F04B23" fill-opacity="0.1" stroke="#F06623" stroke-width="0.25" stroke-miterlimit="10" points="253.639,356.043 
		242.768,337.4 253.639,318.758 275.372,318.758 286.24,337.4 275.372,356.043 	"/>
	<polygon fill="#F04B23" fill-opacity="0.1" stroke="#F06623" stroke-width="0.25" stroke-miterlimit="10" points="304.926,180.98 
		161.82,383.461 269.151,253.614 	"/>
	<polygon fill="#F04B23" fill-opacity="0.3" stroke="#F06623" stroke-width="0.25" stroke-miterlimit="10" points="311.172,236.265 
		269.151,253.614 304.926,180.98 	"/>
	<polyline fill="#F04B23" fill-opacity="0.3" stroke="#F06623" stroke-width="0.25" stroke-miterlimit="10" points="
		283.955,303.275 269.151,253.614 311.172,236.265 284.418,303.275 	"/>
	<polygon fill="#F04B23" fill-opacity="0.1" stroke="#F06623" stroke-width="0.25" stroke-miterlimit="10" points="246.519,303.463 
		283.761,303.695 268.956,254.54 	"/>
	<polygon fill="#F04B23" fill-opacity="0.1" stroke="#F06623" stroke-width="0.25" stroke-miterlimit="10" points="245.709,304.273 
		161.82,383.461 269.151,253.614 	"/>
	<polygon fill="#F04B23" fill-opacity="0.3" stroke="#F06623" stroke-width="0.25" stroke-miterlimit="10" points="162.203,384.307 
		226.973,336.424 245.709,304.273 	"/>
	<polygon fill="#F04B23" fill-opacity="0.3" stroke="#F06623" stroke-width="0.25" stroke-miterlimit="10" points="162.898,384.654 
		245.246,369.502 226.973,336.424 	"/>
	<polygon fill="#F04B23" fill-opacity="0.75" stroke="#F06623" stroke-width="0.25" stroke-miterlimit="10" points="
		164.598,385.002 328.368,384.076 245.246,369.502 	"/>
	<polygon fill="#F04B23" fill-opacity="0.75" stroke="#F06623" stroke-width="0.25" stroke-miterlimit="10" points="
		285.651,369.895 328.368,384.076 245.865,369.734 	"/>
	<polygon fill="#F04B23" fill-opacity="0.75" stroke="#F06623" stroke-width="0.25" stroke-miterlimit="10" points="
		302.302,336.773 328.831,383.613 284.032,369.352 	"/>
	<polygon fill="#F04B23" fill-opacity="0.3" stroke="#F06623" stroke-width="0.25" stroke-miterlimit="10" points="302.996,337.564 
		310.611,237.039 329.136,383.076 	"/>
	<polygon fill="#F04B23" fill-opacity="0.3" stroke="#F06623" stroke-width="0.25" stroke-miterlimit="10" points="311.092,237.582 
		310.832,238.21 283.761,303.695 303.48,338.102 	"/>
	<polygon fill="#F04B23" fill-opacity="0.3" stroke="#F06623" stroke-width="0.25" stroke-miterlimit="10" points="272.542,415.535 
		328.831,383.926 162.898,385.465 	"/>
	<polygon fill="#F04B23" fill-opacity="0.75" stroke="#F06623" stroke-width="0.25" stroke-miterlimit="10" points="
		272.542,436.816 272.542,415.535 328.368,384.076 	"/>
	<polygon fill="#F04B23" fill-opacity="0.5" stroke="#F06623" stroke-width="0.25" stroke-miterlimit="10" points="272.542,415.535 
		272.542,436.816 163.975,386.545 	"/>
	<polygon fill="#F04B23" fill-opacity="0.3" stroke="#F06623" stroke-width="0.25" stroke-miterlimit="10" points="275.549,318.846 
		285.806,336.617 302.208,336.617 283.479,304.172 283.421,304.172 274.949,318.846 	"/>
	<polygon fill="#F04B23" fill-opacity="0.1" stroke="#F06623" stroke-width="0.25" stroke-miterlimit="10" points="253.769,318.846 
		254.311,318.846 245.865,304.172 245.84,304.172 227.109,336.617 243.512,336.617 	"/>
	<polygon fill="#F04B23" fill-opacity="0.1" stroke="#F06623" stroke-width="0.25" stroke-miterlimit="10" points="274.949,318.846 
		283.421,304.172 245.865,304.172 254.311,318.846 	"/>
	<polygon fill="#F04B23" fill-opacity="0.3" stroke="#F06623" stroke-width="0.25" stroke-miterlimit="10" points="242.883,337.705 
		243.512,336.617 227.109,336.617 227.016,336.773 245.811,369.322 253.469,356.051 	"/>
	<polygon fill="#F04B23" fill-opacity="0.5" stroke="#F06623" stroke-width="0.25" stroke-miterlimit="10" points="275.549,356.57 
		253.769,356.57 253.469,356.051 245.811,369.322 245.84,369.373 283.398,369.373 275.791,356.152 	"/>
	<polygon fill="#F04B23" fill-opacity="0.5" stroke="#F06623" stroke-width="0.25" stroke-miterlimit="10" points="302.302,336.773 
		302.208,336.617 285.806,336.617 286.435,337.705 275.791,356.152 283.398,369.373 283.479,369.373 	"/>
	<polygon fill="#FFFFFF" stroke="#F26522" stroke-width="0.25" stroke-miterlimit="10" points="257.362,349.783 250.299,337.553 
		257.362,325.322 271.486,325.322 278.553,337.553 271.486,349.783 	"/>
	<polygon fill="#F04B23" fill-opacity="0.75" stroke="#F06623" stroke-width="0.25" stroke-miterlimit="10" points="
		257.362,349.783 250.299,337.553 257.362,325.322 271.486,325.322 278.553,337.553 271.486,349.783 	"/>
	<polygon fill="#F04B23" fill-opacity="0.75" stroke="#F06623" stroke-width="0.25" stroke-miterlimit="10" points="
		311.172,236.265 326.207,290.625 328.368,384.076 	"/>
	<polygon fill="#F04B23" fill-opacity="0.1" stroke="#F06623" stroke-width="0.25" stroke-miterlimit="10" points="377.711,168.49 
		377.096,213.828 312.64,236.652 	"/>
	<polygon fill="#F04B23" fill-opacity="0.1" stroke="#F06623" stroke-width="0.25" stroke-miterlimit="10" points="511.875,215.064 
		377.096,213.828 377.711,168.49 	"/>
	<polygon fill="#F04B23" fill-opacity="0.1" stroke="#F06623" stroke-width="0.25" stroke-miterlimit="10" points="512.496,293.711 
		569.862,286.309 511.875,215.064 	"/>
	<polygon fill="#F04B23" fill-opacity="0.3" stroke="#F06623" stroke-width="0.25" stroke-miterlimit="10" points="377.096,213.828 
		512.496,293.711 511.875,215.064 	"/>
	<polygon fill="#F04B23" fill-opacity="0.3" stroke="#F06623" stroke-width="0.25" stroke-miterlimit="10" points="326.207,290.625 
		311.172,236.265 376.092,214.601 	"/>
	<polygon fill="#F04B23" fill-opacity="0.5" stroke="#F06623" stroke-width="0.25" stroke-miterlimit="10" points="377.715,345.215 
		377.096,213.828 466.847,367.422 	"/>
	<polygon fill="#F04B23" fill-opacity="0.35" stroke="#F06623" stroke-width="0.25" stroke-miterlimit="10" points="
		512.496,293.711 466.847,367.422 377.096,213.828 	"/>
	<polygon fill="#F04B23" fill-opacity="0.35" stroke="#F06623" stroke-width="0.25" stroke-miterlimit="10" points="
		377.715,345.215 326.207,290.625 376.555,214.833 	"/>
	<polygon fill="#F04B23" fill-opacity="0.5" stroke="#F06623" stroke-width="0.25" stroke-miterlimit="10" points="378.021,345.678 
		466.615,368.23 377.639,384.695 	"/>
	<polygon fill="#F04B23" fill-opacity="0.35" stroke="#F06623" stroke-width="0.25" stroke-miterlimit="10" points="
		326.901,291.551 377.096,383.383 377.328,345.678 	"/>
	<polygon fill="#F04B23" fill-opacity="0.35" stroke="#F06623" stroke-width="0.25" stroke-miterlimit="10" points="
		377.248,384.695 326.67,292.475 353.271,444.219 	"/>
	<polygon fill="#F04B23" fill-opacity="0.75" stroke="#F06623" stroke-width="0.25" stroke-miterlimit="10" points="
		377.096,446.764 354.428,481.461 353.271,444.219 	"/>
	<polygon fill="#F04B23" fill-opacity="0.5" stroke="#F06623" stroke-width="0.25" stroke-miterlimit="10" points="306.776,468.045 
		354.428,481.461 353.271,444.219 	"/>
	<polygon fill="#F04B23" fill-opacity="0.75" stroke="#F06623" stroke-width="0.25" stroke-miterlimit="10" points="
		295.211,481.924 354.428,481.461 306.776,468.045 	"/>
	<polygon fill="#F04B23" fill-opacity="0.35" stroke="#F06623" stroke-width="0.25" stroke-miterlimit="10" points="
		512.804,409.984 569.862,286.309 512.496,293.711 	"/>
	<polygon fill="#F04B23" fill-opacity="0.5" stroke="#F06623" stroke-width="0.25" stroke-miterlimit="10" points="476.1,404.201 
		512.07,409.984 466.847,367.422 475.637,404.201 	"/>
	<polygon fill="#F04B23" fill-opacity="0.5" stroke="#F06623" stroke-width="0.25" stroke-miterlimit="10" points="466.847,367.422 
		512.804,409.984 512.496,293.711 	"/>
	<polygon fill="#F04B23" fill-opacity="0.3" stroke="#F06623" stroke-width="0.25" stroke-miterlimit="10" points="593.92,385.313 
		512.804,409.984 570.166,287.541 	"/>
	<polygon fill="#F04B23" fill-opacity="0.5" stroke="#F06623" stroke-width="0.25" stroke-miterlimit="10" points="450.503,415.691 
		492.292,426.023 475.637,404.201 	"/>
	<polygon fill="#F04B23" fill-opacity="0.75" stroke="#F06623" stroke-width="0.25" stroke-miterlimit="10" points="
		512.533,410.793 492.292,426.023 475.637,404.201 	"/>
	<polygon fill="#F04B23" fill-opacity="0.5" stroke="#F06623" stroke-width="0.25" stroke-miterlimit="10" points="525.756,489.867 
		593.92,385.313 512.804,409.984 	"/>
	<polygon fill="#F04B23" fill-opacity="0.75" stroke="#F06623" stroke-width="0.25" stroke-miterlimit="10" points="
		528.533,539.217 525.756,489.867 593.92,385.313 	"/>
	<polyline fill="#F04B23" fill-opacity="0.5" stroke="#F06623" stroke-width="0.25" stroke-miterlimit="10" points="
		377.559,446.229 377.407,385.623 353.271,444.219 377.096,446.764 	"/>
	<polygon fill="#F04B23" fill-opacity="0.3" stroke="#F06623" stroke-width="0.25" stroke-miterlimit="10" points="467.773,533.045 
		528.533,539.217 524.828,491.104 	"/>
	<polygon fill="#F04B23" fill-opacity="0.5" stroke="#F06623" stroke-width="0.25" stroke-miterlimit="10" points="448.421,563.115 
		527.531,539.908 467.541,533.586 	"/>
	<polygon fill="#F04B23" fill-opacity="0.3" stroke="#F06623" stroke-width="0.25" stroke-miterlimit="10" points="401.928,503.746 
		466.847,533.199 447.879,562.963 	"/>
	<polygon fill="#F04B23" fill-opacity="0.5" stroke="#F06623" stroke-width="0.25" stroke-miterlimit="10" points="448.053,563 
		402.021,503.551 384.903,505.402 	"/>
	<polygon fill="#F04B23" fill-opacity="0.5" stroke="#F06623" stroke-width="0.25" stroke-miterlimit="10" points="420.121,410.447 
		402.541,503.283 384.651,504.822 	"/>
	<polygon fill="#F04B23" fill-opacity="0.3" stroke="#F06623" stroke-width="0.25" stroke-miterlimit="10" points="452.658,449.93 
		402.852,502.67 420.433,411.371 	"/>
	<polygon fill="#F04B23" fill-opacity="0.1" stroke="#F06623" stroke-width="0.25" stroke-miterlimit="10" points="492.292,437.049 
		453.373,449.885 420.121,410.447 	"/>
	<polygon fill="#F04B23" fill-opacity="0.3" stroke="#F06623" stroke-width="0.25" stroke-miterlimit="10" points="492.14,479.07 
		492.755,437.742 453.373,449.885 	"/>
	<polygon fill="#F04B23" fill-opacity="0.1" stroke="#F06623" stroke-width="0.25" stroke-miterlimit="10" points="515.539,485.623 
		492.177,479.494 492.755,437.742 	"/>
	<polygon fill="#F04B23" fill-opacity="0.1" stroke="#F06623" stroke-width="0.25" stroke-miterlimit="10" points="464.072,504.129 
		514.614,486.086 492.177,479.494 	"/>
	<polygon fill="#F04B23" fill-opacity="0.5" stroke="#F06623" stroke-width="0.25" stroke-miterlimit="10" points="472.248,527.029 
		463.457,505.133 515.579,486.318 	"/>
	<polygon fill="#F04B23" fill-opacity="0.3" stroke="#F06623" stroke-width="0.25" stroke-miterlimit="10" points="441.402,496.033 
		470.858,525.951 462.84,504.672 	"/>
	<polygon fill="#F04B23" fill-opacity="0.3" stroke="#F06623" stroke-width="0.25" stroke-miterlimit="10" points="418.733,493.721 
		441.402,496.033 470.858,525.951 	"/>
	<polygon fill="#F04B23" fill-opacity="0.5" stroke="#F06623" stroke-width="0.25" stroke-miterlimit="10" points="452.736,483.08 
		441.402,496.033 418.733,493.721 	"/>
	<polygon fill="#F04B23" fill-opacity="0.1" stroke="#F06623" stroke-width="0.25" stroke-miterlimit="10" points="446.839,464.805 
		453.084,482.502 477.95,482.732 	"/>
	<polygon fill="#F04B23" fill-opacity="0.3" stroke="#F06623" stroke-width="0.25" stroke-miterlimit="10" points="418.502,493.258 
		446.26,464.689 453.084,482.502 	"/>
	<path fill="#FFFFFF" d="M263.217,330.873c0,1.41-1.143,2.545-2.544,2.545c-1.409,0-2.544-1.135-2.544-2.545
		c0-1.402,1.135-2.543,2.544-2.543C262.074,328.33,263.217,329.471,263.217,330.873z"/>
</g>
</svg>
