<?xml version="1.0" encoding="utf-8"?>
<!-- Generator: Adobe Illustrator 16.0.0, SVG Export Plug-In . SVG Version: 6.00 Build 0)  -->
<!DOCTYPE svg PUBLIC "-//W3C//DTD SVG 1.1//EN" "http://www.w3.org/Graphics/SVG/1.1/DTD/svg11.dtd">
<svg version="1.1" id="Layer_1" xmlns="http://www.w3.org/2000/svg" xmlns:xlink="http://www.w3.org/1999/xlink" x="0px" y="0px"
	 width="614.496px" height="568.58px" viewBox="0 0 614.496 568.58" enable-background="new 0 0 614.496 568.58"
	 xml:space="preserve">
<g>
	<g>
		
			<circle fill="#F04B23" fill-opacity="0.1" stroke="#F06623" stroke-width="0.25" stroke-miterlimit="10" cx="171.229" cy="397.229" r="166.18"/>
		
			<circle fill="#F04B23" fill-opacity="0.1" stroke="#F06623" stroke-width="0.25" stroke-miterlimit="10" cx="443.267" cy="396.898" r="166.18"/>
		
			<circle fill="#F04B23" fill-opacity="0.1" stroke="#F06623" stroke-width="0.25" stroke-miterlimit="10" cx="304.255" cy="170.353" r="166.179"/>
		<g>
			<g>
				<path fill="#F04B23" fill-opacity="0.5" stroke="#F06623" stroke-width="0.25" stroke-miterlimit="10" d="M80.826,343.416
					c7.426,0,13.448,6.02,13.448,13.443c0,7.43-6.022,13.449-13.448,13.449s-13.447-6.02-13.447-13.449
					C67.379,349.436,73.4,343.416,80.826,343.416 M90.91,373.668h-2.387c-4.77,2.193-10.418,2.291-15.393,0h-2.389
					c-5.569,0-10.084,4.516-10.084,10.086v28.572c0,2.783,2.258,5.041,5.043,5.041h3.361v28.57c0,2.787,2.258,5.043,5.043,5.043
					h13.443c2.786,0,5.042-2.256,5.042-5.043v-28.57h3.362c2.784,0,5.042-2.258,5.042-5.041v-28.572
					C100.995,378.184,96.48,373.668,90.91,373.668z"/>
				<path opacity="0.5" fill="#F04B23" fill-opacity="0.75" d="M69.91,357.783c0-7.43,6.019-13.447,13.443-13.447
					c1.144,0,2.247,0.158,3.308,0.426c-1.768-0.855-3.74-1.346-5.835-1.346c-7.426,0-13.447,6.02-13.447,13.443
					c0,6.287,4.318,11.549,10.143,13.021C73.021,367.707,69.91,363.113,69.91,357.783z"/>
				<g opacity="0.5">
					<g>
						<g>
							<path opacity="0.5" fill="#F04B23" d="M90.939,374.07h2.387c0.066,0,0.133,0.012,0.2,0.014
								c-0.834-0.225-1.708-0.359-2.616-0.359h-2.387c-2.846,1.313-6.008,1.869-9.15,1.621
								C83.285,376.182,87.357,375.717,90.939,374.07z"/>
						</g>
						<g>
							<path opacity="0.5" fill="#F04B23" d="M71.476,446.342v-28.57h-2.413v28.225c0,2.785,2.258,5.043,5.043,5.043h0.59
								C72.813,450.307,71.476,448.482,71.476,446.342z"/>
						</g>
						<g>
							<path opacity="0.5" fill="#F04B23" d="M63.072,412.73v-28.574c0-5.57,4.513-10.086,10.085-10.086h0.779
								c-0.27-0.107-0.54-0.223-0.806-0.346h-2.389c-5.569,0-10.084,4.518-10.084,10.084v28.576c0,2.783,2.258,5.043,5.043,5.043
								h0.59C64.408,416.695,63.072,414.869,63.072,412.73z"/>
						</g>
					</g>
				</g>
			</g>
			<g>
				<path fill="#F04B23" fill-opacity="0.5" stroke="#F06623" stroke-width="0.25" stroke-miterlimit="10" d="M126.881,343.416
					c7.426,0,13.447,6.02,13.447,13.443c0,7.43-6.021,13.449-13.447,13.449c-7.427,0-13.447-6.02-13.447-13.449
					C113.434,349.436,119.454,343.416,126.881,343.416 M136.966,373.668h-2.389c-4.77,2.193-10.417,2.291-15.393,0h-2.388
					c-5.57,0-10.084,4.516-10.084,10.086v28.572c0,2.783,2.257,5.041,5.041,5.041h3.364v28.57c0,2.787,2.257,5.043,5.04,5.043
					h13.445c2.787,0,5.041-2.256,5.041-5.043v-28.57h3.363c2.785,0,5.041-2.258,5.041-5.041v-28.572
					C147.049,378.184,142.535,373.668,136.966,373.668z"/>
				<path opacity="0.5" fill="#F04B23" fill-opacity="0.75" d="M115.965,357.783c0-7.43,6.018-13.447,13.444-13.447
					c1.142,0,2.246,0.158,3.306,0.426c-1.768-0.855-3.74-1.346-5.834-1.346c-7.427,0-13.447,6.02-13.447,13.443
					c0,6.287,4.317,11.549,10.143,13.021C119.076,367.707,115.965,363.113,115.965,357.783z"/>
				<g opacity="0.5">
					<g>
						<g>
							<path opacity="0.5" fill="#F04B23" d="M136.992,374.07h2.389c0.066,0,0.134,0.012,0.2,0.014
								c-0.835-0.225-1.709-0.359-2.615-0.359h-2.389c-2.845,1.313-6.008,1.869-9.15,1.621
								C129.34,376.182,133.413,375.717,136.992,374.07z"/>
						</g>
						<g>
							<path opacity="0.5" fill="#F04B23" d="M117.529,446.342v-28.57h-2.411v28.225c0,2.785,2.257,5.043,5.04,5.043h0.592
								C118.867,450.307,117.529,448.482,117.529,446.342z"/>
						</g>
						<g>
							<path opacity="0.5" fill="#F04B23" d="M109.126,412.73v-28.574c0-5.57,4.514-10.086,10.086-10.086h0.778
								c-0.27-0.107-0.54-0.223-0.806-0.346h-2.388c-5.57,0-10.084,4.518-10.084,10.084v28.576c0,2.783,2.257,5.043,5.041,5.043
								h0.591C110.463,416.695,109.126,414.869,109.126,412.73z"/>
						</g>
					</g>
				</g>
			</g>
			<g>
				<path fill="#F04B23" fill-opacity="0.5" stroke="#F06623" stroke-width="0.25" stroke-miterlimit="10" d="M172.935,343.416
					c7.427,0,13.447,6.02,13.447,13.443c0,7.43-6.021,13.449-13.447,13.449s-13.447-6.02-13.447-13.449
					C159.487,349.436,165.508,343.416,172.935,343.416 M183.02,373.668h-2.388c-4.77,2.193-10.418,2.291-15.393,0h-2.388
					c-5.57,0-10.085,4.516-10.085,10.086v28.572c0,2.783,2.258,5.041,5.043,5.041h3.361v28.57c0,2.787,2.258,5.043,5.043,5.043
					h13.443c2.786,0,5.042-2.256,5.042-5.043v-28.57h3.362c2.784,0,5.042-2.258,5.042-5.041v-28.572
					C193.104,378.184,188.59,373.668,183.02,373.668z"/>
				<path opacity="0.5" fill="#F04B23" fill-opacity="0.75" d="M162.019,357.783c0-7.43,6.018-13.447,13.443-13.447
					c1.144,0,2.247,0.158,3.307,0.426c-1.767-0.855-3.739-1.346-5.834-1.346c-7.427,0-13.447,6.02-13.447,13.443
					c0,6.287,4.317,11.549,10.143,13.021C165.13,367.707,162.019,363.113,162.019,357.783z"/>
				<g opacity="0.5">
					<g>
						<g>
							<path opacity="0.5" fill="#F04B23" d="M183.047,374.07h2.388c0.066,0,0.133,0.012,0.199,0.014
								c-0.833-0.225-1.708-0.359-2.614-0.359h-2.388c-2.846,1.313-6.009,1.869-9.15,1.621
								C175.394,376.182,179.466,375.717,183.047,374.07z"/>
						</g>
						<g>
							<path opacity="0.5" fill="#F04B23" d="M163.584,446.342v-28.57h-2.413v28.225c0,2.785,2.258,5.043,5.043,5.043h0.59
								C164.922,450.307,163.584,448.482,163.584,446.342z"/>
						</g>
						<g>
							<path opacity="0.5" fill="#F04B23" d="M155.18,412.73v-28.574c0-5.57,4.514-10.086,10.086-10.086h0.779
								c-0.27-0.107-0.541-0.223-0.806-0.346h-2.388c-5.57,0-10.085,4.518-10.085,10.084v28.576c0,2.783,2.258,5.043,5.043,5.043
								h0.59C156.517,416.695,155.18,414.869,155.18,412.73z"/>
						</g>
					</g>
				</g>
			</g>
			<g>
				<path fill="#F04B23" fill-opacity="0.5" stroke="#F06623" stroke-width="0.25" stroke-miterlimit="10" d="M218.988,343.416
					c7.427,0,13.447,6.02,13.447,13.443c0,7.43-6.021,13.449-13.447,13.449c-7.426,0-13.447-6.02-13.447-13.449
					C205.541,349.436,211.563,343.416,218.988,343.416 M229.073,373.668h-2.389c-4.769,2.193-10.417,2.291-15.392,0h-2.388
					c-5.57,0-10.085,4.516-10.085,10.086v28.572c0,2.783,2.258,5.041,5.042,5.041h3.363v28.57c0,2.787,2.258,5.043,5.042,5.043
					h13.443c2.787,0,5.042-2.256,5.042-5.043v-28.57h3.362c2.785,0,5.043-2.258,5.043-5.041v-28.572
					C239.158,378.184,234.644,373.668,229.073,373.668z"/>
				<path opacity="0.5" fill="#F04B23" fill-opacity="0.75" d="M208.072,357.783c0-7.43,6.019-13.447,13.443-13.447
					c1.145,0,2.247,0.158,3.307,0.426c-1.766-0.855-3.738-1.346-5.834-1.346c-7.426,0-13.447,6.02-13.447,13.443
					c0,6.287,4.318,11.549,10.144,13.021C211.184,367.707,208.072,363.113,208.072,357.783z"/>
				<g opacity="0.5">
					<g>
						<g>
							<path opacity="0.5" fill="#F04B23" d="M229.101,374.07h2.389c0.066,0,0.133,0.012,0.2,0.014
								c-0.834-0.225-1.709-0.359-2.616-0.359h-2.389c-2.845,1.313-6.007,1.869-9.149,1.621
								C221.447,376.182,225.521,375.717,229.101,374.07z"/>
						</g>
						<g>
							<path opacity="0.5" fill="#F04B23" d="M209.638,446.342v-28.57h-2.412v28.225c0,2.785,2.258,5.043,5.042,5.043h0.59
								C210.976,450.307,209.638,448.482,209.638,446.342z"/>
						</g>
						<g>
							<path opacity="0.5" fill="#F04B23" d="M201.234,412.73v-28.574c0-5.57,4.513-10.086,10.086-10.086h0.779
								c-0.271-0.107-0.541-0.223-0.807-0.346h-2.388c-5.57,0-10.085,4.518-10.085,10.084v28.576c0,2.783,2.258,5.043,5.042,5.043
								h0.591C202.571,416.695,201.234,414.869,201.234,412.73z"/>
						</g>
					</g>
				</g>
			</g>
		</g>
		<g>
			<path fill="#F04B23" fill-opacity="0.5" stroke="#F06623" stroke-width="0.25" stroke-miterlimit="10" d="M304.256,87.397
				c10.594,0,19.182,8.587,19.182,19.181c0,10.594-8.588,19.181-19.182,19.181c-10.595,0-19.183-8.587-19.183-19.181
				C285.073,95.984,293.661,87.397,304.256,87.397 M318.643,130.557h-3.405c-6.808,3.129-14.864,3.263-21.964,0h-3.404
				c-7.945,0-14.387,6.44-14.387,14.385v40.76c0,3.973,3.221,7.196,7.193,7.196h4.796v40.76c0,3.973,3.22,7.192,7.192,7.192h19.183
				c3.974,0,7.193-3.219,7.193-7.192v-40.76h4.795c3.974,0,7.192-3.223,7.192-7.196v-40.76
				C333.027,136.997,326.587,130.557,318.643,130.557z"/>
			<path opacity="0.5" fill="#F04B23" fill-opacity="0.75" d="M288.681,107.888c0-10.594,8.588-19.181,19.182-19.181
				c1.63,0,3.204,0.227,4.715,0.609c-2.521-1.218-5.335-1.919-8.321-1.919c-10.595,0-19.183,8.587-19.183,19.181
				c0,8.964,6.158,16.469,14.468,18.573C293.12,122.051,288.681,115.498,288.681,107.888z"/>
			<g opacity="0.5">
				<g>
					<g>
						<path opacity="0.5" fill="#F04B23" d="M318.681,131.131h3.403c0.098,0,0.193,0.011,0.291,0.013
							c-1.192-0.319-2.439-0.504-3.732-0.504h-3.405c-4.064,1.866-8.572,2.659-13.058,2.307
							C307.763,134.142,313.572,133.478,318.681,131.131z"/>
					</g>
					<g>
						<path opacity="0.5" fill="#F04B23" d="M290.914,234.233v-40.762h-3.442v40.271c0,3.973,3.22,7.192,7.192,7.192h0.844
							C292.822,239.89,290.914,237.288,290.914,234.233z"/>
					</g>
					<g>
						<path opacity="0.5" fill="#F04B23" d="M278.924,186.277v-40.76c0-7.947,6.442-14.385,14.388-14.385h1.115
							c-0.387-0.156-0.771-0.316-1.153-0.491h-3.404c-7.945,0-14.387,6.438-14.387,14.385v40.76c0,3.973,3.221,7.194,7.193,7.194
							h0.844C280.832,191.937,278.924,189.334,278.924,186.277z"/>
					</g>
				</g>
			</g>
		</g>
	</g>
	<g opacity="0.5">
		<g>
			<g>
				<path fill="none" stroke="#EE4923" stroke-width="8" stroke-miterlimit="10" d="M300.282,266.129
					c-16.038,3.721-28.163,17.648-29.163,34.57"/>
				<g>
					<polygon fill="#EE4923" points="259.425,298.722 274.024,317.682 283.148,295.559 					"/>
				</g>
			</g>
		</g>
		<g>
			<g>
				<path fill="none" stroke="#EE4923" stroke-width="8" stroke-miterlimit="10" d="M345.508,312.326
					c0.763-2.994,1.168-6.133,1.168-9.361c0-14.856-8.565-27.71-21.026-33.894"/>
				<g>
					<polygon fill="#EE4923" points="332.012,259.074 308.865,265.15 325.698,282.16 					"/>
				</g>
			</g>
		</g>
		<g>
			<g>
				<path fill="none" stroke="#EE4923" stroke-width="8" stroke-miterlimit="10" d="M277.389,323.92
					c6.778,10.162,18.347,16.855,31.477,16.855c8.309,0,15.99-2.68,22.229-7.223"/>
				<g>
					<polygon fill="#EE4923" points="337.033,343.848 342.363,320.519 319.493,327.563 					"/>
				</g>
			</g>
		</g>
	</g>
	<g>
		<g>
			<g>
				<path fill="#F04B23" fill-opacity="0.5" stroke="#F06623" stroke-width="0.25" stroke-miterlimit="10" d="M373.028,339.152
					c3.747,0,6.787,3.039,6.787,6.783c0,3.752-3.04,6.789-6.787,6.789c-3.749,0-6.788-3.037-6.788-6.789
					C366.24,342.191,369.279,339.152,373.028,339.152 M378.119,354.422h-1.206c-2.407,1.105-5.258,1.154-7.769,0h-1.206
					c-2.811,0-5.089,2.277-5.089,5.088v14.422c0,1.406,1.139,2.545,2.544,2.545h1.697v14.42c0,1.408,1.14,2.547,2.545,2.547h6.786
					c1.406,0,2.544-1.139,2.544-2.547v-14.42h1.697c1.405,0,2.544-1.139,2.544-2.545V359.51
					C383.207,356.699,380.929,354.422,378.119,354.422z"/>
				<path opacity="0.5" fill="#F04B23" fill-opacity="0.75" d="M367.52,346.402c0-3.75,3.036-6.787,6.784-6.787
					c0.577,0,1.134,0.082,1.669,0.217c-0.891-0.432-1.887-0.68-2.944-0.68c-3.749,0-6.788,3.039-6.788,6.783
					c0,3.174,2.181,5.828,5.12,6.574C369.089,351.412,367.52,349.094,367.52,346.402z"/>
				<g opacity="0.5">
					<g>
						<g>
							<path opacity="0.5" fill="#F04B23" d="M378.132,354.623h1.206c0.033,0,0.067,0.006,0.101,0.006
								c-0.42-0.111-0.862-0.18-1.319-0.18h-1.206c-1.436,0.662-3.033,0.943-4.618,0.818
								C374.27,355.689,376.325,355.457,378.132,354.623z"/>
						</g>
						<g>
							<path opacity="0.5" fill="#F04B23" d="M368.309,391.102V376.68h-1.218v14.248c0,1.402,1.14,2.545,2.545,2.545h0.298
								C368.984,393.102,368.309,392.182,368.309,391.102z"/>
						</g>
						<g>
							<path opacity="0.5" fill="#F04B23" d="M364.067,374.135v-14.422c0-2.809,2.277-5.09,5.091-5.09h0.392
								c-0.135-0.053-0.272-0.111-0.405-0.174h-1.206c-2.811,0-5.089,2.281-5.089,5.09v14.424c0,1.402,1.139,2.545,2.544,2.545
								h0.298C364.742,376.139,364.067,375.215,364.067,374.135z"/>
						</g>
					</g>
				</g>
			</g>
			<g>
				<path fill="#F04B23" fill-opacity="0.5" stroke="#F06623" stroke-width="0.25" stroke-miterlimit="10" d="M396.272,339.152
					c3.748,0,6.788,3.039,6.788,6.783c0,3.752-3.04,6.789-6.788,6.789s-6.788-3.037-6.788-6.789
					C389.484,342.191,392.524,339.152,396.272,339.152 M401.362,354.422h-1.204c-2.408,1.105-5.259,1.154-7.77,0h-1.206
					c-2.811,0-5.088,2.277-5.088,5.088v14.422c0,1.406,1.138,2.545,2.544,2.545h1.697v14.42c0,1.408,1.14,2.547,2.545,2.547h6.785
					c1.406,0,2.545-1.139,2.545-2.547v-14.42h1.697c1.405,0,2.545-1.139,2.545-2.545V359.51
					C406.453,356.699,404.174,354.422,401.362,354.422z"/>
				<path opacity="0.5" fill="#F04B23" fill-opacity="0.75" d="M390.763,346.402c0-3.75,3.038-6.787,6.786-6.787
					c0.576,0,1.133,0.082,1.668,0.217c-0.891-0.432-1.887-0.68-2.944-0.68c-3.748,0-6.788,3.039-6.788,6.783
					c0,3.174,2.18,5.828,5.12,6.574C392.333,351.412,390.763,349.094,390.763,346.402z"/>
				<g opacity="0.5">
					<g>
						<g>
							<path opacity="0.5" fill="#F04B23" d="M401.376,354.623h1.206c0.033,0,0.066,0.006,0.1,0.006
								c-0.42-0.111-0.861-0.18-1.319-0.18h-1.204c-1.437,0.662-3.033,0.943-4.618,0.818
								C397.514,355.689,399.57,355.457,401.376,354.623z"/>
						</g>
						<g>
							<path opacity="0.5" fill="#F04B23" d="M391.554,391.102V376.68h-1.218v14.248c0,1.402,1.14,2.545,2.545,2.545h0.298
								C392.229,393.102,391.554,392.182,391.554,391.102z"/>
						</g>
						<g>
							<path opacity="0.5" fill="#F04B23" d="M387.312,374.135v-14.422c0-2.809,2.277-5.09,5.09-5.09h0.395
								c-0.137-0.053-0.273-0.111-0.407-0.174h-1.206c-2.811,0-5.088,2.281-5.088,5.09v14.424c0,1.402,1.138,2.545,2.544,2.545
								h0.297C387.986,376.139,387.312,375.215,387.312,374.135z"/>
						</g>
					</g>
				</g>
			</g>
			<g>
				<path fill="#F04B23" fill-opacity="0.5" stroke="#F06623" stroke-width="0.25" stroke-miterlimit="10" d="M419.517,339.152
					c3.749,0,6.788,3.039,6.788,6.783c0,3.752-3.039,6.789-6.788,6.789c-3.747,0-6.787-3.037-6.787-6.789
					C412.729,342.191,415.77,339.152,419.517,339.152 M424.607,354.422h-1.205c-2.407,1.105-5.259,1.154-7.77,0h-1.204
					c-2.813,0-5.091,2.277-5.091,5.088v14.422c0,1.406,1.139,2.545,2.544,2.545h1.697v14.42c0,1.408,1.14,2.547,2.546,2.547h6.785
					c1.406,0,2.545-1.139,2.545-2.547v-14.42h1.697c1.404,0,2.544-1.139,2.544-2.545V359.51
					C429.696,356.699,427.419,354.422,424.607,354.422z"/>
				<path opacity="0.5" fill="#F04B23" fill-opacity="0.75" d="M414.008,346.402c0-3.75,3.037-6.787,6.785-6.787
					c0.576,0,1.135,0.082,1.669,0.217c-0.892-0.432-1.888-0.68-2.945-0.68c-3.747,0-6.787,3.039-6.787,6.783
					c0,3.174,2.181,5.828,5.12,6.574C415.578,351.412,414.008,349.094,414.008,346.402z"/>
				<g opacity="0.5">
					<g>
						<g>
							<path opacity="0.5" fill="#F04B23" d="M424.621,354.623h1.205c0.033,0,0.066,0.006,0.102,0.006
								c-0.422-0.111-0.863-0.18-1.32-0.18h-1.205c-1.438,0.662-3.033,0.943-4.619,0.818
								C420.759,355.689,422.814,355.457,424.621,354.623z"/>
						</g>
						<g>
							<path opacity="0.5" fill="#F04B23" d="M414.798,391.102V376.68h-1.219v14.248c0,1.402,1.14,2.545,2.546,2.545h0.297
								C415.473,393.102,414.798,392.182,414.798,391.102z"/>
						</g>
						<g>
							<path opacity="0.5" fill="#F04B23" d="M410.557,374.135v-14.422c0-2.809,2.277-5.09,5.091-5.09h0.392
								c-0.136-0.053-0.271-0.111-0.406-0.174h-1.204c-2.813,0-5.091,2.281-5.091,5.09v14.424c0,1.402,1.139,2.545,2.544,2.545
								h0.298C411.23,376.139,410.557,375.215,410.557,374.135z"/>
						</g>
					</g>
				</g>
			</g>
			<g>
				<path fill="#F04B23" fill-opacity="0.5" stroke="#F06623" stroke-width="0.25" stroke-miterlimit="10" d="M442.762,339.152
					c3.748,0,6.787,3.039,6.787,6.783c0,3.752-3.039,6.789-6.787,6.789s-6.787-3.037-6.787-6.789
					C435.975,342.191,439.014,339.152,442.762,339.152 M447.852,354.422h-1.206c-2.406,1.105-5.257,1.154-7.769,0h-1.205
					c-2.811,0-5.09,2.277-5.09,5.088v14.422c0,1.406,1.14,2.545,2.546,2.545h1.697v14.42c0,1.408,1.138,2.547,2.543,2.547h6.786
					c1.407,0,2.545-1.139,2.545-2.547v-14.42h1.697c1.404,0,2.545-1.139,2.545-2.545V359.51
					C452.941,356.699,450.663,354.422,447.852,354.422z"/>
				<path opacity="0.5" fill="#F04B23" fill-opacity="0.75" d="M437.253,346.402c0-3.75,3.036-6.787,6.784-6.787
					c0.577,0,1.134,0.082,1.668,0.217c-0.891-0.432-1.887-0.68-2.943-0.68c-3.748,0-6.787,3.039-6.787,6.783
					c0,3.174,2.18,5.828,5.119,6.574C438.823,351.412,437.253,349.094,437.253,346.402z"/>
				<g opacity="0.5">
					<g>
						<g>
							<path opacity="0.5" fill="#F04B23" d="M447.865,354.623h1.205c0.033,0,0.067,0.006,0.102,0.006
								c-0.42-0.111-0.862-0.18-1.32-0.18h-1.206c-1.435,0.662-3.031,0.943-4.618,0.818
								C444.003,355.689,446.058,355.457,447.865,354.623z"/>
						</g>
						<g>
							<path opacity="0.5" fill="#F04B23" d="M438.042,391.102V376.68h-1.217v14.248c0,1.402,1.138,2.545,2.543,2.545h0.298
								C438.717,393.102,438.042,392.182,438.042,391.102z"/>
						</g>
						<g>
							<path opacity="0.5" fill="#F04B23" d="M433.801,374.135v-14.422c0-2.809,2.277-5.09,5.091-5.09h0.393
								c-0.136-0.053-0.272-0.111-0.407-0.174h-1.205c-2.811,0-5.09,2.281-5.09,5.09v14.424c0,1.402,1.14,2.545,2.546,2.545h0.297
								C434.475,376.139,433.801,375.215,433.801,374.135z"/>
						</g>
					</g>
				</g>
			</g>
		</g>
		<g>
			<g>
				<path fill="#F04B23" fill-opacity="0.5" stroke="#F06623" stroke-width="0.25" stroke-miterlimit="10" d="M484.432,339.152
					c3.748,0,6.787,3.039,6.787,6.783c0,3.752-3.039,6.789-6.787,6.789c-3.749,0-6.787-3.037-6.787-6.789
					C477.645,342.191,480.683,339.152,484.432,339.152 M489.522,354.422h-1.206c-2.407,1.105-5.258,1.154-7.769,0h-1.206
					c-2.81,0-5.09,2.277-5.09,5.088v14.422c0,1.406,1.141,2.545,2.546,2.545h1.696v14.42c0,1.408,1.14,2.547,2.545,2.547h6.786
					c1.406,0,2.545-1.139,2.545-2.547v-14.42h1.696c1.405,0,2.545-1.139,2.545-2.545V359.51
					C494.611,356.699,492.332,354.422,489.522,354.422z"/>
				<path opacity="0.5" fill="#F04B23" fill-opacity="0.75" d="M478.922,346.402c0-3.75,3.037-6.787,6.785-6.787
					c0.577,0,1.134,0.082,1.67,0.217c-0.893-0.432-1.889-0.68-2.945-0.68c-3.749,0-6.787,3.039-6.787,6.783
					c0,3.174,2.18,5.828,5.12,6.574C480.492,351.412,478.922,349.094,478.922,346.402z"/>
				<g opacity="0.5">
					<g>
						<g>
							<path opacity="0.5" fill="#F04B23" d="M489.535,354.623h1.206c0.033,0,0.067,0.006,0.101,0.006
								c-0.421-0.111-0.861-0.18-1.319-0.18h-1.206c-1.436,0.662-3.033,0.943-4.618,0.818
								C485.674,355.689,487.729,355.457,489.535,354.623z"/>
						</g>
						<g>
							<path opacity="0.5" fill="#F04B23" d="M479.712,391.102V376.68h-1.218v14.248c0,1.402,1.14,2.545,2.545,2.545h0.298
								C480.387,393.102,479.712,392.182,479.712,391.102z"/>
						</g>
						<g>
							<path opacity="0.5" fill="#F04B23" d="M475.471,374.135v-14.422c0-2.809,2.277-5.09,5.09-5.09h0.393
								c-0.135-0.053-0.272-0.111-0.405-0.174h-1.206c-2.81,0-5.09,2.281-5.09,5.09v14.424c0,1.402,1.141,2.545,2.546,2.545h0.298
								C476.146,376.139,475.471,375.215,475.471,374.135z"/>
						</g>
					</g>
				</g>
			</g>
			<g>
				<path fill="#F04B23" fill-opacity="0.5" stroke="#F06623" stroke-width="0.25" stroke-miterlimit="10" d="M507.676,339.152
					c3.749,0,6.789,3.039,6.789,6.783c0,3.752-3.04,6.789-6.789,6.789c-3.748,0-6.787-3.037-6.787-6.789
					C500.889,342.191,503.928,339.152,507.676,339.152 M512.767,354.422h-1.205c-2.407,1.105-5.259,1.154-7.77,0h-1.206
					c-2.811,0-5.088,2.277-5.088,5.088v14.422c0,1.406,1.139,2.545,2.544,2.545h1.696v14.42c0,1.408,1.141,2.547,2.546,2.547h6.785
					c1.406,0,2.546-1.139,2.546-2.547v-14.42h1.696c1.405,0,2.545-1.139,2.545-2.545V359.51
					C517.856,356.699,515.578,354.422,512.767,354.422z"/>
				<path opacity="0.5" fill="#F04B23" fill-opacity="0.75" d="M502.166,346.402c0-3.75,3.038-6.787,6.787-6.787
					c0.576,0,1.133,0.082,1.667,0.217c-0.891-0.432-1.886-0.68-2.944-0.68c-3.748,0-6.787,3.039-6.787,6.783
					c0,3.174,2.18,5.828,5.119,6.574C503.736,351.412,502.166,349.094,502.166,346.402z"/>
				<g opacity="0.5">
					<g>
						<g>
							<path opacity="0.5" fill="#F04B23" d="M512.779,354.623h1.206c0.033,0,0.067,0.006,0.101,0.006
								c-0.421-0.111-0.861-0.18-1.319-0.18h-1.205c-1.438,0.662-3.032,0.943-4.618,0.818
								C508.917,355.689,510.974,355.457,512.779,354.623z"/>
						</g>
						<g>
							<path opacity="0.5" fill="#F04B23" d="M502.957,391.102V376.68h-1.219v14.248c0,1.402,1.141,2.545,2.546,2.545h0.298
								C503.632,393.102,502.957,392.182,502.957,391.102z"/>
						</g>
						<g>
							<path opacity="0.5" fill="#F04B23" d="M498.714,374.135v-14.422c0-2.809,2.279-5.09,5.091-5.09h0.395
								c-0.137-0.053-0.273-0.111-0.407-0.174h-1.206c-2.811,0-5.088,2.281-5.088,5.09v14.424c0,1.402,1.139,2.545,2.544,2.545
								h0.298C499.391,376.139,498.714,375.215,498.714,374.135z"/>
						</g>
					</g>
				</g>
			</g>
			<g>
				<path fill="#F04B23" fill-opacity="0.5" stroke="#F06623" stroke-width="0.25" stroke-miterlimit="10" d="M530.92,339.152
					c3.75,0,6.788,3.039,6.788,6.783c0,3.752-3.038,6.789-6.788,6.789c-3.747,0-6.787-3.037-6.787-6.789
					C524.133,342.191,527.173,339.152,530.92,339.152 M536.012,354.422h-1.206c-2.407,1.105-5.259,1.154-7.77,0h-1.205
					c-2.812,0-5.09,2.277-5.09,5.088v14.422c0,1.406,1.14,2.545,2.544,2.545h1.697v14.42c0,1.408,1.141,2.547,2.546,2.547h6.785
					c1.407,0,2.546-1.139,2.546-2.547v-14.42h1.696c1.405,0,2.544-1.139,2.544-2.545V359.51
					C541.1,356.699,538.822,354.422,536.012,354.422z"/>
				<path opacity="0.5" fill="#F04B23" fill-opacity="0.75" d="M525.411,346.402c0-3.75,3.038-6.787,6.785-6.787
					c0.577,0,1.135,0.082,1.669,0.217c-0.892-0.432-1.887-0.68-2.945-0.68c-3.747,0-6.787,3.039-6.787,6.783
					c0,3.174,2.181,5.828,5.121,6.574C526.981,351.412,525.411,349.094,525.411,346.402z"/>
				<g opacity="0.5">
					<g>
						<g>
							<path opacity="0.5" fill="#F04B23" d="M536.024,354.623h1.206c0.033,0,0.066,0.006,0.1,0.006
								c-0.42-0.111-0.861-0.18-1.318-0.18h-1.206c-1.437,0.662-3.033,0.943-4.618,0.818
								C532.162,355.689,534.218,355.457,536.024,354.623z"/>
						</g>
						<g>
							<path opacity="0.5" fill="#F04B23" d="M526.201,391.102V376.68h-1.219v14.248c0,1.402,1.141,2.545,2.546,2.545h0.298
								C526.876,393.102,526.201,392.182,526.201,391.102z"/>
						</g>
						<g>
							<path opacity="0.5" fill="#F04B23" d="M521.96,374.135v-14.422c0-2.809,2.278-5.09,5.09-5.09h0.393
								c-0.136-0.053-0.271-0.111-0.406-0.174h-1.205c-2.812,0-5.09,2.281-5.09,5.09v14.424c0,1.402,1.14,2.545,2.544,2.545h0.299
								C522.635,376.139,521.96,375.215,521.96,374.135z"/>
						</g>
					</g>
				</g>
			</g>
			<g>
				<path fill="#F04B23" fill-opacity="0.5" stroke="#F06623" stroke-width="0.25" stroke-miterlimit="10" d="M554.165,339.152
					c3.749,0,6.787,3.039,6.787,6.783c0,3.752-3.038,6.789-6.787,6.789s-6.787-3.037-6.787-6.789
					C547.378,342.191,550.416,339.152,554.165,339.152 M559.256,354.422h-1.206c-2.407,1.105-5.258,1.154-7.769,0h-1.206
					c-2.811,0-5.089,2.277-5.089,5.088v14.422c0,1.406,1.139,2.545,2.545,2.545h1.696v14.42c0,1.408,1.14,2.547,2.545,2.547h6.786
					c1.406,0,2.544-1.139,2.544-2.547v-14.42h1.697c1.405,0,2.546-1.139,2.546-2.545V359.51
					C564.346,356.699,562.065,354.422,559.256,354.422z"/>
				<path opacity="0.5" fill="#F04B23" fill-opacity="0.75" d="M548.656,346.402c0-3.75,3.037-6.787,6.784-6.787
					c0.577,0,1.134,0.082,1.669,0.217c-0.891-0.432-1.887-0.68-2.944-0.68c-3.749,0-6.787,3.039-6.787,6.783
					c0,3.174,2.18,5.828,5.119,6.574C550.226,351.412,548.656,349.094,548.656,346.402z"/>
				<g opacity="0.5">
					<g>
						<g>
							<path opacity="0.5" fill="#F04B23" d="M559.269,354.623h1.206c0.033,0,0.067,0.006,0.102,0.006
								c-0.421-0.111-0.863-0.18-1.32-0.18h-1.206c-1.436,0.662-3.033,0.943-4.618,0.818
								C555.406,355.689,557.462,355.457,559.269,354.623z"/>
						</g>
						<g>
							<path opacity="0.5" fill="#F04B23" d="M549.445,391.102V376.68h-1.218v14.248c0,1.402,1.14,2.545,2.545,2.545h0.298
								C550.121,393.102,549.445,392.182,549.445,391.102z"/>
						</g>
						<g>
							<path opacity="0.5" fill="#F04B23" d="M545.204,374.135v-14.422c0-2.809,2.278-5.09,5.091-5.09h0.393
								c-0.136-0.053-0.273-0.111-0.406-0.174h-1.206c-2.811,0-5.089,2.281-5.089,5.09v14.424c0,1.402,1.139,2.545,2.545,2.545
								h0.297C545.879,376.139,545.204,375.215,545.204,374.135z"/>
						</g>
					</g>
				</g>
			</g>
		</g>
		<g>
			<g>
				<path fill="#F04B23" fill-opacity="0.5" stroke="#F06623" stroke-width="0.25" stroke-miterlimit="10" d="M373.561,411.645
					c3.749,0,6.787,3.039,6.787,6.785c0,3.748-3.038,6.787-6.787,6.787c-3.748,0-6.787-3.039-6.787-6.787
					C366.773,414.684,369.813,411.645,373.561,411.645 M378.651,426.914h-1.205c-2.407,1.105-5.259,1.154-7.769,0h-1.206
					c-2.812,0-5.09,2.277-5.09,5.088v14.422c0,1.408,1.141,2.543,2.546,2.543h1.697v14.422c0,1.408,1.139,2.547,2.544,2.547h6.786
					c1.406,0,2.543-1.139,2.543-2.547v-14.422h1.697c1.406,0,2.546-1.135,2.546-2.543v-14.422
					C383.741,429.191,381.463,426.914,378.651,426.914z"/>
				<path opacity="0.5" fill="#F04B23" fill-opacity="0.75" d="M368.053,418.895c0-3.75,3.036-6.787,6.784-6.787
					c0.576,0,1.134,0.082,1.669,0.217c-0.892-0.432-1.888-0.68-2.945-0.68c-3.748,0-6.787,3.039-6.787,6.785
					c0,3.172,2.181,5.828,5.121,6.572C369.622,423.904,368.053,421.586,368.053,418.895z"/>
				<g opacity="0.5">
					<g>
						<g>
							<path opacity="0.5" fill="#F04B23" d="M378.665,427.115h1.205c0.034,0,0.068,0.006,0.102,0.006
								c-0.421-0.111-0.862-0.18-1.32-0.18h-1.205c-1.437,0.662-3.032,0.941-4.619,0.818
								C374.803,428.182,376.857,427.947,378.665,427.115z"/>
						</g>
						<g>
							<path opacity="0.5" fill="#F04B23" d="M368.842,463.592v-14.42h-1.217v14.248c0,1.404,1.139,2.545,2.544,2.545h0.298
								C369.517,465.594,368.842,464.674,368.842,463.592z"/>
						</g>
						<g>
							<path opacity="0.5" fill="#F04B23" d="M364.6,446.627v-14.42c0-2.813,2.277-5.092,5.092-5.092h0.392
								c-0.136-0.055-0.272-0.113-0.405-0.174h-1.206c-2.812,0-5.09,2.281-5.09,5.09v14.424c0,1.404,1.141,2.543,2.546,2.543h0.298
								C365.275,448.631,364.6,447.709,364.6,446.627z"/>
						</g>
					</g>
				</g>
			</g>
			<g>
				<path fill="#F04B23" fill-opacity="0.5" stroke="#F06623" stroke-width="0.25" stroke-miterlimit="10" d="M396.806,411.645
					c3.747,0,6.788,3.039,6.788,6.785c0,3.748-3.041,6.787-6.788,6.787c-3.748,0-6.788-3.039-6.788-6.787
					C390.018,414.684,393.058,411.645,396.806,411.645 M401.895,426.914h-1.203c-2.409,1.105-5.258,1.154-7.77,0h-1.206
					c-2.812,0-5.089,2.277-5.089,5.088v14.422c0,1.408,1.14,2.543,2.545,2.543h1.696v14.422c0,1.408,1.141,2.547,2.546,2.547h6.784
					c1.407,0,2.546-1.139,2.546-2.547v-14.422h1.696c1.406,0,2.545-1.135,2.545-2.543v-14.422
					C406.985,429.191,404.707,426.914,401.895,426.914z"/>
				<path opacity="0.5" fill="#F04B23" fill-opacity="0.75" d="M391.296,418.895c0-3.75,3.037-6.787,6.786-6.787
					c0.577,0,1.134,0.082,1.668,0.217c-0.892-0.432-1.887-0.68-2.944-0.68c-3.748,0-6.788,3.039-6.788,6.785
					c0,3.172,2.181,5.828,5.121,6.572C392.866,423.904,391.296,421.586,391.296,418.895z"/>
				<g opacity="0.5">
					<g>
						<g>
							<path opacity="0.5" fill="#F04B23" d="M401.909,427.115h1.206c0.033,0,0.067,0.006,0.101,0.006
								c-0.421-0.111-0.862-0.18-1.321-0.18h-1.203c-1.438,0.662-3.033,0.941-4.618,0.818
								C398.046,428.182,400.103,427.947,401.909,427.115z"/>
						</g>
						<g>
							<path opacity="0.5" fill="#F04B23" d="M392.086,463.592v-14.42h-1.218v14.248c0,1.404,1.141,2.545,2.546,2.545h0.298
								C392.761,465.594,392.086,464.674,392.086,463.592z"/>
						</g>
						<g>
							<path opacity="0.5" fill="#F04B23" d="M387.844,446.627v-14.42c0-2.813,2.279-5.092,5.091-5.092h0.394
								c-0.136-0.055-0.272-0.113-0.406-0.174h-1.206c-2.812,0-5.089,2.281-5.089,5.09v14.424c0,1.404,1.14,2.543,2.545,2.543h0.297
								C388.521,448.631,387.844,447.709,387.844,446.627z"/>
						</g>
					</g>
				</g>
			</g>
			<g>
				<path fill="#F04B23" fill-opacity="0.5" stroke="#F06623" stroke-width="0.25" stroke-miterlimit="10" d="M420.05,411.645
					c3.749,0,6.787,3.039,6.787,6.785c0,3.748-3.038,6.787-6.787,6.787c-3.748,0-6.787-3.039-6.787-6.787
					C413.263,414.684,416.302,411.645,420.05,411.645 M425.141,426.914h-1.205c-2.407,1.105-5.26,1.154-7.77,0h-1.205
					c-2.812,0-5.09,2.277-5.09,5.088v14.422c0,1.408,1.139,2.543,2.544,2.543h1.697v14.422c0,1.408,1.141,2.547,2.546,2.547h6.785
					c1.406,0,2.544-1.139,2.544-2.547v-14.422h1.697c1.406,0,2.544-1.135,2.544-2.543v-14.422
					C430.229,429.191,427.951,426.914,425.141,426.914z"/>
				<path opacity="0.5" fill="#F04B23" fill-opacity="0.75" d="M414.54,418.895c0-3.75,3.038-6.787,6.786-6.787
					c0.577,0,1.134,0.082,1.669,0.217c-0.893-0.432-1.888-0.68-2.945-0.68c-3.748,0-6.787,3.039-6.787,6.785
					c0,3.172,2.181,5.828,5.12,6.572C416.111,423.904,414.54,421.586,414.54,418.895z"/>
				<g opacity="0.5">
					<g>
						<g>
							<path opacity="0.5" fill="#F04B23" d="M425.154,427.115h1.205c0.034,0,0.067,0.006,0.101,0.006
								c-0.421-0.111-0.862-0.18-1.319-0.18h-1.205c-1.437,0.662-3.033,0.941-4.618,0.818
								C421.292,428.182,423.347,427.947,425.154,427.115z"/>
						</g>
						<g>
							<path opacity="0.5" fill="#F04B23" d="M415.33,463.592v-14.42h-1.218v14.248c0,1.404,1.141,2.545,2.546,2.545h0.298
								C416.005,465.594,415.33,464.674,415.33,463.592z"/>
						</g>
						<g>
							<path opacity="0.5" fill="#F04B23" d="M411.089,446.627v-14.42c0-2.813,2.278-5.092,5.091-5.092h0.393
								c-0.136-0.055-0.272-0.113-0.406-0.174h-1.205c-2.812,0-5.09,2.281-5.09,5.09v14.424c0,1.404,1.139,2.543,2.544,2.543h0.298
								C411.764,448.631,411.089,447.709,411.089,446.627z"/>
						</g>
					</g>
				</g>
			</g>
			<g>
				<path fill="#F04B23" fill-opacity="0.5" stroke="#F06623" stroke-width="0.25" stroke-miterlimit="10" d="M443.295,411.645
					c3.747,0,6.787,3.039,6.787,6.785c0,3.748-3.04,6.787-6.787,6.787c-3.749,0-6.788-3.039-6.788-6.787
					C436.507,414.684,439.546,411.645,443.295,411.645 M448.385,426.914h-1.205c-2.408,1.105-5.258,1.154-7.77,0h-1.205
					c-2.811,0-5.089,2.277-5.089,5.088v14.422c0,1.408,1.14,2.543,2.544,2.543h1.697v14.422c0,1.408,1.14,2.547,2.545,2.547h6.785
					c1.406,0,2.545-1.139,2.545-2.547v-14.422h1.697c1.405,0,2.545-1.135,2.545-2.543v-14.422
					C453.475,429.191,451.195,426.914,448.385,426.914z"/>
				<path opacity="0.5" fill="#F04B23" fill-opacity="0.75" d="M437.785,418.895c0-3.75,3.037-6.787,6.785-6.787
					c0.576,0,1.133,0.082,1.669,0.217c-0.892-0.432-1.888-0.68-2.944-0.68c-3.749,0-6.788,3.039-6.788,6.785
					c0,3.172,2.181,5.828,5.12,6.572C439.355,423.904,437.785,421.586,437.785,418.895z"/>
				<g opacity="0.5">
					<g>
						<g>
							<path opacity="0.5" fill="#F04B23" d="M448.398,427.115h1.205c0.033,0,0.068,0.006,0.102,0.006
								c-0.421-0.111-0.862-0.18-1.32-0.18h-1.205c-1.436,0.662-3.033,0.941-4.618,0.818
								C444.536,428.182,446.592,427.947,448.398,427.115z"/>
						</g>
						<g>
							<path opacity="0.5" fill="#F04B23" d="M438.574,463.592v-14.42h-1.217v14.248c0,1.404,1.14,2.545,2.545,2.545h0.298
								C439.25,465.594,438.574,464.674,438.574,463.592z"/>
						</g>
						<g>
							<path opacity="0.5" fill="#F04B23" d="M434.334,446.627v-14.42c0-2.813,2.277-5.092,5.09-5.092h0.393
								c-0.135-0.055-0.272-0.113-0.406-0.174h-1.205c-2.811,0-5.089,2.281-5.089,5.09v14.424c0,1.404,1.14,2.543,2.544,2.543h0.298
								C435.008,448.631,434.334,447.709,434.334,446.627z"/>
						</g>
					</g>
				</g>
			</g>
		</g>
		<g>
			<g>
				<path fill="#F04B23" fill-opacity="0.5" stroke="#F06623" stroke-width="0.25" stroke-miterlimit="10" d="M484.965,411.645
					c3.748,0,6.787,3.039,6.787,6.785c0,3.748-3.039,6.787-6.787,6.787s-6.787-3.039-6.787-6.787
					C478.178,414.684,481.217,411.645,484.965,411.645 M490.055,426.914h-1.206c-2.406,1.105-5.257,1.154-7.769,0h-1.204
					c-2.812,0-5.091,2.277-5.091,5.088v14.422c0,1.408,1.141,2.543,2.546,2.543h1.697v14.422c0,1.408,1.138,2.547,2.544,2.547h6.785
					c1.406,0,2.545-1.139,2.545-2.547v-14.422h1.697c1.404,0,2.545-1.135,2.545-2.543v-14.422
					C495.145,429.191,492.866,426.914,490.055,426.914z"/>
				<path opacity="0.5" fill="#F04B23" fill-opacity="0.75" d="M479.456,418.895c0-3.75,3.036-6.787,6.785-6.787
					c0.575,0,1.133,0.082,1.669,0.217c-0.893-0.432-1.889-0.68-2.945-0.68c-3.748,0-6.787,3.039-6.787,6.785
					c0,3.172,2.179,5.828,5.12,6.572C481.025,423.904,479.456,421.586,479.456,418.895z"/>
				<g opacity="0.5">
					<g>
						<g>
							<path opacity="0.5" fill="#F04B23" d="M490.068,427.115h1.205c0.034,0,0.068,0.006,0.101,0.006
								c-0.419-0.111-0.861-0.18-1.319-0.18h-1.206c-1.435,0.662-3.032,0.941-4.618,0.818
								C486.206,428.182,488.262,427.947,490.068,427.115z"/>
						</g>
						<g>
							<path opacity="0.5" fill="#F04B23" d="M480.245,463.592v-14.42h-1.217v14.248c0,1.404,1.138,2.545,2.544,2.545h0.297
								C480.92,465.594,480.245,464.674,480.245,463.592z"/>
						</g>
						<g>
							<path opacity="0.5" fill="#F04B23" d="M476.004,446.627v-14.42c0-2.813,2.277-5.092,5.091-5.092h0.393
								c-0.136-0.055-0.272-0.113-0.407-0.174h-1.204c-2.812,0-5.091,2.281-5.091,5.09v14.424c0,1.404,1.141,2.543,2.546,2.543
								h0.298C476.678,448.631,476.004,447.709,476.004,446.627z"/>
						</g>
					</g>
				</g>
			</g>
			<g>
				<path fill="#F04B23" fill-opacity="0.5" stroke="#F06623" stroke-width="0.25" stroke-miterlimit="10" d="M508.21,411.645
					c3.747,0,6.787,3.039,6.787,6.785c0,3.748-3.04,6.787-6.787,6.787c-3.749,0-6.788-3.039-6.788-6.787
					C501.422,414.684,504.461,411.645,508.21,411.645 M513.299,426.914h-1.204c-2.408,1.105-5.259,1.154-7.771,0h-1.205
					c-2.811,0-5.089,2.277-5.089,5.088v14.422c0,1.408,1.139,2.543,2.545,2.543h1.697v14.422c0,1.408,1.14,2.547,2.545,2.547h6.784
					c1.407,0,2.546-1.139,2.546-2.547v-14.422h1.696c1.406,0,2.545-1.135,2.545-2.543v-14.422
					C518.389,429.191,516.111,426.914,513.299,426.914z"/>
				<path opacity="0.5" fill="#F04B23" fill-opacity="0.75" d="M502.7,418.895c0-3.75,3.036-6.787,6.786-6.787
					c0.575,0,1.133,0.082,1.666,0.217c-0.891-0.432-1.886-0.68-2.942-0.68c-3.749,0-6.788,3.039-6.788,6.785
					c0,3.172,2.18,5.828,5.119,6.572C504.27,423.904,502.7,421.586,502.7,418.895z"/>
				<g opacity="0.5">
					<g>
						<g>
							<path opacity="0.5" fill="#F04B23" d="M513.313,427.115h1.206c0.032,0,0.067,0.006,0.101,0.006
								c-0.42-0.111-0.862-0.18-1.32-0.18h-1.204c-1.437,0.662-3.033,0.941-4.619,0.818
								C509.449,428.182,511.506,427.947,513.313,427.115z"/>
						</g>
						<g>
							<path opacity="0.5" fill="#F04B23" d="M503.49,463.592v-14.42h-1.218v14.248c0,1.404,1.14,2.545,2.545,2.545h0.298
								C504.164,465.594,503.49,464.674,503.49,463.592z"/>
						</g>
						<g>
							<path opacity="0.5" fill="#F04B23" d="M499.248,446.627v-14.42c0-2.813,2.277-5.092,5.091-5.092h0.394
								c-0.137-0.055-0.273-0.113-0.408-0.174h-1.205c-2.811,0-5.089,2.281-5.089,5.09v14.424c0,1.404,1.139,2.543,2.545,2.543
								h0.298C499.923,448.631,499.248,447.709,499.248,446.627z"/>
						</g>
					</g>
				</g>
			</g>
			<g>
				<path fill="#F04B23" fill-opacity="0.5" stroke="#F06623" stroke-width="0.25" stroke-miterlimit="10" d="M531.453,411.645
					c3.749,0,6.787,3.039,6.787,6.785c0,3.748-3.038,6.787-6.787,6.787c-3.748,0-6.787-3.039-6.787-6.787
					C524.666,414.684,527.705,411.645,531.453,411.645 M536.544,426.914h-1.205c-2.407,1.105-5.259,1.154-7.77,0h-1.204
					c-2.813,0-5.091,2.277-5.091,5.088v14.422c0,1.408,1.14,2.543,2.545,2.543h1.696v14.422c0,1.408,1.14,2.547,2.546,2.547h6.785
					c1.407,0,2.545-1.139,2.545-2.547v-14.422h1.696c1.405,0,2.545-1.135,2.545-2.543v-14.422
					C541.633,429.191,539.355,426.914,536.544,426.914z"/>
				<path opacity="0.5" fill="#F04B23" fill-opacity="0.75" d="M525.943,418.895c0-3.75,3.038-6.787,6.787-6.787
					c0.576,0,1.133,0.082,1.668,0.217c-0.893-0.432-1.887-0.68-2.945-0.68c-3.748,0-6.787,3.039-6.787,6.785
					c0,3.172,2.181,5.828,5.121,6.572C527.516,423.904,525.943,421.586,525.943,418.895z"/>
				<g opacity="0.5">
					<g>
						<g>
							<path opacity="0.5" fill="#F04B23" d="M536.558,427.115h1.206c0.033,0,0.066,0.006,0.1,0.006
								c-0.421-0.111-0.862-0.18-1.319-0.18h-1.205c-1.438,0.662-3.032,0.941-4.619,0.818
								C532.695,428.182,534.75,427.947,536.558,427.115z"/>
						</g>
						<g>
							<path opacity="0.5" fill="#F04B23" d="M526.734,463.592v-14.42h-1.219v14.248c0,1.404,1.14,2.545,2.546,2.545h0.297
								C527.408,465.594,526.734,464.674,526.734,463.592z"/>
						</g>
						<g>
							<path opacity="0.5" fill="#F04B23" d="M522.492,446.627v-14.42c0-2.813,2.278-5.092,5.092-5.092h0.393
								c-0.137-0.055-0.273-0.113-0.407-0.174h-1.204c-2.813,0-5.091,2.281-5.091,5.09v14.424c0,1.404,1.14,2.543,2.545,2.543h0.298
								C523.167,448.631,522.492,447.709,522.492,446.627z"/>
						</g>
					</g>
				</g>
			</g>
			<g>
				<path fill="#F04B23" fill-opacity="0.5" stroke="#F06623" stroke-width="0.25" stroke-miterlimit="10" d="M554.699,411.645
					c3.747,0,6.787,3.039,6.787,6.785c0,3.748-3.04,6.787-6.787,6.787c-3.75,0-6.789-3.039-6.789-6.787
					C547.91,414.684,550.949,411.645,554.699,411.645 M559.789,426.914h-1.206c-2.407,1.105-5.259,1.154-7.769,0h-1.206
					c-2.812,0-5.09,2.277-5.09,5.088v14.422c0,1.408,1.141,2.543,2.546,2.543h1.697v14.422c0,1.408,1.139,2.547,2.544,2.547h6.786
					c1.406,0,2.545-1.139,2.545-2.547v-14.422h1.695c1.406,0,2.546-1.135,2.546-2.543v-14.422
					C564.878,429.191,562.6,426.914,559.789,426.914z"/>
				<path opacity="0.5" fill="#F04B23" fill-opacity="0.75" d="M549.189,418.895c0-3.75,3.036-6.787,6.785-6.787
					c0.576,0,1.133,0.082,1.668,0.217c-0.892-0.432-1.888-0.68-2.943-0.68c-3.75,0-6.789,3.039-6.789,6.785
					c0,3.172,2.181,5.828,5.121,6.572C550.759,423.904,549.189,421.586,549.189,418.895z"/>
				<g opacity="0.5">
					<g>
						<g>
							<path opacity="0.5" fill="#F04B23" d="M559.802,427.115h1.206c0.033,0,0.067,0.006,0.101,0.006
								c-0.421-0.111-0.862-0.18-1.319-0.18h-1.206c-1.436,0.662-3.032,0.941-4.618,0.818
								C555.939,428.182,557.994,427.947,559.802,427.115z"/>
						</g>
						<g>
							<path opacity="0.5" fill="#F04B23" d="M549.979,463.592v-14.42h-1.217v14.248c0,1.404,1.139,2.545,2.544,2.545h0.298
								C550.653,465.594,549.979,464.674,549.979,463.592z"/>
						</g>
						<g>
							<path opacity="0.5" fill="#F04B23" d="M545.736,446.627v-14.42c0-2.813,2.278-5.092,5.092-5.092h0.393
								c-0.137-0.055-0.273-0.113-0.406-0.174h-1.206c-2.812,0-5.09,2.281-5.09,5.09v14.424c0,1.404,1.141,2.543,2.546,2.543h0.298
								C546.412,448.631,545.736,447.709,545.736,446.627z"/>
						</g>
					</g>
				</g>
			</g>
		</g>
	</g>
</g>
</svg>
