<?xml version="1.0" encoding="utf-8"?>
<!-- Generator: Adobe Illustrator 16.0.0, SVG Export Plug-In . SVG Version: 6.00 Build 0)  -->
<!DOCTYPE svg PUBLIC "-//W3C//DTD SVG 1.1//EN" "http://www.w3.org/Graphics/SVG/1.1/DTD/svg11.dtd">
<svg version="1.1" id="Layer_1" xmlns="http://www.w3.org/2000/svg" xmlns:xlink="http://www.w3.org/1999/xlink" x="0px" y="0px"
	 width="660.5px" height="479.976px" viewBox="0 0 660.5 479.976" enable-background="new 0 0 660.5 479.976" xml:space="preserve">
<g>
	<circle opacity="0.1" fill="#EF4A23" cx="363" cy="239.988" r="239.987"/>
	<circle fill="#EF4A23" cx="162.88" cy="263.198" r="14.5"/>
	<circle fill="#EF4A23" cx="162.547" cy="220.865" r="14.5"/>
	<circle fill="#EF4A23" cx="182.214" cy="189.865" r="14.5"/>
	<circle fill="#EF4A23" cx="232.547" cy="250.531" r="14.5"/>
	<circle fill="#EF4A23" cx="186.547" cy="309.532" r="14.5"/>
	<circle fill="#EF4A23" cx="237.214" cy="300.865" r="14.5"/>
	<circle fill="#EF4A23" cx="272.547" cy="318.531" r="14.5"/>
	<circle fill="#EF4A23" cx="311.214" cy="253.531" r="14.5"/>
	<circle fill="#EF4A23" cx="336.547" cy="283.531" r="14.5"/>
	<circle fill="#EF4A23" cx="454.881" cy="309.864" r="14.5"/>
	<circle fill="#EF4A23" cx="405.881" cy="156.864" r="14.5"/>
	<circle fill="#EF4A23" cx="400.381" cy="120.364" r="14.5"/>
	<circle fill="#EF4A23" cx="433.881" cy="132.864" r="14.5"/>
	<circle fill="#EF4A23" cx="469.881" cy="90.364" r="14.5"/>
	<circle fill="#EF4A23" cx="475.881" cy="153.364" r="14.5"/>
	<circle fill="#EF4A23" cx="500.881" cy="117.864" r="14.5"/>
	<circle fill="#EF4A23" cx="519.881" cy="156.364" r="14.5"/>
	<circle fill="#EF4A23" cx="509.381" cy="187.864" r="14.5"/>
	<circle fill="#EF4A23" cx="481.547" cy="335.531" r="14.5"/>
	<circle fill="#EF4A23" cx="497.88" cy="302.197" r="14.5"/>
	<circle fill="#EF4A23" cx="523.713" cy="328.614" r="14.5"/>
	<circle fill="#EF4A23" cx="352.547" cy="237.198" r="14.5"/>
	<circle fill="#EF4A23" cx="308.214" cy="212.531" r="14.5"/>
	<circle fill="#EF4A23" cx="331.131" cy="184.614" r="14.5"/>
	<circle fill="#EF4A23" cx="303.381" cy="156.864" r="14.5"/>
	<circle fill="#EF4A23" cx="264.131" cy="145.614" r="14.5"/>
	<polyline fill="none" stroke="#EF4A23" stroke-width="5" stroke-miterlimit="10" points="161.38,262.698 163.13,219.948 
		182.63,188.698 231.88,248.948 304.88,213.948 303.381,156.864 262.38,146.448 	"/>
	
		<line fill="none" stroke="#EF4A23" stroke-width="5" stroke-miterlimit="10" x1="186.547" y1="309.532" x2="232.547" y2="250.531"/>
	
		<line fill="none" stroke="#EF4A23" stroke-width="5" stroke-miterlimit="10" x1="304.964" y1="157.281" x2="331.131" y2="184.614"/>
	<polyline fill="none" stroke="#EF4A23" stroke-width="5" stroke-miterlimit="10" points="272.547,318.53 240.63,301.448 
		311.214,253.531 336.547,283.531 351.63,240.948 	"/>
	<polyline fill="none" stroke="#EF4A23" stroke-width="5" stroke-miterlimit="10" points="481.13,333.948 499.63,301.448 
		527.63,327.948 	"/>
	<polyline fill="none" stroke="#EF4A23" stroke-width="5" stroke-miterlimit="10" points="404.13,156.948 400.381,120.364 
		433.63,128.948 469.881,90.364 476.13,151.448 500.881,117.864 518.13,152.948 509.381,187.864 	"/>
	<path opacity="0.3" fill="#EF4A23" d="M485.629,269.615c-0.766,0-1.525,0.027-2.283,0.057l2.58-39.279
		c32.168-12.223,55.037-43.322,55.037-79.778c0-47.128-38.205-85.333-85.333-85.333s-85.333,38.205-85.333,85.333
		c0,12.668,2.782,24.68,7.734,35.49l-10.762,5.557c-18.365-42.202-60.428-71.713-109.39-71.713
		c-65.859,0-119.25,53.39-119.25,119.25c0,65.86,53.391,119.25,119.25,119.25c40.032,0,75.455-19.728,97.083-49.99l72.126,23.504
		c1.9,30.686,27.376,54.987,58.54,54.987c32.401,0,58.667-26.266,58.667-58.667S518.03,269.615,485.629,269.615z M427.003,326.675
		l-69.108-22.521c12.163-18.689,19.235-40.995,19.235-64.956c0-15.121-2.821-29.582-7.955-42.893l11.064-5.713
		c14.335,26.977,42.711,45.355,75.391,45.355c8.761,0,17.212-1.324,25.168-3.777l-2.491,37.916
		C449.888,273.627,427.79,297.485,427.003,326.675z"/>
</g>
<text transform="matrix(1 0 0 1 540.2607 60.7036)" opacity="0.8" fill="#EF4A23" font-family="'OpenSans-Regular'" font-size="26.4074">Individual</text>
<polyline opacity="0.8" fill="none" stroke="#EF4A23" stroke-miterlimit="10" points="660.5,66.449 540.5,66.449 510.563,108.386 
	"/>
<g opacity="0.8">
	<text transform="matrix(1 0 0 1 564.0322 426.0366)" fill="#EF4A23" font-family="'OpenSans-Regular'" font-size="26.4074">Team</text>
</g>
<polyline opacity="0.8" fill="none" stroke="#EF4A23" stroke-miterlimit="10" points="631.167,430.783 566.167,430.783 521,375.949 
	"/>
<g opacity="0.8">
	<text transform="matrix(1 0 0 1 0.2988 428.0366)" fill="#EF4A23" font-family="'OpenSans-Regular'" font-size="26.4074">Organisation</text>
</g>
<polyline opacity="0.8" fill="none" stroke="#EF4A23" stroke-miterlimit="10" points="0,432.783 160,432.783 185.75,401.824 "/>
</svg>
