<?xml version="1.0" encoding="utf-8"?>
<!-- Generator: Adobe Illustrator 16.0.0, SVG Export Plug-In . SVG Version: 6.00 Build 0)  -->
<!DOCTYPE svg PUBLIC "-//W3C//DTD SVG 1.1//EN" "http://www.w3.org/Graphics/SVG/1.1/DTD/svg11.dtd">
<svg version="1.1" id="Layer_1" xmlns="http://www.w3.org/2000/svg" xmlns:xlink="http://www.w3.org/1999/xlink" x="0px" y="0px"
	 width="614.496px" height="568.58px" viewBox="0 0 614.496 568.58" enable-background="new 0 0 614.496 568.58"
	 xml:space="preserve">
<g>
	<g>
		<g>
			<defs>
				<rect id="SVGID_1_" x="-0.001" y="76.139" width="601.748" height="493.359"/>
			</defs>
			<clipPath id="SVGID_2_">
				<use xlink:href="#SVGID_1_"  overflow="visible"/>
			</clipPath>
			<g clip-path="url(#SVGID_2_)">
				<path fill="#FEEEE9" d="M306.127,417.664l-23.126-8.411c0,0-35.392,39.244-100.564,54.661
					C117.261,479.331-5.377,480.733-5.377,480.733l-1.402,22.892c0,0,143.899-5.142,158.849-8.877
					c14.949-3.737,80.823-23.824,89.702-28.968c8.878-5.135,61.202-37.376,66.343-42.513
					C313.255,418.126,306.127,417.664,306.127,417.664z"/>
				<path fill="#FEEEE9" d="M350.275,340.924l-87.948,59.921l18.691,18.685c0,0,17.984,3.504,37.606-16.117
					c19.623-19.624,40.652-36.558,43.921-38.896c3.27-2.332,3.148-4.146,3.148-4.146L350.275,340.924z"/>
				<path fill="#F8BCAD" d="M-3.976,506.663c0,0,119.136,1.166,185.36-14.717c67.691-16.238,156.628-64.646,184.311-131.574
					c0,0-0.259,0.202-0.75,0.581c-7.891,6.143-74.585,53.44-85.799,58.576c0,0,16.354,0.466,23.597,0.466
					c0,0-58.4,49.297-120.306,64.942C120.533,500.592-5.028,498.955-5.028,498.955L-3.976,506.663z"/>
			</g>
		</g>
		<g>
			<defs>
				<rect id="SVGID_3_" x="-0.001" y="76.139" width="601.748" height="493.359"/>
			</defs>
			<clipPath id="SVGID_4_">
				<use xlink:href="#SVGID_3_"  overflow="visible"/>
			</clipPath>
			<g clip-path="url(#SVGID_4_)">
				<polygon fill="#FBDDD6" points="390.236,302.178 366.645,295.811 392.513,314.266 414.063,314.968 392.863,302.178 				"/>
				<path fill="#FEEEE9" d="M413.594,312.396l-21.081,1.87c0,0-34.045,68.206-66.75,96.709
					c-32.705,28.504-76.622,60.621-103.718,69.03c-27.098,8.409-64.823,25.577-130.816,27.682l-98.695,1.751l1.054,20.675
					c0,0,112.597,1.402,159.782-7.475c47.187-8.875,85.032-21.959,110.727-34.574c25.693-12.614,80.826-55.134,93.906-71.948
					c13.08-16.819,36.441-50.46,45.784-70.548c9.344-20.089,14.485-33.172,14.485-33.172H413.594z"/>
				<path fill="#FEEEE9" d="M451.44,227.132l-21.957-1.4c0,0-50.928,63.307-62.84,70.08l23.827,7.943L451.44,227.132z"/>
				<path fill="#FAC0B2" d="M451.44,226.432c0,0-44.736,59.103-61.905,77.146l22.6,11.915c0,0-64.88,115.576-108.795,141.271
					c-67.45,39.464-89.354,52.323-148.922,61.085c-59.568,8.758-161.534,7.707-161.534,7.707l-3.97,18.106
					c0,0,125.676,1.871,170.995-7.009c45.319-8.874,123.806-25.692,159.777-63.071c35.975-37.37,100.915-108.394,110.263-138.762
					c9.345-30.365,22.89-32.937,22.89-32.937L451.44,226.432z"/>
			</g>
		</g>
		<g>
			<defs>
				<rect id="SVGID_5_" x="-0.001" y="76.139" width="601.748" height="493.359"/>
			</defs>
			<clipPath id="SVGID_6_">
				<use xlink:href="#SVGID_5_"  overflow="visible"/>
			</clipPath>
			<g clip-path="url(#SVGID_6_)">
				<polygon fill="#FBDDD6" points="476.141,172.531 456.107,171.187 475.439,188.649 496.988,187.072 477.894,171.479 				"/>
				<polygon fill="#FEEEE9" points="533.896,85.339 514.273,83.938 456.107,171.187 476.781,174.69 				"/>
				<polygon fill="#FEEEE9" points="517.839,203.892 536.584,214.053 512.057,213.527 				"/>
				<path fill="#FEEEE9" d="M498.74,185.67l-22.774,1.752c0,0-43.801,239.496-209.188,308.176
					c-21.922,9.101-41.45,19.035-60.969,24.003C106.645,544.829-7.232,535.718-7.232,535.718l-1.754,32.236
					c0,0,138.991,21.496,269.808-32.7c130.814-54.196,146.699-99.048,159.78-119.61c13.084-20.55,69.146-181.269,78.49-202.761
					C508.436,191.392,498.74,185.67,498.74,185.67z"/>
				<path fill="#F8BCAD" d="M-8.282,565.151c0,0,97.642-2.802,156.979-9.811c138.584-16.368,230.792-115.401,230.792-115.401
					c96.24-98.111,116.623-252.429,116.623-252.429l-22.015-13.053c4.556-2.454,60.033-89.352,60.033-89.352l2.804,129.53
					l-17.754-8.176c-10.746,70.429-61.204,221.332-160.248,288.609c-118.422,80.439-198.56,74.867-198.56,74.867H-10.619
					L-8.282,565.151z"/>
			</g>
		</g>
	</g>
	<g>
		<g>
			<path fill="#F8A591" d="M500.434,437.185c3.325,4.692,5.526,10.074,8.938,14.71c-1.104,1.014-0.369,2.163,0.053,3.012
				c1.045,2.095,1.703,4.382,3.126,6.287c0.675,2.556,1.151,5.106,0.12,7.703c-0.427,1.071-0.771,2.278-1.773,2.874
				c-2.127,1.259-3.053,3.289-3.993,5.398c-1.597,3.585-3.737,6.897-5.446,10.435c-1.305,2.704-2.328,5.29,0.523,7.693
				c0.43,0.354,0.598,0.97,0.744,1.525c0.308,1.392,2.383,3.24-0.935,3.735c1.12,0.984,0.42,1.442-0.53,1.833
				c0.499,0.525,1.266,1.085,1.524,1.489c0.917,1.419,1.994,0.946,3.127,0.812c0.851,0.263,1.246,1.008,1.726,1.658
				c1.271,1.729,2.741,3.165,4.729,4.139c2.588,1.267,3.102,3.24,1.477,5.623c-1.172,1.719-1.867,3.617-2.668,5.487
				c-0.286,0.551-0.703,1.007-1.141,1.45c-0.978,0.963-2.188,1.56-3.425,2.118c-1.315,0.366-2.646,1.121-3.903-0.143
				c-0.525-1.508,0.581-2.229,1.477-3.034c2.104-1.877,2.296-2.623,1.327-5.344c-1.289-3.617-3.78-6.442-6.273-9.235
				c-1.356-1.518-2.78-2.989-4.472-4.155c-1.752-1.817-3.143-3.927-4.709-5.887c-1.778-2.223-1.765-4.79-1.022-7.411
				c1.485-4.305,1.485-8.859,2.313-13.277c0.302-1.609,0.673-3.196,1.137-4.771c0.577-1.971,1.69-2.721,3.659-1.8
				c0.677,0.256,1.333,0.575,2.052,0.729c0.532,0.146,1.039,0.377,1.557,0.508c0.11,0.01,0.223,0.139,0.311,0.132
				c0.117-0.012,0.085-0.104-0.111-0.109c-0.456-0.137-0.896-0.269-1.322-0.438c-0.54-0.198-1.107-0.285-1.636-0.505
				c-3.348-1.315-6.263-3.356-9.241-5.804c-0.065,3.806,0.157,7.204,0.756,10.578c0.134,0.729,0.255,1.45,0.247,2.194
				c-0.023,2.533-1.128,3.449-3.561,2.892c-0.713-0.158-1.398-0.46-2.15-0.453c-1.896-0.854-3.909-1.142-5.964-1.229
				c-1.323-0.061-2.604-0.328-3.817-0.857c-0.712-0.318-1.269-0.822-1.144-1.697c0.134-0.872,0.77-1.2,1.58-1.261
				c1.391-0.115,2.771-0.328,4.105-0.729c2.776-0.826,3.549-2.086,3.137-4.922c-0.387-2.623-1.549-4.998-2.309-7.501
				c-0.395-1.303-1.955-1.479-2.391-2.682c0.6-0.489,1.35-0.608,0.862-1.917c-1.57-4.237,1.147-7.225,5.647-6.499
				c2.084,0.333,4.065,1.095,6.438,1.565c-1.224-2.037-2.972-3.347-3.812-5.284c-0.291-0.805,0.262-1.417,0.63-2.053
				c-0.412,0.903-1.229,1.374-1.897,1.987c-1.509,1.138-3.138,2.081-4.723,3.084c-2.453,1.541-5.089,2.007-7.984,1.563
				c-3.39-0.515-6.789-0.975-10.167-1.569c-1.32-0.231-2.599-0.192-3.865,0.272c-0.773,0.283-1.562,0.497-2.383,0.159
				c-0.063-0.045-0.188-0.093-0.188-0.138c0.061-3.021-1.175-4.902-4.419-5.016c0.552-1.407,2.153-1.645,3.084-2.695
				c0.428-0.476,1.688,0.322,2.417,0.827c2.997,2.068,6.278,1.354,9.504,1.015c2.271-0.24,4.512-0.713,6.801-0.866
				c1.731-0.114,5.539-3.476,5.868-5.063c0.223-1.04-1.811-4.934-3.118-5.591c-4.211-2.098-7.5-5.604-11.55-7.813
				c-6.641-3.611-10.29-9.585-13.955-15.674c-1.183-1.957-2.746-3.68-3.549-5.864c-1.006-2.44,0.959-4.495,0.953-6.854
				c-0.005-0.765,1.336-0.591,2.148-0.441c0.37,0.186,0.627,0.427,0.405,0.881c-0.522,2.848,0.162,5.207,2.274,7.342
				c3.552,3.581,7.657,6.664,10.258,11.143c0.32,0.558,1.158,0.941,1.833,1.139c3.549,1.014,6.284,3.746,9.892,4.614
				c1.593,0.384,1.442,1.899,1.929,3.472c0.893-3.355,1.859-6.225,3.544-8.786c0.181-0.272,0.311-0.574,0.483-0.848
				c0.692-1.107-0.214-3.024,1.568-3.499c1.445-0.391,2.24,1.229,3.581,1.532c2.837,0.646,5.386,1.928,7.122,4.406
				c2.043,2.919,1.885,5.947-0.703,8.398c-1.467,1.396-1.347,2.2,0.381,3.049C495.331,430.802,497.871,434.005,500.434,437.185z"/>
			<path fill="#F4785A" d="M505.963,504.988c-0.892-0.061-1.396,0.811-2.195,0.941c-0.53,0.088-1.253,0.323-1.538-0.284
				c-0.36-0.767,0.995-0.428,0.905-1.183c-0.571-0.674-1.145,0.246-1.729,0.047c-0.295-0.097-0.892-0.217-0.695-0.448
				c1.64-1.965-0.907-0.508-0.921-1.132c-0.002-0.159-0.306-0.313-0.518-0.505c0.8-0.689,2.028-0.042,2.675-1.11
				c-0.623-0.523-1.701,0.12-2.318-0.755c0.271-0.176,0.452-0.39,0.633-0.396c1.905-0.031,4.03,0.114,1.911-2.731
				c-0.012-0.018,0.213-0.213,0.326-0.322c0.457-0.472,1.085-0.567,1.59-0.317c4.182,2.092,8.35,0.341,12.502-0.057
				c2.595-0.239,5.145-0.994,7.793-0.452c1.249,0.251,2.234-0.4,3.058-1.242c2.358-2.408,4.962-4.519,7.728-6.437
				c0.612-0.419,1.089-0.983,1.559-1.558c2.355-2.896,2.299-3.379-1.381-4.383c-3.753-1.018-5.932-4.396-9.376-5.851
				c-0.661-0.279-1.221-1.228-0.147-1.961c0.474-0.115,0.711,0.269,1.025,0.493c-0.169-0.259-0.285-0.542-0.33-0.843
				c-0.164-1.123,0.368-2.056,0.832-3.007c0.384-0.719,0.771-1.43,1.231-2.104c0.604-0.843,1.301-1.725,2.329-1.899
				c0.811-0.138,0.084-0.743,0.474-0.882c1.829-1.356,3.664-0.951,5.486-0.005c1.995,1.04,3.557,2.618,4.858,4.387
				c1.327,1.801,2.968,2.436,5.093,2.093c0.323-0.058,0.651-0.074,0.977-0.101c5.676-0.525,8.07,0.705,10.414,5.94
				c1.612,3.597,3.547,6.919,6.138,9.876c3.741,5.93,7.399,11.901,10.624,18.145c2.09,4.034,2.664,8.004,1.541,12.292
				c-0.271,1.033-0.435,1.899,0.593,2.572c3.533,5.875,7.064,11.75,10.603,17.612c0.425,0.707,0.856,1.429,1.704,1.688
				c3.688,1.138,6.267,3.756,8.749,6.509c2.385,2.645,5.09,4.841,8.407,6.242c1.459,0.613,2.919,0.893,4.501,0.983
				c2.852,0.165,3.743,1.623,2.723,4.305c-0.643,1.681-1.414,3.31-1.352,5.163c0.19,1.729-0.578,3.039-1.776,4.177
				c-2.771,1.737-4.979,1.535-6.294-0.575c0.035-0.823,0.602-1.328,1.201-1.751c1.788-1.25,1.483-2.709,0.499-4.265
				c-1.146-1.803-2.93-2.81-4.733-3.795c-4.316-2.35-8.896-4.155-13.269-6.394c-3.385-1.741-6.329-3.926-8.853-6.861
				c-2.438-2.841-5.586-5.015-8.454-7.451c-1.561-1.33-3.056-2.727-4.375-4.292c-1.988-2.354-1.928-3.166,0.229-5.42
				c0.453-0.472,0.918-0.926,1.335-1.423c0.182-0.253,0.523-0.355,0.622-0.68c-0.137,0.191-0.328,0.338-0.508,0.504
				c-3.391,3.812-7.677,6.624-11.246,10.217c-2.146,2.161-2.141,2.161-0.531,4.692c2.104,3.301,2.289,7.115,2.734,10.821
				c0.528,4.388,1.006,8.768,2.346,13.003c0.145,0.788,0.168,1.571-0.059,2.361c-0.098,0.269-0.244,0.503-0.44,0.717
				c-0.321,0.316-0.716,0.497-1.15,0.608c-4.771,0.163-9.547,0.479-14.31-0.222c-0.555-0.34-0.654-0.859-0.561-1.444
				c1.027-1.601,2.946-1.538,4.423-2.312c3.586-1.877,3.982-2.704,2.667-6.549c-0.636-1.854-1.761-3.475-2.456-5.298
				c-0.281-1.068-0.518-2.163-1.292-3.028c-0.51-0.596-0.879-1.264-1.051-2.037c-0.165-0.826-0.393-1.638-0.733-2.414
				c-0.097-0.186-0.182-0.378-0.266-0.572c-0.583-1.268-1.138-2.543-1.955-3.688c-0.745-1.183-1.465-2.369-1.539-3.814
				c-0.026-0.587,0-1.166,0.1-1.741c0.041-0.23,0.102-0.453,0.169-0.674c0.34-1.959,1.477-3.574,2.278-5.338
				c0.667-1.528,1.421-2.994,2.611-4.195c3.102-3.497,5.306-7.651,8.213-11.3c1.046-1.313,0.408-2.66-0.227-3.915
				c-1.505-2.968-3.96-5.188-6.102-7.644c-1.559-1.778-3.478-3.245-4.685-5.327c-0.58-1.006-1.229-1.177-2.166-0.416
				c-4.189,3.401-9.372,4.95-14.028,7.483c-2.95,1.611-5.912,0.696-8.881,0.4c-2.189-0.22-4.403-0.472-6.545-0.913
				C510.627,502.99,508.219,503.351,505.963,504.988z"/>
			<path fill="#F4785A" d="M531.383,466.613c0.318,1.956-2.139,1.634-2.501,3.033c-0.596,0.51-1.155,1.03-0.913,1.933
				c-0.533,1.073-0.994,2.119-1.027,3.396c-0.039,1.342-0.608,0-0.935,0.061c-6.657-2.547-9.98-8.414-13.766-13.823
				c-2.39-2.82-3.679-6.119-4.263-9.846c0.599-0.268,0.871,0.555,1.393,0.53c3.089,5.109,7.038,9.305,12.479,11.964
				c1.396,0.686,2.415,1.921,3.654,2.826C527.403,468.07,529.448,468.443,531.383,466.613z"/>
			<path fill="#F4785A" d="M450.25,444.998c0.32,0.021,0.64,0.052,0.961,0.057c3.635,0.027,4.626,1.419,3.536,4.976
				c1.134,4.086,2.062,8.219,3.12,12.314c0.853,3.289,2.12,6.12,5.071,8.047c1.147,0.756,2.143,1.773,2.608,2.47
				c-1.802-1.407-1.203-3.441-0.689-5.955c0.803-3.98,4.411-6.191,5.37-9.944c0.211-0.838,1.222-1.329,2.009-0.957
				c1.479,0.717,3.294,0.985,4.156,2.678c2.874,1.894,6.033,9.597,5.338,13.03c-0.271,1.346-1.273,2.063-2.423,2.546
				c-1.726,0.717-3.56,1.115-5.427,1.161c-0.599,0.016-1.185-0.181-1.358,0.559c-0.209,0.86,0.517,1.105,1.112,1.348
				c2.228,0.896,4.651,0.551,6.962,1.022c1.029,0.214,1.768,0.74,2.646,1.104c0.835-0.169,1.163,0.526,1.491,1.015
				c1.742,2.562,3.138,5.333,4.438,8.14c0.237,0.522,0.425,1.082-0.017,1.612c0.122,2.704-0.284,5.579,1.997,7.69
				c1.575,1.462,2.516,3.391,3.873,4.998c2.015,4.684,3.697,9.348,2.586,14.658c-0.506,2.431-0.029,5.037,0.419,7.533
				c0.093,0.535,0.132,1.073,0.14,1.615c0.044,1.855-0.202,3.716,0.209,5.558c0.1,0.365,0.159,0.75,0.19,1.127
				c0.006,1.446,0.317,2.843,0.709,4.222c0.068,0.214,0.122,0.433,0.162,0.65c0.111,1.193,0.641,2.241,1.198,3.265
				c0.106,0.169,0.205,0.344,0.302,0.515c0.255,0.422,0.63,0.688,1.089,0.854c0.182,0.066,0.353,0.143,0.525,0.217
				c0.352,0.148,0.715,0.26,1.082,0.37c0.187,0.055,0.364,0.137,0.539,0.217c0.528,0.286,1.081,0.513,1.623,0.757
				c0.194,0.088,0.379,0.187,0.563,0.291c0.928,0.558,1.828,1.148,2.733,1.747c2.271,1.575,4.393,3.359,6.748,4.814
				c0.632,0.456,1.337,0.772,2.043,1.097c0.913,0.502,1.927,0.7,2.935,0.915c1.066,0.355,2.25,0.075,3.286,0.581
				c1.271,0.805,1.802,2.014,1.177,3.332c-1.284,2.724-2.021,5.629-3.109,8.41c-0.384,0.991-0.974,1.868-1.952,2.404
				c-1.885,0.662-3.756,1.067-5.541-0.27c-0.625-1.023,0.05-1.653,0.68-2.325c1.837-1.962,1.917-2.888,0.491-5.158
				c-0.896-1.424-2.1-2.447-3.677-3.121c-4.172-1.769-8.551-2.83-12.91-3.959c-4.594-1.187-8.117-3.283-10.04-8.038
				c-1.805-4.472-4.221-8.692-5.347-13.435c-0.245-1.029-0.668-2.03-0.538-3.122c0.089-0.306,0.313-0.54,0.424-0.839
				c-0.269,0.215-0.418,0.539-0.686,0.751c-3.177,2.153-6.526,4.042-9.862,5.92c-2.253,1.271-3.604,2.721-2.687,5.448
				c0.127,0.37,0.064,0.812,0.071,1.22c0.167,4.508,0.396,9.014-0.384,13.49c0.134,2.952,0.61,5.838,1.437,8.673
				c0.438,1.495,0.786,3.021-0.146,4.489c-0.81,0.876-1.901,0.876-2.946,0.876c-3.986,0.017-7.97,0.114-11.944-0.108
				c-0.288-0.051-0.552-0.158-0.799-0.31c-0.997-1.291-0.314-2.067,0.843-2.669c0.507-0.259,1.085-0.335,1.62-0.509
				c4.646-1.522,5.64-3.066,4.997-7.956c-0.304-2.245-0.699-4.484-1.24-6.69c-0.759-4.391-2.856-8.447-3.247-12.938
				c-0.103-1.21-0.159-2.425-0.249-3.635c0.296-3.769,3.175-5.952,5.325-8.554c3.127-3.775,6.729-7.123,9.96-10.813
				c1.359-1.549,1.505-3.084,0.88-4.972c-0.731-2.186-1.985-4.123-2.718-6.297c-0.417-1.973,1.299-2.979,1.69-4.237
				c-0.753,0.959-1.43,2.382-2.23,3.729c-2.518,3.293-5.892,4.976-9.957,5.566c-3.953,0.568-7.854,1.487-11.796,2.063
				c-2.768,0.396-5.687,0.499-8.063-1.587c-0.517-1.073-0.15-2.315-0.677-3.388c-0.313-1.21,0.434-1.616,1.396-1.857
				c1.073-0.212,2.313,0.51,3.191-0.945c0.388-0.631,1.191,0.174,1.403,0.8c0.703,2.068,2.066,1.878,3.733,1.317
				c3.511-1.172,6.745-2.938,10.14-4.362c1.194-0.504,1.926-1.435,2.521-2.567c1.22-2.316,1.978-4.852,3.403-7.074
				c0.741-1.149,0.102-2.397,0.14-3.603c0.156-1.369,0.158-2.748,0.377-4.105c0.06-0.755,0.416-1.44,0.529-2.185
				c-0.104,0.641-0.384,1.23-0.54,1.855c-0.103,1.188-0.17,2.38-0.47,3.536c-0.942,0.775-1.481-0.088-2.027-0.568
				c-1.025-0.899-2.003-1.862-2.865-2.925c-1.445-2.091-3.545-3.636-4.904-5.795c-0.525-0.562-1.07-1.103-1.627-1.639
				c-0.824-0.795-1.529-1.688-2.05-2.717c-0.44-0.864-0.894-1.726-1.165-2.667c-0.555-2.014-0.682-4.096-1.027-6.143
				c-0.083-1.683,0.169-3.373-0.211-5.044c-0.099-0.359-0.153-0.736-0.185-1.109c-0.064-0.84,0.007-1.687-0.281-2.503
				c-0.077-0.229-0.132-0.466-0.174-0.705c-0.163-1.206-0.104-2.414-0.108-3.626c-0.109-1.872,0.712-2.896,2.751-2.829
				c-1.426-0.46-3.243-0.373-2.874-2.628C450.104,445.179,450.176,445.092,450.25,444.998z"/>
			<path fill="#F4785A" d="M380.536,567.347c-0.388-0.831-0.612-1.483,0.767-1.564c2.256-0.14,4.153-1.344,6.181-2.203
				c1.536-0.649,1.555-1.365,0.778-2.549c-3.842-5.897-6.826-12.281-10.434-18.31c-1.551-2.59-1.535-4.852-0.065-7.321
				c1.915-3.223,3.787-6.471,5.677-9.711c0.656-2.476,2.229-4.475,3.535-6.597c0.877-1.427,1.012-2.651,0-4.015
				c-0.722-0.98-1.109-2.176-1.771-3.188c-1.259-1.932-1.456-3.729,0.325-5.44c1.013-0.987,1.714-2.215,2.53-3.328
				c0.033-0.133,0.125-0.242,0.257-0.319c-0.15-0.054-0.246,0.017-0.287,0.227c-0.777,1.149-1.497,2.326-2.474,3.316
				c-2.046,2.731-4.21,5.375-6.688,7.735c-2.313,2.206-3.838,2.155-5.927-0.36c-2.39-2.897-4.292-6.126-5.824-9.561
				c-0.466-1.038-0.913-2.093-1.581-3.021c-0.37-0.56-0.906-0.931-1.434-1.319c-0.243-0.212-0.429-0.465-0.489-0.793
				c0.005-0.635,0.858-0.756,0.837-1.413c-0.032-0.198-0.044-0.39-0.041-0.585c0.227-0.888,0.2-1.957,1.473-2.092
				c1.217,0.393,0.468-0.827,0.883-1.091c0.178-0.416,0.395-0.786,0.944-0.728c0.979,0.886,1.405,2.155,2.2,3.158
				c0.361,0.352,0.553,0.125,0.709-0.225c0.37-0.946,0.885-1.287,1.706-0.444c0.634,1.331,0.347,2.7,0.174,4.074
				c-0.247,1.911,0.989,3.695,2.794,4.304c0.946,0.322,1.149-0.219,1.355-0.882c0.681-2.179,1.463-4.309,2.339-6.422
				c0.789-1.91-0.628-3-1.873-4.08c-1.288-1.242-2.771-1.542-4.485-1.055c-2.052,0.578-3.869,0.422-4.956-1.786
				c-0.337-0.679-0.977-1.074-1.667-1.357c-0.843-0.34-1.352-0.976-1.318-1.854c0.081-2.188-1.188-3.431-2.886-4.421
				c-0.559-0.729-0.271-1.411,0.12-2.084c0.141-0.202,0.31-0.373,0.493-0.532c2.409-1.64,3.865-4.309,6.334-5.892
				c3.651-2.035,6.729-0.688,9.602,1.681c1.529,1.261,2.657,2.857,3.518,4.628c0.888,1.811,2.196,2.994,4.243,3.262
				c0.978,0.073,1.979,0.188,2.917-0.081c3.124-0.899,5.146,0.678,6.886,2.946c1.746,2.274,2.751,4.976,4.209,7.423
				c1.188,2.337,1.827,4.854,2.481,7.368c1.425,3.599,3.446,6.753,5.946,9.753c4.617,5.519,7.502,12.011,9.302,18.976
				c0.533,2.061,1.239,4.059,2.089,6.002c0.794,2.063,2.005,3.415,4.309,4.207c3.399,1.181,5.593,4.129,7.841,6.84
				c0.363,0.435,0.672,0.928,1.117,1.286c2.195,1.703,4.357,3.418,6.949,4.551c2.619,1.144,3.071,2.416,2.221,5.088
				c-0.844,2.643-1.858,5.233-2.441,7.959c-0.204,0.979-0.688,1.829-1.554,2.415c-2.252,0.915-4.504,1.193-6.734-0.056
				c-0.722-0.976-0.47-1.851,0.447-2.445c1.359-0.89,2.075-2.142,2.458-3.647c0.354-2.206-0.395-3.948-2.205-5.232
				c-1.191-0.85-2.453-1.604-3.619-2.492c-3.953-2.984-8.196-5.466-12.974-6.812c-2.356-0.667-4.067-1.883-5.45-3.854
				c-2.912-4.161-5.704-8.41-8.813-12.428c-0.49-0.638-0.915-1.343-1.623-1.863c-2.748,3.873-6.838,6.099-10.293,9.059
				c-0.808,0.695-1.651,1.336-2.259,2.231c-0.679,1.015-0.727,1.951,0.115,2.908c2.514,2.853,3.696,6.329,4.617,9.927
				c1.009,3.958,1.785,7.981,4.081,11.513c0.94,1.446,0.931,3.019-1.125,3.779c-4.145,0.339-8.281,0.266-12.419-0.067
				C381.703,568.371,381.022,568.088,380.536,567.347z"/>
			<path fill="#F8A591" d="M432.746,548.223c-2.536-2.552-4.418-5.772-7.783-7.458c-0.288-0.146-0.521-0.528-0.796-0.541
				c-2.852-0.1-3.95-2.08-4.796-4.363c-0.612-6.121,0.082-12.19,0.778-18.252c0.213-1.835,0.004-3.538-0.615-5.285
				c-1.609-4.543-2.85-9.188-2.229-14.524c-1.586,1.009-2.569,1.846-3.524,2.698c-2.363,2.104-4.968,2.634-7.965,1.604
				c-1.229-0.428-2.451-0.927-3.78-1.013c-0.776-2.502-1.554-5.005-2.334-7.507c1.809-0.996,3.677-0.335,5.472-0.05
				c1.556,0.241,2.661-0.12,3.677-1.254c0.862-0.969,1.813-1.866,2.755-2.759c2.329-2.207,4.817-4.102,8.271-3.958
				c0.331-0.144,0.676-0.253,1.217-0.38c-0.75,0.045-1.211,0.386-1.752,0.473c-1.475,0.365-2.901,0.186-4.317-0.317
				c-3.079-1.104-6.204-2.065-9.429-2.622c-3.658-0.635-6.798-2.229-9.33-4.973c-0.612-0.661-1.384-1.146-2.079-1.708
				c-2.65-2.414-5.103-5.118-8.857-5.874c-0.453-0.1-0.861-0.291-1.205-0.597c-0.838-1.068-2.737,0.395-3.29-1.369
				c1.517-1.27-0.252-1.228-0.689-1.716c-1.003-2.2,0.89-1.838,1.828-1.812c1.563,0.045,0.82-0.771,0.722-1.399
				c0.048-0.379,0.248-0.631,0.604-0.767c1.632-0.14,2.893,1.41,4.582,0.983c0.559-0.099,0.998-0.563,1.601-0.521
				c0.986,0.196,1.632,0.888,1.904,1.747c1.145,3.559,3.882,5.315,7.15,6.516c2.041,0.827,4.111,1.581,6.074,2.589
				c1.637,0.845,3.392,1.073,5.218,1.067c2.601-0.011,5.229-0.24,7.862,0.581c-0.709-0.504-0.857-1.268-1.076-1.98
				c-0.535-1.748-1.341-3.237-2.874-4.414c-1.764-1.356-1.569-2.648,0.369-3.768c2.463-1.411,4.635-3.301,7.465-4.11
				c4.141-1.178,6.538-0.373,8.946,3.322c0.812,1.363,0.623,2.938,0.965,4.402c0.081,0.35,0.104,0.704,0.087,1.067
				c-0.131,0.969-0.525,1.926-0.071,2.906c0.487,1.123,1.241,2.064,1.949,3.044c0.294,0.384,0.602,0.751,1.019,1.014
				c3,1.719,3.705,4.521,3.747,7.691c0.046,3.488-0.341,6.987,0.252,10.452c0.255,2.491,0.557,4.976,1.074,7.423
				c0.566,2.738,1.533,5.333,2.901,7.774c4.722,8.432,10.125,16.431,15.474,24.513c0.449-0.477,0.3-1.368,1.165-1.396
				c-0.104,5.893,2.49,11.227,3.486,16.886c-0.195,0.162-0.458,0.327-0.662,0.24c-3.712-1.631-7.882-2.513-10.689-5.699
				c-2.441-2.766-5.076-5.3-7.813-7.745c-3.27-2.932-6.516-5.893-8.997-10.151c-1.066,3.186-2.041,5.842-3.565,8.249
				c-0.556,0.883-0.07,1.71,0.288,2.553C432.571,541.09,433.02,544.599,432.746,548.223z"/>
			<path fill="#F37965" d="M470.006,540.778c0.438,6.614,6.086,9.044,10.229,12.669c0.84,0.731,1.988,0.516,3.065,0.416
				c2.465-0.22,3.254,0.428,2.815,2.9c-0.617,3.48,0.058,6.823,0.557,10.202c0.315,0.755-0.021,1.336-0.493,1.883
				c-1.652,1.111-3.428,0.844-5.215,0.464c-0.639-0.328-0.998-0.832-0.974-1.576c0.258-1.127,2.082-1.725,1.282-3.165
				c-1.285-2.314-2.092-5.042-4.664-6.384c-2.382-1.236-4.688-2.601-7.063-3.843c0.542-3.525,0.854-7.058,0.419-10.627
				C469.845,542.75,469.984,541.757,470.006,540.778z"/>
			<path fill="#F37965" d="M435.098,561.561c-0.186-0.536-0.156-1.614-1.086-0.569c-0.92,1.028-1.878,2.068-2.561,3.25
				c-1.005,1.73-2.488,2.225-4.308,2.169c-0.914-0.021-1.948-0.158-2.292-1.079c-0.434-1.159,1-1,1.419-1.573
				c2.166-2.985,3.925-6.111,2.774-10.021c1.346,0.871,2.731,1.696,4.034,2.633C434.854,557.64,435.456,559.425,435.098,561.561z"/>
		</g>
	</g>
</g>
</svg>
